M48
; FORMAT={-:-/ absolute / metric / decimal}
; #@! TF.GenerationSoftware,Kicad,Pcbnew,6.0.10+dfsg-1~bpo11+1
; #@! TF.FileFunction,Plated,1,4,PTH
FMAT,2
METRIC
; #@! TA.AperFunction,Plated,PTH,ViaDrill
T1C0.300
; #@! TA.AperFunction,Plated,PTH,ComponentDrill
T2C0.500
; #@! TA.AperFunction,Plated,PTH,ComponentDrill
T3C0.900
; #@! TA.AperFunction,Plated,PTH,ComponentDrill
T4C1.000
; #@! TA.AperFunction,Plated,PTH,ComponentDrill
T5C1.200
; #@! TA.AperFunction,Plated,PTH,ComponentDrill
T6C3.200
; #@! TA.AperFunction,Plated,PTH,ComponentDrill
T7C4.200
%
G90
G05
T1
X127.462Y-74.638
X128.762Y-72.537
X133.762Y-72.537
X135.797Y-137.103
X135.963Y-136.037
X136.2Y-121.9
X137.1Y-121.0
X137.1Y-123.0
X137.262Y-116.237
X137.862Y-103.637
X137.963Y-121.938
X138.062Y-91.638
X138.062Y-94.237
X138.118Y-125.393
X138.262Y-78.837
X138.262Y-116.237
X138.762Y-72.537
X138.862Y-86.837
X138.862Y-87.638
X138.962Y-78.137
X139.249Y-123.45
X139.262Y-116.237
X139.862Y-94.837
X140.262Y-116.237
X140.562Y-95.474
X140.649Y-125.849
X140.892Y-144.737
X140.892Y-146.537
X141.458Y-83.638
X141.463Y-81.237
X141.463Y-128.838
X141.463Y-129.438
X141.692Y-146.537
X142.093Y-148.338
X142.493Y-146.737
X142.762Y-123.537
X142.762Y-125.037
X142.862Y-83.638
X142.868Y-104.843
X143.05Y-128.037
X143.062Y-116.837
X143.232Y-135.838
X143.262Y-123.037
X143.262Y-125.537
X143.463Y-86.638
X143.463Y-104.237
X143.463Y-114.637
X143.463Y-115.837
X143.662Y-94.637
X143.762Y-123.537
X143.762Y-125.037
X144.062Y-75.638
X144.162Y-79.737
X144.262Y-123.037
X144.262Y-125.537
X144.292Y-146.737
X144.762Y-123.537
X144.762Y-125.037
X144.862Y-94.637
X145.262Y-118.637
X145.262Y-123.037
X145.262Y-125.537
X145.433Y-136.037
X145.662Y-95.237
X145.71Y-128.09
X146.232Y-136.037
X146.463Y-126.637
X146.487Y-140.942
X146.876Y-146.721
X146.892Y-145.137
X147.062Y-82.388
X147.262Y-80.237
X147.262Y-84.137
X147.463Y-114.438
X147.463Y-116.037
X147.463Y-123.637
X147.662Y-127.026
X148.262Y-105.488
X148.262Y-107.037
X148.463Y-89.037
X148.487Y-140.942
X148.493Y-145.137
X148.493Y-146.737
X148.575Y-127.349
X148.954Y-75.644
X149.062Y-122.438
X149.463Y-123.637
X150.114Y-81.186
X150.862Y-122.237
X150.864Y-81.936
X152.06Y-143.042
X153.262Y-114.837
X153.262Y-115.637
X153.262Y-143.037
X153.576Y-109.324
X153.612Y-102.287
X153.662Y-100.837
X153.662Y-106.037
X154.262Y-124.237
X154.762Y-74.537
X154.762Y-76.537
X155.062Y-97.637
X155.112Y-77.388
X155.262Y-124.037
X155.862Y-131.037
X156.662Y-124.237
X156.862Y-132.737
X157.762Y-131.537
X157.862Y-75.237
X157.925Y-88.9
X158.662Y-85.237
X158.662Y-127.237
X158.747Y-75.402
X159.062Y-76.438
X159.062Y-77.037
X159.062Y-97.637
X159.262Y-106.438
X159.262Y-115.037
X159.262Y-115.637
X160.062Y-75.837
X160.062Y-76.438
X160.062Y-77.037
X160.062Y-89.237
X160.062Y-105.837
X160.112Y-131.487
X160.262Y-124.237
X160.463Y-74.237
X161.062Y-75.837
X161.062Y-76.438
X161.062Y-77.037
X161.062Y-139.037
X161.062Y-141.237
X161.262Y-89.037
X161.262Y-124.237
X162.262Y-87.737
X162.463Y-75.638
X162.662Y-139.037
X162.662Y-141.237
X162.762Y-84.037
X162.762Y-85.037
X162.762Y-86.037
X163.009Y-77.702
X163.062Y-94.237
X163.463Y-75.837
X163.463Y-87.737
X163.662Y-139.037
X163.662Y-141.237
X163.762Y-84.037
X163.762Y-85.037
X163.762Y-86.037
X164.262Y-120.637
X164.262Y-122.237
X164.862Y-75.237
X165.262Y-77.438
X165.262Y-84.037
X165.262Y-85.037
X165.262Y-86.037
X165.262Y-139.037
X165.262Y-141.237
X165.718Y-103.983
X165.762Y-117.438
X165.8Y-120.403
X166.062Y-75.438
X166.662Y-87.737
X166.818Y-117.493
X167.062Y-75.237
X167.762Y-76.612
X167.762Y-81.188
X167.762Y-117.537
X167.868Y-120.143
X168.062Y-75.237
X168.262Y-122.337
X168.662Y-139.037
X168.662Y-141.237
X168.762Y-84.037
X168.762Y-85.037
X168.762Y-86.037
X168.762Y-117.537
X168.862Y-120.137
X169.597Y-144.303
X170.262Y-84.037
X170.262Y-85.037
X170.262Y-86.037
X170.463Y-139.037
X170.463Y-141.237
X170.762Y-117.438
X170.862Y-88.837
X170.862Y-93.237
X170.917Y-103.983
X171.062Y-144.037
X171.262Y-137.237
X171.762Y-74.537
X171.762Y-76.537
X173.062Y-73.787
X173.862Y-76.438
X173.862Y-81.738
X174.463Y-121.037
X174.463Y-121.637
X175.062Y-81.738
X175.262Y-121.237
X175.262Y-122.837
X175.713Y-93.087
X175.767Y-81.142
X175.862Y-88.837
X176.463Y-137.637
X176.562Y-89.837
X177.262Y-114.837
X177.262Y-115.637
X178.062Y-72.438
X178.062Y-85.037
X178.062Y-92.837
X178.262Y-136.637
X179.262Y-137.037
X179.463Y-80.638
X179.557Y-95.943
X180.633Y-147.084
X181.062Y-145.537
X181.152Y-96.548
X181.463Y-80.638
X181.563Y-83.938
X181.862Y-145.537
X182.463Y-147.137
X183.062Y-73.638
X183.062Y-77.638
X183.106Y-85.137
X183.262Y-114.837
X183.262Y-115.637
X184.262Y-100.837
X184.463Y-147.338
X184.637Y-149.312
X184.862Y-95.837
X184.862Y-100.037
X185.97Y-95.945
X186.862Y-149.938
X186.862Y-150.737
X187.463Y-80.938
X187.862Y-84.688
X188.062Y-94.237
X188.262Y-92.837
X188.383Y-102.717
X188.462Y-80.938
X188.862Y-143.338
X188.862Y-144.137
X188.862Y-144.938
X188.862Y-149.938
X188.862Y-150.737
X189.062Y-84.688
X189.262Y-88.487
X189.462Y-95.138
X189.462Y-99.688
X190.062Y-85.287
X190.862Y-143.338
X190.862Y-144.137
X190.862Y-144.938
X190.862Y-149.938
X190.862Y-150.737
X190.972Y-119.902
X191.376Y-92.934
X192.177Y-93.343
X192.462Y-102.837
X192.462Y-103.637
X192.862Y-149.938
X192.862Y-150.737
X193.019Y-76.75
X193.046Y-93.109
X193.129Y-148.834
X193.163Y-77.638
X193.262Y-72.237
X193.262Y-145.137
X193.863Y-76.438
X194.062Y-84.888
X194.862Y-149.938
X194.862Y-150.737
X195.938Y-118.737
X197.862Y-149.037
X198.262Y-71.737
X199.262Y-87.487
X203.662Y-149.037
T2
X150.862Y-135.037
X151.565Y-133.34
X151.565Y-136.735
X153.262Y-132.637
X153.262Y-137.438
X154.96Y-133.34
X154.96Y-136.735
X155.662Y-135.037
X180.862Y-135.037
X181.565Y-133.34
X181.565Y-136.735
X183.262Y-132.637
X183.262Y-137.438
X184.96Y-133.34
X184.96Y-136.735
X185.662Y-135.037
T4
X135.292Y-145.002
X135.292Y-147.542
X135.292Y-150.082
X174.275Y-144.137
X176.815Y-144.137
X179.355Y-144.137
X196.662Y-141.197
X196.662Y-143.737
X196.662Y-146.278
T5
X131.12Y-128.805
X131.12Y-132.305
X131.12Y-135.805
X131.12Y-139.305
X205.405Y-128.77
X205.405Y-132.27
X205.405Y-135.77
X205.405Y-139.27
T6
X153.262Y-135.037
X183.262Y-135.037
T7
X153.262Y-90.013
X183.262Y-90.037
T2
G00X164.387Y-118.968
M15
G01X163.688Y-118.968
M16
G05
G00X172.838Y-116.108
M15
G01X172.137Y-116.108
M16
G05
T3
G00X164.183Y-116.037
M15
G01X162.843Y-116.037
M16
G05
G00X173.683Y-119.037
M15
G01X172.343Y-119.037
M16
G05
T0
M30
