%TF.GenerationSoftware,KiCad,Pcbnew,6.0.10+dfsg-1~bpo11+1*%
%TF.ProjectId,project,70726f6a-6563-4742-9e6b-696361645f70,rev?*%
%TF.SameCoordinates,Original*%
%TF.FileFunction,Drillmap*%
%TF.FilePolarity,Positive*%
%FSLAX45Y45*%
G04 Gerber Fmt 4.5, Leading zero omitted, Abs format (unit mm)*
%MOMM*%
%LPD*%
G01*
G04 APERTURE LIST*
%ADD10C,0.100000*%
%ADD11C,0.200000*%
%ADD12C,0.030000*%
%ADD13C,0.050000*%
%ADD14C,0.090000*%
%ADD15C,0.120000*%
%ADD16C,0.320000*%
%ADD17C,0.420000*%
G04 APERTURE END LIST*
D10*
X20826250Y-11153750D02*
G75*
G03*
X20826250Y-11353750I0J-100000D01*
G01*
X12776250Y-7053750D02*
G75*
G03*
X12626250Y-7203750I0J-150000D01*
G01*
X12776250Y-11353750D02*
X12826250Y-11353750D01*
X17226250Y-15053750D02*
G75*
G03*
X17226250Y-14653750I0J200000D01*
G01*
X17126250Y-10913750D02*
G75*
G03*
X17126250Y-10593750I0J160000D01*
G01*
X13326250Y-11353750D02*
X16576250Y-11353750D01*
X17346250Y-10283750D02*
X16306250Y-10283750D01*
X16526250Y-10593750D02*
G75*
G03*
X16526250Y-10913750I0J-160000D01*
G01*
X21026250Y-7203750D02*
G75*
G03*
X20876250Y-7053750I-150000J0D01*
G01*
X12626250Y-9953750D02*
X12626250Y-11003750D01*
X16576250Y-11153750D02*
X13326250Y-11153750D01*
X20026250Y-9853750D02*
X20026250Y-8353750D01*
X20876250Y-15453750D02*
G75*
G03*
X21026250Y-15303750I0J150000D01*
G01*
X20326250Y-11153750D02*
X17076250Y-11153750D01*
X12626250Y-15303750D02*
X12626250Y-11503750D01*
X20076250Y-8303750D02*
X20976250Y-8303750D01*
X21026250Y-11503750D02*
X21026250Y-15303750D01*
X12776250Y-11353750D02*
G75*
G03*
X12626250Y-11503750I0J-150000D01*
G01*
X20876250Y-7053750D02*
X12776250Y-7053750D01*
X18206250Y-10753750D02*
G75*
G03*
X18206250Y-10753750I-180000J0D01*
G01*
X13326250Y-11153750D02*
G75*
G03*
X13326250Y-11353750I0J-100000D01*
G01*
X16256250Y-10233750D02*
X16256250Y-9673750D01*
X17396250Y-9673750D02*
G75*
G03*
X17346250Y-9623750I-50000J0D01*
G01*
X20976250Y-9903750D02*
X20076250Y-9903750D01*
X16306250Y-9623750D02*
G75*
G03*
X16256250Y-9673750I0J-50000D01*
G01*
X15806250Y-10753750D02*
G75*
G03*
X15806250Y-10753750I-180000J0D01*
G01*
X13576250Y-9903750D02*
G75*
G03*
X13626250Y-9853750I0J50000D01*
G01*
X17346250Y-10283750D02*
G75*
G03*
X17396250Y-10233750I0J50000D01*
G01*
X16526250Y-10593750D02*
X17126250Y-10593750D01*
X20026250Y-9853750D02*
G75*
G03*
X20076250Y-9903750I50000J0D01*
G01*
X13576250Y-9903750D02*
X12676250Y-9903750D01*
X17076250Y-11353750D02*
X20326250Y-11353750D01*
X12626250Y-11003750D02*
G75*
G03*
X12776250Y-11153750I150000J0D01*
G01*
X21026250Y-8253750D02*
X21026250Y-7203750D01*
X17226250Y-15053750D02*
X15426250Y-15053750D01*
X12626250Y-8253750D02*
G75*
G03*
X12676250Y-8303750I50000J0D01*
G01*
X20876250Y-11153750D02*
X20826250Y-11153750D01*
X12626250Y-15303750D02*
G75*
G03*
X12776250Y-15453750I150000J0D01*
G01*
X17126250Y-10913750D02*
X16526250Y-10913750D01*
X15426250Y-14653750D02*
X17226250Y-14653750D01*
X16576250Y-11353750D02*
G75*
G03*
X16576250Y-11153750I0J100000D01*
G01*
X12676250Y-9903750D02*
G75*
G03*
X12626250Y-9953750I0J-50000D01*
G01*
X20826250Y-11353750D02*
X20876250Y-11353750D01*
X20076250Y-8303750D02*
G75*
G03*
X20026250Y-8353750I0J-50000D01*
G01*
X20326250Y-11353750D02*
G75*
G03*
X20326250Y-11153750I0J100000D01*
G01*
X17396250Y-9673750D02*
X17396250Y-10233750D01*
X20876250Y-11153750D02*
G75*
G03*
X21026250Y-11003750I0J150000D01*
G01*
X13626250Y-8353750D02*
X13626250Y-9853750D01*
X12826250Y-11353750D02*
G75*
G03*
X12826250Y-11153750I0J100000D01*
G01*
X17076250Y-11153750D02*
G75*
G03*
X17076250Y-11353750I0J-100000D01*
G01*
X12626250Y-7203750D02*
X12626250Y-8253750D01*
X15426250Y-14653750D02*
G75*
G03*
X15426250Y-15053750I0J-200000D01*
G01*
X21026250Y-11503750D02*
G75*
G03*
X20876250Y-11353750I-150000J0D01*
G01*
X20976250Y-8303750D02*
G75*
G03*
X21026250Y-8253750I0J50000D01*
G01*
X13626250Y-8353750D02*
G75*
G03*
X13576250Y-8303750I-50000J0D01*
G01*
X21026250Y-9953750D02*
X21026250Y-11003750D01*
X16306250Y-9623750D02*
X17346250Y-9623750D01*
X12776250Y-11153750D02*
X12826250Y-11153750D01*
X12676250Y-8303750D02*
X13576250Y-8303750D01*
X16256250Y-10233750D02*
G75*
G03*
X16306250Y-10283750I50000J0D01*
G01*
X20876250Y-15453750D02*
X12776250Y-15453750D01*
X21026250Y-9953750D02*
G75*
G03*
X20976250Y-9903750I-50000J0D01*
G01*
D11*
D12*
X12731250Y-7448750D02*
X12761250Y-7478750D01*
X12761250Y-7448750D02*
X12731250Y-7478750D01*
X12861250Y-7238750D02*
X12891250Y-7268750D01*
X12891250Y-7238750D02*
X12861250Y-7268750D01*
X13361250Y-7238750D02*
X13391250Y-7268750D01*
X13391250Y-7238750D02*
X13361250Y-7268750D01*
X13564717Y-13695283D02*
X13594717Y-13725283D01*
X13594717Y-13695283D02*
X13564717Y-13725283D01*
X13581300Y-13588750D02*
X13611300Y-13618750D01*
X13611300Y-13588750D02*
X13581300Y-13618750D01*
X13605000Y-12175000D02*
X13635000Y-12205000D01*
X13635000Y-12175000D02*
X13605000Y-12205000D01*
X13695000Y-12085000D02*
X13725000Y-12115000D01*
X13725000Y-12085000D02*
X13695000Y-12115000D01*
X13695000Y-12285000D02*
X13725000Y-12315000D01*
X13725000Y-12285000D02*
X13695000Y-12315000D01*
X13711250Y-11608750D02*
X13741250Y-11638750D01*
X13741250Y-11608750D02*
X13711250Y-11638750D01*
X13771250Y-10348750D02*
X13801250Y-10378750D01*
X13801250Y-10348750D02*
X13771250Y-10378750D01*
X13781250Y-12178750D02*
X13811250Y-12208750D01*
X13811250Y-12178750D02*
X13781250Y-12208750D01*
X13791250Y-9148750D02*
X13821250Y-9178750D01*
X13821250Y-9148750D02*
X13791250Y-9178750D01*
X13791250Y-9408750D02*
X13821250Y-9438750D01*
X13821250Y-9408750D02*
X13791250Y-9438750D01*
X13796850Y-12524350D02*
X13826850Y-12554350D01*
X13826850Y-12524350D02*
X13796850Y-12554350D01*
X13811250Y-7868750D02*
X13841250Y-7898750D01*
X13841250Y-7868750D02*
X13811250Y-7898750D01*
X13811250Y-11608750D02*
X13841250Y-11638750D01*
X13841250Y-11608750D02*
X13811250Y-11638750D01*
X13861250Y-7238750D02*
X13891250Y-7268750D01*
X13891250Y-7238750D02*
X13861250Y-7268750D01*
X13871250Y-8668750D02*
X13901250Y-8698750D01*
X13901250Y-8668750D02*
X13871250Y-8698750D01*
X13871250Y-8748750D02*
X13901250Y-8778750D01*
X13901250Y-8748750D02*
X13871250Y-8778750D01*
X13881200Y-7798700D02*
X13911200Y-7828700D01*
X13911200Y-7798700D02*
X13881200Y-7828700D01*
X13909896Y-12330050D02*
X13939896Y-12360050D01*
X13939896Y-12330050D02*
X13909896Y-12360050D01*
X13911250Y-11608750D02*
X13941250Y-11638750D01*
X13941250Y-11608750D02*
X13911250Y-11638750D01*
X13971250Y-9468750D02*
X14001250Y-9498750D01*
X14001250Y-9468750D02*
X13971250Y-9498750D01*
X14011250Y-11608750D02*
X14041250Y-11638750D01*
X14041250Y-11608750D02*
X14011250Y-11638750D01*
X14041200Y-9532354D02*
X14071200Y-9562354D01*
X14071200Y-9532354D02*
X14041200Y-9562354D01*
X14049867Y-12569950D02*
X14079867Y-12599950D01*
X14079867Y-12569950D02*
X14049867Y-12599950D01*
X14074250Y-14458750D02*
X14104250Y-14488750D01*
X14104250Y-14458750D02*
X14074250Y-14488750D01*
X14074250Y-14638750D02*
X14104250Y-14668750D01*
X14104250Y-14638750D02*
X14074250Y-14668750D01*
X14130800Y-8348750D02*
X14160800Y-8378750D01*
X14160800Y-8348750D02*
X14130800Y-8378750D01*
X14131250Y-8108750D02*
X14161250Y-8138750D01*
X14161250Y-8108750D02*
X14131250Y-8138750D01*
X14131250Y-12868750D02*
X14161250Y-12898750D01*
X14161250Y-12868750D02*
X14131250Y-12898750D01*
X14131250Y-12928750D02*
X14161250Y-12958750D01*
X14161250Y-12928750D02*
X14131250Y-12958750D01*
X14154250Y-14638750D02*
X14184250Y-14668750D01*
X14184250Y-14638750D02*
X14154250Y-14668750D01*
X14194250Y-14818750D02*
X14224250Y-14848750D01*
X14224250Y-14818750D02*
X14194250Y-14848750D01*
X14234250Y-14658750D02*
X14264250Y-14688750D01*
X14264250Y-14658750D02*
X14234250Y-14688750D01*
X14261250Y-12338750D02*
X14291250Y-12368750D01*
X14291250Y-12338750D02*
X14261250Y-12368750D01*
X14261250Y-12488750D02*
X14291250Y-12518750D01*
X14291250Y-12488750D02*
X14261250Y-12518750D01*
X14271250Y-8348750D02*
X14301250Y-8378750D01*
X14301250Y-8348750D02*
X14271250Y-8378750D01*
X14271788Y-10469288D02*
X14301788Y-10499288D01*
X14301788Y-10469288D02*
X14271788Y-10499288D01*
X14290050Y-12788750D02*
X14320050Y-12818750D01*
X14320050Y-12788750D02*
X14290050Y-12818750D01*
X14291250Y-11668750D02*
X14321250Y-11698750D01*
X14321250Y-11668750D02*
X14291250Y-11698750D01*
X14308250Y-13568750D02*
X14338250Y-13598750D01*
X14338250Y-13568750D02*
X14308250Y-13598750D01*
X14311250Y-12288750D02*
X14341250Y-12318750D01*
X14341250Y-12288750D02*
X14311250Y-12318750D01*
X14311250Y-12538750D02*
X14341250Y-12568750D01*
X14341250Y-12538750D02*
X14311250Y-12568750D01*
X14331250Y-8648750D02*
X14361250Y-8678750D01*
X14361250Y-8648750D02*
X14331250Y-8678750D01*
X14331250Y-10408750D02*
X14361250Y-10438750D01*
X14361250Y-10408750D02*
X14331250Y-10438750D01*
X14331250Y-11448750D02*
X14361250Y-11478750D01*
X14361250Y-11448750D02*
X14331250Y-11478750D01*
X14331250Y-11568750D02*
X14361250Y-11598750D01*
X14361250Y-11568750D02*
X14331250Y-11598750D01*
X14351250Y-9448750D02*
X14381250Y-9478750D01*
X14381250Y-9448750D02*
X14351250Y-9478750D01*
X14361250Y-12338750D02*
X14391250Y-12368750D01*
X14391250Y-12338750D02*
X14361250Y-12368750D01*
X14361250Y-12488750D02*
X14391250Y-12518750D01*
X14391250Y-12488750D02*
X14361250Y-12518750D01*
X14391250Y-7548750D02*
X14421250Y-7578750D01*
X14421250Y-7548750D02*
X14391250Y-7578750D01*
X14401250Y-7958750D02*
X14431250Y-7988750D01*
X14431250Y-7958750D02*
X14401250Y-7988750D01*
X14411250Y-12288750D02*
X14441250Y-12318750D01*
X14441250Y-12288750D02*
X14411250Y-12318750D01*
X14411250Y-12538750D02*
X14441250Y-12568750D01*
X14441250Y-12538750D02*
X14411250Y-12568750D01*
X14414250Y-14658750D02*
X14444250Y-14688750D01*
X14444250Y-14658750D02*
X14414250Y-14688750D01*
X14461250Y-12338750D02*
X14491250Y-12368750D01*
X14491250Y-12338750D02*
X14461250Y-12368750D01*
X14461250Y-12488750D02*
X14491250Y-12518750D01*
X14491250Y-12488750D02*
X14461250Y-12518750D01*
X14471250Y-9448750D02*
X14501250Y-9478750D01*
X14501250Y-9448750D02*
X14471250Y-9478750D01*
X14511250Y-11848750D02*
X14541250Y-11878750D01*
X14541250Y-11848750D02*
X14511250Y-11878750D01*
X14511250Y-12288750D02*
X14541250Y-12318750D01*
X14541250Y-12288750D02*
X14511250Y-12318750D01*
X14511250Y-12538750D02*
X14541250Y-12568750D01*
X14541250Y-12538750D02*
X14511250Y-12568750D01*
X14528250Y-13588750D02*
X14558250Y-13618750D01*
X14558250Y-13588750D02*
X14528250Y-13618750D01*
X14551250Y-9508750D02*
X14581250Y-9538750D01*
X14581250Y-9508750D02*
X14551250Y-9538750D01*
X14556040Y-12793960D02*
X14586040Y-12823960D01*
X14586040Y-12793960D02*
X14556040Y-12823960D01*
X14608250Y-13588750D02*
X14638250Y-13618750D01*
X14638250Y-13588750D02*
X14608250Y-13618750D01*
X14631250Y-12648750D02*
X14661250Y-12678750D01*
X14661250Y-12648750D02*
X14631250Y-12678750D01*
X14633750Y-14079250D02*
X14663750Y-14109250D01*
X14663750Y-14079250D02*
X14633750Y-14109250D01*
X14672625Y-14657125D02*
X14702625Y-14687125D01*
X14702625Y-14657125D02*
X14672625Y-14687125D01*
X14674250Y-14498750D02*
X14704250Y-14528750D01*
X14704250Y-14498750D02*
X14674250Y-14528750D01*
X14691250Y-8223800D02*
X14721250Y-8253800D01*
X14721250Y-8223800D02*
X14691250Y-8253800D01*
X14711250Y-8008750D02*
X14741250Y-8038750D01*
X14741250Y-8008750D02*
X14711250Y-8038750D01*
X14711250Y-8398700D02*
X14741250Y-8428700D01*
X14741250Y-8398700D02*
X14711250Y-8428700D01*
X14731250Y-11428750D02*
X14761250Y-11458750D01*
X14761250Y-11428750D02*
X14731250Y-11458750D01*
X14731250Y-11588750D02*
X14761250Y-11618750D01*
X14761250Y-11588750D02*
X14731250Y-11618750D01*
X14731250Y-12348750D02*
X14761250Y-12378750D01*
X14761250Y-12348750D02*
X14731250Y-12378750D01*
X14751178Y-12687602D02*
X14781178Y-12717602D01*
X14781178Y-12687602D02*
X14751178Y-12717602D01*
X14811250Y-10533800D02*
X14841250Y-10563800D01*
X14841250Y-10533800D02*
X14811250Y-10563800D01*
X14811250Y-10688750D02*
X14841250Y-10718750D01*
X14841250Y-10688750D02*
X14811250Y-10718750D01*
X14831250Y-8888750D02*
X14861250Y-8918750D01*
X14861250Y-8888750D02*
X14831250Y-8918750D01*
X14833750Y-14079250D02*
X14863750Y-14109250D01*
X14863750Y-14079250D02*
X14833750Y-14109250D01*
X14834250Y-14498750D02*
X14864250Y-14528750D01*
X14864250Y-14498750D02*
X14834250Y-14528750D01*
X14834250Y-14658750D02*
X14864250Y-14688750D01*
X14864250Y-14658750D02*
X14834250Y-14688750D01*
X14842450Y-12719950D02*
X14872450Y-12749950D01*
X14872450Y-12719950D02*
X14842450Y-12749950D01*
X14880385Y-7549394D02*
X14910385Y-7579394D01*
X14910385Y-7549394D02*
X14880385Y-7579394D01*
X14891250Y-12228750D02*
X14921250Y-12258750D01*
X14921250Y-12228750D02*
X14891250Y-12258750D01*
X14931250Y-12348750D02*
X14961250Y-12378750D01*
X14961250Y-12348750D02*
X14931250Y-12378750D01*
X14996381Y-8103619D02*
X15026381Y-8133619D01*
X15026381Y-8103619D02*
X14996381Y-8133619D01*
X15071250Y-12208750D02*
X15101250Y-12238750D01*
X15101250Y-12208750D02*
X15071250Y-12238750D01*
X15071406Y-8178644D02*
X15101406Y-8208644D01*
X15101406Y-8178644D02*
X15071406Y-8208644D01*
X15191023Y-14289204D02*
X15221023Y-14319204D01*
X15221023Y-14289204D02*
X15191023Y-14319204D01*
X15311250Y-11468750D02*
X15341250Y-11498750D01*
X15341250Y-11468750D02*
X15311250Y-11498750D01*
X15311250Y-11548750D02*
X15341250Y-11578750D01*
X15341250Y-11548750D02*
X15311250Y-11578750D01*
X15311250Y-14288750D02*
X15341250Y-14318750D01*
X15341250Y-14288750D02*
X15311250Y-14318750D01*
X15342602Y-10917398D02*
X15372602Y-10947398D01*
X15372602Y-10917398D02*
X15342602Y-10947398D01*
X15346250Y-10213750D02*
X15376250Y-10243750D01*
X15376250Y-10213750D02*
X15346250Y-10243750D01*
X15351250Y-10068750D02*
X15381250Y-10098750D01*
X15381250Y-10068750D02*
X15351250Y-10098750D01*
X15351250Y-10588750D02*
X15381250Y-10618750D01*
X15381250Y-10588750D02*
X15351250Y-10618750D01*
X15411250Y-12408750D02*
X15441250Y-12438750D01*
X15441250Y-12408750D02*
X15411250Y-12438750D01*
X15461250Y-7438750D02*
X15491250Y-7468750D01*
X15491250Y-7438750D02*
X15461250Y-7468750D01*
X15461250Y-7638750D02*
X15491250Y-7668750D01*
X15491250Y-7638750D02*
X15461250Y-7668750D01*
X15491250Y-9748750D02*
X15521250Y-9778750D01*
X15521250Y-9748750D02*
X15491250Y-9778750D01*
X15496250Y-7723750D02*
X15526250Y-7753750D01*
X15526250Y-7723750D02*
X15496250Y-7753750D01*
X15511250Y-12388750D02*
X15541250Y-12418750D01*
X15541250Y-12388750D02*
X15511250Y-12418750D01*
X15571250Y-13088750D02*
X15601250Y-13118750D01*
X15601250Y-13088750D02*
X15571250Y-13118750D01*
X15651250Y-12408750D02*
X15681250Y-12438750D01*
X15681250Y-12408750D02*
X15651250Y-12438750D01*
X15671250Y-13258700D02*
X15701250Y-13288700D01*
X15701250Y-13258700D02*
X15671250Y-13288700D01*
X15761250Y-13138750D02*
X15791250Y-13168750D01*
X15791250Y-13138750D02*
X15761250Y-13168750D01*
X15771250Y-7508750D02*
X15801250Y-7538750D01*
X15801250Y-7508750D02*
X15771250Y-7538750D01*
X15777500Y-8875000D02*
X15807500Y-8905000D01*
X15807500Y-8875000D02*
X15777500Y-8905000D01*
X15851250Y-8508750D02*
X15881250Y-8538750D01*
X15881250Y-8508750D02*
X15851250Y-8538750D01*
X15851250Y-12708750D02*
X15881250Y-12738750D01*
X15881250Y-12708750D02*
X15851250Y-12738750D01*
X15859690Y-7525206D02*
X15889690Y-7555206D01*
X15889690Y-7525206D02*
X15859690Y-7555206D01*
X15891250Y-7628750D02*
X15921250Y-7658750D01*
X15921250Y-7628750D02*
X15891250Y-7658750D01*
X15891250Y-7688750D02*
X15921250Y-7718750D01*
X15921250Y-7688750D02*
X15891250Y-7718750D01*
X15891250Y-9748750D02*
X15921250Y-9778750D01*
X15921250Y-9748750D02*
X15891250Y-9778750D01*
X15911250Y-10628750D02*
X15941250Y-10658750D01*
X15941250Y-10628750D02*
X15911250Y-10658750D01*
X15911250Y-11488750D02*
X15941250Y-11518750D01*
X15941250Y-11488750D02*
X15911250Y-11518750D01*
X15911250Y-11548750D02*
X15941250Y-11578750D01*
X15941250Y-11548750D02*
X15911250Y-11578750D01*
X15991250Y-7568750D02*
X16021250Y-7598750D01*
X16021250Y-7568750D02*
X15991250Y-7598750D01*
X15991250Y-7628750D02*
X16021250Y-7658750D01*
X16021250Y-7628750D02*
X15991250Y-7658750D01*
X15991250Y-7688750D02*
X16021250Y-7718750D01*
X16021250Y-7688750D02*
X15991250Y-7718750D01*
X15991250Y-8908750D02*
X16021250Y-8938750D01*
X16021250Y-8908750D02*
X15991250Y-8938750D01*
X15991250Y-10568750D02*
X16021250Y-10598750D01*
X16021250Y-10568750D02*
X15991250Y-10598750D01*
X15996225Y-13133725D02*
X16026225Y-13163725D01*
X16026225Y-13133725D02*
X15996225Y-13163725D01*
X16011250Y-12408750D02*
X16041250Y-12438750D01*
X16041250Y-12408750D02*
X16011250Y-12438750D01*
X16031250Y-7408750D02*
X16061250Y-7438750D01*
X16061250Y-7408750D02*
X16031250Y-7438750D01*
X16091250Y-7568750D02*
X16121250Y-7598750D01*
X16121250Y-7568750D02*
X16091250Y-7598750D01*
X16091250Y-7628750D02*
X16121250Y-7658750D01*
X16121250Y-7628750D02*
X16091250Y-7658750D01*
X16091250Y-7688750D02*
X16121250Y-7718750D01*
X16121250Y-7688750D02*
X16091250Y-7718750D01*
X16091250Y-13888750D02*
X16121250Y-13918750D01*
X16121250Y-13888750D02*
X16091250Y-13918750D01*
X16091250Y-14108750D02*
X16121250Y-14138750D01*
X16121250Y-14108750D02*
X16091250Y-14138750D01*
X16111250Y-8888750D02*
X16141250Y-8918750D01*
X16141250Y-8888750D02*
X16111250Y-8918750D01*
X16111250Y-12408750D02*
X16141250Y-12438750D01*
X16141250Y-12408750D02*
X16111250Y-12438750D01*
X16211250Y-8758700D02*
X16241250Y-8788700D01*
X16241250Y-8758700D02*
X16211250Y-8788700D01*
X16231250Y-7548750D02*
X16261250Y-7578750D01*
X16261250Y-7548750D02*
X16231250Y-7578750D01*
X16251250Y-13888750D02*
X16281250Y-13918750D01*
X16281250Y-13888750D02*
X16251250Y-13918750D01*
X16251250Y-14108750D02*
X16281250Y-14138750D01*
X16281250Y-14108750D02*
X16251250Y-14138750D01*
X16261250Y-8388750D02*
X16291250Y-8418750D01*
X16291250Y-8388750D02*
X16261250Y-8418750D01*
X16261250Y-8488750D02*
X16291250Y-8518750D01*
X16291250Y-8488750D02*
X16261250Y-8518750D01*
X16261250Y-8588750D02*
X16291250Y-8618750D01*
X16291250Y-8588750D02*
X16261250Y-8618750D01*
X16285886Y-7755204D02*
X16315886Y-7785204D01*
X16315886Y-7755204D02*
X16285886Y-7785204D01*
X16291250Y-9408750D02*
X16321250Y-9438750D01*
X16321250Y-9408750D02*
X16291250Y-9438750D01*
X16331250Y-7568750D02*
X16361250Y-7598750D01*
X16361250Y-7568750D02*
X16331250Y-7598750D01*
X16331250Y-8758700D02*
X16361250Y-8788700D01*
X16361250Y-8758700D02*
X16331250Y-8788700D01*
X16351250Y-13888750D02*
X16381250Y-13918750D01*
X16381250Y-13888750D02*
X16351250Y-13918750D01*
X16351250Y-14108750D02*
X16381250Y-14138750D01*
X16381250Y-14108750D02*
X16351250Y-14138750D01*
X16361250Y-8388750D02*
X16391250Y-8418750D01*
X16391250Y-8388750D02*
X16361250Y-8418750D01*
X16361250Y-8488750D02*
X16391250Y-8518750D01*
X16391250Y-8488750D02*
X16361250Y-8518750D01*
X16361250Y-8588750D02*
X16391250Y-8618750D01*
X16391250Y-8588750D02*
X16361250Y-8618750D01*
X16411250Y-12048750D02*
X16441250Y-12078750D01*
X16441250Y-12048750D02*
X16411250Y-12078750D01*
X16411250Y-12208750D02*
X16441250Y-12238750D01*
X16441250Y-12208750D02*
X16411250Y-12238750D01*
X16471250Y-7508750D02*
X16501250Y-7538750D01*
X16501250Y-7508750D02*
X16471250Y-7538750D01*
X16511250Y-7728750D02*
X16541250Y-7758750D01*
X16541250Y-7728750D02*
X16511250Y-7758750D01*
X16511250Y-8388750D02*
X16541250Y-8418750D01*
X16541250Y-8388750D02*
X16511250Y-8418750D01*
X16511250Y-8488750D02*
X16541250Y-8518750D01*
X16541250Y-8488750D02*
X16511250Y-8518750D01*
X16511250Y-8588750D02*
X16541250Y-8618750D01*
X16541250Y-8588750D02*
X16511250Y-8618750D01*
X16511250Y-13888750D02*
X16541250Y-13918750D01*
X16541250Y-13888750D02*
X16511250Y-13918750D01*
X16511250Y-14108750D02*
X16541250Y-14138750D01*
X16541250Y-14108750D02*
X16511250Y-14138750D01*
X16556750Y-10383250D02*
X16586750Y-10413250D01*
X16586750Y-10383250D02*
X16556750Y-10413250D01*
X16561250Y-11728750D02*
X16591250Y-11758750D01*
X16591250Y-11728750D02*
X16561250Y-11758750D01*
X16565000Y-12025283D02*
X16595000Y-12055283D01*
X16595000Y-12025283D02*
X16565000Y-12055283D01*
X16591250Y-7528750D02*
X16621250Y-7558750D01*
X16621250Y-7528750D02*
X16591250Y-7558750D01*
X16651250Y-8758700D02*
X16681250Y-8788700D01*
X16681250Y-8758700D02*
X16651250Y-8788700D01*
X16666788Y-11734288D02*
X16696788Y-11764288D01*
X16696788Y-11734288D02*
X16666788Y-11764288D01*
X16691250Y-7508750D02*
X16721250Y-7538750D01*
X16721250Y-7508750D02*
X16691250Y-7538750D01*
X16761200Y-7646250D02*
X16791200Y-7676250D01*
X16791200Y-7646250D02*
X16761200Y-7676250D01*
X16761200Y-8103800D02*
X16791200Y-8133800D01*
X16791200Y-8103800D02*
X16761200Y-8133800D01*
X16761250Y-11738750D02*
X16791250Y-11768750D01*
X16791250Y-11738750D02*
X16761250Y-11768750D01*
X16771788Y-11999288D02*
X16801788Y-12029288D01*
X16801788Y-11999288D02*
X16771788Y-12029288D01*
X16791250Y-7508750D02*
X16821250Y-7538750D01*
X16821250Y-7508750D02*
X16791250Y-7538750D01*
X16811250Y-12218750D02*
X16841250Y-12248750D01*
X16841250Y-12218750D02*
X16811250Y-12248750D01*
X16851250Y-13888750D02*
X16881250Y-13918750D01*
X16881250Y-13888750D02*
X16851250Y-13918750D01*
X16851250Y-14108750D02*
X16881250Y-14138750D01*
X16881250Y-14108750D02*
X16851250Y-14138750D01*
X16861250Y-8388750D02*
X16891250Y-8418750D01*
X16891250Y-8388750D02*
X16861250Y-8418750D01*
X16861250Y-8488750D02*
X16891250Y-8518750D01*
X16891250Y-8488750D02*
X16861250Y-8518750D01*
X16861250Y-8588750D02*
X16891250Y-8618750D01*
X16891250Y-8588750D02*
X16861250Y-8618750D01*
X16861250Y-11738750D02*
X16891250Y-11768750D01*
X16891250Y-11738750D02*
X16861250Y-11768750D01*
X16871250Y-11998750D02*
X16901250Y-12028750D01*
X16901250Y-11998750D02*
X16871250Y-12028750D01*
X16944717Y-14415283D02*
X16974717Y-14445283D01*
X16974717Y-14415283D02*
X16944717Y-14445283D01*
X17011250Y-8388750D02*
X17041250Y-8418750D01*
X17041250Y-8388750D02*
X17011250Y-8418750D01*
X17011250Y-8488750D02*
X17041250Y-8518750D01*
X17041250Y-8488750D02*
X17011250Y-8518750D01*
X17011250Y-8588750D02*
X17041250Y-8618750D01*
X17041250Y-8588750D02*
X17011250Y-8618750D01*
X17031250Y-13888750D02*
X17061250Y-13918750D01*
X17061250Y-13888750D02*
X17031250Y-13918750D01*
X17031250Y-14108750D02*
X17061250Y-14138750D01*
X17061250Y-14108750D02*
X17031250Y-14138750D01*
X17061250Y-11728750D02*
X17091250Y-11758750D01*
X17091250Y-11728750D02*
X17061250Y-11758750D01*
X17071250Y-8868700D02*
X17101250Y-8898700D01*
X17101250Y-8868700D02*
X17071250Y-8898700D01*
X17071250Y-9308750D02*
X17101250Y-9338750D01*
X17101250Y-9308750D02*
X17071250Y-9338750D01*
X17076750Y-10383250D02*
X17106750Y-10413250D01*
X17106750Y-10383250D02*
X17076750Y-10413250D01*
X17091250Y-14388750D02*
X17121250Y-14418750D01*
X17121250Y-14388750D02*
X17091250Y-14418750D01*
X17111250Y-13708750D02*
X17141250Y-13738750D01*
X17141250Y-13708750D02*
X17111250Y-13738750D01*
X17161250Y-7438750D02*
X17191250Y-7468750D01*
X17191250Y-7438750D02*
X17161250Y-7468750D01*
X17161250Y-7638750D02*
X17191250Y-7668750D01*
X17191250Y-7638750D02*
X17161250Y-7668750D01*
X17291250Y-7363700D02*
X17321250Y-7393700D01*
X17321250Y-7363700D02*
X17291250Y-7393700D01*
X17371250Y-7628750D02*
X17401250Y-7658750D01*
X17401250Y-7628750D02*
X17371250Y-7658750D01*
X17371250Y-8158800D02*
X17401250Y-8188800D01*
X17401250Y-8158800D02*
X17371250Y-8188800D01*
X17431250Y-12088750D02*
X17461250Y-12118750D01*
X17461250Y-12088750D02*
X17431250Y-12118750D01*
X17431250Y-12148750D02*
X17461250Y-12178750D01*
X17461250Y-12148750D02*
X17431250Y-12178750D01*
X17491250Y-8158800D02*
X17521250Y-8188800D01*
X17521250Y-8158800D02*
X17491250Y-8188800D01*
X17511250Y-12108750D02*
X17541250Y-12138750D01*
X17541250Y-12108750D02*
X17511250Y-12138750D01*
X17511250Y-12268750D02*
X17541250Y-12298750D01*
X17541250Y-12268750D02*
X17511250Y-12298750D01*
X17556250Y-9293750D02*
X17586250Y-9323750D01*
X17586250Y-9293750D02*
X17556250Y-9323750D01*
X17561709Y-8099159D02*
X17591709Y-8129159D01*
X17591709Y-8099159D02*
X17561709Y-8129159D01*
X17571250Y-8868750D02*
X17601250Y-8898750D01*
X17601250Y-8868750D02*
X17571250Y-8898750D01*
X17631250Y-13748750D02*
X17661250Y-13778750D01*
X17661250Y-13748750D02*
X17631250Y-13778750D01*
X17641200Y-8968750D02*
X17671200Y-8998750D01*
X17671200Y-8968750D02*
X17641200Y-8998750D01*
X17711250Y-11468750D02*
X17741250Y-11498750D01*
X17741250Y-11468750D02*
X17711250Y-11498750D01*
X17711250Y-11548750D02*
X17741250Y-11578750D01*
X17741250Y-11548750D02*
X17711250Y-11578750D01*
X17791250Y-7228750D02*
X17821250Y-7258750D01*
X17821250Y-7228750D02*
X17791250Y-7258750D01*
X17791250Y-8488750D02*
X17821250Y-8518750D01*
X17821250Y-8488750D02*
X17791250Y-8518750D01*
X17791250Y-9268750D02*
X17821250Y-9298750D01*
X17821250Y-9268750D02*
X17791250Y-9298750D01*
X17811250Y-13648750D02*
X17841250Y-13678750D01*
X17841250Y-13648750D02*
X17811250Y-13678750D01*
X17911250Y-13688750D02*
X17941250Y-13718750D01*
X17941250Y-13688750D02*
X17911250Y-13718750D01*
X17931250Y-8048750D02*
X17961250Y-8078750D01*
X17961250Y-8048750D02*
X17931250Y-8078750D01*
X17940712Y-9579288D02*
X17970712Y-9609288D01*
X17970712Y-9579288D02*
X17940712Y-9609288D01*
X18048346Y-14693356D02*
X18078346Y-14723356D01*
X18078346Y-14693356D02*
X18048346Y-14723356D01*
X18091250Y-14538750D02*
X18121250Y-14568750D01*
X18121250Y-14538750D02*
X18091250Y-14568750D01*
X18100174Y-9639826D02*
X18130174Y-9669826D01*
X18130174Y-9639826D02*
X18100174Y-9669826D01*
X18131250Y-8048750D02*
X18161250Y-8078750D01*
X18161250Y-8048750D02*
X18131250Y-8078750D01*
X18141285Y-8378785D02*
X18171285Y-8408785D01*
X18171285Y-8378785D02*
X18141285Y-8408785D01*
X18171250Y-14538750D02*
X18201250Y-14568750D01*
X18201250Y-14538750D02*
X18171250Y-14568750D01*
X18231250Y-14698750D02*
X18261250Y-14728750D01*
X18261250Y-14698750D02*
X18231250Y-14728750D01*
X18291250Y-7348750D02*
X18321250Y-7378750D01*
X18321250Y-7348750D02*
X18291250Y-7378750D01*
X18291250Y-7748750D02*
X18321250Y-7778750D01*
X18321250Y-7748750D02*
X18291250Y-7778750D01*
X18295565Y-8498700D02*
X18325565Y-8528700D01*
X18325565Y-8498700D02*
X18295565Y-8528700D01*
X18311250Y-11468750D02*
X18341250Y-11498750D01*
X18341250Y-11468750D02*
X18311250Y-11498750D01*
X18311250Y-11548750D02*
X18341250Y-11578750D01*
X18341250Y-11548750D02*
X18311250Y-11578750D01*
X18411250Y-10068750D02*
X18441250Y-10098750D01*
X18441250Y-10068750D02*
X18411250Y-10098750D01*
X18431250Y-14718750D02*
X18461250Y-14748750D01*
X18461250Y-14718750D02*
X18431250Y-14748750D01*
X18448750Y-14916250D02*
X18478750Y-14946250D01*
X18478750Y-14916250D02*
X18448750Y-14946250D01*
X18471250Y-9568750D02*
X18501250Y-9598750D01*
X18501250Y-9568750D02*
X18471250Y-9598750D01*
X18471250Y-9988750D02*
X18501250Y-10018750D01*
X18501250Y-9988750D02*
X18471250Y-10018750D01*
X18581979Y-9579479D02*
X18611979Y-9609479D01*
X18611979Y-9579479D02*
X18581979Y-9609479D01*
X18671250Y-14978750D02*
X18701250Y-15008750D01*
X18701250Y-14978750D02*
X18671250Y-15008750D01*
X18671250Y-15058750D02*
X18701250Y-15088750D01*
X18701250Y-15058750D02*
X18671250Y-15088750D01*
X18731250Y-8078800D02*
X18761250Y-8108800D01*
X18761250Y-8078800D02*
X18731250Y-8108800D01*
X18771250Y-8453750D02*
X18801250Y-8483750D01*
X18801250Y-8453750D02*
X18771250Y-8483750D01*
X18791250Y-9408750D02*
X18821250Y-9438750D01*
X18821250Y-9408750D02*
X18791250Y-9438750D01*
X18811250Y-9268750D02*
X18841250Y-9298750D01*
X18841250Y-9268750D02*
X18811250Y-9298750D01*
X18823286Y-10256714D02*
X18853286Y-10286714D01*
X18853286Y-10256714D02*
X18823286Y-10286714D01*
X18831250Y-8078800D02*
X18861250Y-8108800D01*
X18861250Y-8078800D02*
X18831250Y-8108800D01*
X18871250Y-14318750D02*
X18901250Y-14348750D01*
X18901250Y-14318750D02*
X18871250Y-14348750D01*
X18871250Y-14398750D02*
X18901250Y-14428750D01*
X18901250Y-14398750D02*
X18871250Y-14428750D01*
X18871250Y-14478750D02*
X18901250Y-14508750D01*
X18901250Y-14478750D02*
X18871250Y-14508750D01*
X18871250Y-14978750D02*
X18901250Y-15008750D01*
X18901250Y-14978750D02*
X18871250Y-15008750D01*
X18871250Y-15058750D02*
X18901250Y-15088750D01*
X18901250Y-15058750D02*
X18871250Y-15088750D01*
X18891250Y-8453750D02*
X18921250Y-8483750D01*
X18921250Y-8453750D02*
X18891250Y-8483750D01*
X18911250Y-8833750D02*
X18941250Y-8863750D01*
X18941250Y-8833750D02*
X18911250Y-8863750D01*
X18931250Y-9498800D02*
X18961250Y-9528800D01*
X18961250Y-9498800D02*
X18931250Y-9528800D01*
X18931250Y-9953750D02*
X18961250Y-9983750D01*
X18961250Y-9953750D02*
X18931250Y-9983750D01*
X18991250Y-8513750D02*
X19021250Y-8543750D01*
X19021250Y-8513750D02*
X18991250Y-8543750D01*
X19071250Y-14318750D02*
X19101250Y-14348750D01*
X19101250Y-14318750D02*
X19071250Y-14348750D01*
X19071250Y-14398750D02*
X19101250Y-14428750D01*
X19101250Y-14398750D02*
X19071250Y-14428750D01*
X19071250Y-14478750D02*
X19101250Y-14508750D01*
X19101250Y-14478750D02*
X19071250Y-14508750D01*
X19071250Y-14978750D02*
X19101250Y-15008750D01*
X19101250Y-14978750D02*
X19071250Y-15008750D01*
X19071250Y-15058750D02*
X19101250Y-15088750D01*
X19101250Y-15058750D02*
X19071250Y-15088750D01*
X19082250Y-11975250D02*
X19112250Y-12005250D01*
X19112250Y-11975250D02*
X19082250Y-12005250D01*
X19122626Y-9278396D02*
X19152626Y-9308396D01*
X19152626Y-9278396D02*
X19122626Y-9308396D01*
X19202722Y-9319330D02*
X19232722Y-9349330D01*
X19232722Y-9319330D02*
X19202722Y-9349330D01*
X19231250Y-10268750D02*
X19261250Y-10298750D01*
X19261250Y-10268750D02*
X19231250Y-10298750D01*
X19231250Y-10348750D02*
X19261250Y-10378750D01*
X19261250Y-10348750D02*
X19231250Y-10378750D01*
X19271250Y-14978750D02*
X19301250Y-15008750D01*
X19301250Y-14978750D02*
X19271250Y-15008750D01*
X19271250Y-15058750D02*
X19301250Y-15088750D01*
X19301250Y-15058750D02*
X19271250Y-15088750D01*
X19286939Y-7659962D02*
X19316939Y-7689962D01*
X19316939Y-7659962D02*
X19286939Y-7689962D01*
X19289562Y-9295880D02*
X19319562Y-9325880D01*
X19319562Y-9295880D02*
X19289562Y-9325880D01*
X19297886Y-14868364D02*
X19327886Y-14898364D01*
X19327886Y-14868364D02*
X19297886Y-14898364D01*
X19301350Y-7748750D02*
X19331350Y-7778750D01*
X19331350Y-7748750D02*
X19301350Y-7778750D01*
X19311250Y-7208700D02*
X19341250Y-7238700D01*
X19341250Y-7208700D02*
X19311250Y-7238700D01*
X19311250Y-14498750D02*
X19341250Y-14528750D01*
X19341250Y-14498750D02*
X19311250Y-14528750D01*
X19371300Y-7628750D02*
X19401300Y-7658750D01*
X19401300Y-7628750D02*
X19371300Y-7658750D01*
X19391250Y-8473750D02*
X19421250Y-8503750D01*
X19421250Y-8473750D02*
X19391250Y-8503750D01*
X19471250Y-14978750D02*
X19501250Y-15008750D01*
X19501250Y-14978750D02*
X19471250Y-15008750D01*
X19471250Y-15058750D02*
X19501250Y-15088750D01*
X19501250Y-15058750D02*
X19471250Y-15088750D01*
X19578750Y-11858750D02*
X19608750Y-11888750D01*
X19608750Y-11858750D02*
X19578750Y-11888750D01*
X19771250Y-14888750D02*
X19801250Y-14918750D01*
X19801250Y-14888750D02*
X19771250Y-14918750D01*
X19811250Y-7158700D02*
X19841250Y-7188700D01*
X19841250Y-7158700D02*
X19811250Y-7188700D01*
X19911250Y-8733750D02*
X19941250Y-8763750D01*
X19941250Y-8733750D02*
X19911250Y-8763750D01*
X20351250Y-14888750D02*
X20381250Y-14918750D01*
X20381250Y-14888750D02*
X20351250Y-14918750D01*
D13*
X15111250Y-13503750D02*
G75*
G03*
X15111250Y-13503750I-25000J0D01*
G01*
X15181544Y-13334044D02*
G75*
G03*
X15181544Y-13334044I-25000J0D01*
G01*
X15181544Y-13673456D02*
G75*
G03*
X15181544Y-13673456I-25000J0D01*
G01*
X15351250Y-13263750D02*
G75*
G03*
X15351250Y-13263750I-25000J0D01*
G01*
X15351250Y-13743750D02*
G75*
G03*
X15351250Y-13743750I-25000J0D01*
G01*
X15520956Y-13334044D02*
G75*
G03*
X15520956Y-13334044I-25000J0D01*
G01*
X15520956Y-13673456D02*
G75*
G03*
X15520956Y-13673456I-25000J0D01*
G01*
X15591250Y-13503750D02*
G75*
G03*
X15591250Y-13503750I-25000J0D01*
G01*
X16428750Y-11896750D02*
G75*
G03*
X16428750Y-11896750I-25000J0D01*
G01*
D11*
X16438750Y-11871750D02*
X16368750Y-11871750D01*
X16438750Y-11921750D02*
X16368750Y-11921750D01*
X16368750Y-11871750D02*
G75*
G03*
X16368750Y-11921750I0J-25000D01*
G01*
X16438750Y-11921750D02*
G75*
G03*
X16438750Y-11871750I0J25000D01*
G01*
D13*
X17273750Y-11610750D02*
G75*
G03*
X17273750Y-11610750I-25000J0D01*
G01*
D11*
X17283750Y-11585750D02*
X17213750Y-11585750D01*
X17283750Y-11635750D02*
X17213750Y-11635750D01*
X17213750Y-11585750D02*
G75*
G03*
X17213750Y-11635750I0J-25000D01*
G01*
X17283750Y-11635750D02*
G75*
G03*
X17283750Y-11585750I0J25000D01*
G01*
D13*
X18111250Y-13503750D02*
G75*
G03*
X18111250Y-13503750I-25000J0D01*
G01*
X18181544Y-13334044D02*
G75*
G03*
X18181544Y-13334044I-25000J0D01*
G01*
X18181544Y-13673456D02*
G75*
G03*
X18181544Y-13673456I-25000J0D01*
G01*
X18351250Y-13263750D02*
G75*
G03*
X18351250Y-13263750I-25000J0D01*
G01*
X18351250Y-13743750D02*
G75*
G03*
X18351250Y-13743750I-25000J0D01*
G01*
X18520956Y-13334044D02*
G75*
G03*
X18520956Y-13334044I-25000J0D01*
G01*
X18520956Y-13673456D02*
G75*
G03*
X18520956Y-13673456I-25000J0D01*
G01*
X18591250Y-13503750D02*
G75*
G03*
X18591250Y-13503750I-25000J0D01*
G01*
D14*
X16351250Y-11558750D02*
X16351250Y-11648750D01*
X16306250Y-11603750D02*
X16396250Y-11603750D01*
D11*
X16418250Y-11558750D02*
X16284250Y-11558750D01*
X16418250Y-11648750D02*
X16284250Y-11648750D01*
X16284250Y-11558750D02*
G75*
G03*
X16284250Y-11648750I0J-45000D01*
G01*
X16418250Y-11648750D02*
G75*
G03*
X16418250Y-11558750I0J45000D01*
G01*
D14*
X17301250Y-11858750D02*
X17301250Y-11948750D01*
X17256250Y-11903750D02*
X17346250Y-11903750D01*
D11*
X17368250Y-11858750D02*
X17234250Y-11858750D01*
X17368250Y-11948750D02*
X17234250Y-11948750D01*
X17234250Y-11858750D02*
G75*
G03*
X17234250Y-11948750I0J-45000D01*
G01*
X17368250Y-11948750D02*
G75*
G03*
X17368250Y-11858750I0J45000D01*
G01*
D10*
X13564606Y-14535606D02*
X13564606Y-14464894D01*
X13493894Y-14464894D01*
X13493894Y-14535606D01*
X13564606Y-14535606D01*
X13564606Y-14789606D02*
X13564606Y-14718894D01*
X13493894Y-14718894D01*
X13493894Y-14789606D01*
X13564606Y-14789606D01*
X13564606Y-15043606D02*
X13564606Y-14972894D01*
X13493894Y-14972894D01*
X13493894Y-15043606D01*
X13564606Y-15043606D01*
X17462856Y-14449106D02*
X17462856Y-14378394D01*
X17392144Y-14378394D01*
X17392144Y-14449106D01*
X17462856Y-14449106D01*
X17716856Y-14449106D02*
X17716856Y-14378394D01*
X17646144Y-14378394D01*
X17646144Y-14449106D01*
X17716856Y-14449106D01*
X17970856Y-14449106D02*
X17970856Y-14378394D01*
X17900144Y-14378394D01*
X17900144Y-14449106D01*
X17970856Y-14449106D01*
X19701606Y-14155106D02*
X19701606Y-14084394D01*
X19630894Y-14084394D01*
X19630894Y-14155106D01*
X19701606Y-14155106D01*
X19701606Y-14409106D02*
X19701606Y-14338394D01*
X19630894Y-14338394D01*
X19630894Y-14409106D01*
X19701606Y-14409106D01*
X19701606Y-14663106D02*
X19701606Y-14592394D01*
X19630894Y-14592394D01*
X19630894Y-14663106D01*
X19701606Y-14663106D01*
D15*
X13112000Y-12940500D02*
X13172000Y-12880500D01*
X13112000Y-12820500D01*
X13052000Y-12880500D01*
X13112000Y-12940500D01*
X13112000Y-13290500D02*
X13172000Y-13230500D01*
X13112000Y-13170500D01*
X13052000Y-13230500D01*
X13112000Y-13290500D01*
X13112000Y-13640500D02*
X13172000Y-13580500D01*
X13112000Y-13520500D01*
X13052000Y-13580500D01*
X13112000Y-13640500D01*
X13112000Y-13990500D02*
X13172000Y-13930500D01*
X13112000Y-13870500D01*
X13052000Y-13930500D01*
X13112000Y-13990500D01*
X20540500Y-12937000D02*
X20600500Y-12877000D01*
X20540500Y-12817000D01*
X20480500Y-12877000D01*
X20540500Y-12937000D01*
X20540500Y-13287000D02*
X20600500Y-13227000D01*
X20540500Y-13167000D01*
X20480500Y-13227000D01*
X20540500Y-13287000D01*
X20540500Y-13637000D02*
X20600500Y-13577000D01*
X20540500Y-13517000D01*
X20480500Y-13577000D01*
X20540500Y-13637000D01*
X20540500Y-13987000D02*
X20600500Y-13927000D01*
X20540500Y-13867000D01*
X20480500Y-13927000D01*
X20540500Y-13987000D01*
D16*
X15166250Y-13343750D02*
X15486250Y-13663750D01*
X15486250Y-13343750D02*
X15166250Y-13663750D01*
X15486250Y-13503750D02*
G75*
G03*
X15486250Y-13503750I-160000J0D01*
G01*
X18166250Y-13343750D02*
X18486250Y-13663750D01*
X18486250Y-13343750D02*
X18166250Y-13663750D01*
X18486250Y-13503750D02*
G75*
G03*
X18486250Y-13503750I-160000J0D01*
G01*
D17*
X15116250Y-8791250D02*
X15536250Y-9211250D01*
X15536250Y-8791250D02*
X15116250Y-9211250D01*
X15326250Y-8791250D02*
X15326250Y-9211250D01*
X15116250Y-9001250D02*
X15536250Y-9001250D01*
X18116250Y-8793750D02*
X18536250Y-9213750D01*
X18536250Y-8793750D02*
X18116250Y-9213750D01*
X18326250Y-8793750D02*
X18326250Y-9213750D01*
X18116250Y-9003750D02*
X18536250Y-9003750D01*
D11*
X12878869Y-15769226D02*
X12878869Y-15569226D01*
X12926488Y-15569226D01*
X12955059Y-15578750D01*
X12974107Y-15597798D01*
X12983631Y-15616845D01*
X12993155Y-15654940D01*
X12993155Y-15683512D01*
X12983631Y-15721607D01*
X12974107Y-15740655D01*
X12955059Y-15759702D01*
X12926488Y-15769226D01*
X12878869Y-15769226D01*
X13078869Y-15769226D02*
X13078869Y-15635893D01*
X13078869Y-15673988D02*
X13088393Y-15654940D01*
X13097917Y-15645417D01*
X13116964Y-15635893D01*
X13136012Y-15635893D01*
X13202678Y-15769226D02*
X13202678Y-15635893D01*
X13202678Y-15569226D02*
X13193155Y-15578750D01*
X13202678Y-15588274D01*
X13212202Y-15578750D01*
X13202678Y-15569226D01*
X13202678Y-15588274D01*
X13326488Y-15769226D02*
X13307440Y-15759702D01*
X13297917Y-15740655D01*
X13297917Y-15569226D01*
X13431250Y-15769226D02*
X13412202Y-15759702D01*
X13402678Y-15740655D01*
X13402678Y-15569226D01*
X13659821Y-15769226D02*
X13659821Y-15569226D01*
X13726488Y-15712083D01*
X13793155Y-15569226D01*
X13793155Y-15769226D01*
X13974107Y-15769226D02*
X13974107Y-15664464D01*
X13964583Y-15645417D01*
X13945536Y-15635893D01*
X13907440Y-15635893D01*
X13888393Y-15645417D01*
X13974107Y-15759702D02*
X13955059Y-15769226D01*
X13907440Y-15769226D01*
X13888393Y-15759702D01*
X13878869Y-15740655D01*
X13878869Y-15721607D01*
X13888393Y-15702559D01*
X13907440Y-15693036D01*
X13955059Y-15693036D01*
X13974107Y-15683512D01*
X14069345Y-15635893D02*
X14069345Y-15835893D01*
X14069345Y-15645417D02*
X14088393Y-15635893D01*
X14126488Y-15635893D01*
X14145536Y-15645417D01*
X14155059Y-15654940D01*
X14164583Y-15673988D01*
X14164583Y-15731131D01*
X14155059Y-15750178D01*
X14145536Y-15759702D01*
X14126488Y-15769226D01*
X14088393Y-15769226D01*
X14069345Y-15759702D01*
X14250298Y-15750178D02*
X14259821Y-15759702D01*
X14250298Y-15769226D01*
X14240774Y-15759702D01*
X14250298Y-15750178D01*
X14250298Y-15769226D01*
X14250298Y-15645417D02*
X14259821Y-15654940D01*
X14250298Y-15664464D01*
X14240774Y-15654940D01*
X14250298Y-15645417D01*
X14250298Y-15664464D01*
D12*
X12591250Y-16083750D02*
X12621250Y-16113750D01*
X12621250Y-16083750D02*
X12591250Y-16113750D01*
D11*
X12916964Y-15989226D02*
X12936012Y-15989226D01*
X12955059Y-15998750D01*
X12964583Y-16008274D01*
X12974107Y-16027321D01*
X12983631Y-16065417D01*
X12983631Y-16113036D01*
X12974107Y-16151131D01*
X12964583Y-16170178D01*
X12955059Y-16179702D01*
X12936012Y-16189226D01*
X12916964Y-16189226D01*
X12897917Y-16179702D01*
X12888393Y-16170178D01*
X12878869Y-16151131D01*
X12869345Y-16113036D01*
X12869345Y-16065417D01*
X12878869Y-16027321D01*
X12888393Y-16008274D01*
X12897917Y-15998750D01*
X12916964Y-15989226D01*
X13069345Y-16170178D02*
X13078869Y-16179702D01*
X13069345Y-16189226D01*
X13059821Y-16179702D01*
X13069345Y-16170178D01*
X13069345Y-16189226D01*
X13145536Y-15989226D02*
X13269345Y-15989226D01*
X13202678Y-16065417D01*
X13231250Y-16065417D01*
X13250298Y-16074940D01*
X13259821Y-16084464D01*
X13269345Y-16103512D01*
X13269345Y-16151131D01*
X13259821Y-16170178D01*
X13250298Y-16179702D01*
X13231250Y-16189226D01*
X13174107Y-16189226D01*
X13155059Y-16179702D01*
X13145536Y-16170178D01*
X13393155Y-15989226D02*
X13412202Y-15989226D01*
X13431250Y-15998750D01*
X13440774Y-16008274D01*
X13450298Y-16027321D01*
X13459821Y-16065417D01*
X13459821Y-16113036D01*
X13450298Y-16151131D01*
X13440774Y-16170178D01*
X13431250Y-16179702D01*
X13412202Y-16189226D01*
X13393155Y-16189226D01*
X13374107Y-16179702D01*
X13364583Y-16170178D01*
X13355059Y-16151131D01*
X13345536Y-16113036D01*
X13345536Y-16065417D01*
X13355059Y-16027321D01*
X13364583Y-16008274D01*
X13374107Y-15998750D01*
X13393155Y-15989226D01*
X13583631Y-15989226D02*
X13602678Y-15989226D01*
X13621726Y-15998750D01*
X13631250Y-16008274D01*
X13640774Y-16027321D01*
X13650298Y-16065417D01*
X13650298Y-16113036D01*
X13640774Y-16151131D01*
X13631250Y-16170178D01*
X13621726Y-16179702D01*
X13602678Y-16189226D01*
X13583631Y-16189226D01*
X13564583Y-16179702D01*
X13555059Y-16170178D01*
X13545536Y-16151131D01*
X13536012Y-16113036D01*
X13536012Y-16065417D01*
X13545536Y-16027321D01*
X13555059Y-16008274D01*
X13564583Y-15998750D01*
X13583631Y-15989226D01*
X13736012Y-16189226D02*
X13736012Y-16055893D01*
X13736012Y-16074940D02*
X13745536Y-16065417D01*
X13764583Y-16055893D01*
X13793155Y-16055893D01*
X13812202Y-16065417D01*
X13821726Y-16084464D01*
X13821726Y-16189226D01*
X13821726Y-16084464D02*
X13831250Y-16065417D01*
X13850298Y-16055893D01*
X13878869Y-16055893D01*
X13897917Y-16065417D01*
X13907440Y-16084464D01*
X13907440Y-16189226D01*
X14002678Y-16189226D02*
X14002678Y-16055893D01*
X14002678Y-16074940D02*
X14012202Y-16065417D01*
X14031250Y-16055893D01*
X14059821Y-16055893D01*
X14078869Y-16065417D01*
X14088393Y-16084464D01*
X14088393Y-16189226D01*
X14088393Y-16084464D02*
X14097917Y-16065417D01*
X14116964Y-16055893D01*
X14145536Y-16055893D01*
X14164583Y-16065417D01*
X14174107Y-16084464D01*
X14174107Y-16189226D01*
X14564583Y-15979702D02*
X14393155Y-16236845D01*
X14821726Y-15989226D02*
X14840774Y-15989226D01*
X14859821Y-15998750D01*
X14869345Y-16008274D01*
X14878869Y-16027321D01*
X14888393Y-16065417D01*
X14888393Y-16113036D01*
X14878869Y-16151131D01*
X14869345Y-16170178D01*
X14859821Y-16179702D01*
X14840774Y-16189226D01*
X14821726Y-16189226D01*
X14802678Y-16179702D01*
X14793155Y-16170178D01*
X14783631Y-16151131D01*
X14774107Y-16113036D01*
X14774107Y-16065417D01*
X14783631Y-16027321D01*
X14793155Y-16008274D01*
X14802678Y-15998750D01*
X14821726Y-15989226D01*
X14974107Y-16170178D02*
X14983631Y-16179702D01*
X14974107Y-16189226D01*
X14964583Y-16179702D01*
X14974107Y-16170178D01*
X14974107Y-16189226D01*
X15107440Y-15989226D02*
X15126488Y-15989226D01*
X15145536Y-15998750D01*
X15155059Y-16008274D01*
X15164583Y-16027321D01*
X15174107Y-16065417D01*
X15174107Y-16113036D01*
X15164583Y-16151131D01*
X15155059Y-16170178D01*
X15145536Y-16179702D01*
X15126488Y-16189226D01*
X15107440Y-16189226D01*
X15088393Y-16179702D01*
X15078869Y-16170178D01*
X15069345Y-16151131D01*
X15059821Y-16113036D01*
X15059821Y-16065417D01*
X15069345Y-16027321D01*
X15078869Y-16008274D01*
X15088393Y-15998750D01*
X15107440Y-15989226D01*
X15364583Y-16189226D02*
X15250298Y-16189226D01*
X15307440Y-16189226D02*
X15307440Y-15989226D01*
X15288393Y-16017798D01*
X15269345Y-16036845D01*
X15250298Y-16046369D01*
X15555059Y-16189226D02*
X15440774Y-16189226D01*
X15497917Y-16189226D02*
X15497917Y-15989226D01*
X15478869Y-16017798D01*
X15459821Y-16036845D01*
X15440774Y-16046369D01*
X15669345Y-16074940D02*
X15650298Y-16065417D01*
X15640774Y-16055893D01*
X15631250Y-16036845D01*
X15631250Y-16027321D01*
X15640774Y-16008274D01*
X15650298Y-15998750D01*
X15669345Y-15989226D01*
X15707440Y-15989226D01*
X15726488Y-15998750D01*
X15736012Y-16008274D01*
X15745536Y-16027321D01*
X15745536Y-16036845D01*
X15736012Y-16055893D01*
X15726488Y-16065417D01*
X15707440Y-16074940D01*
X15669345Y-16074940D01*
X15650298Y-16084464D01*
X15640774Y-16093988D01*
X15631250Y-16113036D01*
X15631250Y-16151131D01*
X15640774Y-16170178D01*
X15650298Y-16179702D01*
X15669345Y-16189226D01*
X15707440Y-16189226D01*
X15726488Y-16179702D01*
X15736012Y-16170178D01*
X15745536Y-16151131D01*
X15745536Y-16113036D01*
X15736012Y-16093988D01*
X15726488Y-16084464D01*
X15707440Y-16074940D01*
X15821726Y-15989226D02*
X15821726Y-16027321D01*
X15897917Y-15989226D02*
X15897917Y-16027321D01*
X16193155Y-16265417D02*
X16183631Y-16255893D01*
X16164583Y-16227321D01*
X16155059Y-16208274D01*
X16145536Y-16179702D01*
X16136012Y-16132083D01*
X16136012Y-16093988D01*
X16145536Y-16046369D01*
X16155059Y-16017798D01*
X16164583Y-15998750D01*
X16183631Y-15970178D01*
X16193155Y-15960655D01*
X16259821Y-16008274D02*
X16269345Y-15998750D01*
X16288393Y-15989226D01*
X16336012Y-15989226D01*
X16355059Y-15998750D01*
X16364583Y-16008274D01*
X16374107Y-16027321D01*
X16374107Y-16046369D01*
X16364583Y-16074940D01*
X16250298Y-16189226D01*
X16374107Y-16189226D01*
X16440774Y-15989226D02*
X16574107Y-15989226D01*
X16488393Y-16189226D01*
X16678869Y-16074940D02*
X16659821Y-16065417D01*
X16650298Y-16055893D01*
X16640774Y-16036845D01*
X16640774Y-16027321D01*
X16650298Y-16008274D01*
X16659821Y-15998750D01*
X16678869Y-15989226D01*
X16716964Y-15989226D01*
X16736012Y-15998750D01*
X16745536Y-16008274D01*
X16755059Y-16027321D01*
X16755059Y-16036845D01*
X16745536Y-16055893D01*
X16736012Y-16065417D01*
X16716964Y-16074940D01*
X16678869Y-16074940D01*
X16659821Y-16084464D01*
X16650298Y-16093988D01*
X16640774Y-16113036D01*
X16640774Y-16151131D01*
X16650298Y-16170178D01*
X16659821Y-16179702D01*
X16678869Y-16189226D01*
X16716964Y-16189226D01*
X16736012Y-16179702D01*
X16745536Y-16170178D01*
X16755059Y-16151131D01*
X16755059Y-16113036D01*
X16745536Y-16093988D01*
X16736012Y-16084464D01*
X16716964Y-16074940D01*
X16993155Y-16189226D02*
X16993155Y-15989226D01*
X17078869Y-16189226D02*
X17078869Y-16084464D01*
X17069345Y-16065417D01*
X17050298Y-16055893D01*
X17021726Y-16055893D01*
X17002679Y-16065417D01*
X16993155Y-16074940D01*
X17202679Y-16189226D02*
X17183631Y-16179702D01*
X17174107Y-16170178D01*
X17164583Y-16151131D01*
X17164583Y-16093988D01*
X17174107Y-16074940D01*
X17183631Y-16065417D01*
X17202679Y-16055893D01*
X17231250Y-16055893D01*
X17250298Y-16065417D01*
X17259821Y-16074940D01*
X17269345Y-16093988D01*
X17269345Y-16151131D01*
X17259821Y-16170178D01*
X17250298Y-16179702D01*
X17231250Y-16189226D01*
X17202679Y-16189226D01*
X17383631Y-16189226D02*
X17364583Y-16179702D01*
X17355060Y-16160655D01*
X17355060Y-15989226D01*
X17536012Y-16179702D02*
X17516964Y-16189226D01*
X17478869Y-16189226D01*
X17459821Y-16179702D01*
X17450298Y-16160655D01*
X17450298Y-16084464D01*
X17459821Y-16065417D01*
X17478869Y-16055893D01*
X17516964Y-16055893D01*
X17536012Y-16065417D01*
X17545536Y-16084464D01*
X17545536Y-16103512D01*
X17450298Y-16122559D01*
X17621726Y-16179702D02*
X17640774Y-16189226D01*
X17678869Y-16189226D01*
X17697917Y-16179702D01*
X17707440Y-16160655D01*
X17707440Y-16151131D01*
X17697917Y-16132083D01*
X17678869Y-16122559D01*
X17650298Y-16122559D01*
X17631250Y-16113036D01*
X17621726Y-16093988D01*
X17621726Y-16084464D01*
X17631250Y-16065417D01*
X17650298Y-16055893D01*
X17678869Y-16055893D01*
X17697917Y-16065417D01*
X17774107Y-16265417D02*
X17783631Y-16255893D01*
X17802679Y-16227321D01*
X17812202Y-16208274D01*
X17821726Y-16179702D01*
X17831250Y-16132083D01*
X17831250Y-16093988D01*
X17821726Y-16046369D01*
X17812202Y-16017798D01*
X17802679Y-15998750D01*
X17783631Y-15970178D01*
X17774107Y-15960655D01*
D13*
X12621250Y-16362750D02*
G75*
G03*
X12621250Y-16362750I-25000J0D01*
G01*
D11*
X12916964Y-16253226D02*
X12936012Y-16253226D01*
X12955059Y-16262750D01*
X12964583Y-16272274D01*
X12974107Y-16291321D01*
X12983631Y-16329417D01*
X12983631Y-16377036D01*
X12974107Y-16415131D01*
X12964583Y-16434178D01*
X12955059Y-16443702D01*
X12936012Y-16453226D01*
X12916964Y-16453226D01*
X12897917Y-16443702D01*
X12888393Y-16434178D01*
X12878869Y-16415131D01*
X12869345Y-16377036D01*
X12869345Y-16329417D01*
X12878869Y-16291321D01*
X12888393Y-16272274D01*
X12897917Y-16262750D01*
X12916964Y-16253226D01*
X13069345Y-16434178D02*
X13078869Y-16443702D01*
X13069345Y-16453226D01*
X13059821Y-16443702D01*
X13069345Y-16434178D01*
X13069345Y-16453226D01*
X13259821Y-16253226D02*
X13164583Y-16253226D01*
X13155059Y-16348464D01*
X13164583Y-16338940D01*
X13183631Y-16329417D01*
X13231250Y-16329417D01*
X13250298Y-16338940D01*
X13259821Y-16348464D01*
X13269345Y-16367512D01*
X13269345Y-16415131D01*
X13259821Y-16434178D01*
X13250298Y-16443702D01*
X13231250Y-16453226D01*
X13183631Y-16453226D01*
X13164583Y-16443702D01*
X13155059Y-16434178D01*
X13393155Y-16253226D02*
X13412202Y-16253226D01*
X13431250Y-16262750D01*
X13440774Y-16272274D01*
X13450298Y-16291321D01*
X13459821Y-16329417D01*
X13459821Y-16377036D01*
X13450298Y-16415131D01*
X13440774Y-16434178D01*
X13431250Y-16443702D01*
X13412202Y-16453226D01*
X13393155Y-16453226D01*
X13374107Y-16443702D01*
X13364583Y-16434178D01*
X13355059Y-16415131D01*
X13345536Y-16377036D01*
X13345536Y-16329417D01*
X13355059Y-16291321D01*
X13364583Y-16272274D01*
X13374107Y-16262750D01*
X13393155Y-16253226D01*
X13583631Y-16253226D02*
X13602678Y-16253226D01*
X13621726Y-16262750D01*
X13631250Y-16272274D01*
X13640774Y-16291321D01*
X13650298Y-16329417D01*
X13650298Y-16377036D01*
X13640774Y-16415131D01*
X13631250Y-16434178D01*
X13621726Y-16443702D01*
X13602678Y-16453226D01*
X13583631Y-16453226D01*
X13564583Y-16443702D01*
X13555059Y-16434178D01*
X13545536Y-16415131D01*
X13536012Y-16377036D01*
X13536012Y-16329417D01*
X13545536Y-16291321D01*
X13555059Y-16272274D01*
X13564583Y-16262750D01*
X13583631Y-16253226D01*
X13736012Y-16453226D02*
X13736012Y-16319893D01*
X13736012Y-16338940D02*
X13745536Y-16329417D01*
X13764583Y-16319893D01*
X13793155Y-16319893D01*
X13812202Y-16329417D01*
X13821726Y-16348464D01*
X13821726Y-16453226D01*
X13821726Y-16348464D02*
X13831250Y-16329417D01*
X13850298Y-16319893D01*
X13878869Y-16319893D01*
X13897917Y-16329417D01*
X13907440Y-16348464D01*
X13907440Y-16453226D01*
X14002678Y-16453226D02*
X14002678Y-16319893D01*
X14002678Y-16338940D02*
X14012202Y-16329417D01*
X14031250Y-16319893D01*
X14059821Y-16319893D01*
X14078869Y-16329417D01*
X14088393Y-16348464D01*
X14088393Y-16453226D01*
X14088393Y-16348464D02*
X14097917Y-16329417D01*
X14116964Y-16319893D01*
X14145536Y-16319893D01*
X14164583Y-16329417D01*
X14174107Y-16348464D01*
X14174107Y-16453226D01*
X14564583Y-16243702D02*
X14393155Y-16500845D01*
X14821726Y-16253226D02*
X14840774Y-16253226D01*
X14859821Y-16262750D01*
X14869345Y-16272274D01*
X14878869Y-16291321D01*
X14888393Y-16329417D01*
X14888393Y-16377036D01*
X14878869Y-16415131D01*
X14869345Y-16434178D01*
X14859821Y-16443702D01*
X14840774Y-16453226D01*
X14821726Y-16453226D01*
X14802678Y-16443702D01*
X14793155Y-16434178D01*
X14783631Y-16415131D01*
X14774107Y-16377036D01*
X14774107Y-16329417D01*
X14783631Y-16291321D01*
X14793155Y-16272274D01*
X14802678Y-16262750D01*
X14821726Y-16253226D01*
X14974107Y-16434178D02*
X14983631Y-16443702D01*
X14974107Y-16453226D01*
X14964583Y-16443702D01*
X14974107Y-16434178D01*
X14974107Y-16453226D01*
X15107440Y-16253226D02*
X15126488Y-16253226D01*
X15145536Y-16262750D01*
X15155059Y-16272274D01*
X15164583Y-16291321D01*
X15174107Y-16329417D01*
X15174107Y-16377036D01*
X15164583Y-16415131D01*
X15155059Y-16434178D01*
X15145536Y-16443702D01*
X15126488Y-16453226D01*
X15107440Y-16453226D01*
X15088393Y-16443702D01*
X15078869Y-16434178D01*
X15069345Y-16415131D01*
X15059821Y-16377036D01*
X15059821Y-16329417D01*
X15069345Y-16291321D01*
X15078869Y-16272274D01*
X15088393Y-16262750D01*
X15107440Y-16253226D01*
X15364583Y-16453226D02*
X15250298Y-16453226D01*
X15307440Y-16453226D02*
X15307440Y-16253226D01*
X15288393Y-16281798D01*
X15269345Y-16300845D01*
X15250298Y-16310369D01*
X15459821Y-16453226D02*
X15497917Y-16453226D01*
X15516964Y-16443702D01*
X15526488Y-16434178D01*
X15545536Y-16405607D01*
X15555059Y-16367512D01*
X15555059Y-16291321D01*
X15545536Y-16272274D01*
X15536012Y-16262750D01*
X15516964Y-16253226D01*
X15478869Y-16253226D01*
X15459821Y-16262750D01*
X15450298Y-16272274D01*
X15440774Y-16291321D01*
X15440774Y-16338940D01*
X15450298Y-16357988D01*
X15459821Y-16367512D01*
X15478869Y-16377036D01*
X15516964Y-16377036D01*
X15536012Y-16367512D01*
X15545536Y-16357988D01*
X15555059Y-16338940D01*
X15621726Y-16253226D02*
X15755059Y-16253226D01*
X15669345Y-16453226D01*
X15821726Y-16253226D02*
X15821726Y-16291321D01*
X15897917Y-16253226D02*
X15897917Y-16291321D01*
X16193155Y-16529417D02*
X16183631Y-16519893D01*
X16164583Y-16491321D01*
X16155059Y-16472274D01*
X16145536Y-16443702D01*
X16136012Y-16396083D01*
X16136012Y-16357988D01*
X16145536Y-16310369D01*
X16155059Y-16281798D01*
X16164583Y-16262750D01*
X16183631Y-16234178D01*
X16193155Y-16224655D01*
X16374107Y-16453226D02*
X16259821Y-16453226D01*
X16316964Y-16453226D02*
X16316964Y-16253226D01*
X16297917Y-16281798D01*
X16278869Y-16300845D01*
X16259821Y-16310369D01*
X16545536Y-16253226D02*
X16507440Y-16253226D01*
X16488393Y-16262750D01*
X16478869Y-16272274D01*
X16459821Y-16300845D01*
X16450298Y-16338940D01*
X16450298Y-16415131D01*
X16459821Y-16434178D01*
X16469345Y-16443702D01*
X16488393Y-16453226D01*
X16526488Y-16453226D01*
X16545536Y-16443702D01*
X16555059Y-16434178D01*
X16564583Y-16415131D01*
X16564583Y-16367512D01*
X16555059Y-16348464D01*
X16545536Y-16338940D01*
X16526488Y-16329417D01*
X16488393Y-16329417D01*
X16469345Y-16338940D01*
X16459821Y-16348464D01*
X16450298Y-16367512D01*
X16802679Y-16453226D02*
X16802679Y-16253226D01*
X16888393Y-16453226D02*
X16888393Y-16348464D01*
X16878869Y-16329417D01*
X16859821Y-16319893D01*
X16831250Y-16319893D01*
X16812202Y-16329417D01*
X16802679Y-16338940D01*
X17012202Y-16453226D02*
X16993155Y-16443702D01*
X16983631Y-16434178D01*
X16974107Y-16415131D01*
X16974107Y-16357988D01*
X16983631Y-16338940D01*
X16993155Y-16329417D01*
X17012202Y-16319893D01*
X17040774Y-16319893D01*
X17059821Y-16329417D01*
X17069345Y-16338940D01*
X17078869Y-16357988D01*
X17078869Y-16415131D01*
X17069345Y-16434178D01*
X17059821Y-16443702D01*
X17040774Y-16453226D01*
X17012202Y-16453226D01*
X17193155Y-16453226D02*
X17174107Y-16443702D01*
X17164583Y-16424655D01*
X17164583Y-16253226D01*
X17345536Y-16443702D02*
X17326488Y-16453226D01*
X17288393Y-16453226D01*
X17269345Y-16443702D01*
X17259821Y-16424655D01*
X17259821Y-16348464D01*
X17269345Y-16329417D01*
X17288393Y-16319893D01*
X17326488Y-16319893D01*
X17345536Y-16329417D01*
X17355060Y-16348464D01*
X17355060Y-16367512D01*
X17259821Y-16386559D01*
X17431250Y-16443702D02*
X17450298Y-16453226D01*
X17488393Y-16453226D01*
X17507440Y-16443702D01*
X17516964Y-16424655D01*
X17516964Y-16415131D01*
X17507440Y-16396083D01*
X17488393Y-16386559D01*
X17459821Y-16386559D01*
X17440774Y-16377036D01*
X17431250Y-16357988D01*
X17431250Y-16348464D01*
X17440774Y-16329417D01*
X17459821Y-16319893D01*
X17488393Y-16319893D01*
X17507440Y-16329417D01*
X17755060Y-16377036D02*
X17907440Y-16377036D01*
X17831250Y-16453226D02*
X17831250Y-16300845D01*
X18145536Y-16272274D02*
X18155060Y-16262750D01*
X18174107Y-16253226D01*
X18221726Y-16253226D01*
X18240774Y-16262750D01*
X18250298Y-16272274D01*
X18259821Y-16291321D01*
X18259821Y-16310369D01*
X18250298Y-16338940D01*
X18136012Y-16453226D01*
X18259821Y-16453226D01*
X18488393Y-16443702D02*
X18507440Y-16453226D01*
X18545536Y-16453226D01*
X18564583Y-16443702D01*
X18574107Y-16424655D01*
X18574107Y-16415131D01*
X18564583Y-16396083D01*
X18545536Y-16386559D01*
X18516964Y-16386559D01*
X18497917Y-16377036D01*
X18488393Y-16357988D01*
X18488393Y-16348464D01*
X18497917Y-16329417D01*
X18516964Y-16319893D01*
X18545536Y-16319893D01*
X18564583Y-16329417D01*
X18688393Y-16453226D02*
X18669345Y-16443702D01*
X18659821Y-16424655D01*
X18659821Y-16253226D01*
X18793155Y-16453226D02*
X18774107Y-16443702D01*
X18764583Y-16434178D01*
X18755060Y-16415131D01*
X18755060Y-16357988D01*
X18764583Y-16338940D01*
X18774107Y-16329417D01*
X18793155Y-16319893D01*
X18821726Y-16319893D01*
X18840774Y-16329417D01*
X18850298Y-16338940D01*
X18859821Y-16357988D01*
X18859821Y-16415131D01*
X18850298Y-16434178D01*
X18840774Y-16443702D01*
X18821726Y-16453226D01*
X18793155Y-16453226D01*
X18916964Y-16319893D02*
X18993155Y-16319893D01*
X18945536Y-16253226D02*
X18945536Y-16424655D01*
X18955060Y-16443702D01*
X18974107Y-16453226D01*
X18993155Y-16453226D01*
X19050298Y-16443702D02*
X19069345Y-16453226D01*
X19107440Y-16453226D01*
X19126488Y-16443702D01*
X19136012Y-16424655D01*
X19136012Y-16415131D01*
X19126488Y-16396083D01*
X19107440Y-16386559D01*
X19078869Y-16386559D01*
X19059821Y-16377036D01*
X19050298Y-16357988D01*
X19050298Y-16348464D01*
X19059821Y-16329417D01*
X19078869Y-16319893D01*
X19107440Y-16319893D01*
X19126488Y-16329417D01*
X19202679Y-16529417D02*
X19212202Y-16519893D01*
X19231250Y-16491321D01*
X19240774Y-16472274D01*
X19250298Y-16443702D01*
X19259821Y-16396083D01*
X19259821Y-16357988D01*
X19250298Y-16310369D01*
X19240774Y-16281798D01*
X19231250Y-16262750D01*
X19212202Y-16234178D01*
X19202679Y-16224655D01*
D14*
X12576250Y-16581750D02*
X12576250Y-16671750D01*
X12531250Y-16626750D02*
X12621250Y-16626750D01*
D11*
X12916964Y-16517226D02*
X12936012Y-16517226D01*
X12955059Y-16526750D01*
X12964583Y-16536274D01*
X12974107Y-16555321D01*
X12983631Y-16593417D01*
X12983631Y-16641036D01*
X12974107Y-16679131D01*
X12964583Y-16698178D01*
X12955059Y-16707702D01*
X12936012Y-16717226D01*
X12916964Y-16717226D01*
X12897917Y-16707702D01*
X12888393Y-16698178D01*
X12878869Y-16679131D01*
X12869345Y-16641036D01*
X12869345Y-16593417D01*
X12878869Y-16555321D01*
X12888393Y-16536274D01*
X12897917Y-16526750D01*
X12916964Y-16517226D01*
X13069345Y-16698178D02*
X13078869Y-16707702D01*
X13069345Y-16717226D01*
X13059821Y-16707702D01*
X13069345Y-16698178D01*
X13069345Y-16717226D01*
X13174107Y-16717226D02*
X13212202Y-16717226D01*
X13231250Y-16707702D01*
X13240774Y-16698178D01*
X13259821Y-16669607D01*
X13269345Y-16631512D01*
X13269345Y-16555321D01*
X13259821Y-16536274D01*
X13250298Y-16526750D01*
X13231250Y-16517226D01*
X13193155Y-16517226D01*
X13174107Y-16526750D01*
X13164583Y-16536274D01*
X13155059Y-16555321D01*
X13155059Y-16602940D01*
X13164583Y-16621988D01*
X13174107Y-16631512D01*
X13193155Y-16641036D01*
X13231250Y-16641036D01*
X13250298Y-16631512D01*
X13259821Y-16621988D01*
X13269345Y-16602940D01*
X13393155Y-16517226D02*
X13412202Y-16517226D01*
X13431250Y-16526750D01*
X13440774Y-16536274D01*
X13450298Y-16555321D01*
X13459821Y-16593417D01*
X13459821Y-16641036D01*
X13450298Y-16679131D01*
X13440774Y-16698178D01*
X13431250Y-16707702D01*
X13412202Y-16717226D01*
X13393155Y-16717226D01*
X13374107Y-16707702D01*
X13364583Y-16698178D01*
X13355059Y-16679131D01*
X13345536Y-16641036D01*
X13345536Y-16593417D01*
X13355059Y-16555321D01*
X13364583Y-16536274D01*
X13374107Y-16526750D01*
X13393155Y-16517226D01*
X13583631Y-16517226D02*
X13602678Y-16517226D01*
X13621726Y-16526750D01*
X13631250Y-16536274D01*
X13640774Y-16555321D01*
X13650298Y-16593417D01*
X13650298Y-16641036D01*
X13640774Y-16679131D01*
X13631250Y-16698178D01*
X13621726Y-16707702D01*
X13602678Y-16717226D01*
X13583631Y-16717226D01*
X13564583Y-16707702D01*
X13555059Y-16698178D01*
X13545536Y-16679131D01*
X13536012Y-16641036D01*
X13536012Y-16593417D01*
X13545536Y-16555321D01*
X13555059Y-16536274D01*
X13564583Y-16526750D01*
X13583631Y-16517226D01*
X13736012Y-16717226D02*
X13736012Y-16583893D01*
X13736012Y-16602940D02*
X13745536Y-16593417D01*
X13764583Y-16583893D01*
X13793155Y-16583893D01*
X13812202Y-16593417D01*
X13821726Y-16612464D01*
X13821726Y-16717226D01*
X13821726Y-16612464D02*
X13831250Y-16593417D01*
X13850298Y-16583893D01*
X13878869Y-16583893D01*
X13897917Y-16593417D01*
X13907440Y-16612464D01*
X13907440Y-16717226D01*
X14002678Y-16717226D02*
X14002678Y-16583893D01*
X14002678Y-16602940D02*
X14012202Y-16593417D01*
X14031250Y-16583893D01*
X14059821Y-16583893D01*
X14078869Y-16593417D01*
X14088393Y-16612464D01*
X14088393Y-16717226D01*
X14088393Y-16612464D02*
X14097917Y-16593417D01*
X14116964Y-16583893D01*
X14145536Y-16583893D01*
X14164583Y-16593417D01*
X14174107Y-16612464D01*
X14174107Y-16717226D01*
X14564583Y-16507702D02*
X14393155Y-16764845D01*
X14821726Y-16517226D02*
X14840774Y-16517226D01*
X14859821Y-16526750D01*
X14869345Y-16536274D01*
X14878869Y-16555321D01*
X14888393Y-16593417D01*
X14888393Y-16641036D01*
X14878869Y-16679131D01*
X14869345Y-16698178D01*
X14859821Y-16707702D01*
X14840774Y-16717226D01*
X14821726Y-16717226D01*
X14802678Y-16707702D01*
X14793155Y-16698178D01*
X14783631Y-16679131D01*
X14774107Y-16641036D01*
X14774107Y-16593417D01*
X14783631Y-16555321D01*
X14793155Y-16536274D01*
X14802678Y-16526750D01*
X14821726Y-16517226D01*
X14974107Y-16698178D02*
X14983631Y-16707702D01*
X14974107Y-16717226D01*
X14964583Y-16707702D01*
X14974107Y-16698178D01*
X14974107Y-16717226D01*
X15107440Y-16517226D02*
X15126488Y-16517226D01*
X15145536Y-16526750D01*
X15155059Y-16536274D01*
X15164583Y-16555321D01*
X15174107Y-16593417D01*
X15174107Y-16641036D01*
X15164583Y-16679131D01*
X15155059Y-16698178D01*
X15145536Y-16707702D01*
X15126488Y-16717226D01*
X15107440Y-16717226D01*
X15088393Y-16707702D01*
X15078869Y-16698178D01*
X15069345Y-16679131D01*
X15059821Y-16641036D01*
X15059821Y-16593417D01*
X15069345Y-16555321D01*
X15078869Y-16536274D01*
X15088393Y-16526750D01*
X15107440Y-16517226D01*
X15240774Y-16517226D02*
X15364583Y-16517226D01*
X15297917Y-16593417D01*
X15326488Y-16593417D01*
X15345536Y-16602940D01*
X15355059Y-16612464D01*
X15364583Y-16631512D01*
X15364583Y-16679131D01*
X15355059Y-16698178D01*
X15345536Y-16707702D01*
X15326488Y-16717226D01*
X15269345Y-16717226D01*
X15250298Y-16707702D01*
X15240774Y-16698178D01*
X15545536Y-16517226D02*
X15450298Y-16517226D01*
X15440774Y-16612464D01*
X15450298Y-16602940D01*
X15469345Y-16593417D01*
X15516964Y-16593417D01*
X15536012Y-16602940D01*
X15545536Y-16612464D01*
X15555059Y-16631512D01*
X15555059Y-16679131D01*
X15545536Y-16698178D01*
X15536012Y-16707702D01*
X15516964Y-16717226D01*
X15469345Y-16717226D01*
X15450298Y-16707702D01*
X15440774Y-16698178D01*
X15726488Y-16583893D02*
X15726488Y-16717226D01*
X15678869Y-16507702D02*
X15631250Y-16650559D01*
X15755059Y-16650559D01*
X15821726Y-16517226D02*
X15821726Y-16555321D01*
X15897917Y-16517226D02*
X15897917Y-16555321D01*
X16193155Y-16793417D02*
X16183631Y-16783893D01*
X16164583Y-16755321D01*
X16155059Y-16736274D01*
X16145536Y-16707702D01*
X16136012Y-16660083D01*
X16136012Y-16621988D01*
X16145536Y-16574369D01*
X16155059Y-16545798D01*
X16164583Y-16526750D01*
X16183631Y-16498178D01*
X16193155Y-16488655D01*
X16307440Y-16517226D02*
X16326488Y-16517226D01*
X16345536Y-16526750D01*
X16355059Y-16536274D01*
X16364583Y-16555321D01*
X16374107Y-16593417D01*
X16374107Y-16641036D01*
X16364583Y-16679131D01*
X16355059Y-16698178D01*
X16345536Y-16707702D01*
X16326488Y-16717226D01*
X16307440Y-16717226D01*
X16288393Y-16707702D01*
X16278869Y-16698178D01*
X16269345Y-16679131D01*
X16259821Y-16641036D01*
X16259821Y-16593417D01*
X16269345Y-16555321D01*
X16278869Y-16536274D01*
X16288393Y-16526750D01*
X16307440Y-16517226D01*
X16612202Y-16717226D02*
X16612202Y-16517226D01*
X16697917Y-16717226D02*
X16697917Y-16612464D01*
X16688393Y-16593417D01*
X16669345Y-16583893D01*
X16640774Y-16583893D01*
X16621726Y-16593417D01*
X16612202Y-16602940D01*
X16821726Y-16717226D02*
X16802679Y-16707702D01*
X16793155Y-16698178D01*
X16783631Y-16679131D01*
X16783631Y-16621988D01*
X16793155Y-16602940D01*
X16802679Y-16593417D01*
X16821726Y-16583893D01*
X16850298Y-16583893D01*
X16869345Y-16593417D01*
X16878869Y-16602940D01*
X16888393Y-16621988D01*
X16888393Y-16679131D01*
X16878869Y-16698178D01*
X16869345Y-16707702D01*
X16850298Y-16717226D01*
X16821726Y-16717226D01*
X17002679Y-16717226D02*
X16983631Y-16707702D01*
X16974107Y-16688655D01*
X16974107Y-16517226D01*
X17155060Y-16707702D02*
X17136012Y-16717226D01*
X17097917Y-16717226D01*
X17078869Y-16707702D01*
X17069345Y-16688655D01*
X17069345Y-16612464D01*
X17078869Y-16593417D01*
X17097917Y-16583893D01*
X17136012Y-16583893D01*
X17155060Y-16593417D01*
X17164583Y-16612464D01*
X17164583Y-16631512D01*
X17069345Y-16650559D01*
X17240774Y-16707702D02*
X17259821Y-16717226D01*
X17297917Y-16717226D01*
X17316964Y-16707702D01*
X17326488Y-16688655D01*
X17326488Y-16679131D01*
X17316964Y-16660083D01*
X17297917Y-16650559D01*
X17269345Y-16650559D01*
X17250298Y-16641036D01*
X17240774Y-16621988D01*
X17240774Y-16612464D01*
X17250298Y-16593417D01*
X17269345Y-16583893D01*
X17297917Y-16583893D01*
X17316964Y-16593417D01*
X17564583Y-16641036D02*
X17716964Y-16641036D01*
X17640774Y-16717226D02*
X17640774Y-16564845D01*
X17955060Y-16536274D02*
X17964583Y-16526750D01*
X17983631Y-16517226D01*
X18031250Y-16517226D01*
X18050298Y-16526750D01*
X18059821Y-16536274D01*
X18069345Y-16555321D01*
X18069345Y-16574369D01*
X18059821Y-16602940D01*
X17945536Y-16717226D01*
X18069345Y-16717226D01*
X18297917Y-16707702D02*
X18316964Y-16717226D01*
X18355060Y-16717226D01*
X18374107Y-16707702D01*
X18383631Y-16688655D01*
X18383631Y-16679131D01*
X18374107Y-16660083D01*
X18355060Y-16650559D01*
X18326488Y-16650559D01*
X18307440Y-16641036D01*
X18297917Y-16621988D01*
X18297917Y-16612464D01*
X18307440Y-16593417D01*
X18326488Y-16583893D01*
X18355060Y-16583893D01*
X18374107Y-16593417D01*
X18497917Y-16717226D02*
X18478869Y-16707702D01*
X18469345Y-16688655D01*
X18469345Y-16517226D01*
X18602679Y-16717226D02*
X18583631Y-16707702D01*
X18574107Y-16698178D01*
X18564583Y-16679131D01*
X18564583Y-16621988D01*
X18574107Y-16602940D01*
X18583631Y-16593417D01*
X18602679Y-16583893D01*
X18631250Y-16583893D01*
X18650298Y-16593417D01*
X18659821Y-16602940D01*
X18669345Y-16621988D01*
X18669345Y-16679131D01*
X18659821Y-16698178D01*
X18650298Y-16707702D01*
X18631250Y-16717226D01*
X18602679Y-16717226D01*
X18726488Y-16583893D02*
X18802679Y-16583893D01*
X18755060Y-16517226D02*
X18755060Y-16688655D01*
X18764583Y-16707702D01*
X18783631Y-16717226D01*
X18802679Y-16717226D01*
X18859821Y-16707702D02*
X18878869Y-16717226D01*
X18916964Y-16717226D01*
X18936012Y-16707702D01*
X18945536Y-16688655D01*
X18945536Y-16679131D01*
X18936012Y-16660083D01*
X18916964Y-16650559D01*
X18888393Y-16650559D01*
X18869345Y-16641036D01*
X18859821Y-16621988D01*
X18859821Y-16612464D01*
X18869345Y-16593417D01*
X18888393Y-16583893D01*
X18916964Y-16583893D01*
X18936012Y-16593417D01*
X19012202Y-16793417D02*
X19021726Y-16783893D01*
X19040774Y-16755321D01*
X19050298Y-16736274D01*
X19059821Y-16707702D01*
X19069345Y-16660083D01*
X19069345Y-16621988D01*
X19059821Y-16574369D01*
X19050298Y-16545798D01*
X19040774Y-16526750D01*
X19021726Y-16498178D01*
X19012202Y-16488655D01*
D10*
X12606606Y-16926106D02*
X12606606Y-16855394D01*
X12535894Y-16855394D01*
X12535894Y-16926106D01*
X12606606Y-16926106D01*
D11*
X12983631Y-16981226D02*
X12869345Y-16981226D01*
X12926488Y-16981226D02*
X12926488Y-16781226D01*
X12907440Y-16809798D01*
X12888393Y-16828845D01*
X12869345Y-16838369D01*
X13069345Y-16962179D02*
X13078869Y-16971702D01*
X13069345Y-16981226D01*
X13059821Y-16971702D01*
X13069345Y-16962179D01*
X13069345Y-16981226D01*
X13202678Y-16781226D02*
X13221726Y-16781226D01*
X13240774Y-16790750D01*
X13250298Y-16800274D01*
X13259821Y-16819321D01*
X13269345Y-16857417D01*
X13269345Y-16905036D01*
X13259821Y-16943131D01*
X13250298Y-16962179D01*
X13240774Y-16971702D01*
X13221726Y-16981226D01*
X13202678Y-16981226D01*
X13183631Y-16971702D01*
X13174107Y-16962179D01*
X13164583Y-16943131D01*
X13155059Y-16905036D01*
X13155059Y-16857417D01*
X13164583Y-16819321D01*
X13174107Y-16800274D01*
X13183631Y-16790750D01*
X13202678Y-16781226D01*
X13393155Y-16781226D02*
X13412202Y-16781226D01*
X13431250Y-16790750D01*
X13440774Y-16800274D01*
X13450298Y-16819321D01*
X13459821Y-16857417D01*
X13459821Y-16905036D01*
X13450298Y-16943131D01*
X13440774Y-16962179D01*
X13431250Y-16971702D01*
X13412202Y-16981226D01*
X13393155Y-16981226D01*
X13374107Y-16971702D01*
X13364583Y-16962179D01*
X13355059Y-16943131D01*
X13345536Y-16905036D01*
X13345536Y-16857417D01*
X13355059Y-16819321D01*
X13364583Y-16800274D01*
X13374107Y-16790750D01*
X13393155Y-16781226D01*
X13583631Y-16781226D02*
X13602678Y-16781226D01*
X13621726Y-16790750D01*
X13631250Y-16800274D01*
X13640774Y-16819321D01*
X13650298Y-16857417D01*
X13650298Y-16905036D01*
X13640774Y-16943131D01*
X13631250Y-16962179D01*
X13621726Y-16971702D01*
X13602678Y-16981226D01*
X13583631Y-16981226D01*
X13564583Y-16971702D01*
X13555059Y-16962179D01*
X13545536Y-16943131D01*
X13536012Y-16905036D01*
X13536012Y-16857417D01*
X13545536Y-16819321D01*
X13555059Y-16800274D01*
X13564583Y-16790750D01*
X13583631Y-16781226D01*
X13736012Y-16981226D02*
X13736012Y-16847893D01*
X13736012Y-16866940D02*
X13745536Y-16857417D01*
X13764583Y-16847893D01*
X13793155Y-16847893D01*
X13812202Y-16857417D01*
X13821726Y-16876464D01*
X13821726Y-16981226D01*
X13821726Y-16876464D02*
X13831250Y-16857417D01*
X13850298Y-16847893D01*
X13878869Y-16847893D01*
X13897917Y-16857417D01*
X13907440Y-16876464D01*
X13907440Y-16981226D01*
X14002678Y-16981226D02*
X14002678Y-16847893D01*
X14002678Y-16866940D02*
X14012202Y-16857417D01*
X14031250Y-16847893D01*
X14059821Y-16847893D01*
X14078869Y-16857417D01*
X14088393Y-16876464D01*
X14088393Y-16981226D01*
X14088393Y-16876464D02*
X14097917Y-16857417D01*
X14116964Y-16847893D01*
X14145536Y-16847893D01*
X14164583Y-16857417D01*
X14174107Y-16876464D01*
X14174107Y-16981226D01*
X14564583Y-16771702D02*
X14393155Y-17028845D01*
X14821726Y-16781226D02*
X14840774Y-16781226D01*
X14859821Y-16790750D01*
X14869345Y-16800274D01*
X14878869Y-16819321D01*
X14888393Y-16857417D01*
X14888393Y-16905036D01*
X14878869Y-16943131D01*
X14869345Y-16962179D01*
X14859821Y-16971702D01*
X14840774Y-16981226D01*
X14821726Y-16981226D01*
X14802678Y-16971702D01*
X14793155Y-16962179D01*
X14783631Y-16943131D01*
X14774107Y-16905036D01*
X14774107Y-16857417D01*
X14783631Y-16819321D01*
X14793155Y-16800274D01*
X14802678Y-16790750D01*
X14821726Y-16781226D01*
X14974107Y-16962179D02*
X14983631Y-16971702D01*
X14974107Y-16981226D01*
X14964583Y-16971702D01*
X14974107Y-16962179D01*
X14974107Y-16981226D01*
X15107440Y-16781226D02*
X15126488Y-16781226D01*
X15145536Y-16790750D01*
X15155059Y-16800274D01*
X15164583Y-16819321D01*
X15174107Y-16857417D01*
X15174107Y-16905036D01*
X15164583Y-16943131D01*
X15155059Y-16962179D01*
X15145536Y-16971702D01*
X15126488Y-16981226D01*
X15107440Y-16981226D01*
X15088393Y-16971702D01*
X15078869Y-16962179D01*
X15069345Y-16943131D01*
X15059821Y-16905036D01*
X15059821Y-16857417D01*
X15069345Y-16819321D01*
X15078869Y-16800274D01*
X15088393Y-16790750D01*
X15107440Y-16781226D01*
X15240774Y-16781226D02*
X15364583Y-16781226D01*
X15297917Y-16857417D01*
X15326488Y-16857417D01*
X15345536Y-16866940D01*
X15355059Y-16876464D01*
X15364583Y-16895512D01*
X15364583Y-16943131D01*
X15355059Y-16962179D01*
X15345536Y-16971702D01*
X15326488Y-16981226D01*
X15269345Y-16981226D01*
X15250298Y-16971702D01*
X15240774Y-16962179D01*
X15459821Y-16981226D02*
X15497917Y-16981226D01*
X15516964Y-16971702D01*
X15526488Y-16962179D01*
X15545536Y-16933607D01*
X15555059Y-16895512D01*
X15555059Y-16819321D01*
X15545536Y-16800274D01*
X15536012Y-16790750D01*
X15516964Y-16781226D01*
X15478869Y-16781226D01*
X15459821Y-16790750D01*
X15450298Y-16800274D01*
X15440774Y-16819321D01*
X15440774Y-16866940D01*
X15450298Y-16885988D01*
X15459821Y-16895512D01*
X15478869Y-16905036D01*
X15516964Y-16905036D01*
X15536012Y-16895512D01*
X15545536Y-16885988D01*
X15555059Y-16866940D01*
X15726488Y-16847893D02*
X15726488Y-16981226D01*
X15678869Y-16771702D02*
X15631250Y-16914560D01*
X15755059Y-16914560D01*
X15821726Y-16781226D02*
X15821726Y-16819321D01*
X15897917Y-16781226D02*
X15897917Y-16819321D01*
X16193155Y-17057417D02*
X16183631Y-17047893D01*
X16164583Y-17019321D01*
X16155059Y-17000274D01*
X16145536Y-16971702D01*
X16136012Y-16924083D01*
X16136012Y-16885988D01*
X16145536Y-16838369D01*
X16155059Y-16809798D01*
X16164583Y-16790750D01*
X16183631Y-16762178D01*
X16193155Y-16752655D01*
X16278869Y-16981226D02*
X16316964Y-16981226D01*
X16336012Y-16971702D01*
X16345536Y-16962179D01*
X16364583Y-16933607D01*
X16374107Y-16895512D01*
X16374107Y-16819321D01*
X16364583Y-16800274D01*
X16355059Y-16790750D01*
X16336012Y-16781226D01*
X16297917Y-16781226D01*
X16278869Y-16790750D01*
X16269345Y-16800274D01*
X16259821Y-16819321D01*
X16259821Y-16866940D01*
X16269345Y-16885988D01*
X16278869Y-16895512D01*
X16297917Y-16905036D01*
X16336012Y-16905036D01*
X16355059Y-16895512D01*
X16364583Y-16885988D01*
X16374107Y-16866940D01*
X16612202Y-16981226D02*
X16612202Y-16781226D01*
X16697917Y-16981226D02*
X16697917Y-16876464D01*
X16688393Y-16857417D01*
X16669345Y-16847893D01*
X16640774Y-16847893D01*
X16621726Y-16857417D01*
X16612202Y-16866940D01*
X16821726Y-16981226D02*
X16802679Y-16971702D01*
X16793155Y-16962179D01*
X16783631Y-16943131D01*
X16783631Y-16885988D01*
X16793155Y-16866940D01*
X16802679Y-16857417D01*
X16821726Y-16847893D01*
X16850298Y-16847893D01*
X16869345Y-16857417D01*
X16878869Y-16866940D01*
X16888393Y-16885988D01*
X16888393Y-16943131D01*
X16878869Y-16962179D01*
X16869345Y-16971702D01*
X16850298Y-16981226D01*
X16821726Y-16981226D01*
X17002679Y-16981226D02*
X16983631Y-16971702D01*
X16974107Y-16952655D01*
X16974107Y-16781226D01*
X17155060Y-16971702D02*
X17136012Y-16981226D01*
X17097917Y-16981226D01*
X17078869Y-16971702D01*
X17069345Y-16952655D01*
X17069345Y-16876464D01*
X17078869Y-16857417D01*
X17097917Y-16847893D01*
X17136012Y-16847893D01*
X17155060Y-16857417D01*
X17164583Y-16876464D01*
X17164583Y-16895512D01*
X17069345Y-16914560D01*
X17240774Y-16971702D02*
X17259821Y-16981226D01*
X17297917Y-16981226D01*
X17316964Y-16971702D01*
X17326488Y-16952655D01*
X17326488Y-16943131D01*
X17316964Y-16924083D01*
X17297917Y-16914560D01*
X17269345Y-16914560D01*
X17250298Y-16905036D01*
X17240774Y-16885988D01*
X17240774Y-16876464D01*
X17250298Y-16857417D01*
X17269345Y-16847893D01*
X17297917Y-16847893D01*
X17316964Y-16857417D01*
X17393155Y-17057417D02*
X17402679Y-17047893D01*
X17421726Y-17019321D01*
X17431250Y-17000274D01*
X17440774Y-16971702D01*
X17450298Y-16924083D01*
X17450298Y-16885988D01*
X17440774Y-16838369D01*
X17431250Y-16809798D01*
X17421726Y-16790750D01*
X17402679Y-16762178D01*
X17393155Y-16752655D01*
D15*
X12561250Y-17214750D02*
X12621250Y-17154750D01*
X12561250Y-17094750D01*
X12501250Y-17154750D01*
X12561250Y-17214750D01*
D11*
X12983631Y-17245226D02*
X12869345Y-17245226D01*
X12926488Y-17245226D02*
X12926488Y-17045226D01*
X12907440Y-17073798D01*
X12888393Y-17092845D01*
X12869345Y-17102369D01*
X13069345Y-17226179D02*
X13078869Y-17235702D01*
X13069345Y-17245226D01*
X13059821Y-17235702D01*
X13069345Y-17226179D01*
X13069345Y-17245226D01*
X13155059Y-17064274D02*
X13164583Y-17054750D01*
X13183631Y-17045226D01*
X13231250Y-17045226D01*
X13250298Y-17054750D01*
X13259821Y-17064274D01*
X13269345Y-17083321D01*
X13269345Y-17102369D01*
X13259821Y-17130940D01*
X13145536Y-17245226D01*
X13269345Y-17245226D01*
X13393155Y-17045226D02*
X13412202Y-17045226D01*
X13431250Y-17054750D01*
X13440774Y-17064274D01*
X13450298Y-17083321D01*
X13459821Y-17121417D01*
X13459821Y-17169036D01*
X13450298Y-17207131D01*
X13440774Y-17226179D01*
X13431250Y-17235702D01*
X13412202Y-17245226D01*
X13393155Y-17245226D01*
X13374107Y-17235702D01*
X13364583Y-17226179D01*
X13355059Y-17207131D01*
X13345536Y-17169036D01*
X13345536Y-17121417D01*
X13355059Y-17083321D01*
X13364583Y-17064274D01*
X13374107Y-17054750D01*
X13393155Y-17045226D01*
X13583631Y-17045226D02*
X13602678Y-17045226D01*
X13621726Y-17054750D01*
X13631250Y-17064274D01*
X13640774Y-17083321D01*
X13650298Y-17121417D01*
X13650298Y-17169036D01*
X13640774Y-17207131D01*
X13631250Y-17226179D01*
X13621726Y-17235702D01*
X13602678Y-17245226D01*
X13583631Y-17245226D01*
X13564583Y-17235702D01*
X13555059Y-17226179D01*
X13545536Y-17207131D01*
X13536012Y-17169036D01*
X13536012Y-17121417D01*
X13545536Y-17083321D01*
X13555059Y-17064274D01*
X13564583Y-17054750D01*
X13583631Y-17045226D01*
X13736012Y-17245226D02*
X13736012Y-17111893D01*
X13736012Y-17130940D02*
X13745536Y-17121417D01*
X13764583Y-17111893D01*
X13793155Y-17111893D01*
X13812202Y-17121417D01*
X13821726Y-17140464D01*
X13821726Y-17245226D01*
X13821726Y-17140464D02*
X13831250Y-17121417D01*
X13850298Y-17111893D01*
X13878869Y-17111893D01*
X13897917Y-17121417D01*
X13907440Y-17140464D01*
X13907440Y-17245226D01*
X14002678Y-17245226D02*
X14002678Y-17111893D01*
X14002678Y-17130940D02*
X14012202Y-17121417D01*
X14031250Y-17111893D01*
X14059821Y-17111893D01*
X14078869Y-17121417D01*
X14088393Y-17140464D01*
X14088393Y-17245226D01*
X14088393Y-17140464D02*
X14097917Y-17121417D01*
X14116964Y-17111893D01*
X14145536Y-17111893D01*
X14164583Y-17121417D01*
X14174107Y-17140464D01*
X14174107Y-17245226D01*
X14564583Y-17035702D02*
X14393155Y-17292845D01*
X14821726Y-17045226D02*
X14840774Y-17045226D01*
X14859821Y-17054750D01*
X14869345Y-17064274D01*
X14878869Y-17083321D01*
X14888393Y-17121417D01*
X14888393Y-17169036D01*
X14878869Y-17207131D01*
X14869345Y-17226179D01*
X14859821Y-17235702D01*
X14840774Y-17245226D01*
X14821726Y-17245226D01*
X14802678Y-17235702D01*
X14793155Y-17226179D01*
X14783631Y-17207131D01*
X14774107Y-17169036D01*
X14774107Y-17121417D01*
X14783631Y-17083321D01*
X14793155Y-17064274D01*
X14802678Y-17054750D01*
X14821726Y-17045226D01*
X14974107Y-17226179D02*
X14983631Y-17235702D01*
X14974107Y-17245226D01*
X14964583Y-17235702D01*
X14974107Y-17226179D01*
X14974107Y-17245226D01*
X15107440Y-17045226D02*
X15126488Y-17045226D01*
X15145536Y-17054750D01*
X15155059Y-17064274D01*
X15164583Y-17083321D01*
X15174107Y-17121417D01*
X15174107Y-17169036D01*
X15164583Y-17207131D01*
X15155059Y-17226179D01*
X15145536Y-17235702D01*
X15126488Y-17245226D01*
X15107440Y-17245226D01*
X15088393Y-17235702D01*
X15078869Y-17226179D01*
X15069345Y-17207131D01*
X15059821Y-17169036D01*
X15059821Y-17121417D01*
X15069345Y-17083321D01*
X15078869Y-17064274D01*
X15088393Y-17054750D01*
X15107440Y-17045226D01*
X15345536Y-17111893D02*
X15345536Y-17245226D01*
X15297917Y-17035702D02*
X15250298Y-17178560D01*
X15374107Y-17178560D01*
X15431250Y-17045226D02*
X15564583Y-17045226D01*
X15478869Y-17245226D01*
X15631250Y-17064274D02*
X15640774Y-17054750D01*
X15659821Y-17045226D01*
X15707440Y-17045226D01*
X15726488Y-17054750D01*
X15736012Y-17064274D01*
X15745536Y-17083321D01*
X15745536Y-17102369D01*
X15736012Y-17130940D01*
X15621726Y-17245226D01*
X15745536Y-17245226D01*
X15821726Y-17045226D02*
X15821726Y-17083321D01*
X15897917Y-17045226D02*
X15897917Y-17083321D01*
X16193155Y-17321417D02*
X16183631Y-17311893D01*
X16164583Y-17283321D01*
X16155059Y-17264274D01*
X16145536Y-17235702D01*
X16136012Y-17188083D01*
X16136012Y-17149988D01*
X16145536Y-17102369D01*
X16155059Y-17073798D01*
X16164583Y-17054750D01*
X16183631Y-17026179D01*
X16193155Y-17016655D01*
X16297917Y-17130940D02*
X16278869Y-17121417D01*
X16269345Y-17111893D01*
X16259821Y-17092845D01*
X16259821Y-17083321D01*
X16269345Y-17064274D01*
X16278869Y-17054750D01*
X16297917Y-17045226D01*
X16336012Y-17045226D01*
X16355059Y-17054750D01*
X16364583Y-17064274D01*
X16374107Y-17083321D01*
X16374107Y-17092845D01*
X16364583Y-17111893D01*
X16355059Y-17121417D01*
X16336012Y-17130940D01*
X16297917Y-17130940D01*
X16278869Y-17140464D01*
X16269345Y-17149988D01*
X16259821Y-17169036D01*
X16259821Y-17207131D01*
X16269345Y-17226179D01*
X16278869Y-17235702D01*
X16297917Y-17245226D01*
X16336012Y-17245226D01*
X16355059Y-17235702D01*
X16364583Y-17226179D01*
X16374107Y-17207131D01*
X16374107Y-17169036D01*
X16364583Y-17149988D01*
X16355059Y-17140464D01*
X16336012Y-17130940D01*
X16612202Y-17245226D02*
X16612202Y-17045226D01*
X16697917Y-17245226D02*
X16697917Y-17140464D01*
X16688393Y-17121417D01*
X16669345Y-17111893D01*
X16640774Y-17111893D01*
X16621726Y-17121417D01*
X16612202Y-17130940D01*
X16821726Y-17245226D02*
X16802679Y-17235702D01*
X16793155Y-17226179D01*
X16783631Y-17207131D01*
X16783631Y-17149988D01*
X16793155Y-17130940D01*
X16802679Y-17121417D01*
X16821726Y-17111893D01*
X16850298Y-17111893D01*
X16869345Y-17121417D01*
X16878869Y-17130940D01*
X16888393Y-17149988D01*
X16888393Y-17207131D01*
X16878869Y-17226179D01*
X16869345Y-17235702D01*
X16850298Y-17245226D01*
X16821726Y-17245226D01*
X17002679Y-17245226D02*
X16983631Y-17235702D01*
X16974107Y-17216655D01*
X16974107Y-17045226D01*
X17155060Y-17235702D02*
X17136012Y-17245226D01*
X17097917Y-17245226D01*
X17078869Y-17235702D01*
X17069345Y-17216655D01*
X17069345Y-17140464D01*
X17078869Y-17121417D01*
X17097917Y-17111893D01*
X17136012Y-17111893D01*
X17155060Y-17121417D01*
X17164583Y-17140464D01*
X17164583Y-17159512D01*
X17069345Y-17178560D01*
X17240774Y-17235702D02*
X17259821Y-17245226D01*
X17297917Y-17245226D01*
X17316964Y-17235702D01*
X17326488Y-17216655D01*
X17326488Y-17207131D01*
X17316964Y-17188083D01*
X17297917Y-17178560D01*
X17269345Y-17178560D01*
X17250298Y-17169036D01*
X17240774Y-17149988D01*
X17240774Y-17140464D01*
X17250298Y-17121417D01*
X17269345Y-17111893D01*
X17297917Y-17111893D01*
X17316964Y-17121417D01*
X17393155Y-17321417D02*
X17402679Y-17311893D01*
X17421726Y-17283321D01*
X17431250Y-17264274D01*
X17440774Y-17235702D01*
X17450298Y-17188083D01*
X17450298Y-17149988D01*
X17440774Y-17102369D01*
X17431250Y-17073798D01*
X17421726Y-17054750D01*
X17402679Y-17026179D01*
X17393155Y-17016655D01*
X12421250Y-17318750D02*
X12621250Y-17518750D01*
X12621250Y-17318750D02*
X12421250Y-17518750D01*
X12621250Y-17418750D02*
G75*
G03*
X12621250Y-17418750I-100000J0D01*
G01*
X12859821Y-17309226D02*
X12983631Y-17309226D01*
X12916964Y-17385417D01*
X12945536Y-17385417D01*
X12964583Y-17394940D01*
X12974107Y-17404464D01*
X12983631Y-17423512D01*
X12983631Y-17471131D01*
X12974107Y-17490179D01*
X12964583Y-17499702D01*
X12945536Y-17509226D01*
X12888393Y-17509226D01*
X12869345Y-17499702D01*
X12859821Y-17490179D01*
X13069345Y-17490179D02*
X13078869Y-17499702D01*
X13069345Y-17509226D01*
X13059821Y-17499702D01*
X13069345Y-17490179D01*
X13069345Y-17509226D01*
X13155059Y-17328274D02*
X13164583Y-17318750D01*
X13183631Y-17309226D01*
X13231250Y-17309226D01*
X13250298Y-17318750D01*
X13259821Y-17328274D01*
X13269345Y-17347321D01*
X13269345Y-17366369D01*
X13259821Y-17394940D01*
X13145536Y-17509226D01*
X13269345Y-17509226D01*
X13393155Y-17309226D02*
X13412202Y-17309226D01*
X13431250Y-17318750D01*
X13440774Y-17328274D01*
X13450298Y-17347321D01*
X13459821Y-17385417D01*
X13459821Y-17433036D01*
X13450298Y-17471131D01*
X13440774Y-17490179D01*
X13431250Y-17499702D01*
X13412202Y-17509226D01*
X13393155Y-17509226D01*
X13374107Y-17499702D01*
X13364583Y-17490179D01*
X13355059Y-17471131D01*
X13345536Y-17433036D01*
X13345536Y-17385417D01*
X13355059Y-17347321D01*
X13364583Y-17328274D01*
X13374107Y-17318750D01*
X13393155Y-17309226D01*
X13583631Y-17309226D02*
X13602678Y-17309226D01*
X13621726Y-17318750D01*
X13631250Y-17328274D01*
X13640774Y-17347321D01*
X13650298Y-17385417D01*
X13650298Y-17433036D01*
X13640774Y-17471131D01*
X13631250Y-17490179D01*
X13621726Y-17499702D01*
X13602678Y-17509226D01*
X13583631Y-17509226D01*
X13564583Y-17499702D01*
X13555059Y-17490179D01*
X13545536Y-17471131D01*
X13536012Y-17433036D01*
X13536012Y-17385417D01*
X13545536Y-17347321D01*
X13555059Y-17328274D01*
X13564583Y-17318750D01*
X13583631Y-17309226D01*
X13736012Y-17509226D02*
X13736012Y-17375893D01*
X13736012Y-17394940D02*
X13745536Y-17385417D01*
X13764583Y-17375893D01*
X13793155Y-17375893D01*
X13812202Y-17385417D01*
X13821726Y-17404464D01*
X13821726Y-17509226D01*
X13821726Y-17404464D02*
X13831250Y-17385417D01*
X13850298Y-17375893D01*
X13878869Y-17375893D01*
X13897917Y-17385417D01*
X13907440Y-17404464D01*
X13907440Y-17509226D01*
X14002678Y-17509226D02*
X14002678Y-17375893D01*
X14002678Y-17394940D02*
X14012202Y-17385417D01*
X14031250Y-17375893D01*
X14059821Y-17375893D01*
X14078869Y-17385417D01*
X14088393Y-17404464D01*
X14088393Y-17509226D01*
X14088393Y-17404464D02*
X14097917Y-17385417D01*
X14116964Y-17375893D01*
X14145536Y-17375893D01*
X14164583Y-17385417D01*
X14174107Y-17404464D01*
X14174107Y-17509226D01*
X14564583Y-17299702D02*
X14393155Y-17556845D01*
X14821726Y-17309226D02*
X14840774Y-17309226D01*
X14859821Y-17318750D01*
X14869345Y-17328274D01*
X14878869Y-17347321D01*
X14888393Y-17385417D01*
X14888393Y-17433036D01*
X14878869Y-17471131D01*
X14869345Y-17490179D01*
X14859821Y-17499702D01*
X14840774Y-17509226D01*
X14821726Y-17509226D01*
X14802678Y-17499702D01*
X14793155Y-17490179D01*
X14783631Y-17471131D01*
X14774107Y-17433036D01*
X14774107Y-17385417D01*
X14783631Y-17347321D01*
X14793155Y-17328274D01*
X14802678Y-17318750D01*
X14821726Y-17309226D01*
X14974107Y-17490179D02*
X14983631Y-17499702D01*
X14974107Y-17509226D01*
X14964583Y-17499702D01*
X14974107Y-17490179D01*
X14974107Y-17509226D01*
X15174107Y-17509226D02*
X15059821Y-17509226D01*
X15116964Y-17509226D02*
X15116964Y-17309226D01*
X15097917Y-17337798D01*
X15078869Y-17356845D01*
X15059821Y-17366369D01*
X15250298Y-17328274D02*
X15259821Y-17318750D01*
X15278869Y-17309226D01*
X15326488Y-17309226D01*
X15345536Y-17318750D01*
X15355059Y-17328274D01*
X15364583Y-17347321D01*
X15364583Y-17366369D01*
X15355059Y-17394940D01*
X15240774Y-17509226D01*
X15364583Y-17509226D01*
X15536012Y-17309226D02*
X15497917Y-17309226D01*
X15478869Y-17318750D01*
X15469345Y-17328274D01*
X15450298Y-17356845D01*
X15440774Y-17394940D01*
X15440774Y-17471131D01*
X15450298Y-17490179D01*
X15459821Y-17499702D01*
X15478869Y-17509226D01*
X15516964Y-17509226D01*
X15536012Y-17499702D01*
X15545536Y-17490179D01*
X15555059Y-17471131D01*
X15555059Y-17423512D01*
X15545536Y-17404464D01*
X15536012Y-17394940D01*
X15516964Y-17385417D01*
X15478869Y-17385417D01*
X15459821Y-17394940D01*
X15450298Y-17404464D01*
X15440774Y-17423512D01*
X15678869Y-17309226D02*
X15697917Y-17309226D01*
X15716964Y-17318750D01*
X15726488Y-17328274D01*
X15736012Y-17347321D01*
X15745536Y-17385417D01*
X15745536Y-17433036D01*
X15736012Y-17471131D01*
X15726488Y-17490179D01*
X15716964Y-17499702D01*
X15697917Y-17509226D01*
X15678869Y-17509226D01*
X15659821Y-17499702D01*
X15650298Y-17490179D01*
X15640774Y-17471131D01*
X15631250Y-17433036D01*
X15631250Y-17385417D01*
X15640774Y-17347321D01*
X15650298Y-17328274D01*
X15659821Y-17318750D01*
X15678869Y-17309226D01*
X15821726Y-17309226D02*
X15821726Y-17347321D01*
X15897917Y-17309226D02*
X15897917Y-17347321D01*
X16193155Y-17585417D02*
X16183631Y-17575893D01*
X16164583Y-17547321D01*
X16155059Y-17528274D01*
X16145536Y-17499702D01*
X16136012Y-17452083D01*
X16136012Y-17413988D01*
X16145536Y-17366369D01*
X16155059Y-17337798D01*
X16164583Y-17318750D01*
X16183631Y-17290179D01*
X16193155Y-17280655D01*
X16259821Y-17328274D02*
X16269345Y-17318750D01*
X16288393Y-17309226D01*
X16336012Y-17309226D01*
X16355059Y-17318750D01*
X16364583Y-17328274D01*
X16374107Y-17347321D01*
X16374107Y-17366369D01*
X16364583Y-17394940D01*
X16250298Y-17509226D01*
X16374107Y-17509226D01*
X16612202Y-17509226D02*
X16612202Y-17309226D01*
X16697917Y-17509226D02*
X16697917Y-17404464D01*
X16688393Y-17385417D01*
X16669345Y-17375893D01*
X16640774Y-17375893D01*
X16621726Y-17385417D01*
X16612202Y-17394940D01*
X16821726Y-17509226D02*
X16802679Y-17499702D01*
X16793155Y-17490179D01*
X16783631Y-17471131D01*
X16783631Y-17413988D01*
X16793155Y-17394940D01*
X16802679Y-17385417D01*
X16821726Y-17375893D01*
X16850298Y-17375893D01*
X16869345Y-17385417D01*
X16878869Y-17394940D01*
X16888393Y-17413988D01*
X16888393Y-17471131D01*
X16878869Y-17490179D01*
X16869345Y-17499702D01*
X16850298Y-17509226D01*
X16821726Y-17509226D01*
X17002679Y-17509226D02*
X16983631Y-17499702D01*
X16974107Y-17480655D01*
X16974107Y-17309226D01*
X17155060Y-17499702D02*
X17136012Y-17509226D01*
X17097917Y-17509226D01*
X17078869Y-17499702D01*
X17069345Y-17480655D01*
X17069345Y-17404464D01*
X17078869Y-17385417D01*
X17097917Y-17375893D01*
X17136012Y-17375893D01*
X17155060Y-17385417D01*
X17164583Y-17404464D01*
X17164583Y-17423512D01*
X17069345Y-17442560D01*
X17240774Y-17499702D02*
X17259821Y-17509226D01*
X17297917Y-17509226D01*
X17316964Y-17499702D01*
X17326488Y-17480655D01*
X17326488Y-17471131D01*
X17316964Y-17452083D01*
X17297917Y-17442560D01*
X17269345Y-17442560D01*
X17250298Y-17433036D01*
X17240774Y-17413988D01*
X17240774Y-17404464D01*
X17250298Y-17385417D01*
X17269345Y-17375893D01*
X17297917Y-17375893D01*
X17316964Y-17385417D01*
X17393155Y-17585417D02*
X17402679Y-17575893D01*
X17421726Y-17547321D01*
X17431250Y-17528274D01*
X17440774Y-17499702D01*
X17450298Y-17452083D01*
X17450298Y-17413988D01*
X17440774Y-17366369D01*
X17431250Y-17337798D01*
X17421726Y-17318750D01*
X17402679Y-17290179D01*
X17393155Y-17280655D01*
X12421250Y-17638750D02*
X12621250Y-17838750D01*
X12621250Y-17638750D02*
X12421250Y-17838750D01*
X12521250Y-17638750D02*
X12521250Y-17838750D01*
X12421250Y-17738750D02*
X12621250Y-17738750D01*
X12964583Y-17695893D02*
X12964583Y-17829226D01*
X12916964Y-17619702D02*
X12869345Y-17762560D01*
X12993155Y-17762560D01*
X13069345Y-17810179D02*
X13078869Y-17819702D01*
X13069345Y-17829226D01*
X13059821Y-17819702D01*
X13069345Y-17810179D01*
X13069345Y-17829226D01*
X13155059Y-17648274D02*
X13164583Y-17638750D01*
X13183631Y-17629226D01*
X13231250Y-17629226D01*
X13250298Y-17638750D01*
X13259821Y-17648274D01*
X13269345Y-17667321D01*
X13269345Y-17686369D01*
X13259821Y-17714940D01*
X13145536Y-17829226D01*
X13269345Y-17829226D01*
X13393155Y-17629226D02*
X13412202Y-17629226D01*
X13431250Y-17638750D01*
X13440774Y-17648274D01*
X13450298Y-17667321D01*
X13459821Y-17705417D01*
X13459821Y-17753036D01*
X13450298Y-17791131D01*
X13440774Y-17810179D01*
X13431250Y-17819702D01*
X13412202Y-17829226D01*
X13393155Y-17829226D01*
X13374107Y-17819702D01*
X13364583Y-17810179D01*
X13355059Y-17791131D01*
X13345536Y-17753036D01*
X13345536Y-17705417D01*
X13355059Y-17667321D01*
X13364583Y-17648274D01*
X13374107Y-17638750D01*
X13393155Y-17629226D01*
X13583631Y-17629226D02*
X13602678Y-17629226D01*
X13621726Y-17638750D01*
X13631250Y-17648274D01*
X13640774Y-17667321D01*
X13650298Y-17705417D01*
X13650298Y-17753036D01*
X13640774Y-17791131D01*
X13631250Y-17810179D01*
X13621726Y-17819702D01*
X13602678Y-17829226D01*
X13583631Y-17829226D01*
X13564583Y-17819702D01*
X13555059Y-17810179D01*
X13545536Y-17791131D01*
X13536012Y-17753036D01*
X13536012Y-17705417D01*
X13545536Y-17667321D01*
X13555059Y-17648274D01*
X13564583Y-17638750D01*
X13583631Y-17629226D01*
X13736012Y-17829226D02*
X13736012Y-17695893D01*
X13736012Y-17714940D02*
X13745536Y-17705417D01*
X13764583Y-17695893D01*
X13793155Y-17695893D01*
X13812202Y-17705417D01*
X13821726Y-17724464D01*
X13821726Y-17829226D01*
X13821726Y-17724464D02*
X13831250Y-17705417D01*
X13850298Y-17695893D01*
X13878869Y-17695893D01*
X13897917Y-17705417D01*
X13907440Y-17724464D01*
X13907440Y-17829226D01*
X14002678Y-17829226D02*
X14002678Y-17695893D01*
X14002678Y-17714940D02*
X14012202Y-17705417D01*
X14031250Y-17695893D01*
X14059821Y-17695893D01*
X14078869Y-17705417D01*
X14088393Y-17724464D01*
X14088393Y-17829226D01*
X14088393Y-17724464D02*
X14097917Y-17705417D01*
X14116964Y-17695893D01*
X14145536Y-17695893D01*
X14164583Y-17705417D01*
X14174107Y-17724464D01*
X14174107Y-17829226D01*
X14564583Y-17619702D02*
X14393155Y-17876845D01*
X14821726Y-17629226D02*
X14840774Y-17629226D01*
X14859821Y-17638750D01*
X14869345Y-17648274D01*
X14878869Y-17667321D01*
X14888393Y-17705417D01*
X14888393Y-17753036D01*
X14878869Y-17791131D01*
X14869345Y-17810179D01*
X14859821Y-17819702D01*
X14840774Y-17829226D01*
X14821726Y-17829226D01*
X14802678Y-17819702D01*
X14793155Y-17810179D01*
X14783631Y-17791131D01*
X14774107Y-17753036D01*
X14774107Y-17705417D01*
X14783631Y-17667321D01*
X14793155Y-17648274D01*
X14802678Y-17638750D01*
X14821726Y-17629226D01*
X14974107Y-17810179D02*
X14983631Y-17819702D01*
X14974107Y-17829226D01*
X14964583Y-17819702D01*
X14974107Y-17810179D01*
X14974107Y-17829226D01*
X15174107Y-17829226D02*
X15059821Y-17829226D01*
X15116964Y-17829226D02*
X15116964Y-17629226D01*
X15097917Y-17657798D01*
X15078869Y-17676845D01*
X15059821Y-17686369D01*
X15345536Y-17629226D02*
X15307440Y-17629226D01*
X15288393Y-17638750D01*
X15278869Y-17648274D01*
X15259821Y-17676845D01*
X15250298Y-17714940D01*
X15250298Y-17791131D01*
X15259821Y-17810179D01*
X15269345Y-17819702D01*
X15288393Y-17829226D01*
X15326488Y-17829226D01*
X15345536Y-17819702D01*
X15355059Y-17810179D01*
X15364583Y-17791131D01*
X15364583Y-17743512D01*
X15355059Y-17724464D01*
X15345536Y-17714940D01*
X15326488Y-17705417D01*
X15288393Y-17705417D01*
X15269345Y-17714940D01*
X15259821Y-17724464D01*
X15250298Y-17743512D01*
X15545536Y-17629226D02*
X15450298Y-17629226D01*
X15440774Y-17724464D01*
X15450298Y-17714940D01*
X15469345Y-17705417D01*
X15516964Y-17705417D01*
X15536012Y-17714940D01*
X15545536Y-17724464D01*
X15555059Y-17743512D01*
X15555059Y-17791131D01*
X15545536Y-17810179D01*
X15536012Y-17819702D01*
X15516964Y-17829226D01*
X15469345Y-17829226D01*
X15450298Y-17819702D01*
X15440774Y-17810179D01*
X15726488Y-17695893D02*
X15726488Y-17829226D01*
X15678869Y-17619702D02*
X15631250Y-17762560D01*
X15755059Y-17762560D01*
X15821726Y-17629226D02*
X15821726Y-17667321D01*
X15897917Y-17629226D02*
X15897917Y-17667321D01*
X16193155Y-17905417D02*
X16183631Y-17895893D01*
X16164583Y-17867321D01*
X16155059Y-17848274D01*
X16145536Y-17819702D01*
X16136012Y-17772083D01*
X16136012Y-17733988D01*
X16145536Y-17686369D01*
X16155059Y-17657798D01*
X16164583Y-17638750D01*
X16183631Y-17610179D01*
X16193155Y-17600655D01*
X16259821Y-17648274D02*
X16269345Y-17638750D01*
X16288393Y-17629226D01*
X16336012Y-17629226D01*
X16355059Y-17638750D01*
X16364583Y-17648274D01*
X16374107Y-17667321D01*
X16374107Y-17686369D01*
X16364583Y-17714940D01*
X16250298Y-17829226D01*
X16374107Y-17829226D01*
X16612202Y-17829226D02*
X16612202Y-17629226D01*
X16697917Y-17829226D02*
X16697917Y-17724464D01*
X16688393Y-17705417D01*
X16669345Y-17695893D01*
X16640774Y-17695893D01*
X16621726Y-17705417D01*
X16612202Y-17714940D01*
X16821726Y-17829226D02*
X16802679Y-17819702D01*
X16793155Y-17810179D01*
X16783631Y-17791131D01*
X16783631Y-17733988D01*
X16793155Y-17714940D01*
X16802679Y-17705417D01*
X16821726Y-17695893D01*
X16850298Y-17695893D01*
X16869345Y-17705417D01*
X16878869Y-17714940D01*
X16888393Y-17733988D01*
X16888393Y-17791131D01*
X16878869Y-17810179D01*
X16869345Y-17819702D01*
X16850298Y-17829226D01*
X16821726Y-17829226D01*
X17002679Y-17829226D02*
X16983631Y-17819702D01*
X16974107Y-17800655D01*
X16974107Y-17629226D01*
X17155060Y-17819702D02*
X17136012Y-17829226D01*
X17097917Y-17829226D01*
X17078869Y-17819702D01*
X17069345Y-17800655D01*
X17069345Y-17724464D01*
X17078869Y-17705417D01*
X17097917Y-17695893D01*
X17136012Y-17695893D01*
X17155060Y-17705417D01*
X17164583Y-17724464D01*
X17164583Y-17743512D01*
X17069345Y-17762560D01*
X17240774Y-17819702D02*
X17259821Y-17829226D01*
X17297917Y-17829226D01*
X17316964Y-17819702D01*
X17326488Y-17800655D01*
X17326488Y-17791131D01*
X17316964Y-17772083D01*
X17297917Y-17762560D01*
X17269345Y-17762560D01*
X17250298Y-17753036D01*
X17240774Y-17733988D01*
X17240774Y-17724464D01*
X17250298Y-17705417D01*
X17269345Y-17695893D01*
X17297917Y-17695893D01*
X17316964Y-17705417D01*
X17393155Y-17905417D02*
X17402679Y-17895893D01*
X17421726Y-17867321D01*
X17431250Y-17848274D01*
X17440774Y-17819702D01*
X17450298Y-17772083D01*
X17450298Y-17733988D01*
X17440774Y-17686369D01*
X17431250Y-17657798D01*
X17421726Y-17638750D01*
X17402679Y-17610179D01*
X17393155Y-17600655D01*
M02*
