G04 #@! TF.GenerationSoftware,KiCad,Pcbnew,6.0.10+dfsg-1~bpo11+1*
G04 #@! TF.CreationDate,2025-01-07T00:44:29+00:00*
G04 #@! TF.ProjectId,project,70726f6a-6563-4742-9e6b-696361645f70,rev?*
G04 #@! TF.SameCoordinates,Original*
G04 #@! TF.FileFunction,Soldermask,Bot*
G04 #@! TF.FilePolarity,Negative*
%FSLAX46Y46*%
G04 Gerber Fmt 4.6, Leading zero omitted, Abs format (unit mm)*
G04 Created by KiCad (PCBNEW 6.0.10+dfsg-1~bpo11+1) date 2025-01-07 00:44:29*
%MOMM*%
%LPD*%
G01*
G04 APERTURE LIST*
G04 #@! TA.AperFunction,Profile*
%ADD10C,0.100000*%
G04 #@! TD*
G04 #@! TA.AperFunction,Profile*
%ADD11C,0.120000*%
G04 #@! TD*
%ADD12O,2.000000X3.000000*%
%ADD13O,3.600000X1.800000*%
%ADD14C,5.000000*%
%ADD15C,6.400000*%
%ADD16C,0.900000*%
%ADD17C,1.552000*%
%ADD18R,1.700000X1.700000*%
%ADD19O,1.700000X1.700000*%
G04 APERTURE END LIST*
D10*
X208262500Y-111537500D02*
G75*
G03*
X208262500Y-113537500I0J-1000000D01*
G01*
X127762500Y-70537500D02*
G75*
G03*
X126262500Y-72037500I0J-1500000D01*
G01*
X127762500Y-113537500D02*
X128262500Y-113537500D01*
X171262500Y-106037500D02*
X165762500Y-106037500D01*
X172262500Y-150537500D02*
G75*
G03*
X172262500Y-146537500I0J2000000D01*
G01*
X133262500Y-113537500D02*
X165762500Y-113537500D01*
X158262500Y-107537500D02*
G75*
G03*
X158262500Y-107537500I-2000000J0D01*
G01*
X210262500Y-72037500D02*
G75*
G03*
X208762500Y-70537500I-1500000J0D01*
G01*
X126262500Y-99537500D02*
X126262500Y-110037500D01*
X165762500Y-111537500D02*
X133262500Y-111537500D01*
X200262500Y-98537500D02*
X200262500Y-83537500D01*
X208762500Y-154537500D02*
G75*
G03*
X210262500Y-153037500I0J1500000D01*
G01*
X203262500Y-111537500D02*
X170762500Y-111537500D01*
X126262500Y-153037500D02*
X126262500Y-115037500D01*
X200762500Y-83037500D02*
X209762500Y-83037500D01*
X210262500Y-115037500D02*
X210262500Y-153037500D01*
X127762500Y-113537500D02*
G75*
G03*
X126262500Y-115037500I0J-1500000D01*
G01*
X208762500Y-70537500D02*
X127762500Y-70537500D01*
X133262500Y-111537500D02*
G75*
G03*
X133262500Y-113537500I0J-1000000D01*
G01*
X209762500Y-99037500D02*
X200762500Y-99037500D01*
X171262500Y-109037500D02*
G75*
G03*
X171262500Y-106037500I0J1500000D01*
G01*
X135762500Y-99037500D02*
G75*
G03*
X136262500Y-98537500I0J500000D01*
G01*
X182262500Y-107537500D02*
G75*
G03*
X182262500Y-107537500I-2000000J0D01*
G01*
X165762500Y-106037500D02*
G75*
G03*
X165762500Y-109037500I0J-1500000D01*
G01*
X200262500Y-98537500D02*
G75*
G03*
X200762500Y-99037500I500000J0D01*
G01*
X135762500Y-99037500D02*
X126762500Y-99037500D01*
X170762500Y-113537500D02*
X203262500Y-113537500D01*
X126262500Y-110037500D02*
G75*
G03*
X127762500Y-111537500I1500000J0D01*
G01*
X210262500Y-82537500D02*
X210262500Y-72037500D01*
X172262500Y-150537500D02*
X154262500Y-150537500D01*
X126262500Y-82537500D02*
G75*
G03*
X126762500Y-83037500I500000J0D01*
G01*
X208762500Y-111537500D02*
X208262500Y-111537500D01*
X126262500Y-153037500D02*
G75*
G03*
X127762500Y-154537500I1500000J0D01*
G01*
X154262500Y-146537500D02*
X172262500Y-146537500D01*
X165762500Y-113537500D02*
G75*
G03*
X165762500Y-111537500I0J1000000D01*
G01*
X126762500Y-99037500D02*
G75*
G03*
X126262500Y-99537500I0J-500000D01*
G01*
X208262500Y-113537500D02*
X208762500Y-113537500D01*
X200762500Y-83037500D02*
G75*
G03*
X200262500Y-83537500I0J-500000D01*
G01*
X203262500Y-113537500D02*
G75*
G03*
X203262500Y-111537500I0J1000000D01*
G01*
X208762500Y-111537500D02*
G75*
G03*
X210262500Y-110037500I0J1500000D01*
G01*
X136262500Y-83537500D02*
X136262500Y-98537500D01*
X128262500Y-113537500D02*
G75*
G03*
X128262500Y-111537500I0J1000000D01*
G01*
X165762500Y-109037500D02*
X171262500Y-109037500D01*
X170762500Y-111537500D02*
G75*
G03*
X170762500Y-113537500I0J-1000000D01*
G01*
X126262500Y-72037500D02*
X126262500Y-82537500D01*
X154262500Y-146537500D02*
G75*
G03*
X154262500Y-150537500I0J-2000000D01*
G01*
X210262500Y-115037500D02*
G75*
G03*
X208762500Y-113537500I-1500000J0D01*
G01*
X209762500Y-83037500D02*
G75*
G03*
X210262500Y-82537500I0J500000D01*
G01*
X136262500Y-83537500D02*
G75*
G03*
X135762500Y-83037500I-500000J0D01*
G01*
X210262500Y-99537500D02*
X210262500Y-110037500D01*
X127762500Y-111537500D02*
X128262500Y-111537500D01*
X126762500Y-83037500D02*
X135762500Y-83037500D01*
X208762500Y-154537500D02*
X127762500Y-154537500D01*
X210262500Y-99537500D02*
G75*
G03*
X209762500Y-99037500I-500000J0D01*
G01*
D11*
X162562500Y-102337500D02*
X162562500Y-96737500D01*
X173462500Y-102837500D02*
X163062500Y-102837500D01*
X163062500Y-96237500D02*
X173462500Y-96237500D01*
X173962500Y-96737500D02*
X173962500Y-102337500D01*
X163062500Y-96237500D02*
G75*
G03*
X162562500Y-96737500I1J-500001D01*
G01*
X173462500Y-102837500D02*
G75*
G03*
X173962500Y-102337500I0J500000D01*
G01*
X173962500Y-96737500D02*
G75*
G03*
X173462500Y-96237500I-500001J-1D01*
G01*
X162562500Y-102337500D02*
G75*
G03*
X163062500Y-102837500I500000J0D01*
G01*
D12*
X205762500Y-73537500D03*
X185762500Y-73537500D03*
X130762500Y-108537500D03*
X135762500Y-108537500D03*
X150762500Y-108537500D03*
X205762500Y-108537500D03*
X150762500Y-73537500D03*
X200762500Y-73537500D03*
X200762500Y-108537500D03*
X145762500Y-108537500D03*
X190762500Y-73537500D03*
G36*
G01*
X173287500Y-115477500D02*
X173287500Y-116737500D01*
G75*
G02*
X173217500Y-116807500I-70000J0D01*
G01*
X171757500Y-116807500D01*
G75*
G02*
X171687500Y-116737500I0J70000D01*
G01*
X171687500Y-115477500D01*
G75*
G02*
X171757500Y-115407500I70000J0D01*
G01*
X173217500Y-115407500D01*
G75*
G02*
X173287500Y-115477500I0J-70000D01*
G01*
G37*
G36*
G01*
X164862500Y-115452500D02*
X164862500Y-116622500D01*
G75*
G02*
X164797500Y-116687500I-65000J0D01*
G01*
X162227500Y-116687500D01*
G75*
G02*
X162162500Y-116622500I0J65000D01*
G01*
X162162500Y-115452500D01*
G75*
G02*
X162227500Y-115387500I65000J0D01*
G01*
X164797500Y-115387500D01*
G75*
G02*
X164862500Y-115452500I0J-65000D01*
G01*
G37*
G36*
G01*
X174362500Y-118452500D02*
X174362500Y-119622500D01*
G75*
G02*
X174297500Y-119687500I-65000J0D01*
G01*
X171727500Y-119687500D01*
G75*
G02*
X171662500Y-119622500I0J65000D01*
G01*
X171662500Y-118452500D01*
G75*
G02*
X171727500Y-118387500I65000J0D01*
G01*
X174297500Y-118387500D01*
G75*
G02*
X174362500Y-118452500I0J-65000D01*
G01*
G37*
G36*
G01*
X164837500Y-118337500D02*
X164837500Y-119597500D01*
G75*
G02*
X164767500Y-119667500I-70000J0D01*
G01*
X163307500Y-119667500D01*
G75*
G02*
X163237500Y-119597500I0J70000D01*
G01*
X163237500Y-118337500D01*
G75*
G02*
X163307500Y-118267500I70000J0D01*
G01*
X164767500Y-118267500D01*
G75*
G02*
X164837500Y-118337500I0J-70000D01*
G01*
G37*
X185762500Y-108537500D03*
X195762500Y-108537500D03*
G36*
G01*
X206955000Y-140170000D02*
X203855000Y-140170000D01*
G75*
G02*
X203605000Y-139920000I0J250000D01*
G01*
X203605000Y-138620000D01*
G75*
G02*
X203855000Y-138370000I250000J0D01*
G01*
X206955000Y-138370000D01*
G75*
G02*
X207205000Y-138620000I0J-250000D01*
G01*
X207205000Y-139920000D01*
G75*
G02*
X206955000Y-140170000I-250000J0D01*
G01*
G37*
D13*
X205405000Y-135770000D03*
X205405000Y-132270000D03*
X205405000Y-128770000D03*
D14*
X183262500Y-90037500D03*
D12*
X190762500Y-108537500D03*
X135762500Y-73537500D03*
X145762500Y-73537500D03*
D15*
X153262500Y-135037500D03*
D16*
X151565444Y-133340444D03*
X150862500Y-135037500D03*
X153262500Y-132637500D03*
X153262500Y-137437500D03*
X154959556Y-133340444D03*
X154959556Y-136734556D03*
X155662500Y-135037500D03*
X151565444Y-136734556D03*
D12*
X195762500Y-73537500D03*
D17*
X205762500Y-112537500D03*
D16*
X183262500Y-137437500D03*
X181565444Y-133340444D03*
X180862500Y-135037500D03*
X183262500Y-132637500D03*
X185662500Y-135037500D03*
X184959556Y-133340444D03*
X184959556Y-136734556D03*
X181565444Y-136734556D03*
D15*
X183262500Y-135037500D03*
D17*
X130762500Y-112537500D03*
D12*
X130762500Y-73537500D03*
D14*
X153262500Y-90012500D03*
D12*
X140762500Y-73537500D03*
G36*
G01*
X129570000Y-127905000D02*
X132670000Y-127905000D01*
G75*
G02*
X132920000Y-128155000I0J-250000D01*
G01*
X132920000Y-129455000D01*
G75*
G02*
X132670000Y-129705000I-250000J0D01*
G01*
X129570000Y-129705000D01*
G75*
G02*
X129320000Y-129455000I0J250000D01*
G01*
X129320000Y-128155000D01*
G75*
G02*
X129570000Y-127905000I250000J0D01*
G01*
G37*
D13*
X131120000Y-132305000D03*
X131120000Y-135805000D03*
X131120000Y-139305000D03*
D12*
X140762500Y-108537500D03*
D17*
X131262500Y-149537500D03*
D18*
X135292500Y-150082500D03*
D19*
X135292500Y-147542500D03*
X135292500Y-145002500D03*
D18*
X174275000Y-144137500D03*
D19*
X176815000Y-144137500D03*
X179355000Y-144137500D03*
D18*
X196662500Y-141197500D03*
D19*
X196662500Y-143737500D03*
X196662500Y-146277500D03*
M02*
