G04 #@! TF.GenerationSoftware,KiCad,Pcbnew,6.0.10+dfsg-1~bpo11+1*
G04 #@! TF.ProjectId,project,70726f6a-6563-4742-9e6b-696361645f70,rev?*
G04 #@! TF.SameCoordinates,Original*
G04 #@! TF.FileFunction,Paste,Top*
G04 #@! TF.FilePolarity,Positive*
%FSLAX46Y46*%
G04 Gerber Fmt 4.6, Leading zero omitted, Abs format (unit mm)*
%MOMM*%
%LPD*%
G01*
G04 APERTURE LIST*
G04 #@! TA.AperFunction,Profile*
%ADD10C,0.100000*%
G04 #@! TD*
%ADD11C,0.120000*%
%ADD12R,1.500000X1.850000*%
%ADD13R,0.900000X1.200000*%
%ADD14R,1.400000X1.200000*%
%ADD15R,1.200000X0.900000*%
%ADD16R,1.000000X3.150000*%
%ADD17R,1.000000X3.000000*%
G04 APERTURE END LIST*
D10*
X208262500Y-111537500D02*
G75*
G03*
X208262500Y-113537500I0J-1000000D01*
G01*
X127762500Y-70537500D02*
G75*
G03*
X126262500Y-72037500I0J-1500000D01*
G01*
X127762500Y-113537500D02*
X128262500Y-113537500D01*
X172262500Y-150537500D02*
G75*
G03*
X172262500Y-146537500I0J2000000D01*
G01*
X171262500Y-109137500D02*
G75*
G03*
X171262500Y-105937500I0J1600000D01*
G01*
X133262500Y-113537500D02*
X165762500Y-113537500D01*
X173462500Y-102837500D02*
X163062500Y-102837500D01*
X165262500Y-105937500D02*
G75*
G03*
X165262500Y-109137500I0J-1600000D01*
G01*
X210262500Y-72037500D02*
G75*
G03*
X208762500Y-70537500I-1500000J0D01*
G01*
X126262500Y-99537500D02*
X126262500Y-110037500D01*
X165762500Y-111537500D02*
X133262500Y-111537500D01*
X200262500Y-98537500D02*
X200262500Y-83537500D01*
X208762500Y-154537500D02*
G75*
G03*
X210262500Y-153037500I0J1500000D01*
G01*
X203262500Y-111537500D02*
X170762500Y-111537500D01*
X126262500Y-153037500D02*
X126262500Y-115037500D01*
X200762500Y-83037500D02*
X209762500Y-83037500D01*
X210262500Y-115037500D02*
X210262500Y-153037500D01*
X127762500Y-113537500D02*
G75*
G03*
X126262500Y-115037500I0J-1500000D01*
G01*
X208762500Y-70537500D02*
X127762500Y-70537500D01*
X182062500Y-107537500D02*
G75*
G03*
X182062500Y-107537500I-1800000J0D01*
G01*
X133262500Y-111537500D02*
G75*
G03*
X133262500Y-113537500I0J-1000000D01*
G01*
X162562500Y-102337500D02*
X162562500Y-96737500D01*
X173962500Y-96737500D02*
G75*
G03*
X173462500Y-96237500I-500000J0D01*
G01*
X209762500Y-99037500D02*
X200762500Y-99037500D01*
X163062500Y-96237500D02*
G75*
G03*
X162562500Y-96737500I0J-500000D01*
G01*
X158062500Y-107537500D02*
G75*
G03*
X158062500Y-107537500I-1800000J0D01*
G01*
X135762500Y-99037500D02*
G75*
G03*
X136262500Y-98537500I0J500000D01*
G01*
X173462500Y-102837500D02*
G75*
G03*
X173962500Y-102337500I0J500000D01*
G01*
X165262500Y-105937500D02*
X171262500Y-105937500D01*
X200262500Y-98537500D02*
G75*
G03*
X200762500Y-99037500I500000J0D01*
G01*
X135762500Y-99037500D02*
X126762500Y-99037500D01*
X170762500Y-113537500D02*
X203262500Y-113537500D01*
X126262500Y-110037500D02*
G75*
G03*
X127762500Y-111537500I1500000J0D01*
G01*
X210262500Y-82537500D02*
X210262500Y-72037500D01*
X172262500Y-150537500D02*
X154262500Y-150537500D01*
X126262500Y-82537500D02*
G75*
G03*
X126762500Y-83037500I500000J0D01*
G01*
X208762500Y-111537500D02*
X208262500Y-111537500D01*
X126262500Y-153037500D02*
G75*
G03*
X127762500Y-154537500I1500000J0D01*
G01*
X171262500Y-109137500D02*
X165262500Y-109137500D01*
X154262500Y-146537500D02*
X172262500Y-146537500D01*
X165762500Y-113537500D02*
G75*
G03*
X165762500Y-111537500I0J1000000D01*
G01*
X126762500Y-99037500D02*
G75*
G03*
X126262500Y-99537500I0J-500000D01*
G01*
X208262500Y-113537500D02*
X208762500Y-113537500D01*
X200762500Y-83037500D02*
G75*
G03*
X200262500Y-83537500I0J-500000D01*
G01*
X203262500Y-113537500D02*
G75*
G03*
X203262500Y-111537500I0J1000000D01*
G01*
X173962500Y-96737500D02*
X173962500Y-102337500D01*
X208762500Y-111537500D02*
G75*
G03*
X210262500Y-110037500I0J1500000D01*
G01*
X136262500Y-83537500D02*
X136262500Y-98537500D01*
X128262500Y-113537500D02*
G75*
G03*
X128262500Y-111537500I0J1000000D01*
G01*
X170762500Y-111537500D02*
G75*
G03*
X170762500Y-113537500I0J-1000000D01*
G01*
X126262500Y-72037500D02*
X126262500Y-82537500D01*
X154262500Y-146537500D02*
G75*
G03*
X154262500Y-150537500I0J-2000000D01*
G01*
X210262500Y-115037500D02*
G75*
G03*
X208762500Y-113537500I-1500000J0D01*
G01*
X209762500Y-83037500D02*
G75*
G03*
X210262500Y-82537500I0J500000D01*
G01*
X136262500Y-83537500D02*
G75*
G03*
X135762500Y-83037500I-500000J0D01*
G01*
X210262500Y-99537500D02*
X210262500Y-110037500D01*
X163062500Y-96237500D02*
X173462500Y-96237500D01*
X127762500Y-111537500D02*
X128262500Y-111537500D01*
X126762500Y-83037500D02*
X135762500Y-83037500D01*
X162562500Y-102337500D02*
G75*
G03*
X163062500Y-102837500I500000J0D01*
G01*
X208762500Y-154537500D02*
X127762500Y-154537500D01*
X210262500Y-99537500D02*
G75*
G03*
X209762500Y-99037500I-500000J0D01*
G01*
G36*
X183642067Y-86640017D02*
G01*
X183998942Y-86680227D01*
X184349072Y-86760142D01*
X184688052Y-86878756D01*
X185011620Y-87034579D01*
X185315707Y-87225649D01*
X185596489Y-87449565D01*
X185850435Y-87703511D01*
X186074351Y-87984293D01*
X186265421Y-88288380D01*
X186421244Y-88611948D01*
X186539858Y-88950928D01*
X186619773Y-89301058D01*
X186659983Y-89657933D01*
X186662500Y-89837500D01*
X185462500Y-89837500D01*
X185460072Y-89694631D01*
X185419408Y-89411801D01*
X185338906Y-89137637D01*
X185220206Y-88877720D01*
X185065724Y-88637341D01*
X184878605Y-88421395D01*
X184662659Y-88234276D01*
X184422280Y-88079794D01*
X184162363Y-87961094D01*
X183888199Y-87880592D01*
X183605369Y-87839928D01*
X183462500Y-87837500D01*
X183462500Y-86637500D01*
X183642067Y-86640017D01*
G37*
D11*
X183642067Y-86640017D02*
X183998942Y-86680227D01*
X184349072Y-86760142D01*
X184688052Y-86878756D01*
X185011620Y-87034579D01*
X185315707Y-87225649D01*
X185596489Y-87449565D01*
X185850435Y-87703511D01*
X186074351Y-87984293D01*
X186265421Y-88288380D01*
X186421244Y-88611948D01*
X186539858Y-88950928D01*
X186619773Y-89301058D01*
X186659983Y-89657933D01*
X186662500Y-89837500D01*
X185462500Y-89837500D01*
X185460072Y-89694631D01*
X185419408Y-89411801D01*
X185338906Y-89137637D01*
X185220206Y-88877720D01*
X185065724Y-88637341D01*
X184878605Y-88421395D01*
X184662659Y-88234276D01*
X184422280Y-88079794D01*
X184162363Y-87961094D01*
X183888199Y-87880592D01*
X183605369Y-87839928D01*
X183462500Y-87837500D01*
X183462500Y-86637500D01*
X183642067Y-86640017D01*
G36*
X183062500Y-87837500D02*
G01*
X182919631Y-87839928D01*
X182636801Y-87880592D01*
X182362637Y-87961094D01*
X182102720Y-88079794D01*
X181862341Y-88234276D01*
X181646395Y-88421395D01*
X181459276Y-88637341D01*
X181304794Y-88877720D01*
X181186094Y-89137637D01*
X181105592Y-89411801D01*
X181064928Y-89694631D01*
X181062500Y-89837500D01*
X179862500Y-89837500D01*
X179864925Y-89657928D01*
X179905136Y-89301042D01*
X179985053Y-88950903D01*
X180103671Y-88611913D01*
X180259497Y-88288335D01*
X180450573Y-87984239D01*
X180674496Y-87703449D01*
X180928449Y-87449496D01*
X181209239Y-87225573D01*
X181513335Y-87034497D01*
X181836913Y-86878671D01*
X182175903Y-86760053D01*
X182526042Y-86680136D01*
X182882928Y-86639925D01*
X183062500Y-86637500D01*
X183062500Y-87837500D01*
G37*
X183062500Y-87837500D02*
X182919631Y-87839928D01*
X182636801Y-87880592D01*
X182362637Y-87961094D01*
X182102720Y-88079794D01*
X181862341Y-88234276D01*
X181646395Y-88421395D01*
X181459276Y-88637341D01*
X181304794Y-88877720D01*
X181186094Y-89137637D01*
X181105592Y-89411801D01*
X181064928Y-89694631D01*
X181062500Y-89837500D01*
X179862500Y-89837500D01*
X179864925Y-89657928D01*
X179905136Y-89301042D01*
X179985053Y-88950903D01*
X180103671Y-88611913D01*
X180259497Y-88288335D01*
X180450573Y-87984239D01*
X180674496Y-87703449D01*
X180928449Y-87449496D01*
X181209239Y-87225573D01*
X181513335Y-87034497D01*
X181836913Y-86878671D01*
X182175903Y-86760053D01*
X182526042Y-86680136D01*
X182882928Y-86639925D01*
X183062500Y-86637500D01*
X183062500Y-87837500D01*
G36*
X181064928Y-90380369D02*
G01*
X181105592Y-90663199D01*
X181186094Y-90937363D01*
X181304794Y-91197280D01*
X181459276Y-91437659D01*
X181646395Y-91653605D01*
X181862341Y-91840724D01*
X182102720Y-91995206D01*
X182362637Y-92113906D01*
X182636801Y-92194408D01*
X182919631Y-92235072D01*
X183062500Y-92237500D01*
X183062500Y-93437500D01*
X182882928Y-93435075D01*
X182526042Y-93394864D01*
X182175903Y-93314947D01*
X181836913Y-93196329D01*
X181513335Y-93040503D01*
X181209239Y-92849427D01*
X180928449Y-92625504D01*
X180674496Y-92371551D01*
X180450573Y-92090761D01*
X180259497Y-91786665D01*
X180103671Y-91463087D01*
X179985053Y-91124097D01*
X179905136Y-90773958D01*
X179864925Y-90417072D01*
X179862500Y-90237500D01*
X181062500Y-90237500D01*
X181064928Y-90380369D01*
G37*
X181064928Y-90380369D02*
X181105592Y-90663199D01*
X181186094Y-90937363D01*
X181304794Y-91197280D01*
X181459276Y-91437659D01*
X181646395Y-91653605D01*
X181862341Y-91840724D01*
X182102720Y-91995206D01*
X182362637Y-92113906D01*
X182636801Y-92194408D01*
X182919631Y-92235072D01*
X183062500Y-92237500D01*
X183062500Y-93437500D01*
X182882928Y-93435075D01*
X182526042Y-93394864D01*
X182175903Y-93314947D01*
X181836913Y-93196329D01*
X181513335Y-93040503D01*
X181209239Y-92849427D01*
X180928449Y-92625504D01*
X180674496Y-92371551D01*
X180450573Y-92090761D01*
X180259497Y-91786665D01*
X180103671Y-91463087D01*
X179985053Y-91124097D01*
X179905136Y-90773958D01*
X179864925Y-90417072D01*
X179862500Y-90237500D01*
X181062500Y-90237500D01*
X181064928Y-90380369D01*
G36*
X186660075Y-90417072D02*
G01*
X186619864Y-90773958D01*
X186539947Y-91124097D01*
X186421329Y-91463087D01*
X186265503Y-91786665D01*
X186074427Y-92090761D01*
X185850504Y-92371551D01*
X185596551Y-92625504D01*
X185315761Y-92849427D01*
X185011665Y-93040503D01*
X184688087Y-93196329D01*
X184349097Y-93314947D01*
X183998958Y-93394864D01*
X183642072Y-93435075D01*
X183462500Y-93437500D01*
X183462500Y-92237500D01*
X183605369Y-92235072D01*
X183888199Y-92194408D01*
X184162363Y-92113906D01*
X184422280Y-91995206D01*
X184662659Y-91840724D01*
X184878605Y-91653605D01*
X185065724Y-91437659D01*
X185220206Y-91197280D01*
X185338906Y-90937363D01*
X185419408Y-90663199D01*
X185460072Y-90380369D01*
X185462500Y-90237500D01*
X186662500Y-90237500D01*
X186660075Y-90417072D01*
G37*
X186660075Y-90417072D02*
X186619864Y-90773958D01*
X186539947Y-91124097D01*
X186421329Y-91463087D01*
X186265503Y-91786665D01*
X186074427Y-92090761D01*
X185850504Y-92371551D01*
X185596551Y-92625504D01*
X185315761Y-92849427D01*
X185011665Y-93040503D01*
X184688087Y-93196329D01*
X184349097Y-93314947D01*
X183998958Y-93394864D01*
X183642072Y-93435075D01*
X183462500Y-93437500D01*
X183462500Y-92237500D01*
X183605369Y-92235072D01*
X183888199Y-92194408D01*
X184162363Y-92113906D01*
X184422280Y-91995206D01*
X184662659Y-91840724D01*
X184878605Y-91653605D01*
X185065724Y-91437659D01*
X185220206Y-91197280D01*
X185338906Y-90937363D01*
X185419408Y-90663199D01*
X185460072Y-90380369D01*
X185462500Y-90237500D01*
X186662500Y-90237500D01*
X186660075Y-90417072D01*
G36*
X156660075Y-90392072D02*
G01*
X156619864Y-90748958D01*
X156539947Y-91099097D01*
X156421329Y-91438087D01*
X156265503Y-91761665D01*
X156074427Y-92065761D01*
X155850504Y-92346551D01*
X155596551Y-92600504D01*
X155315761Y-92824427D01*
X155011665Y-93015503D01*
X154688087Y-93171329D01*
X154349097Y-93289947D01*
X153998958Y-93369864D01*
X153642072Y-93410075D01*
X153462500Y-93412500D01*
X153462500Y-92212500D01*
X153605369Y-92210072D01*
X153888199Y-92169408D01*
X154162363Y-92088906D01*
X154422280Y-91970206D01*
X154662659Y-91815724D01*
X154878605Y-91628605D01*
X155065724Y-91412659D01*
X155220206Y-91172280D01*
X155338906Y-90912363D01*
X155419408Y-90638199D01*
X155460072Y-90355369D01*
X155462500Y-90212500D01*
X156662500Y-90212500D01*
X156660075Y-90392072D01*
G37*
X156660075Y-90392072D02*
X156619864Y-90748958D01*
X156539947Y-91099097D01*
X156421329Y-91438087D01*
X156265503Y-91761665D01*
X156074427Y-92065761D01*
X155850504Y-92346551D01*
X155596551Y-92600504D01*
X155315761Y-92824427D01*
X155011665Y-93015503D01*
X154688087Y-93171329D01*
X154349097Y-93289947D01*
X153998958Y-93369864D01*
X153642072Y-93410075D01*
X153462500Y-93412500D01*
X153462500Y-92212500D01*
X153605369Y-92210072D01*
X153888199Y-92169408D01*
X154162363Y-92088906D01*
X154422280Y-91970206D01*
X154662659Y-91815724D01*
X154878605Y-91628605D01*
X155065724Y-91412659D01*
X155220206Y-91172280D01*
X155338906Y-90912363D01*
X155419408Y-90638199D01*
X155460072Y-90355369D01*
X155462500Y-90212500D01*
X156662500Y-90212500D01*
X156660075Y-90392072D01*
G36*
X151064928Y-90355369D02*
G01*
X151105592Y-90638199D01*
X151186094Y-90912363D01*
X151304794Y-91172280D01*
X151459276Y-91412659D01*
X151646395Y-91628605D01*
X151862341Y-91815724D01*
X152102720Y-91970206D01*
X152362637Y-92088906D01*
X152636801Y-92169408D01*
X152919631Y-92210072D01*
X153062500Y-92212500D01*
X153062500Y-93412500D01*
X152882928Y-93410075D01*
X152526042Y-93369864D01*
X152175903Y-93289947D01*
X151836913Y-93171329D01*
X151513335Y-93015503D01*
X151209239Y-92824427D01*
X150928449Y-92600504D01*
X150674496Y-92346551D01*
X150450573Y-92065761D01*
X150259497Y-91761665D01*
X150103671Y-91438087D01*
X149985053Y-91099097D01*
X149905136Y-90748958D01*
X149864925Y-90392072D01*
X149862500Y-90212500D01*
X151062500Y-90212500D01*
X151064928Y-90355369D01*
G37*
X151064928Y-90355369D02*
X151105592Y-90638199D01*
X151186094Y-90912363D01*
X151304794Y-91172280D01*
X151459276Y-91412659D01*
X151646395Y-91628605D01*
X151862341Y-91815724D01*
X152102720Y-91970206D01*
X152362637Y-92088906D01*
X152636801Y-92169408D01*
X152919631Y-92210072D01*
X153062500Y-92212500D01*
X153062500Y-93412500D01*
X152882928Y-93410075D01*
X152526042Y-93369864D01*
X152175903Y-93289947D01*
X151836913Y-93171329D01*
X151513335Y-93015503D01*
X151209239Y-92824427D01*
X150928449Y-92600504D01*
X150674496Y-92346551D01*
X150450573Y-92065761D01*
X150259497Y-91761665D01*
X150103671Y-91438087D01*
X149985053Y-91099097D01*
X149905136Y-90748958D01*
X149864925Y-90392072D01*
X149862500Y-90212500D01*
X151062500Y-90212500D01*
X151064928Y-90355369D01*
G36*
X153062500Y-87812500D02*
G01*
X152919631Y-87814928D01*
X152636801Y-87855592D01*
X152362637Y-87936094D01*
X152102720Y-88054794D01*
X151862341Y-88209276D01*
X151646395Y-88396395D01*
X151459276Y-88612341D01*
X151304794Y-88852720D01*
X151186094Y-89112637D01*
X151105592Y-89386801D01*
X151064928Y-89669631D01*
X151062500Y-89812500D01*
X149862500Y-89812500D01*
X149864925Y-89632928D01*
X149905136Y-89276042D01*
X149985053Y-88925903D01*
X150103671Y-88586913D01*
X150259497Y-88263335D01*
X150450573Y-87959239D01*
X150674496Y-87678449D01*
X150928449Y-87424496D01*
X151209239Y-87200573D01*
X151513335Y-87009497D01*
X151836913Y-86853671D01*
X152175903Y-86735053D01*
X152526042Y-86655136D01*
X152882928Y-86614925D01*
X153062500Y-86612500D01*
X153062500Y-87812500D01*
G37*
X153062500Y-87812500D02*
X152919631Y-87814928D01*
X152636801Y-87855592D01*
X152362637Y-87936094D01*
X152102720Y-88054794D01*
X151862341Y-88209276D01*
X151646395Y-88396395D01*
X151459276Y-88612341D01*
X151304794Y-88852720D01*
X151186094Y-89112637D01*
X151105592Y-89386801D01*
X151064928Y-89669631D01*
X151062500Y-89812500D01*
X149862500Y-89812500D01*
X149864925Y-89632928D01*
X149905136Y-89276042D01*
X149985053Y-88925903D01*
X150103671Y-88586913D01*
X150259497Y-88263335D01*
X150450573Y-87959239D01*
X150674496Y-87678449D01*
X150928449Y-87424496D01*
X151209239Y-87200573D01*
X151513335Y-87009497D01*
X151836913Y-86853671D01*
X152175903Y-86735053D01*
X152526042Y-86655136D01*
X152882928Y-86614925D01*
X153062500Y-86612500D01*
X153062500Y-87812500D01*
G36*
X153642067Y-86615017D02*
G01*
X153998942Y-86655227D01*
X154349072Y-86735142D01*
X154688052Y-86853756D01*
X155011620Y-87009579D01*
X155315707Y-87200649D01*
X155596489Y-87424565D01*
X155850435Y-87678511D01*
X156074351Y-87959293D01*
X156265421Y-88263380D01*
X156421244Y-88586948D01*
X156539858Y-88925928D01*
X156619773Y-89276058D01*
X156659983Y-89632933D01*
X156662500Y-89812500D01*
X155462500Y-89812500D01*
X155460072Y-89669631D01*
X155419408Y-89386801D01*
X155338906Y-89112637D01*
X155220206Y-88852720D01*
X155065724Y-88612341D01*
X154878605Y-88396395D01*
X154662659Y-88209276D01*
X154422280Y-88054794D01*
X154162363Y-87936094D01*
X153888199Y-87855592D01*
X153605369Y-87814928D01*
X153462500Y-87812500D01*
X153462500Y-86612500D01*
X153642067Y-86615017D01*
G37*
X153642067Y-86615017D02*
X153998942Y-86655227D01*
X154349072Y-86735142D01*
X154688052Y-86853756D01*
X155011620Y-87009579D01*
X155315707Y-87200649D01*
X155596489Y-87424565D01*
X155850435Y-87678511D01*
X156074351Y-87959293D01*
X156265421Y-88263380D01*
X156421244Y-88586948D01*
X156539858Y-88925928D01*
X156619773Y-89276058D01*
X156659983Y-89632933D01*
X156662500Y-89812500D01*
X155462500Y-89812500D01*
X155460072Y-89669631D01*
X155419408Y-89386801D01*
X155338906Y-89112637D01*
X155220206Y-88852720D01*
X155065724Y-88612341D01*
X154878605Y-88396395D01*
X154662659Y-88209276D01*
X154422280Y-88054794D01*
X154162363Y-87936094D01*
X153888199Y-87855592D01*
X153605369Y-87814928D01*
X153462500Y-87812500D01*
X153462500Y-86612500D01*
X153642067Y-86615017D01*
G36*
G01*
X148167500Y-148567500D02*
X147217500Y-148567500D01*
G75*
G02*
X146967500Y-148317500I0J250000D01*
G01*
X146967500Y-147642500D01*
G75*
G02*
X147217500Y-147392500I250000J0D01*
G01*
X148167500Y-147392500D01*
G75*
G02*
X148417500Y-147642500I0J-250000D01*
G01*
X148417500Y-148317500D01*
G75*
G02*
X148167500Y-148567500I-250000J0D01*
G01*
G37*
G36*
G01*
X148167500Y-146492500D02*
X147217500Y-146492500D01*
G75*
G02*
X146967500Y-146242500I0J250000D01*
G01*
X146967500Y-145567500D01*
G75*
G02*
X147217500Y-145317500I250000J0D01*
G01*
X148167500Y-145317500D01*
G75*
G02*
X148417500Y-145567500I0J-250000D01*
G01*
X148417500Y-146242500D01*
G75*
G02*
X148167500Y-146492500I-250000J0D01*
G01*
G37*
D12*
X172072500Y-95092500D03*
X169532500Y-95092500D03*
X166992500Y-95092500D03*
X164452500Y-95092500D03*
X164452500Y-103982500D03*
X166992500Y-103982500D03*
X169532500Y-103982500D03*
X172072500Y-103982500D03*
G36*
G01*
X180937500Y-83300000D02*
X179987500Y-83300000D01*
G75*
G02*
X179737500Y-83050000I0J250000D01*
G01*
X179737500Y-82375000D01*
G75*
G02*
X179987500Y-82125000I250000J0D01*
G01*
X180937500Y-82125000D01*
G75*
G02*
X181187500Y-82375000I0J-250000D01*
G01*
X181187500Y-83050000D01*
G75*
G02*
X180937500Y-83300000I-250000J0D01*
G01*
G37*
G36*
G01*
X180937500Y-81225000D02*
X179987500Y-81225000D01*
G75*
G02*
X179737500Y-80975000I0J250000D01*
G01*
X179737500Y-80300000D01*
G75*
G02*
X179987500Y-80050000I250000J0D01*
G01*
X180937500Y-80050000D01*
G75*
G02*
X181187500Y-80300000I0J-250000D01*
G01*
X181187500Y-80975000D01*
G75*
G02*
X180937500Y-81225000I-250000J0D01*
G01*
G37*
G36*
G01*
X205212500Y-147937500D02*
X206112500Y-147937500D01*
G75*
G02*
X206362500Y-148187500I0J-250000D01*
G01*
X206362500Y-148837500D01*
G75*
G02*
X206112500Y-149087500I-250000J0D01*
G01*
X205212500Y-149087500D01*
G75*
G02*
X204962500Y-148837500I0J250000D01*
G01*
X204962500Y-148187500D01*
G75*
G02*
X205212500Y-147937500I250000J0D01*
G01*
G37*
G36*
G01*
X205212500Y-149987500D02*
X206112500Y-149987500D01*
G75*
G02*
X206362500Y-150237500I0J-250000D01*
G01*
X206362500Y-150887500D01*
G75*
G02*
X206112500Y-151137500I-250000J0D01*
G01*
X205212500Y-151137500D01*
G75*
G02*
X204962500Y-150887500I0J250000D01*
G01*
X204962500Y-150237500D01*
G75*
G02*
X205212500Y-149987500I250000J0D01*
G01*
G37*
G36*
G01*
X145475000Y-115675000D02*
X145475000Y-114725000D01*
G75*
G02*
X145725000Y-114475000I250000J0D01*
G01*
X146400000Y-114475000D01*
G75*
G02*
X146650000Y-114725000I0J-250000D01*
G01*
X146650000Y-115675000D01*
G75*
G02*
X146400000Y-115925000I-250000J0D01*
G01*
X145725000Y-115925000D01*
G75*
G02*
X145475000Y-115675000I0J250000D01*
G01*
G37*
G36*
G01*
X147550000Y-115675000D02*
X147550000Y-114725000D01*
G75*
G02*
X147800000Y-114475000I250000J0D01*
G01*
X148475000Y-114475000D01*
G75*
G02*
X148725000Y-114725000I0J-250000D01*
G01*
X148725000Y-115675000D01*
G75*
G02*
X148475000Y-115925000I-250000J0D01*
G01*
X147800000Y-115925000D01*
G75*
G02*
X147550000Y-115675000I0J250000D01*
G01*
G37*
G36*
G01*
X187387500Y-147512500D02*
X188337500Y-147512500D01*
G75*
G02*
X188587500Y-147762500I0J-250000D01*
G01*
X188587500Y-148437500D01*
G75*
G02*
X188337500Y-148687500I-250000J0D01*
G01*
X187387500Y-148687500D01*
G75*
G02*
X187137500Y-148437500I0J250000D01*
G01*
X187137500Y-147762500D01*
G75*
G02*
X187387500Y-147512500I250000J0D01*
G01*
G37*
G36*
G01*
X187387500Y-149587500D02*
X188337500Y-149587500D01*
G75*
G02*
X188587500Y-149837500I0J-250000D01*
G01*
X188587500Y-150512500D01*
G75*
G02*
X188337500Y-150762500I-250000J0D01*
G01*
X187387500Y-150762500D01*
G75*
G02*
X187137500Y-150512500I0J250000D01*
G01*
X187137500Y-149837500D01*
G75*
G02*
X187387500Y-149587500I250000J0D01*
G01*
G37*
G36*
G01*
X140625000Y-122525000D02*
X140625000Y-123475000D01*
G75*
G02*
X140375000Y-123725000I-250000J0D01*
G01*
X139700000Y-123725000D01*
G75*
G02*
X139450000Y-123475000I0J250000D01*
G01*
X139450000Y-122525000D01*
G75*
G02*
X139700000Y-122275000I250000J0D01*
G01*
X140375000Y-122275000D01*
G75*
G02*
X140625000Y-122525000I0J-250000D01*
G01*
G37*
G36*
G01*
X138550000Y-122525000D02*
X138550000Y-123475000D01*
G75*
G02*
X138300000Y-123725000I-250000J0D01*
G01*
X137625000Y-123725000D01*
G75*
G02*
X137375000Y-123475000I0J250000D01*
G01*
X137375000Y-122525000D01*
G75*
G02*
X137625000Y-122275000I250000J0D01*
G01*
X138300000Y-122275000D01*
G75*
G02*
X138550000Y-122525000I0J-250000D01*
G01*
G37*
G36*
G01*
X196312500Y-150737500D02*
X195412500Y-150737500D01*
G75*
G02*
X195162500Y-150487500I0J250000D01*
G01*
X195162500Y-149787500D01*
G75*
G02*
X195412500Y-149537500I250000J0D01*
G01*
X196312500Y-149537500D01*
G75*
G02*
X196562500Y-149787500I0J-250000D01*
G01*
X196562500Y-150487500D01*
G75*
G02*
X196312500Y-150737500I-250000J0D01*
G01*
G37*
G36*
G01*
X196312500Y-148737500D02*
X195412500Y-148737500D01*
G75*
G02*
X195162500Y-148487500I0J250000D01*
G01*
X195162500Y-147787500D01*
G75*
G02*
X195412500Y-147537500I250000J0D01*
G01*
X196312500Y-147537500D01*
G75*
G02*
X196562500Y-147787500I0J-250000D01*
G01*
X196562500Y-148487500D01*
G75*
G02*
X196312500Y-148737500I-250000J0D01*
G01*
G37*
G36*
G01*
X182862500Y-150587500D02*
X182862500Y-149687500D01*
G75*
G02*
X183112500Y-149437500I250000J0D01*
G01*
X183812500Y-149437500D01*
G75*
G02*
X184062500Y-149687500I0J-250000D01*
G01*
X184062500Y-150587500D01*
G75*
G02*
X183812500Y-150837500I-250000J0D01*
G01*
X183112500Y-150837500D01*
G75*
G02*
X182862500Y-150587500I0J250000D01*
G01*
G37*
G36*
G01*
X184862500Y-150587500D02*
X184862500Y-149687500D01*
G75*
G02*
X185112500Y-149437500I250000J0D01*
G01*
X185812500Y-149437500D01*
G75*
G02*
X186062500Y-149687500I0J-250000D01*
G01*
X186062500Y-150587500D01*
G75*
G02*
X185812500Y-150837500I-250000J0D01*
G01*
X185112500Y-150837500D01*
G75*
G02*
X184862500Y-150587500I0J250000D01*
G01*
G37*
G36*
G01*
X150600000Y-119950000D02*
X150600000Y-120850000D01*
G75*
G02*
X150350000Y-121100000I-250000J0D01*
G01*
X149650000Y-121100000D01*
G75*
G02*
X149400000Y-120850000I0J250000D01*
G01*
X149400000Y-119950000D01*
G75*
G02*
X149650000Y-119700000I250000J0D01*
G01*
X150350000Y-119700000D01*
G75*
G02*
X150600000Y-119950000I0J-250000D01*
G01*
G37*
G36*
G01*
X148600000Y-119950000D02*
X148600000Y-120850000D01*
G75*
G02*
X148350000Y-121100000I-250000J0D01*
G01*
X147650000Y-121100000D01*
G75*
G02*
X147400000Y-120850000I0J250000D01*
G01*
X147400000Y-119950000D01*
G75*
G02*
X147650000Y-119700000I250000J0D01*
G01*
X148350000Y-119700000D01*
G75*
G02*
X148600000Y-119950000I0J-250000D01*
G01*
G37*
G36*
G01*
X203737500Y-74222500D02*
X203737500Y-72852500D01*
G75*
G02*
X203927500Y-72662500I190000J0D01*
G01*
X204497500Y-72662500D01*
G75*
G02*
X204687500Y-72852500I0J-190000D01*
G01*
X204687500Y-74222500D01*
G75*
G02*
X204497500Y-74412500I-190000J0D01*
G01*
X203927500Y-74412500D01*
G75*
G02*
X203737500Y-74222500I0J190000D01*
G01*
G37*
G36*
G01*
X206837500Y-74222500D02*
X206837500Y-72852500D01*
G75*
G02*
X207027500Y-72662500I190000J0D01*
G01*
X207597500Y-72662500D01*
G75*
G02*
X207787500Y-72852500I0J-190000D01*
G01*
X207787500Y-74222500D01*
G75*
G02*
X207597500Y-74412500I-190000J0D01*
G01*
X207027500Y-74412500D01*
G75*
G02*
X206837500Y-74222500I0J190000D01*
G01*
G37*
G36*
G01*
X145042500Y-140342500D02*
X145942500Y-140342500D01*
G75*
G02*
X146192500Y-140592500I0J-250000D01*
G01*
X146192500Y-141292500D01*
G75*
G02*
X145942500Y-141542500I-250000J0D01*
G01*
X145042500Y-141542500D01*
G75*
G02*
X144792500Y-141292500I0J250000D01*
G01*
X144792500Y-140592500D01*
G75*
G02*
X145042500Y-140342500I250000J0D01*
G01*
G37*
G36*
G01*
X145042500Y-142342500D02*
X145942500Y-142342500D01*
G75*
G02*
X146192500Y-142592500I0J-250000D01*
G01*
X146192500Y-143292500D01*
G75*
G02*
X145942500Y-143542500I-250000J0D01*
G01*
X145042500Y-143542500D01*
G75*
G02*
X144792500Y-143292500I0J250000D01*
G01*
X144792500Y-142592500D01*
G75*
G02*
X145042500Y-142342500I250000J0D01*
G01*
G37*
D13*
X193087500Y-124537500D03*
X196387500Y-124537500D03*
G36*
G01*
X183737500Y-74222500D02*
X183737500Y-72852500D01*
G75*
G02*
X183927500Y-72662500I190000J0D01*
G01*
X184497500Y-72662500D01*
G75*
G02*
X184687500Y-72852500I0J-190000D01*
G01*
X184687500Y-74222500D01*
G75*
G02*
X184497500Y-74412500I-190000J0D01*
G01*
X183927500Y-74412500D01*
G75*
G02*
X183737500Y-74222500I0J190000D01*
G01*
G37*
G36*
G01*
X186837500Y-74222500D02*
X186837500Y-72852500D01*
G75*
G02*
X187027500Y-72662500I190000J0D01*
G01*
X187597500Y-72662500D01*
G75*
G02*
X187787500Y-72852500I0J-190000D01*
G01*
X187787500Y-74222500D01*
G75*
G02*
X187597500Y-74412500I-190000J0D01*
G01*
X187027500Y-74412500D01*
G75*
G02*
X186837500Y-74222500I0J190000D01*
G01*
G37*
G36*
G01*
X128737500Y-109222500D02*
X128737500Y-107852500D01*
G75*
G02*
X128927500Y-107662500I190000J0D01*
G01*
X129497500Y-107662500D01*
G75*
G02*
X129687500Y-107852500I0J-190000D01*
G01*
X129687500Y-109222500D01*
G75*
G02*
X129497500Y-109412500I-190000J0D01*
G01*
X128927500Y-109412500D01*
G75*
G02*
X128737500Y-109222500I0J190000D01*
G01*
G37*
G36*
G01*
X131837500Y-109222500D02*
X131837500Y-107852500D01*
G75*
G02*
X132027500Y-107662500I190000J0D01*
G01*
X132597500Y-107662500D01*
G75*
G02*
X132787500Y-107852500I0J-190000D01*
G01*
X132787500Y-109222500D01*
G75*
G02*
X132597500Y-109412500I-190000J0D01*
G01*
X132027500Y-109412500D01*
G75*
G02*
X131837500Y-109222500I0J190000D01*
G01*
G37*
G36*
G01*
X200462500Y-149687500D02*
X200462500Y-150587500D01*
G75*
G02*
X200212500Y-150837500I-250000J0D01*
G01*
X199512500Y-150837500D01*
G75*
G02*
X199262500Y-150587500I0J250000D01*
G01*
X199262500Y-149687500D01*
G75*
G02*
X199512500Y-149437500I250000J0D01*
G01*
X200212500Y-149437500D01*
G75*
G02*
X200462500Y-149687500I0J-250000D01*
G01*
G37*
G36*
G01*
X198462500Y-149687500D02*
X198462500Y-150587500D01*
G75*
G02*
X198212500Y-150837500I-250000J0D01*
G01*
X197512500Y-150837500D01*
G75*
G02*
X197262500Y-150587500I0J250000D01*
G01*
X197262500Y-149687500D01*
G75*
G02*
X197512500Y-149437500I250000J0D01*
G01*
X198212500Y-149437500D01*
G75*
G02*
X198462500Y-149687500I0J-250000D01*
G01*
G37*
G36*
G01*
X133737500Y-109222500D02*
X133737500Y-107852500D01*
G75*
G02*
X133927500Y-107662500I190000J0D01*
G01*
X134497500Y-107662500D01*
G75*
G02*
X134687500Y-107852500I0J-190000D01*
G01*
X134687500Y-109222500D01*
G75*
G02*
X134497500Y-109412500I-190000J0D01*
G01*
X133927500Y-109412500D01*
G75*
G02*
X133737500Y-109222500I0J190000D01*
G01*
G37*
G36*
G01*
X136837500Y-109222500D02*
X136837500Y-107852500D01*
G75*
G02*
X137027500Y-107662500I190000J0D01*
G01*
X137597500Y-107662500D01*
G75*
G02*
X137787500Y-107852500I0J-190000D01*
G01*
X137787500Y-109222500D01*
G75*
G02*
X137597500Y-109412500I-190000J0D01*
G01*
X137027500Y-109412500D01*
G75*
G02*
X136837500Y-109222500I0J190000D01*
G01*
G37*
G36*
G01*
X148737500Y-125662500D02*
X147787500Y-125662500D01*
G75*
G02*
X147537500Y-125412500I0J250000D01*
G01*
X147537500Y-124737500D01*
G75*
G02*
X147787500Y-124487500I250000J0D01*
G01*
X148737500Y-124487500D01*
G75*
G02*
X148987500Y-124737500I0J-250000D01*
G01*
X148987500Y-125412500D01*
G75*
G02*
X148737500Y-125662500I-250000J0D01*
G01*
G37*
G36*
G01*
X148737500Y-123587500D02*
X147787500Y-123587500D01*
G75*
G02*
X147537500Y-123337500I0J250000D01*
G01*
X147537500Y-122662500D01*
G75*
G02*
X147787500Y-122412500I250000J0D01*
G01*
X148737500Y-122412500D01*
G75*
G02*
X148987500Y-122662500I0J-250000D01*
G01*
X148987500Y-123337500D01*
G75*
G02*
X148737500Y-123587500I-250000J0D01*
G01*
G37*
G36*
G01*
X189387500Y-147512500D02*
X190337500Y-147512500D01*
G75*
G02*
X190587500Y-147762500I0J-250000D01*
G01*
X190587500Y-148437500D01*
G75*
G02*
X190337500Y-148687500I-250000J0D01*
G01*
X189387500Y-148687500D01*
G75*
G02*
X189137500Y-148437500I0J250000D01*
G01*
X189137500Y-147762500D01*
G75*
G02*
X189387500Y-147512500I250000J0D01*
G01*
G37*
G36*
G01*
X189387500Y-149587500D02*
X190337500Y-149587500D01*
G75*
G02*
X190587500Y-149837500I0J-250000D01*
G01*
X190587500Y-150512500D01*
G75*
G02*
X190337500Y-150762500I-250000J0D01*
G01*
X189387500Y-150762500D01*
G75*
G02*
X189137500Y-150512500I0J250000D01*
G01*
X189137500Y-149837500D01*
G75*
G02*
X189387500Y-149587500I250000J0D01*
G01*
G37*
G36*
G01*
X198212500Y-143737500D02*
X199112500Y-143737500D01*
G75*
G02*
X199362500Y-143987500I0J-250000D01*
G01*
X199362500Y-144687500D01*
G75*
G02*
X199112500Y-144937500I-250000J0D01*
G01*
X198212500Y-144937500D01*
G75*
G02*
X197962500Y-144687500I0J250000D01*
G01*
X197962500Y-143987500D01*
G75*
G02*
X198212500Y-143737500I250000J0D01*
G01*
G37*
G36*
G01*
X198212500Y-145737500D02*
X199112500Y-145737500D01*
G75*
G02*
X199362500Y-145987500I0J-250000D01*
G01*
X199362500Y-146687500D01*
G75*
G02*
X199112500Y-146937500I-250000J0D01*
G01*
X198212500Y-146937500D01*
G75*
G02*
X197962500Y-146687500I0J250000D01*
G01*
X197962500Y-145987500D01*
G75*
G02*
X198212500Y-145737500I250000J0D01*
G01*
G37*
G36*
G01*
X158862500Y-98437500D02*
X158862500Y-98737500D01*
G75*
G02*
X158712500Y-98887500I-150000J0D01*
G01*
X157687500Y-98887500D01*
G75*
G02*
X157537500Y-98737500I0J150000D01*
G01*
X157537500Y-98437500D01*
G75*
G02*
X157687500Y-98287500I150000J0D01*
G01*
X158712500Y-98287500D01*
G75*
G02*
X158862500Y-98437500I0J-150000D01*
G01*
G37*
G36*
G01*
X158862500Y-97487500D02*
X158862500Y-97787500D01*
G75*
G02*
X158712500Y-97937500I-150000J0D01*
G01*
X157687500Y-97937500D01*
G75*
G02*
X157537500Y-97787500I0J150000D01*
G01*
X157537500Y-97487500D01*
G75*
G02*
X157687500Y-97337500I150000J0D01*
G01*
X158712500Y-97337500D01*
G75*
G02*
X158862500Y-97487500I0J-150000D01*
G01*
G37*
G36*
G01*
X158862500Y-96537500D02*
X158862500Y-96837500D01*
G75*
G02*
X158712500Y-96987500I-150000J0D01*
G01*
X157687500Y-96987500D01*
G75*
G02*
X157537500Y-96837500I0J150000D01*
G01*
X157537500Y-96537500D01*
G75*
G02*
X157687500Y-96387500I150000J0D01*
G01*
X158712500Y-96387500D01*
G75*
G02*
X158862500Y-96537500I0J-150000D01*
G01*
G37*
G36*
G01*
X156587500Y-96537500D02*
X156587500Y-96837500D01*
G75*
G02*
X156437500Y-96987500I-150000J0D01*
G01*
X155412500Y-96987500D01*
G75*
G02*
X155262500Y-96837500I0J150000D01*
G01*
X155262500Y-96537500D01*
G75*
G02*
X155412500Y-96387500I150000J0D01*
G01*
X156437500Y-96387500D01*
G75*
G02*
X156587500Y-96537500I0J-150000D01*
G01*
G37*
G36*
G01*
X156587500Y-97487500D02*
X156587500Y-97787500D01*
G75*
G02*
X156437500Y-97937500I-150000J0D01*
G01*
X155412500Y-97937500D01*
G75*
G02*
X155262500Y-97787500I0J150000D01*
G01*
X155262500Y-97487500D01*
G75*
G02*
X155412500Y-97337500I150000J0D01*
G01*
X156437500Y-97337500D01*
G75*
G02*
X156587500Y-97487500I0J-150000D01*
G01*
G37*
G36*
G01*
X156587500Y-98437500D02*
X156587500Y-98737500D01*
G75*
G02*
X156437500Y-98887500I-150000J0D01*
G01*
X155412500Y-98887500D01*
G75*
G02*
X155262500Y-98737500I0J150000D01*
G01*
X155262500Y-98437500D01*
G75*
G02*
X155412500Y-98287500I150000J0D01*
G01*
X156437500Y-98287500D01*
G75*
G02*
X156587500Y-98437500I0J-150000D01*
G01*
G37*
G36*
G01*
X190337500Y-146962500D02*
X189387500Y-146962500D01*
G75*
G02*
X189137500Y-146712500I0J250000D01*
G01*
X189137500Y-146037500D01*
G75*
G02*
X189387500Y-145787500I250000J0D01*
G01*
X190337500Y-145787500D01*
G75*
G02*
X190587500Y-146037500I0J-250000D01*
G01*
X190587500Y-146712500D01*
G75*
G02*
X190337500Y-146962500I-250000J0D01*
G01*
G37*
G36*
G01*
X190337500Y-144887500D02*
X189387500Y-144887500D01*
G75*
G02*
X189137500Y-144637500I0J250000D01*
G01*
X189137500Y-143962500D01*
G75*
G02*
X189387500Y-143712500I250000J0D01*
G01*
X190337500Y-143712500D01*
G75*
G02*
X190587500Y-143962500I0J-250000D01*
G01*
X190587500Y-144637500D01*
G75*
G02*
X190337500Y-144887500I-250000J0D01*
G01*
G37*
G36*
G01*
X139942500Y-143542500D02*
X139042500Y-143542500D01*
G75*
G02*
X138792500Y-143292500I0J250000D01*
G01*
X138792500Y-142592500D01*
G75*
G02*
X139042500Y-142342500I250000J0D01*
G01*
X139942500Y-142342500D01*
G75*
G02*
X140192500Y-142592500I0J-250000D01*
G01*
X140192500Y-143292500D01*
G75*
G02*
X139942500Y-143542500I-250000J0D01*
G01*
G37*
G36*
G01*
X139942500Y-141542500D02*
X139042500Y-141542500D01*
G75*
G02*
X138792500Y-141292500I0J250000D01*
G01*
X138792500Y-140592500D01*
G75*
G02*
X139042500Y-140342500I250000J0D01*
G01*
X139942500Y-140342500D01*
G75*
G02*
X140192500Y-140592500I0J-250000D01*
G01*
X140192500Y-141292500D01*
G75*
G02*
X139942500Y-141542500I-250000J0D01*
G01*
G37*
G36*
G01*
X200462500Y-147687500D02*
X200462500Y-148587500D01*
G75*
G02*
X200212500Y-148837500I-250000J0D01*
G01*
X199512500Y-148837500D01*
G75*
G02*
X199262500Y-148587500I0J250000D01*
G01*
X199262500Y-147687500D01*
G75*
G02*
X199512500Y-147437500I250000J0D01*
G01*
X200212500Y-147437500D01*
G75*
G02*
X200462500Y-147687500I0J-250000D01*
G01*
G37*
G36*
G01*
X198462500Y-147687500D02*
X198462500Y-148587500D01*
G75*
G02*
X198212500Y-148837500I-250000J0D01*
G01*
X197512500Y-148837500D01*
G75*
G02*
X197262500Y-148587500I0J250000D01*
G01*
X197262500Y-147687500D01*
G75*
G02*
X197512500Y-147437500I250000J0D01*
G01*
X198212500Y-147437500D01*
G75*
G02*
X198462500Y-147687500I0J-250000D01*
G01*
G37*
G36*
G01*
X132662500Y-75587500D02*
X132662500Y-76487500D01*
G75*
G02*
X132412500Y-76737500I-250000J0D01*
G01*
X131712500Y-76737500D01*
G75*
G02*
X131462500Y-76487500I0J250000D01*
G01*
X131462500Y-75587500D01*
G75*
G02*
X131712500Y-75337500I250000J0D01*
G01*
X132412500Y-75337500D01*
G75*
G02*
X132662500Y-75587500I0J-250000D01*
G01*
G37*
G36*
G01*
X130662500Y-75587500D02*
X130662500Y-76487500D01*
G75*
G02*
X130412500Y-76737500I-250000J0D01*
G01*
X129712500Y-76737500D01*
G75*
G02*
X129462500Y-76487500I0J250000D01*
G01*
X129462500Y-75587500D01*
G75*
G02*
X129712500Y-75337500I250000J0D01*
G01*
X130412500Y-75337500D01*
G75*
G02*
X130662500Y-75587500I0J-250000D01*
G01*
G37*
G36*
G01*
X148737500Y-109222500D02*
X148737500Y-107852500D01*
G75*
G02*
X148927500Y-107662500I190000J0D01*
G01*
X149497500Y-107662500D01*
G75*
G02*
X149687500Y-107852500I0J-190000D01*
G01*
X149687500Y-109222500D01*
G75*
G02*
X149497500Y-109412500I-190000J0D01*
G01*
X148927500Y-109412500D01*
G75*
G02*
X148737500Y-109222500I0J190000D01*
G01*
G37*
G36*
G01*
X151837500Y-109222500D02*
X151837500Y-107852500D01*
G75*
G02*
X152027500Y-107662500I190000J0D01*
G01*
X152597500Y-107662500D01*
G75*
G02*
X152787500Y-107852500I0J-190000D01*
G01*
X152787500Y-109222500D01*
G75*
G02*
X152597500Y-109412500I-190000J0D01*
G01*
X152027500Y-109412500D01*
G75*
G02*
X151837500Y-109222500I0J190000D01*
G01*
G37*
G36*
G01*
X203737500Y-109222500D02*
X203737500Y-107852500D01*
G75*
G02*
X203927500Y-107662500I190000J0D01*
G01*
X204497500Y-107662500D01*
G75*
G02*
X204687500Y-107852500I0J-190000D01*
G01*
X204687500Y-109222500D01*
G75*
G02*
X204497500Y-109412500I-190000J0D01*
G01*
X203927500Y-109412500D01*
G75*
G02*
X203737500Y-109222500I0J190000D01*
G01*
G37*
G36*
G01*
X206837500Y-109222500D02*
X206837500Y-107852500D01*
G75*
G02*
X207027500Y-107662500I190000J0D01*
G01*
X207597500Y-107662500D01*
G75*
G02*
X207787500Y-107852500I0J-190000D01*
G01*
X207787500Y-109222500D01*
G75*
G02*
X207597500Y-109412500I-190000J0D01*
G01*
X207027500Y-109412500D01*
G75*
G02*
X206837500Y-109222500I0J190000D01*
G01*
G37*
G36*
G01*
X188337500Y-146962500D02*
X187387500Y-146962500D01*
G75*
G02*
X187137500Y-146712500I0J250000D01*
G01*
X187137500Y-146037500D01*
G75*
G02*
X187387500Y-145787500I250000J0D01*
G01*
X188337500Y-145787500D01*
G75*
G02*
X188587500Y-146037500I0J-250000D01*
G01*
X188587500Y-146712500D01*
G75*
G02*
X188337500Y-146962500I-250000J0D01*
G01*
G37*
G36*
G01*
X188337500Y-144887500D02*
X187387500Y-144887500D01*
G75*
G02*
X187137500Y-144637500I0J250000D01*
G01*
X187137500Y-143962500D01*
G75*
G02*
X187387500Y-143712500I250000J0D01*
G01*
X188337500Y-143712500D01*
G75*
G02*
X188587500Y-143962500I0J-250000D01*
G01*
X188587500Y-144637500D01*
G75*
G02*
X188337500Y-144887500I-250000J0D01*
G01*
G37*
G36*
G01*
X148737500Y-74222500D02*
X148737500Y-72852500D01*
G75*
G02*
X148927500Y-72662500I190000J0D01*
G01*
X149497500Y-72662500D01*
G75*
G02*
X149687500Y-72852500I0J-190000D01*
G01*
X149687500Y-74222500D01*
G75*
G02*
X149497500Y-74412500I-190000J0D01*
G01*
X148927500Y-74412500D01*
G75*
G02*
X148737500Y-74222500I0J190000D01*
G01*
G37*
G36*
G01*
X151837500Y-74222500D02*
X151837500Y-72852500D01*
G75*
G02*
X152027500Y-72662500I190000J0D01*
G01*
X152597500Y-72662500D01*
G75*
G02*
X152787500Y-72852500I0J-190000D01*
G01*
X152787500Y-74222500D01*
G75*
G02*
X152597500Y-74412500I-190000J0D01*
G01*
X152027500Y-74412500D01*
G75*
G02*
X151837500Y-74222500I0J190000D01*
G01*
G37*
D14*
X144500000Y-117150000D03*
X142300000Y-117150000D03*
X142300000Y-118850000D03*
X144500000Y-118850000D03*
G36*
G01*
X180987500Y-143712500D02*
X181937500Y-143712500D01*
G75*
G02*
X182187500Y-143962500I0J-250000D01*
G01*
X182187500Y-144637500D01*
G75*
G02*
X181937500Y-144887500I-250000J0D01*
G01*
X180987500Y-144887500D01*
G75*
G02*
X180737500Y-144637500I0J250000D01*
G01*
X180737500Y-143962500D01*
G75*
G02*
X180987500Y-143712500I250000J0D01*
G01*
G37*
G36*
G01*
X180987500Y-145787500D02*
X181937500Y-145787500D01*
G75*
G02*
X182187500Y-146037500I0J-250000D01*
G01*
X182187500Y-146712500D01*
G75*
G02*
X181937500Y-146962500I-250000J0D01*
G01*
X180987500Y-146962500D01*
G75*
G02*
X180737500Y-146712500I0J250000D01*
G01*
X180737500Y-146037500D01*
G75*
G02*
X180987500Y-145787500I250000J0D01*
G01*
G37*
G36*
G01*
X152712500Y-125637500D02*
X151812500Y-125637500D01*
G75*
G02*
X151562500Y-125387500I0J250000D01*
G01*
X151562500Y-124687500D01*
G75*
G02*
X151812500Y-124437500I250000J0D01*
G01*
X152712500Y-124437500D01*
G75*
G02*
X152962500Y-124687500I0J-250000D01*
G01*
X152962500Y-125387500D01*
G75*
G02*
X152712500Y-125637500I-250000J0D01*
G01*
G37*
G36*
G01*
X152712500Y-123637500D02*
X151812500Y-123637500D01*
G75*
G02*
X151562500Y-123387500I0J250000D01*
G01*
X151562500Y-122687500D01*
G75*
G02*
X151812500Y-122437500I250000J0D01*
G01*
X152712500Y-122437500D01*
G75*
G02*
X152962500Y-122687500I0J-250000D01*
G01*
X152962500Y-123387500D01*
G75*
G02*
X152712500Y-123637500I-250000J0D01*
G01*
G37*
G36*
G01*
X137387500Y-84612500D02*
X138337500Y-84612500D01*
G75*
G02*
X138587500Y-84862500I0J-250000D01*
G01*
X138587500Y-85537500D01*
G75*
G02*
X138337500Y-85787500I-250000J0D01*
G01*
X137387500Y-85787500D01*
G75*
G02*
X137137500Y-85537500I0J250000D01*
G01*
X137137500Y-84862500D01*
G75*
G02*
X137387500Y-84612500I250000J0D01*
G01*
G37*
G36*
G01*
X137387500Y-86687500D02*
X138337500Y-86687500D01*
G75*
G02*
X138587500Y-86937500I0J-250000D01*
G01*
X138587500Y-87612500D01*
G75*
G02*
X138337500Y-87862500I-250000J0D01*
G01*
X137387500Y-87862500D01*
G75*
G02*
X137137500Y-87612500I0J250000D01*
G01*
X137137500Y-86937500D01*
G75*
G02*
X137387500Y-86687500I250000J0D01*
G01*
G37*
G36*
G01*
X177937500Y-150762500D02*
X176987500Y-150762500D01*
G75*
G02*
X176737500Y-150512500I0J250000D01*
G01*
X176737500Y-149837500D01*
G75*
G02*
X176987500Y-149587500I250000J0D01*
G01*
X177937500Y-149587500D01*
G75*
G02*
X178187500Y-149837500I0J-250000D01*
G01*
X178187500Y-150512500D01*
G75*
G02*
X177937500Y-150762500I-250000J0D01*
G01*
G37*
G36*
G01*
X177937500Y-148687500D02*
X176987500Y-148687500D01*
G75*
G02*
X176737500Y-148437500I0J250000D01*
G01*
X176737500Y-147762500D01*
G75*
G02*
X176987500Y-147512500I250000J0D01*
G01*
X177937500Y-147512500D01*
G75*
G02*
X178187500Y-147762500I0J-250000D01*
G01*
X178187500Y-148437500D01*
G75*
G02*
X177937500Y-148687500I-250000J0D01*
G01*
G37*
D15*
X137292500Y-143992500D03*
X137292500Y-140692500D03*
G36*
G01*
X198737500Y-74222500D02*
X198737500Y-72852500D01*
G75*
G02*
X198927500Y-72662500I190000J0D01*
G01*
X199497500Y-72662500D01*
G75*
G02*
X199687500Y-72852500I0J-190000D01*
G01*
X199687500Y-74222500D01*
G75*
G02*
X199497500Y-74412500I-190000J0D01*
G01*
X198927500Y-74412500D01*
G75*
G02*
X198737500Y-74222500I0J190000D01*
G01*
G37*
G36*
G01*
X201837500Y-74222500D02*
X201837500Y-72852500D01*
G75*
G02*
X202027500Y-72662500I190000J0D01*
G01*
X202597500Y-72662500D01*
G75*
G02*
X202787500Y-72852500I0J-190000D01*
G01*
X202787500Y-74222500D01*
G75*
G02*
X202597500Y-74412500I-190000J0D01*
G01*
X202027500Y-74412500D01*
G75*
G02*
X201837500Y-74222500I0J190000D01*
G01*
G37*
G36*
G01*
X198737500Y-109222500D02*
X198737500Y-107852500D01*
G75*
G02*
X198927500Y-107662500I190000J0D01*
G01*
X199497500Y-107662500D01*
G75*
G02*
X199687500Y-107852500I0J-190000D01*
G01*
X199687500Y-109222500D01*
G75*
G02*
X199497500Y-109412500I-190000J0D01*
G01*
X198927500Y-109412500D01*
G75*
G02*
X198737500Y-109222500I0J190000D01*
G01*
G37*
G36*
G01*
X201837500Y-109222500D02*
X201837500Y-107852500D01*
G75*
G02*
X202027500Y-107662500I190000J0D01*
G01*
X202597500Y-107662500D01*
G75*
G02*
X202787500Y-107852500I0J-190000D01*
G01*
X202787500Y-109222500D01*
G75*
G02*
X202597500Y-109412500I-190000J0D01*
G01*
X202027500Y-109412500D01*
G75*
G02*
X201837500Y-109222500I0J190000D01*
G01*
G37*
G36*
G01*
X169062500Y-120737500D02*
X169362500Y-120737500D01*
G75*
G02*
X169512500Y-120887500I0J-150000D01*
G01*
X169512500Y-121912500D01*
G75*
G02*
X169362500Y-122062500I-150000J0D01*
G01*
X169062500Y-122062500D01*
G75*
G02*
X168912500Y-121912500I0J150000D01*
G01*
X168912500Y-120887500D01*
G75*
G02*
X169062500Y-120737500I150000J0D01*
G01*
G37*
G36*
G01*
X168112500Y-120737500D02*
X168412500Y-120737500D01*
G75*
G02*
X168562500Y-120887500I0J-150000D01*
G01*
X168562500Y-121912500D01*
G75*
G02*
X168412500Y-122062500I-150000J0D01*
G01*
X168112500Y-122062500D01*
G75*
G02*
X167962500Y-121912500I0J150000D01*
G01*
X167962500Y-120887500D01*
G75*
G02*
X168112500Y-120737500I150000J0D01*
G01*
G37*
G36*
G01*
X167162500Y-120737500D02*
X167462500Y-120737500D01*
G75*
G02*
X167612500Y-120887500I0J-150000D01*
G01*
X167612500Y-121912500D01*
G75*
G02*
X167462500Y-122062500I-150000J0D01*
G01*
X167162500Y-122062500D01*
G75*
G02*
X167012500Y-121912500I0J150000D01*
G01*
X167012500Y-120887500D01*
G75*
G02*
X167162500Y-120737500I150000J0D01*
G01*
G37*
G36*
G01*
X167162500Y-123012500D02*
X167462500Y-123012500D01*
G75*
G02*
X167612500Y-123162500I0J-150000D01*
G01*
X167612500Y-124187500D01*
G75*
G02*
X167462500Y-124337500I-150000J0D01*
G01*
X167162500Y-124337500D01*
G75*
G02*
X167012500Y-124187500I0J150000D01*
G01*
X167012500Y-123162500D01*
G75*
G02*
X167162500Y-123012500I150000J0D01*
G01*
G37*
G36*
G01*
X168112500Y-123012500D02*
X168412500Y-123012500D01*
G75*
G02*
X168562500Y-123162500I0J-150000D01*
G01*
X168562500Y-124187500D01*
G75*
G02*
X168412500Y-124337500I-150000J0D01*
G01*
X168112500Y-124337500D01*
G75*
G02*
X167962500Y-124187500I0J150000D01*
G01*
X167962500Y-123162500D01*
G75*
G02*
X168112500Y-123012500I150000J0D01*
G01*
G37*
G36*
G01*
X169062500Y-123012500D02*
X169362500Y-123012500D01*
G75*
G02*
X169512500Y-123162500I0J-150000D01*
G01*
X169512500Y-124187500D01*
G75*
G02*
X169362500Y-124337500I-150000J0D01*
G01*
X169062500Y-124337500D01*
G75*
G02*
X168912500Y-124187500I0J150000D01*
G01*
X168912500Y-123162500D01*
G75*
G02*
X169062500Y-123012500I150000J0D01*
G01*
G37*
G36*
G01*
X204262500Y-143087500D02*
X204262500Y-143987500D01*
G75*
G02*
X204012500Y-144237500I-250000J0D01*
G01*
X203362500Y-144237500D01*
G75*
G02*
X203112500Y-143987500I0J250000D01*
G01*
X203112500Y-143087500D01*
G75*
G02*
X203362500Y-142837500I250000J0D01*
G01*
X204012500Y-142837500D01*
G75*
G02*
X204262500Y-143087500I0J-250000D01*
G01*
G37*
G36*
G01*
X202212500Y-143087500D02*
X202212500Y-143987500D01*
G75*
G02*
X201962500Y-144237500I-250000J0D01*
G01*
X201312500Y-144237500D01*
G75*
G02*
X201062500Y-143987500I0J250000D01*
G01*
X201062500Y-143087500D01*
G75*
G02*
X201312500Y-142837500I250000J0D01*
G01*
X201962500Y-142837500D01*
G75*
G02*
X202212500Y-143087500I0J-250000D01*
G01*
G37*
G36*
G01*
X201062500Y-148587500D02*
X201062500Y-147687500D01*
G75*
G02*
X201312500Y-147437500I250000J0D01*
G01*
X202012500Y-147437500D01*
G75*
G02*
X202262500Y-147687500I0J-250000D01*
G01*
X202262500Y-148587500D01*
G75*
G02*
X202012500Y-148837500I-250000J0D01*
G01*
X201312500Y-148837500D01*
G75*
G02*
X201062500Y-148587500I0J250000D01*
G01*
G37*
G36*
G01*
X203062500Y-148587500D02*
X203062500Y-147687500D01*
G75*
G02*
X203312500Y-147437500I250000J0D01*
G01*
X204012500Y-147437500D01*
G75*
G02*
X204262500Y-147687500I0J-250000D01*
G01*
X204262500Y-148587500D01*
G75*
G02*
X204012500Y-148837500I-250000J0D01*
G01*
X203312500Y-148837500D01*
G75*
G02*
X203062500Y-148587500I0J250000D01*
G01*
G37*
G36*
G01*
X183237500Y-142212500D02*
X183237500Y-141262500D01*
G75*
G02*
X183487500Y-141012500I250000J0D01*
G01*
X184162500Y-141012500D01*
G75*
G02*
X184412500Y-141262500I0J-250000D01*
G01*
X184412500Y-142212500D01*
G75*
G02*
X184162500Y-142462500I-250000J0D01*
G01*
X183487500Y-142462500D01*
G75*
G02*
X183237500Y-142212500I0J250000D01*
G01*
G37*
G36*
G01*
X185312500Y-142212500D02*
X185312500Y-141262500D01*
G75*
G02*
X185562500Y-141012500I250000J0D01*
G01*
X186237500Y-141012500D01*
G75*
G02*
X186487500Y-141262500I0J-250000D01*
G01*
X186487500Y-142212500D01*
G75*
G02*
X186237500Y-142462500I-250000J0D01*
G01*
X185562500Y-142462500D01*
G75*
G02*
X185312500Y-142212500I0J250000D01*
G01*
G37*
G36*
G01*
X189037500Y-103762500D02*
X189037500Y-102812500D01*
G75*
G02*
X189287500Y-102562500I250000J0D01*
G01*
X189962500Y-102562500D01*
G75*
G02*
X190212500Y-102812500I0J-250000D01*
G01*
X190212500Y-103762500D01*
G75*
G02*
X189962500Y-104012500I-250000J0D01*
G01*
X189287500Y-104012500D01*
G75*
G02*
X189037500Y-103762500I0J250000D01*
G01*
G37*
G36*
G01*
X191112500Y-103762500D02*
X191112500Y-102812500D01*
G75*
G02*
X191362500Y-102562500I250000J0D01*
G01*
X192037500Y-102562500D01*
G75*
G02*
X192287500Y-102812500I0J-250000D01*
G01*
X192287500Y-103762500D01*
G75*
G02*
X192037500Y-104012500I-250000J0D01*
G01*
X191362500Y-104012500D01*
G75*
G02*
X191112500Y-103762500I0J250000D01*
G01*
G37*
G36*
G01*
X201062500Y-150587500D02*
X201062500Y-149687500D01*
G75*
G02*
X201312500Y-149437500I250000J0D01*
G01*
X202012500Y-149437500D01*
G75*
G02*
X202262500Y-149687500I0J-250000D01*
G01*
X202262500Y-150587500D01*
G75*
G02*
X202012500Y-150837500I-250000J0D01*
G01*
X201312500Y-150837500D01*
G75*
G02*
X201062500Y-150587500I0J250000D01*
G01*
G37*
G36*
G01*
X203062500Y-150587500D02*
X203062500Y-149687500D01*
G75*
G02*
X203312500Y-149437500I250000J0D01*
G01*
X204012500Y-149437500D01*
G75*
G02*
X204262500Y-149687500I0J-250000D01*
G01*
X204262500Y-150587500D01*
G75*
G02*
X204012500Y-150837500I-250000J0D01*
G01*
X203312500Y-150837500D01*
G75*
G02*
X203062500Y-150587500I0J250000D01*
G01*
G37*
G36*
G01*
X193387500Y-147512500D02*
X194337500Y-147512500D01*
G75*
G02*
X194587500Y-147762500I0J-250000D01*
G01*
X194587500Y-148437500D01*
G75*
G02*
X194337500Y-148687500I-250000J0D01*
G01*
X193387500Y-148687500D01*
G75*
G02*
X193137500Y-148437500I0J250000D01*
G01*
X193137500Y-147762500D01*
G75*
G02*
X193387500Y-147512500I250000J0D01*
G01*
G37*
G36*
G01*
X193387500Y-149587500D02*
X194337500Y-149587500D01*
G75*
G02*
X194587500Y-149837500I0J-250000D01*
G01*
X194587500Y-150512500D01*
G75*
G02*
X194337500Y-150762500I-250000J0D01*
G01*
X193387500Y-150762500D01*
G75*
G02*
X193137500Y-150512500I0J250000D01*
G01*
X193137500Y-149837500D01*
G75*
G02*
X193387500Y-149587500I250000J0D01*
G01*
G37*
G36*
G01*
X143737500Y-109222500D02*
X143737500Y-107852500D01*
G75*
G02*
X143927500Y-107662500I190000J0D01*
G01*
X144497500Y-107662500D01*
G75*
G02*
X144687500Y-107852500I0J-190000D01*
G01*
X144687500Y-109222500D01*
G75*
G02*
X144497500Y-109412500I-190000J0D01*
G01*
X143927500Y-109412500D01*
G75*
G02*
X143737500Y-109222500I0J190000D01*
G01*
G37*
G36*
G01*
X146837500Y-109222500D02*
X146837500Y-107852500D01*
G75*
G02*
X147027500Y-107662500I190000J0D01*
G01*
X147597500Y-107662500D01*
G75*
G02*
X147787500Y-107852500I0J-190000D01*
G01*
X147787500Y-109222500D01*
G75*
G02*
X147597500Y-109412500I-190000J0D01*
G01*
X147027500Y-109412500D01*
G75*
G02*
X146837500Y-109222500I0J190000D01*
G01*
G37*
G36*
G01*
X161137500Y-125662500D02*
X160187500Y-125662500D01*
G75*
G02*
X159937500Y-125412500I0J250000D01*
G01*
X159937500Y-124737500D01*
G75*
G02*
X160187500Y-124487500I250000J0D01*
G01*
X161137500Y-124487500D01*
G75*
G02*
X161387500Y-124737500I0J-250000D01*
G01*
X161387500Y-125412500D01*
G75*
G02*
X161137500Y-125662500I-250000J0D01*
G01*
G37*
G36*
G01*
X161137500Y-123587500D02*
X160187500Y-123587500D01*
G75*
G02*
X159937500Y-123337500I0J250000D01*
G01*
X159937500Y-122662500D01*
G75*
G02*
X160187500Y-122412500I250000J0D01*
G01*
X161137500Y-122412500D01*
G75*
G02*
X161387500Y-122662500I0J-250000D01*
G01*
X161387500Y-123337500D01*
G75*
G02*
X161137500Y-123587500I-250000J0D01*
G01*
G37*
G36*
G01*
X175375000Y-122475000D02*
X175375000Y-121525000D01*
G75*
G02*
X175625000Y-121275000I250000J0D01*
G01*
X176300000Y-121275000D01*
G75*
G02*
X176550000Y-121525000I0J-250000D01*
G01*
X176550000Y-122475000D01*
G75*
G02*
X176300000Y-122725000I-250000J0D01*
G01*
X175625000Y-122725000D01*
G75*
G02*
X175375000Y-122475000I0J250000D01*
G01*
G37*
G36*
G01*
X177450000Y-122475000D02*
X177450000Y-121525000D01*
G75*
G02*
X177700000Y-121275000I250000J0D01*
G01*
X178375000Y-121275000D01*
G75*
G02*
X178625000Y-121525000I0J-250000D01*
G01*
X178625000Y-122475000D01*
G75*
G02*
X178375000Y-122725000I-250000J0D01*
G01*
X177700000Y-122725000D01*
G75*
G02*
X177450000Y-122475000I0J250000D01*
G01*
G37*
G36*
G01*
X149242500Y-145342500D02*
X150142500Y-145342500D01*
G75*
G02*
X150392500Y-145592500I0J-250000D01*
G01*
X150392500Y-146292500D01*
G75*
G02*
X150142500Y-146542500I-250000J0D01*
G01*
X149242500Y-146542500D01*
G75*
G02*
X148992500Y-146292500I0J250000D01*
G01*
X148992500Y-145592500D01*
G75*
G02*
X149242500Y-145342500I250000J0D01*
G01*
G37*
G36*
G01*
X149242500Y-147342500D02*
X150142500Y-147342500D01*
G75*
G02*
X150392500Y-147592500I0J-250000D01*
G01*
X150392500Y-148292500D01*
G75*
G02*
X150142500Y-148542500I-250000J0D01*
G01*
X149242500Y-148542500D01*
G75*
G02*
X148992500Y-148292500I0J250000D01*
G01*
X148992500Y-147592500D01*
G75*
G02*
X149242500Y-147342500I250000J0D01*
G01*
G37*
G36*
G01*
X188737500Y-74222500D02*
X188737500Y-72852500D01*
G75*
G02*
X188927500Y-72662500I190000J0D01*
G01*
X189497500Y-72662500D01*
G75*
G02*
X189687500Y-72852500I0J-190000D01*
G01*
X189687500Y-74222500D01*
G75*
G02*
X189497500Y-74412500I-190000J0D01*
G01*
X188927500Y-74412500D01*
G75*
G02*
X188737500Y-74222500I0J190000D01*
G01*
G37*
G36*
G01*
X191837500Y-74222500D02*
X191837500Y-72852500D01*
G75*
G02*
X192027500Y-72662500I190000J0D01*
G01*
X192597500Y-72662500D01*
G75*
G02*
X192787500Y-72852500I0J-190000D01*
G01*
X192787500Y-74222500D01*
G75*
G02*
X192597500Y-74412500I-190000J0D01*
G01*
X192027500Y-74412500D01*
G75*
G02*
X191837500Y-74222500I0J190000D01*
G01*
G37*
G36*
G01*
X198192500Y-90512500D02*
X198492500Y-90512500D01*
G75*
G02*
X198642500Y-90662500I0J-150000D01*
G01*
X198642500Y-92412500D01*
G75*
G02*
X198492500Y-92562500I-150000J0D01*
G01*
X198192500Y-92562500D01*
G75*
G02*
X198042500Y-92412500I0J150000D01*
G01*
X198042500Y-90662500D01*
G75*
G02*
X198192500Y-90512500I150000J0D01*
G01*
G37*
G36*
G01*
X196922500Y-90512500D02*
X197222500Y-90512500D01*
G75*
G02*
X197372500Y-90662500I0J-150000D01*
G01*
X197372500Y-92412500D01*
G75*
G02*
X197222500Y-92562500I-150000J0D01*
G01*
X196922500Y-92562500D01*
G75*
G02*
X196772500Y-92412500I0J150000D01*
G01*
X196772500Y-90662500D01*
G75*
G02*
X196922500Y-90512500I150000J0D01*
G01*
G37*
G36*
G01*
X195652500Y-90512500D02*
X195952500Y-90512500D01*
G75*
G02*
X196102500Y-90662500I0J-150000D01*
G01*
X196102500Y-92412500D01*
G75*
G02*
X195952500Y-92562500I-150000J0D01*
G01*
X195652500Y-92562500D01*
G75*
G02*
X195502500Y-92412500I0J150000D01*
G01*
X195502500Y-90662500D01*
G75*
G02*
X195652500Y-90512500I150000J0D01*
G01*
G37*
G36*
G01*
X194382500Y-90512500D02*
X194682500Y-90512500D01*
G75*
G02*
X194832500Y-90662500I0J-150000D01*
G01*
X194832500Y-92412500D01*
G75*
G02*
X194682500Y-92562500I-150000J0D01*
G01*
X194382500Y-92562500D01*
G75*
G02*
X194232500Y-92412500I0J150000D01*
G01*
X194232500Y-90662500D01*
G75*
G02*
X194382500Y-90512500I150000J0D01*
G01*
G37*
G36*
G01*
X193112500Y-90512500D02*
X193412500Y-90512500D01*
G75*
G02*
X193562500Y-90662500I0J-150000D01*
G01*
X193562500Y-92412500D01*
G75*
G02*
X193412500Y-92562500I-150000J0D01*
G01*
X193112500Y-92562500D01*
G75*
G02*
X192962500Y-92412500I0J150000D01*
G01*
X192962500Y-90662500D01*
G75*
G02*
X193112500Y-90512500I150000J0D01*
G01*
G37*
G36*
G01*
X191842500Y-90512500D02*
X192142500Y-90512500D01*
G75*
G02*
X192292500Y-90662500I0J-150000D01*
G01*
X192292500Y-92412500D01*
G75*
G02*
X192142500Y-92562500I-150000J0D01*
G01*
X191842500Y-92562500D01*
G75*
G02*
X191692500Y-92412500I0J150000D01*
G01*
X191692500Y-90662500D01*
G75*
G02*
X191842500Y-90512500I150000J0D01*
G01*
G37*
G36*
G01*
X190572500Y-90512500D02*
X190872500Y-90512500D01*
G75*
G02*
X191022500Y-90662500I0J-150000D01*
G01*
X191022500Y-92412500D01*
G75*
G02*
X190872500Y-92562500I-150000J0D01*
G01*
X190572500Y-92562500D01*
G75*
G02*
X190422500Y-92412500I0J150000D01*
G01*
X190422500Y-90662500D01*
G75*
G02*
X190572500Y-90512500I150000J0D01*
G01*
G37*
G36*
G01*
X189302500Y-90512500D02*
X189602500Y-90512500D01*
G75*
G02*
X189752500Y-90662500I0J-150000D01*
G01*
X189752500Y-92412500D01*
G75*
G02*
X189602500Y-92562500I-150000J0D01*
G01*
X189302500Y-92562500D01*
G75*
G02*
X189152500Y-92412500I0J150000D01*
G01*
X189152500Y-90662500D01*
G75*
G02*
X189302500Y-90512500I150000J0D01*
G01*
G37*
G36*
G01*
X188032500Y-90512500D02*
X188332500Y-90512500D01*
G75*
G02*
X188482500Y-90662500I0J-150000D01*
G01*
X188482500Y-92412500D01*
G75*
G02*
X188332500Y-92562500I-150000J0D01*
G01*
X188032500Y-92562500D01*
G75*
G02*
X187882500Y-92412500I0J150000D01*
G01*
X187882500Y-90662500D01*
G75*
G02*
X188032500Y-90512500I150000J0D01*
G01*
G37*
G36*
G01*
X188032500Y-99812500D02*
X188332500Y-99812500D01*
G75*
G02*
X188482500Y-99962500I0J-150000D01*
G01*
X188482500Y-101712500D01*
G75*
G02*
X188332500Y-101862500I-150000J0D01*
G01*
X188032500Y-101862500D01*
G75*
G02*
X187882500Y-101712500I0J150000D01*
G01*
X187882500Y-99962500D01*
G75*
G02*
X188032500Y-99812500I150000J0D01*
G01*
G37*
G36*
G01*
X189302500Y-99812500D02*
X189602500Y-99812500D01*
G75*
G02*
X189752500Y-99962500I0J-150000D01*
G01*
X189752500Y-101712500D01*
G75*
G02*
X189602500Y-101862500I-150000J0D01*
G01*
X189302500Y-101862500D01*
G75*
G02*
X189152500Y-101712500I0J150000D01*
G01*
X189152500Y-99962500D01*
G75*
G02*
X189302500Y-99812500I150000J0D01*
G01*
G37*
G36*
G01*
X190572500Y-99812500D02*
X190872500Y-99812500D01*
G75*
G02*
X191022500Y-99962500I0J-150000D01*
G01*
X191022500Y-101712500D01*
G75*
G02*
X190872500Y-101862500I-150000J0D01*
G01*
X190572500Y-101862500D01*
G75*
G02*
X190422500Y-101712500I0J150000D01*
G01*
X190422500Y-99962500D01*
G75*
G02*
X190572500Y-99812500I150000J0D01*
G01*
G37*
G36*
G01*
X191842500Y-99812500D02*
X192142500Y-99812500D01*
G75*
G02*
X192292500Y-99962500I0J-150000D01*
G01*
X192292500Y-101712500D01*
G75*
G02*
X192142500Y-101862500I-150000J0D01*
G01*
X191842500Y-101862500D01*
G75*
G02*
X191692500Y-101712500I0J150000D01*
G01*
X191692500Y-99962500D01*
G75*
G02*
X191842500Y-99812500I150000J0D01*
G01*
G37*
G36*
G01*
X193112500Y-99812500D02*
X193412500Y-99812500D01*
G75*
G02*
X193562500Y-99962500I0J-150000D01*
G01*
X193562500Y-101712500D01*
G75*
G02*
X193412500Y-101862500I-150000J0D01*
G01*
X193112500Y-101862500D01*
G75*
G02*
X192962500Y-101712500I0J150000D01*
G01*
X192962500Y-99962500D01*
G75*
G02*
X193112500Y-99812500I150000J0D01*
G01*
G37*
G36*
G01*
X194382500Y-99812500D02*
X194682500Y-99812500D01*
G75*
G02*
X194832500Y-99962500I0J-150000D01*
G01*
X194832500Y-101712500D01*
G75*
G02*
X194682500Y-101862500I-150000J0D01*
G01*
X194382500Y-101862500D01*
G75*
G02*
X194232500Y-101712500I0J150000D01*
G01*
X194232500Y-99962500D01*
G75*
G02*
X194382500Y-99812500I150000J0D01*
G01*
G37*
G36*
G01*
X195652500Y-99812500D02*
X195952500Y-99812500D01*
G75*
G02*
X196102500Y-99962500I0J-150000D01*
G01*
X196102500Y-101712500D01*
G75*
G02*
X195952500Y-101862500I-150000J0D01*
G01*
X195652500Y-101862500D01*
G75*
G02*
X195502500Y-101712500I0J150000D01*
G01*
X195502500Y-99962500D01*
G75*
G02*
X195652500Y-99812500I150000J0D01*
G01*
G37*
G36*
G01*
X196922500Y-99812500D02*
X197222500Y-99812500D01*
G75*
G02*
X197372500Y-99962500I0J-150000D01*
G01*
X197372500Y-101712500D01*
G75*
G02*
X197222500Y-101862500I-150000J0D01*
G01*
X196922500Y-101862500D01*
G75*
G02*
X196772500Y-101712500I0J150000D01*
G01*
X196772500Y-99962500D01*
G75*
G02*
X196922500Y-99812500I150000J0D01*
G01*
G37*
G36*
G01*
X198192500Y-99812500D02*
X198492500Y-99812500D01*
G75*
G02*
X198642500Y-99962500I0J-150000D01*
G01*
X198642500Y-101712500D01*
G75*
G02*
X198492500Y-101862500I-150000J0D01*
G01*
X198192500Y-101862500D01*
G75*
G02*
X198042500Y-101712500I0J150000D01*
G01*
X198042500Y-99962500D01*
G75*
G02*
X198192500Y-99812500I150000J0D01*
G01*
G37*
G36*
G01*
X164562500Y-115377500D02*
X164962500Y-115377500D01*
G75*
G02*
X165012500Y-115427500I0J-50000D01*
G01*
X165012500Y-116917500D01*
G75*
G02*
X164962500Y-116967500I-50000J0D01*
G01*
X164562500Y-116967500D01*
G75*
G02*
X164512500Y-116917500I0J50000D01*
G01*
X164512500Y-115427500D01*
G75*
G02*
X164562500Y-115377500I50000J0D01*
G01*
G37*
G36*
G01*
X165562500Y-115377500D02*
X165962500Y-115377500D01*
G75*
G02*
X166012500Y-115427500I0J-50000D01*
G01*
X166012500Y-116917500D01*
G75*
G02*
X165962500Y-116967500I-50000J0D01*
G01*
X165562500Y-116967500D01*
G75*
G02*
X165512500Y-116917500I0J50000D01*
G01*
X165512500Y-115427500D01*
G75*
G02*
X165562500Y-115377500I50000J0D01*
G01*
G37*
G36*
G01*
X166562500Y-115377500D02*
X166962500Y-115377500D01*
G75*
G02*
X167012500Y-115427500I0J-50000D01*
G01*
X167012500Y-116917500D01*
G75*
G02*
X166962500Y-116967500I-50000J0D01*
G01*
X166562500Y-116967500D01*
G75*
G02*
X166512500Y-116917500I0J50000D01*
G01*
X166512500Y-115427500D01*
G75*
G02*
X166562500Y-115377500I50000J0D01*
G01*
G37*
G36*
G01*
X167562500Y-115377500D02*
X167962500Y-115377500D01*
G75*
G02*
X168012500Y-115427500I0J-50000D01*
G01*
X168012500Y-116917500D01*
G75*
G02*
X167962500Y-116967500I-50000J0D01*
G01*
X167562500Y-116967500D01*
G75*
G02*
X167512500Y-116917500I0J50000D01*
G01*
X167512500Y-115427500D01*
G75*
G02*
X167562500Y-115377500I50000J0D01*
G01*
G37*
G36*
G01*
X168562500Y-115377500D02*
X168962500Y-115377500D01*
G75*
G02*
X169012500Y-115427500I0J-50000D01*
G01*
X169012500Y-116917500D01*
G75*
G02*
X168962500Y-116967500I-50000J0D01*
G01*
X168562500Y-116967500D01*
G75*
G02*
X168512500Y-116917500I0J50000D01*
G01*
X168512500Y-115427500D01*
G75*
G02*
X168562500Y-115377500I50000J0D01*
G01*
G37*
G36*
G01*
X169562500Y-115377500D02*
X169962500Y-115377500D01*
G75*
G02*
X170012500Y-115427500I0J-50000D01*
G01*
X170012500Y-116917500D01*
G75*
G02*
X169962500Y-116967500I-50000J0D01*
G01*
X169562500Y-116967500D01*
G75*
G02*
X169512500Y-116917500I0J50000D01*
G01*
X169512500Y-115427500D01*
G75*
G02*
X169562500Y-115377500I50000J0D01*
G01*
G37*
G36*
G01*
X170562500Y-115377500D02*
X170962500Y-115377500D01*
G75*
G02*
X171012500Y-115427500I0J-50000D01*
G01*
X171012500Y-116917500D01*
G75*
G02*
X170962500Y-116967500I-50000J0D01*
G01*
X170562500Y-116967500D01*
G75*
G02*
X170512500Y-116917500I0J50000D01*
G01*
X170512500Y-115427500D01*
G75*
G02*
X170562500Y-115377500I50000J0D01*
G01*
G37*
G36*
G01*
X171562500Y-115377500D02*
X171962500Y-115377500D01*
G75*
G02*
X172012500Y-115427500I0J-50000D01*
G01*
X172012500Y-116917500D01*
G75*
G02*
X171962500Y-116967500I-50000J0D01*
G01*
X171562500Y-116967500D01*
G75*
G02*
X171512500Y-116917500I0J50000D01*
G01*
X171512500Y-115427500D01*
G75*
G02*
X171562500Y-115377500I50000J0D01*
G01*
G37*
G36*
G01*
X171562500Y-118107500D02*
X171962500Y-118107500D01*
G75*
G02*
X172012500Y-118157500I0J-50000D01*
G01*
X172012500Y-119647500D01*
G75*
G02*
X171962500Y-119697500I-50000J0D01*
G01*
X171562500Y-119697500D01*
G75*
G02*
X171512500Y-119647500I0J50000D01*
G01*
X171512500Y-118157500D01*
G75*
G02*
X171562500Y-118107500I50000J0D01*
G01*
G37*
G36*
G01*
X170562500Y-118107500D02*
X170962500Y-118107500D01*
G75*
G02*
X171012500Y-118157500I0J-50000D01*
G01*
X171012500Y-119647500D01*
G75*
G02*
X170962500Y-119697500I-50000J0D01*
G01*
X170562500Y-119697500D01*
G75*
G02*
X170512500Y-119647500I0J50000D01*
G01*
X170512500Y-118157500D01*
G75*
G02*
X170562500Y-118107500I50000J0D01*
G01*
G37*
G36*
G01*
X169562500Y-118107500D02*
X169962500Y-118107500D01*
G75*
G02*
X170012500Y-118157500I0J-50000D01*
G01*
X170012500Y-119647500D01*
G75*
G02*
X169962500Y-119697500I-50000J0D01*
G01*
X169562500Y-119697500D01*
G75*
G02*
X169512500Y-119647500I0J50000D01*
G01*
X169512500Y-118157500D01*
G75*
G02*
X169562500Y-118107500I50000J0D01*
G01*
G37*
G36*
G01*
X168562500Y-118107500D02*
X168962500Y-118107500D01*
G75*
G02*
X169012500Y-118157500I0J-50000D01*
G01*
X169012500Y-119647500D01*
G75*
G02*
X168962500Y-119697500I-50000J0D01*
G01*
X168562500Y-119697500D01*
G75*
G02*
X168512500Y-119647500I0J50000D01*
G01*
X168512500Y-118157500D01*
G75*
G02*
X168562500Y-118107500I50000J0D01*
G01*
G37*
G36*
G01*
X167562500Y-118107500D02*
X167962500Y-118107500D01*
G75*
G02*
X168012500Y-118157500I0J-50000D01*
G01*
X168012500Y-119647500D01*
G75*
G02*
X167962500Y-119697500I-50000J0D01*
G01*
X167562500Y-119697500D01*
G75*
G02*
X167512500Y-119647500I0J50000D01*
G01*
X167512500Y-118157500D01*
G75*
G02*
X167562500Y-118107500I50000J0D01*
G01*
G37*
G36*
G01*
X166562500Y-118107500D02*
X166962500Y-118107500D01*
G75*
G02*
X167012500Y-118157500I0J-50000D01*
G01*
X167012500Y-119647500D01*
G75*
G02*
X166962500Y-119697500I-50000J0D01*
G01*
X166562500Y-119697500D01*
G75*
G02*
X166512500Y-119647500I0J50000D01*
G01*
X166512500Y-118157500D01*
G75*
G02*
X166562500Y-118107500I50000J0D01*
G01*
G37*
G36*
G01*
X165562500Y-118107500D02*
X165962500Y-118107500D01*
G75*
G02*
X166012500Y-118157500I0J-50000D01*
G01*
X166012500Y-119647500D01*
G75*
G02*
X165962500Y-119697500I-50000J0D01*
G01*
X165562500Y-119697500D01*
G75*
G02*
X165512500Y-119647500I0J50000D01*
G01*
X165512500Y-118157500D01*
G75*
G02*
X165562500Y-118107500I50000J0D01*
G01*
G37*
G36*
G01*
X164562500Y-118107500D02*
X164962500Y-118107500D01*
G75*
G02*
X165012500Y-118157500I0J-50000D01*
G01*
X165012500Y-119647500D01*
G75*
G02*
X164962500Y-119697500I-50000J0D01*
G01*
X164562500Y-119697500D01*
G75*
G02*
X164512500Y-119647500I0J50000D01*
G01*
X164512500Y-118157500D01*
G75*
G02*
X164562500Y-118107500I50000J0D01*
G01*
G37*
D16*
X159372500Y-90062500D03*
X159372500Y-85012500D03*
X161912500Y-90062500D03*
X161912500Y-85012500D03*
X164452500Y-90062500D03*
X164452500Y-85012500D03*
X166992500Y-90062500D03*
X166992500Y-85012500D03*
X169532500Y-90062500D03*
X169532500Y-85012500D03*
X172072500Y-90062500D03*
X172072500Y-85012500D03*
X174612500Y-90062500D03*
X174612500Y-85012500D03*
X177152500Y-90062500D03*
X177152500Y-85012500D03*
G36*
G01*
X139767500Y-91287500D02*
X139467500Y-91287500D01*
G75*
G02*
X139317500Y-91137500I0J150000D01*
G01*
X139317500Y-89487500D01*
G75*
G02*
X139467500Y-89337500I150000J0D01*
G01*
X139767500Y-89337500D01*
G75*
G02*
X139917500Y-89487500I0J-150000D01*
G01*
X139917500Y-91137500D01*
G75*
G02*
X139767500Y-91287500I-150000J0D01*
G01*
G37*
G36*
G01*
X141037500Y-91287500D02*
X140737500Y-91287500D01*
G75*
G02*
X140587500Y-91137500I0J150000D01*
G01*
X140587500Y-89487500D01*
G75*
G02*
X140737500Y-89337500I150000J0D01*
G01*
X141037500Y-89337500D01*
G75*
G02*
X141187500Y-89487500I0J-150000D01*
G01*
X141187500Y-91137500D01*
G75*
G02*
X141037500Y-91287500I-150000J0D01*
G01*
G37*
G36*
G01*
X142307500Y-91287500D02*
X142007500Y-91287500D01*
G75*
G02*
X141857500Y-91137500I0J150000D01*
G01*
X141857500Y-89487500D01*
G75*
G02*
X142007500Y-89337500I150000J0D01*
G01*
X142307500Y-89337500D01*
G75*
G02*
X142457500Y-89487500I0J-150000D01*
G01*
X142457500Y-91137500D01*
G75*
G02*
X142307500Y-91287500I-150000J0D01*
G01*
G37*
G36*
G01*
X143577500Y-91287500D02*
X143277500Y-91287500D01*
G75*
G02*
X143127500Y-91137500I0J150000D01*
G01*
X143127500Y-89487500D01*
G75*
G02*
X143277500Y-89337500I150000J0D01*
G01*
X143577500Y-89337500D01*
G75*
G02*
X143727500Y-89487500I0J-150000D01*
G01*
X143727500Y-91137500D01*
G75*
G02*
X143577500Y-91287500I-150000J0D01*
G01*
G37*
G36*
G01*
X144847500Y-91287500D02*
X144547500Y-91287500D01*
G75*
G02*
X144397500Y-91137500I0J150000D01*
G01*
X144397500Y-89487500D01*
G75*
G02*
X144547500Y-89337500I150000J0D01*
G01*
X144847500Y-89337500D01*
G75*
G02*
X144997500Y-89487500I0J-150000D01*
G01*
X144997500Y-91137500D01*
G75*
G02*
X144847500Y-91287500I-150000J0D01*
G01*
G37*
G36*
G01*
X146117500Y-91287500D02*
X145817500Y-91287500D01*
G75*
G02*
X145667500Y-91137500I0J150000D01*
G01*
X145667500Y-89487500D01*
G75*
G02*
X145817500Y-89337500I150000J0D01*
G01*
X146117500Y-89337500D01*
G75*
G02*
X146267500Y-89487500I0J-150000D01*
G01*
X146267500Y-91137500D01*
G75*
G02*
X146117500Y-91287500I-150000J0D01*
G01*
G37*
G36*
G01*
X147387500Y-91287500D02*
X147087500Y-91287500D01*
G75*
G02*
X146937500Y-91137500I0J150000D01*
G01*
X146937500Y-89487500D01*
G75*
G02*
X147087500Y-89337500I150000J0D01*
G01*
X147387500Y-89337500D01*
G75*
G02*
X147537500Y-89487500I0J-150000D01*
G01*
X147537500Y-91137500D01*
G75*
G02*
X147387500Y-91287500I-150000J0D01*
G01*
G37*
G36*
G01*
X148657500Y-91287500D02*
X148357500Y-91287500D01*
G75*
G02*
X148207500Y-91137500I0J150000D01*
G01*
X148207500Y-89487500D01*
G75*
G02*
X148357500Y-89337500I150000J0D01*
G01*
X148657500Y-89337500D01*
G75*
G02*
X148807500Y-89487500I0J-150000D01*
G01*
X148807500Y-91137500D01*
G75*
G02*
X148657500Y-91287500I-150000J0D01*
G01*
G37*
G36*
G01*
X148657500Y-86337500D02*
X148357500Y-86337500D01*
G75*
G02*
X148207500Y-86187500I0J150000D01*
G01*
X148207500Y-84537500D01*
G75*
G02*
X148357500Y-84387500I150000J0D01*
G01*
X148657500Y-84387500D01*
G75*
G02*
X148807500Y-84537500I0J-150000D01*
G01*
X148807500Y-86187500D01*
G75*
G02*
X148657500Y-86337500I-150000J0D01*
G01*
G37*
G36*
G01*
X147387500Y-86337500D02*
X147087500Y-86337500D01*
G75*
G02*
X146937500Y-86187500I0J150000D01*
G01*
X146937500Y-84537500D01*
G75*
G02*
X147087500Y-84387500I150000J0D01*
G01*
X147387500Y-84387500D01*
G75*
G02*
X147537500Y-84537500I0J-150000D01*
G01*
X147537500Y-86187500D01*
G75*
G02*
X147387500Y-86337500I-150000J0D01*
G01*
G37*
G36*
G01*
X146117500Y-86337500D02*
X145817500Y-86337500D01*
G75*
G02*
X145667500Y-86187500I0J150000D01*
G01*
X145667500Y-84537500D01*
G75*
G02*
X145817500Y-84387500I150000J0D01*
G01*
X146117500Y-84387500D01*
G75*
G02*
X146267500Y-84537500I0J-150000D01*
G01*
X146267500Y-86187500D01*
G75*
G02*
X146117500Y-86337500I-150000J0D01*
G01*
G37*
G36*
G01*
X144847500Y-86337500D02*
X144547500Y-86337500D01*
G75*
G02*
X144397500Y-86187500I0J150000D01*
G01*
X144397500Y-84537500D01*
G75*
G02*
X144547500Y-84387500I150000J0D01*
G01*
X144847500Y-84387500D01*
G75*
G02*
X144997500Y-84537500I0J-150000D01*
G01*
X144997500Y-86187500D01*
G75*
G02*
X144847500Y-86337500I-150000J0D01*
G01*
G37*
G36*
G01*
X143577500Y-86337500D02*
X143277500Y-86337500D01*
G75*
G02*
X143127500Y-86187500I0J150000D01*
G01*
X143127500Y-84537500D01*
G75*
G02*
X143277500Y-84387500I150000J0D01*
G01*
X143577500Y-84387500D01*
G75*
G02*
X143727500Y-84537500I0J-150000D01*
G01*
X143727500Y-86187500D01*
G75*
G02*
X143577500Y-86337500I-150000J0D01*
G01*
G37*
G36*
G01*
X142307500Y-86337500D02*
X142007500Y-86337500D01*
G75*
G02*
X141857500Y-86187500I0J150000D01*
G01*
X141857500Y-84537500D01*
G75*
G02*
X142007500Y-84387500I150000J0D01*
G01*
X142307500Y-84387500D01*
G75*
G02*
X142457500Y-84537500I0J-150000D01*
G01*
X142457500Y-86187500D01*
G75*
G02*
X142307500Y-86337500I-150000J0D01*
G01*
G37*
G36*
G01*
X141037500Y-86337500D02*
X140737500Y-86337500D01*
G75*
G02*
X140587500Y-86187500I0J150000D01*
G01*
X140587500Y-84537500D01*
G75*
G02*
X140737500Y-84387500I150000J0D01*
G01*
X141037500Y-84387500D01*
G75*
G02*
X141187500Y-84537500I0J-150000D01*
G01*
X141187500Y-86187500D01*
G75*
G02*
X141037500Y-86337500I-150000J0D01*
G01*
G37*
G36*
G01*
X139767500Y-86337500D02*
X139467500Y-86337500D01*
G75*
G02*
X139317500Y-86187500I0J150000D01*
G01*
X139317500Y-84537500D01*
G75*
G02*
X139467500Y-84387500I150000J0D01*
G01*
X139767500Y-84387500D01*
G75*
G02*
X139917500Y-84537500I0J-150000D01*
G01*
X139917500Y-86187500D01*
G75*
G02*
X139767500Y-86337500I-150000J0D01*
G01*
G37*
G36*
G01*
X145287500Y-134182500D02*
X146237500Y-134182500D01*
G75*
G02*
X146487500Y-134432500I0J-250000D01*
G01*
X146487500Y-135107500D01*
G75*
G02*
X146237500Y-135357500I-250000J0D01*
G01*
X145287500Y-135357500D01*
G75*
G02*
X145037500Y-135107500I0J250000D01*
G01*
X145037500Y-134432500D01*
G75*
G02*
X145287500Y-134182500I250000J0D01*
G01*
G37*
G36*
G01*
X145287500Y-136257500D02*
X146237500Y-136257500D01*
G75*
G02*
X146487500Y-136507500I0J-250000D01*
G01*
X146487500Y-137182500D01*
G75*
G02*
X146237500Y-137432500I-250000J0D01*
G01*
X145287500Y-137432500D01*
G75*
G02*
X145037500Y-137182500I0J250000D01*
G01*
X145037500Y-136507500D01*
G75*
G02*
X145287500Y-136257500I250000J0D01*
G01*
G37*
G36*
G01*
X142232500Y-137437500D02*
X141932500Y-137437500D01*
G75*
G02*
X141782500Y-137287500I0J150000D01*
G01*
X141782500Y-136262500D01*
G75*
G02*
X141932500Y-136112500I150000J0D01*
G01*
X142232500Y-136112500D01*
G75*
G02*
X142382500Y-136262500I0J-150000D01*
G01*
X142382500Y-137287500D01*
G75*
G02*
X142232500Y-137437500I-150000J0D01*
G01*
G37*
G36*
G01*
X143182500Y-137437500D02*
X142882500Y-137437500D01*
G75*
G02*
X142732500Y-137287500I0J150000D01*
G01*
X142732500Y-136262500D01*
G75*
G02*
X142882500Y-136112500I150000J0D01*
G01*
X143182500Y-136112500D01*
G75*
G02*
X143332500Y-136262500I0J-150000D01*
G01*
X143332500Y-137287500D01*
G75*
G02*
X143182500Y-137437500I-150000J0D01*
G01*
G37*
G36*
G01*
X144132500Y-137437500D02*
X143832500Y-137437500D01*
G75*
G02*
X143682500Y-137287500I0J150000D01*
G01*
X143682500Y-136262500D01*
G75*
G02*
X143832500Y-136112500I150000J0D01*
G01*
X144132500Y-136112500D01*
G75*
G02*
X144282500Y-136262500I0J-150000D01*
G01*
X144282500Y-137287500D01*
G75*
G02*
X144132500Y-137437500I-150000J0D01*
G01*
G37*
G36*
G01*
X144132500Y-135162500D02*
X143832500Y-135162500D01*
G75*
G02*
X143682500Y-135012500I0J150000D01*
G01*
X143682500Y-133987500D01*
G75*
G02*
X143832500Y-133837500I150000J0D01*
G01*
X144132500Y-133837500D01*
G75*
G02*
X144282500Y-133987500I0J-150000D01*
G01*
X144282500Y-135012500D01*
G75*
G02*
X144132500Y-135162500I-150000J0D01*
G01*
G37*
G36*
G01*
X143182500Y-135162500D02*
X142882500Y-135162500D01*
G75*
G02*
X142732500Y-135012500I0J150000D01*
G01*
X142732500Y-133987500D01*
G75*
G02*
X142882500Y-133837500I150000J0D01*
G01*
X143182500Y-133837500D01*
G75*
G02*
X143332500Y-133987500I0J-150000D01*
G01*
X143332500Y-135012500D01*
G75*
G02*
X143182500Y-135162500I-150000J0D01*
G01*
G37*
G36*
G01*
X142232500Y-135162500D02*
X141932500Y-135162500D01*
G75*
G02*
X141782500Y-135012500I0J150000D01*
G01*
X141782500Y-133987500D01*
G75*
G02*
X141932500Y-133837500I150000J0D01*
G01*
X142232500Y-133837500D01*
G75*
G02*
X142382500Y-133987500I0J-150000D01*
G01*
X142382500Y-135012500D01*
G75*
G02*
X142232500Y-135162500I-150000J0D01*
G01*
G37*
D13*
X190912500Y-142137500D03*
X187612500Y-142137500D03*
G36*
G01*
X139325000Y-116375000D02*
X140275000Y-116375000D01*
G75*
G02*
X140525000Y-116625000I0J-250000D01*
G01*
X140525000Y-117300000D01*
G75*
G02*
X140275000Y-117550000I-250000J0D01*
G01*
X139325000Y-117550000D01*
G75*
G02*
X139075000Y-117300000I0J250000D01*
G01*
X139075000Y-116625000D01*
G75*
G02*
X139325000Y-116375000I250000J0D01*
G01*
G37*
G36*
G01*
X139325000Y-118450000D02*
X140275000Y-118450000D01*
G75*
G02*
X140525000Y-118700000I0J-250000D01*
G01*
X140525000Y-119375000D01*
G75*
G02*
X140275000Y-119625000I-250000J0D01*
G01*
X139325000Y-119625000D01*
G75*
G02*
X139075000Y-119375000I0J250000D01*
G01*
X139075000Y-118700000D01*
G75*
G02*
X139325000Y-118450000I250000J0D01*
G01*
G37*
G36*
G01*
X190467500Y-89637500D02*
X190167500Y-89637500D01*
G75*
G02*
X190017500Y-89487500I0J150000D01*
G01*
X190017500Y-87837500D01*
G75*
G02*
X190167500Y-87687500I150000J0D01*
G01*
X190467500Y-87687500D01*
G75*
G02*
X190617500Y-87837500I0J-150000D01*
G01*
X190617500Y-89487500D01*
G75*
G02*
X190467500Y-89637500I-150000J0D01*
G01*
G37*
G36*
G01*
X191737500Y-89637500D02*
X191437500Y-89637500D01*
G75*
G02*
X191287500Y-89487500I0J150000D01*
G01*
X191287500Y-87837500D01*
G75*
G02*
X191437500Y-87687500I150000J0D01*
G01*
X191737500Y-87687500D01*
G75*
G02*
X191887500Y-87837500I0J-150000D01*
G01*
X191887500Y-89487500D01*
G75*
G02*
X191737500Y-89637500I-150000J0D01*
G01*
G37*
G36*
G01*
X193007500Y-89637500D02*
X192707500Y-89637500D01*
G75*
G02*
X192557500Y-89487500I0J150000D01*
G01*
X192557500Y-87837500D01*
G75*
G02*
X192707500Y-87687500I150000J0D01*
G01*
X193007500Y-87687500D01*
G75*
G02*
X193157500Y-87837500I0J-150000D01*
G01*
X193157500Y-89487500D01*
G75*
G02*
X193007500Y-89637500I-150000J0D01*
G01*
G37*
G36*
G01*
X194277500Y-89637500D02*
X193977500Y-89637500D01*
G75*
G02*
X193827500Y-89487500I0J150000D01*
G01*
X193827500Y-87837500D01*
G75*
G02*
X193977500Y-87687500I150000J0D01*
G01*
X194277500Y-87687500D01*
G75*
G02*
X194427500Y-87837500I0J-150000D01*
G01*
X194427500Y-89487500D01*
G75*
G02*
X194277500Y-89637500I-150000J0D01*
G01*
G37*
G36*
G01*
X195547500Y-89637500D02*
X195247500Y-89637500D01*
G75*
G02*
X195097500Y-89487500I0J150000D01*
G01*
X195097500Y-87837500D01*
G75*
G02*
X195247500Y-87687500I150000J0D01*
G01*
X195547500Y-87687500D01*
G75*
G02*
X195697500Y-87837500I0J-150000D01*
G01*
X195697500Y-89487500D01*
G75*
G02*
X195547500Y-89637500I-150000J0D01*
G01*
G37*
G36*
G01*
X196817500Y-89637500D02*
X196517500Y-89637500D01*
G75*
G02*
X196367500Y-89487500I0J150000D01*
G01*
X196367500Y-87837500D01*
G75*
G02*
X196517500Y-87687500I150000J0D01*
G01*
X196817500Y-87687500D01*
G75*
G02*
X196967500Y-87837500I0J-150000D01*
G01*
X196967500Y-89487500D01*
G75*
G02*
X196817500Y-89637500I-150000J0D01*
G01*
G37*
G36*
G01*
X198087500Y-89637500D02*
X197787500Y-89637500D01*
G75*
G02*
X197637500Y-89487500I0J150000D01*
G01*
X197637500Y-87837500D01*
G75*
G02*
X197787500Y-87687500I150000J0D01*
G01*
X198087500Y-87687500D01*
G75*
G02*
X198237500Y-87837500I0J-150000D01*
G01*
X198237500Y-89487500D01*
G75*
G02*
X198087500Y-89637500I-150000J0D01*
G01*
G37*
G36*
G01*
X199357500Y-89637500D02*
X199057500Y-89637500D01*
G75*
G02*
X198907500Y-89487500I0J150000D01*
G01*
X198907500Y-87837500D01*
G75*
G02*
X199057500Y-87687500I150000J0D01*
G01*
X199357500Y-87687500D01*
G75*
G02*
X199507500Y-87837500I0J-150000D01*
G01*
X199507500Y-89487500D01*
G75*
G02*
X199357500Y-89637500I-150000J0D01*
G01*
G37*
G36*
G01*
X199357500Y-84687500D02*
X199057500Y-84687500D01*
G75*
G02*
X198907500Y-84537500I0J150000D01*
G01*
X198907500Y-82887500D01*
G75*
G02*
X199057500Y-82737500I150000J0D01*
G01*
X199357500Y-82737500D01*
G75*
G02*
X199507500Y-82887500I0J-150000D01*
G01*
X199507500Y-84537500D01*
G75*
G02*
X199357500Y-84687500I-150000J0D01*
G01*
G37*
G36*
G01*
X198087500Y-84687500D02*
X197787500Y-84687500D01*
G75*
G02*
X197637500Y-84537500I0J150000D01*
G01*
X197637500Y-82887500D01*
G75*
G02*
X197787500Y-82737500I150000J0D01*
G01*
X198087500Y-82737500D01*
G75*
G02*
X198237500Y-82887500I0J-150000D01*
G01*
X198237500Y-84537500D01*
G75*
G02*
X198087500Y-84687500I-150000J0D01*
G01*
G37*
G36*
G01*
X196817500Y-84687500D02*
X196517500Y-84687500D01*
G75*
G02*
X196367500Y-84537500I0J150000D01*
G01*
X196367500Y-82887500D01*
G75*
G02*
X196517500Y-82737500I150000J0D01*
G01*
X196817500Y-82737500D01*
G75*
G02*
X196967500Y-82887500I0J-150000D01*
G01*
X196967500Y-84537500D01*
G75*
G02*
X196817500Y-84687500I-150000J0D01*
G01*
G37*
G36*
G01*
X195547500Y-84687500D02*
X195247500Y-84687500D01*
G75*
G02*
X195097500Y-84537500I0J150000D01*
G01*
X195097500Y-82887500D01*
G75*
G02*
X195247500Y-82737500I150000J0D01*
G01*
X195547500Y-82737500D01*
G75*
G02*
X195697500Y-82887500I0J-150000D01*
G01*
X195697500Y-84537500D01*
G75*
G02*
X195547500Y-84687500I-150000J0D01*
G01*
G37*
G36*
G01*
X194277500Y-84687500D02*
X193977500Y-84687500D01*
G75*
G02*
X193827500Y-84537500I0J150000D01*
G01*
X193827500Y-82887500D01*
G75*
G02*
X193977500Y-82737500I150000J0D01*
G01*
X194277500Y-82737500D01*
G75*
G02*
X194427500Y-82887500I0J-150000D01*
G01*
X194427500Y-84537500D01*
G75*
G02*
X194277500Y-84687500I-150000J0D01*
G01*
G37*
G36*
G01*
X193007500Y-84687500D02*
X192707500Y-84687500D01*
G75*
G02*
X192557500Y-84537500I0J150000D01*
G01*
X192557500Y-82887500D01*
G75*
G02*
X192707500Y-82737500I150000J0D01*
G01*
X193007500Y-82737500D01*
G75*
G02*
X193157500Y-82887500I0J-150000D01*
G01*
X193157500Y-84537500D01*
G75*
G02*
X193007500Y-84687500I-150000J0D01*
G01*
G37*
G36*
G01*
X191737500Y-84687500D02*
X191437500Y-84687500D01*
G75*
G02*
X191287500Y-84537500I0J150000D01*
G01*
X191287500Y-82887500D01*
G75*
G02*
X191437500Y-82737500I150000J0D01*
G01*
X191737500Y-82737500D01*
G75*
G02*
X191887500Y-82887500I0J-150000D01*
G01*
X191887500Y-84537500D01*
G75*
G02*
X191737500Y-84687500I-150000J0D01*
G01*
G37*
G36*
G01*
X190467500Y-84687500D02*
X190167500Y-84687500D01*
G75*
G02*
X190017500Y-84537500I0J150000D01*
G01*
X190017500Y-82887500D01*
G75*
G02*
X190167500Y-82737500I150000J0D01*
G01*
X190467500Y-82737500D01*
G75*
G02*
X190617500Y-82887500I0J-150000D01*
G01*
X190617500Y-84537500D01*
G75*
G02*
X190467500Y-84687500I-150000J0D01*
G01*
G37*
G36*
G01*
X183737500Y-109222500D02*
X183737500Y-107852500D01*
G75*
G02*
X183927500Y-107662500I190000J0D01*
G01*
X184497500Y-107662500D01*
G75*
G02*
X184687500Y-107852500I0J-190000D01*
G01*
X184687500Y-109222500D01*
G75*
G02*
X184497500Y-109412500I-190000J0D01*
G01*
X183927500Y-109412500D01*
G75*
G02*
X183737500Y-109222500I0J190000D01*
G01*
G37*
G36*
G01*
X186837500Y-109222500D02*
X186837500Y-107852500D01*
G75*
G02*
X187027500Y-107662500I190000J0D01*
G01*
X187597500Y-107662500D01*
G75*
G02*
X187787500Y-107852500I0J-190000D01*
G01*
X187787500Y-109222500D01*
G75*
G02*
X187597500Y-109412500I-190000J0D01*
G01*
X187027500Y-109412500D01*
G75*
G02*
X186837500Y-109222500I0J190000D01*
G01*
G37*
G36*
G01*
X193737500Y-109222500D02*
X193737500Y-107852500D01*
G75*
G02*
X193927500Y-107662500I190000J0D01*
G01*
X194497500Y-107662500D01*
G75*
G02*
X194687500Y-107852500I0J-190000D01*
G01*
X194687500Y-109222500D01*
G75*
G02*
X194497500Y-109412500I-190000J0D01*
G01*
X193927500Y-109412500D01*
G75*
G02*
X193737500Y-109222500I0J190000D01*
G01*
G37*
G36*
G01*
X196837500Y-109222500D02*
X196837500Y-107852500D01*
G75*
G02*
X197027500Y-107662500I190000J0D01*
G01*
X197597500Y-107662500D01*
G75*
G02*
X197787500Y-107852500I0J-190000D01*
G01*
X197787500Y-109222500D01*
G75*
G02*
X197597500Y-109412500I-190000J0D01*
G01*
X197027500Y-109412500D01*
G75*
G02*
X196837500Y-109222500I0J190000D01*
G01*
G37*
G36*
G01*
X153812500Y-122437500D02*
X154712500Y-122437500D01*
G75*
G02*
X154962500Y-122687500I0J-250000D01*
G01*
X154962500Y-123387500D01*
G75*
G02*
X154712500Y-123637500I-250000J0D01*
G01*
X153812500Y-123637500D01*
G75*
G02*
X153562500Y-123387500I0J250000D01*
G01*
X153562500Y-122687500D01*
G75*
G02*
X153812500Y-122437500I250000J0D01*
G01*
G37*
G36*
G01*
X153812500Y-124437500D02*
X154712500Y-124437500D01*
G75*
G02*
X154962500Y-124687500I0J-250000D01*
G01*
X154962500Y-125387500D01*
G75*
G02*
X154712500Y-125637500I-250000J0D01*
G01*
X153812500Y-125637500D01*
G75*
G02*
X153562500Y-125387500I0J250000D01*
G01*
X153562500Y-124687500D01*
G75*
G02*
X153812500Y-124437500I250000J0D01*
G01*
G37*
G36*
G01*
X158212500Y-122437500D02*
X159112500Y-122437500D01*
G75*
G02*
X159362500Y-122687500I0J-250000D01*
G01*
X159362500Y-123387500D01*
G75*
G02*
X159112500Y-123637500I-250000J0D01*
G01*
X158212500Y-123637500D01*
G75*
G02*
X157962500Y-123387500I0J250000D01*
G01*
X157962500Y-122687500D01*
G75*
G02*
X158212500Y-122437500I250000J0D01*
G01*
G37*
G36*
G01*
X158212500Y-124437500D02*
X159112500Y-124437500D01*
G75*
G02*
X159362500Y-124687500I0J-250000D01*
G01*
X159362500Y-125387500D01*
G75*
G02*
X159112500Y-125637500I-250000J0D01*
G01*
X158212500Y-125637500D01*
G75*
G02*
X157962500Y-125387500I0J250000D01*
G01*
X157962500Y-124687500D01*
G75*
G02*
X158212500Y-124437500I250000J0D01*
G01*
G37*
G36*
G01*
X140625000Y-120525000D02*
X140625000Y-121475000D01*
G75*
G02*
X140375000Y-121725000I-250000J0D01*
G01*
X139700000Y-121725000D01*
G75*
G02*
X139450000Y-121475000I0J250000D01*
G01*
X139450000Y-120525000D01*
G75*
G02*
X139700000Y-120275000I250000J0D01*
G01*
X140375000Y-120275000D01*
G75*
G02*
X140625000Y-120525000I0J-250000D01*
G01*
G37*
G36*
G01*
X138550000Y-120525000D02*
X138550000Y-121475000D01*
G75*
G02*
X138300000Y-121725000I-250000J0D01*
G01*
X137625000Y-121725000D01*
G75*
G02*
X137375000Y-121475000I0J250000D01*
G01*
X137375000Y-120525000D01*
G75*
G02*
X137625000Y-120275000I250000J0D01*
G01*
X138300000Y-120275000D01*
G75*
G02*
X138550000Y-120525000I0J-250000D01*
G01*
G37*
G36*
G01*
X188737500Y-109222500D02*
X188737500Y-107852500D01*
G75*
G02*
X188927500Y-107662500I190000J0D01*
G01*
X189497500Y-107662500D01*
G75*
G02*
X189687500Y-107852500I0J-190000D01*
G01*
X189687500Y-109222500D01*
G75*
G02*
X189497500Y-109412500I-190000J0D01*
G01*
X188927500Y-109412500D01*
G75*
G02*
X188737500Y-109222500I0J190000D01*
G01*
G37*
G36*
G01*
X191837500Y-109222500D02*
X191837500Y-107852500D01*
G75*
G02*
X192027500Y-107662500I190000J0D01*
G01*
X192597500Y-107662500D01*
G75*
G02*
X192787500Y-107852500I0J-190000D01*
G01*
X192787500Y-109222500D01*
G75*
G02*
X192597500Y-109412500I-190000J0D01*
G01*
X192027500Y-109412500D01*
G75*
G02*
X191837500Y-109222500I0J190000D01*
G01*
G37*
G36*
G01*
X147992500Y-91962500D02*
X148292500Y-91962500D01*
G75*
G02*
X148442500Y-92112500I0J-150000D01*
G01*
X148442500Y-93862500D01*
G75*
G02*
X148292500Y-94012500I-150000J0D01*
G01*
X147992500Y-94012500D01*
G75*
G02*
X147842500Y-93862500I0J150000D01*
G01*
X147842500Y-92112500D01*
G75*
G02*
X147992500Y-91962500I150000J0D01*
G01*
G37*
G36*
G01*
X146722500Y-91962500D02*
X147022500Y-91962500D01*
G75*
G02*
X147172500Y-92112500I0J-150000D01*
G01*
X147172500Y-93862500D01*
G75*
G02*
X147022500Y-94012500I-150000J0D01*
G01*
X146722500Y-94012500D01*
G75*
G02*
X146572500Y-93862500I0J150000D01*
G01*
X146572500Y-92112500D01*
G75*
G02*
X146722500Y-91962500I150000J0D01*
G01*
G37*
G36*
G01*
X145452500Y-91962500D02*
X145752500Y-91962500D01*
G75*
G02*
X145902500Y-92112500I0J-150000D01*
G01*
X145902500Y-93862500D01*
G75*
G02*
X145752500Y-94012500I-150000J0D01*
G01*
X145452500Y-94012500D01*
G75*
G02*
X145302500Y-93862500I0J150000D01*
G01*
X145302500Y-92112500D01*
G75*
G02*
X145452500Y-91962500I150000J0D01*
G01*
G37*
G36*
G01*
X144182500Y-91962500D02*
X144482500Y-91962500D01*
G75*
G02*
X144632500Y-92112500I0J-150000D01*
G01*
X144632500Y-93862500D01*
G75*
G02*
X144482500Y-94012500I-150000J0D01*
G01*
X144182500Y-94012500D01*
G75*
G02*
X144032500Y-93862500I0J150000D01*
G01*
X144032500Y-92112500D01*
G75*
G02*
X144182500Y-91962500I150000J0D01*
G01*
G37*
G36*
G01*
X142912500Y-91962500D02*
X143212500Y-91962500D01*
G75*
G02*
X143362500Y-92112500I0J-150000D01*
G01*
X143362500Y-93862500D01*
G75*
G02*
X143212500Y-94012500I-150000J0D01*
G01*
X142912500Y-94012500D01*
G75*
G02*
X142762500Y-93862500I0J150000D01*
G01*
X142762500Y-92112500D01*
G75*
G02*
X142912500Y-91962500I150000J0D01*
G01*
G37*
G36*
G01*
X141642500Y-91962500D02*
X141942500Y-91962500D01*
G75*
G02*
X142092500Y-92112500I0J-150000D01*
G01*
X142092500Y-93862500D01*
G75*
G02*
X141942500Y-94012500I-150000J0D01*
G01*
X141642500Y-94012500D01*
G75*
G02*
X141492500Y-93862500I0J150000D01*
G01*
X141492500Y-92112500D01*
G75*
G02*
X141642500Y-91962500I150000J0D01*
G01*
G37*
G36*
G01*
X140372500Y-91962500D02*
X140672500Y-91962500D01*
G75*
G02*
X140822500Y-92112500I0J-150000D01*
G01*
X140822500Y-93862500D01*
G75*
G02*
X140672500Y-94012500I-150000J0D01*
G01*
X140372500Y-94012500D01*
G75*
G02*
X140222500Y-93862500I0J150000D01*
G01*
X140222500Y-92112500D01*
G75*
G02*
X140372500Y-91962500I150000J0D01*
G01*
G37*
G36*
G01*
X139102500Y-91962500D02*
X139402500Y-91962500D01*
G75*
G02*
X139552500Y-92112500I0J-150000D01*
G01*
X139552500Y-93862500D01*
G75*
G02*
X139402500Y-94012500I-150000J0D01*
G01*
X139102500Y-94012500D01*
G75*
G02*
X138952500Y-93862500I0J150000D01*
G01*
X138952500Y-92112500D01*
G75*
G02*
X139102500Y-91962500I150000J0D01*
G01*
G37*
G36*
G01*
X137832500Y-91962500D02*
X138132500Y-91962500D01*
G75*
G02*
X138282500Y-92112500I0J-150000D01*
G01*
X138282500Y-93862500D01*
G75*
G02*
X138132500Y-94012500I-150000J0D01*
G01*
X137832500Y-94012500D01*
G75*
G02*
X137682500Y-93862500I0J150000D01*
G01*
X137682500Y-92112500D01*
G75*
G02*
X137832500Y-91962500I150000J0D01*
G01*
G37*
G36*
G01*
X137832500Y-101262500D02*
X138132500Y-101262500D01*
G75*
G02*
X138282500Y-101412500I0J-150000D01*
G01*
X138282500Y-103162500D01*
G75*
G02*
X138132500Y-103312500I-150000J0D01*
G01*
X137832500Y-103312500D01*
G75*
G02*
X137682500Y-103162500I0J150000D01*
G01*
X137682500Y-101412500D01*
G75*
G02*
X137832500Y-101262500I150000J0D01*
G01*
G37*
G36*
G01*
X139102500Y-101262500D02*
X139402500Y-101262500D01*
G75*
G02*
X139552500Y-101412500I0J-150000D01*
G01*
X139552500Y-103162500D01*
G75*
G02*
X139402500Y-103312500I-150000J0D01*
G01*
X139102500Y-103312500D01*
G75*
G02*
X138952500Y-103162500I0J150000D01*
G01*
X138952500Y-101412500D01*
G75*
G02*
X139102500Y-101262500I150000J0D01*
G01*
G37*
G36*
G01*
X140372500Y-101262500D02*
X140672500Y-101262500D01*
G75*
G02*
X140822500Y-101412500I0J-150000D01*
G01*
X140822500Y-103162500D01*
G75*
G02*
X140672500Y-103312500I-150000J0D01*
G01*
X140372500Y-103312500D01*
G75*
G02*
X140222500Y-103162500I0J150000D01*
G01*
X140222500Y-101412500D01*
G75*
G02*
X140372500Y-101262500I150000J0D01*
G01*
G37*
G36*
G01*
X141642500Y-101262500D02*
X141942500Y-101262500D01*
G75*
G02*
X142092500Y-101412500I0J-150000D01*
G01*
X142092500Y-103162500D01*
G75*
G02*
X141942500Y-103312500I-150000J0D01*
G01*
X141642500Y-103312500D01*
G75*
G02*
X141492500Y-103162500I0J150000D01*
G01*
X141492500Y-101412500D01*
G75*
G02*
X141642500Y-101262500I150000J0D01*
G01*
G37*
G36*
G01*
X142912500Y-101262500D02*
X143212500Y-101262500D01*
G75*
G02*
X143362500Y-101412500I0J-150000D01*
G01*
X143362500Y-103162500D01*
G75*
G02*
X143212500Y-103312500I-150000J0D01*
G01*
X142912500Y-103312500D01*
G75*
G02*
X142762500Y-103162500I0J150000D01*
G01*
X142762500Y-101412500D01*
G75*
G02*
X142912500Y-101262500I150000J0D01*
G01*
G37*
G36*
G01*
X144182500Y-101262500D02*
X144482500Y-101262500D01*
G75*
G02*
X144632500Y-101412500I0J-150000D01*
G01*
X144632500Y-103162500D01*
G75*
G02*
X144482500Y-103312500I-150000J0D01*
G01*
X144182500Y-103312500D01*
G75*
G02*
X144032500Y-103162500I0J150000D01*
G01*
X144032500Y-101412500D01*
G75*
G02*
X144182500Y-101262500I150000J0D01*
G01*
G37*
G36*
G01*
X145452500Y-101262500D02*
X145752500Y-101262500D01*
G75*
G02*
X145902500Y-101412500I0J-150000D01*
G01*
X145902500Y-103162500D01*
G75*
G02*
X145752500Y-103312500I-150000J0D01*
G01*
X145452500Y-103312500D01*
G75*
G02*
X145302500Y-103162500I0J150000D01*
G01*
X145302500Y-101412500D01*
G75*
G02*
X145452500Y-101262500I150000J0D01*
G01*
G37*
G36*
G01*
X146722500Y-101262500D02*
X147022500Y-101262500D01*
G75*
G02*
X147172500Y-101412500I0J-150000D01*
G01*
X147172500Y-103162500D01*
G75*
G02*
X147022500Y-103312500I-150000J0D01*
G01*
X146722500Y-103312500D01*
G75*
G02*
X146572500Y-103162500I0J150000D01*
G01*
X146572500Y-101412500D01*
G75*
G02*
X146722500Y-101262500I150000J0D01*
G01*
G37*
G36*
G01*
X147992500Y-101262500D02*
X148292500Y-101262500D01*
G75*
G02*
X148442500Y-101412500I0J-150000D01*
G01*
X148442500Y-103162500D01*
G75*
G02*
X148292500Y-103312500I-150000J0D01*
G01*
X147992500Y-103312500D01*
G75*
G02*
X147842500Y-103162500I0J150000D01*
G01*
X147842500Y-101412500D01*
G75*
G02*
X147992500Y-101262500I150000J0D01*
G01*
G37*
G36*
G01*
X190412500Y-122162500D02*
X189462500Y-122162500D01*
G75*
G02*
X189212500Y-121912500I0J250000D01*
G01*
X189212500Y-121237500D01*
G75*
G02*
X189462500Y-120987500I250000J0D01*
G01*
X190412500Y-120987500D01*
G75*
G02*
X190662500Y-121237500I0J-250000D01*
G01*
X190662500Y-121912500D01*
G75*
G02*
X190412500Y-122162500I-250000J0D01*
G01*
G37*
G36*
G01*
X190412500Y-120087500D02*
X189462500Y-120087500D01*
G75*
G02*
X189212500Y-119837500I0J250000D01*
G01*
X189212500Y-119162500D01*
G75*
G02*
X189462500Y-118912500I250000J0D01*
G01*
X190412500Y-118912500D01*
G75*
G02*
X190662500Y-119162500I0J-250000D01*
G01*
X190662500Y-119837500D01*
G75*
G02*
X190412500Y-120087500I-250000J0D01*
G01*
G37*
G36*
G01*
X143017500Y-140317500D02*
X143967500Y-140317500D01*
G75*
G02*
X144217500Y-140567500I0J-250000D01*
G01*
X144217500Y-141242500D01*
G75*
G02*
X143967500Y-141492500I-250000J0D01*
G01*
X143017500Y-141492500D01*
G75*
G02*
X142767500Y-141242500I0J250000D01*
G01*
X142767500Y-140567500D01*
G75*
G02*
X143017500Y-140317500I250000J0D01*
G01*
G37*
G36*
G01*
X143017500Y-142392500D02*
X143967500Y-142392500D01*
G75*
G02*
X144217500Y-142642500I0J-250000D01*
G01*
X144217500Y-143317500D01*
G75*
G02*
X143967500Y-143567500I-250000J0D01*
G01*
X143017500Y-143567500D01*
G75*
G02*
X142767500Y-143317500I0J250000D01*
G01*
X142767500Y-142642500D01*
G75*
G02*
X143017500Y-142392500I250000J0D01*
G01*
G37*
G36*
G01*
X138867500Y-148017500D02*
X138867500Y-147067500D01*
G75*
G02*
X139117500Y-146817500I250000J0D01*
G01*
X139792500Y-146817500D01*
G75*
G02*
X140042500Y-147067500I0J-250000D01*
G01*
X140042500Y-148017500D01*
G75*
G02*
X139792500Y-148267500I-250000J0D01*
G01*
X139117500Y-148267500D01*
G75*
G02*
X138867500Y-148017500I0J250000D01*
G01*
G37*
G36*
G01*
X140942500Y-148017500D02*
X140942500Y-147067500D01*
G75*
G02*
X141192500Y-146817500I250000J0D01*
G01*
X141867500Y-146817500D01*
G75*
G02*
X142117500Y-147067500I0J-250000D01*
G01*
X142117500Y-148017500D01*
G75*
G02*
X141867500Y-148267500I-250000J0D01*
G01*
X141192500Y-148267500D01*
G75*
G02*
X140942500Y-148017500I0J250000D01*
G01*
G37*
G36*
G01*
X168812500Y-75037500D02*
X168812500Y-73887500D01*
G75*
G02*
X168912500Y-73787500I100000J0D01*
G01*
X169112500Y-73787500D01*
G75*
G02*
X169212500Y-73887500I0J-100000D01*
G01*
X169212500Y-75037500D01*
G75*
G02*
X169112500Y-75137500I-100000J0D01*
G01*
X168912500Y-75137500D01*
G75*
G02*
X168812500Y-75037500I0J100000D01*
G01*
G37*
G36*
G01*
X168312500Y-77187500D02*
X168312500Y-76037500D01*
G75*
G02*
X168412500Y-75937500I100000J0D01*
G01*
X168612500Y-75937500D01*
G75*
G02*
X168712500Y-76037500I0J-100000D01*
G01*
X168712500Y-77187500D01*
G75*
G02*
X168612500Y-77287500I-100000J0D01*
G01*
X168412500Y-77287500D01*
G75*
G02*
X168312500Y-77187500I0J100000D01*
G01*
G37*
G36*
G01*
X167812500Y-75037500D02*
X167812500Y-73887500D01*
G75*
G02*
X167912500Y-73787500I100000J0D01*
G01*
X168112500Y-73787500D01*
G75*
G02*
X168212500Y-73887500I0J-100000D01*
G01*
X168212500Y-75037500D01*
G75*
G02*
X168112500Y-75137500I-100000J0D01*
G01*
X167912500Y-75137500D01*
G75*
G02*
X167812500Y-75037500I0J100000D01*
G01*
G37*
G36*
G01*
X167312500Y-77187500D02*
X167312500Y-76037500D01*
G75*
G02*
X167412500Y-75937500I100000J0D01*
G01*
X167612500Y-75937500D01*
G75*
G02*
X167712500Y-76037500I0J-100000D01*
G01*
X167712500Y-77187500D01*
G75*
G02*
X167612500Y-77287500I-100000J0D01*
G01*
X167412500Y-77287500D01*
G75*
G02*
X167312500Y-77187500I0J100000D01*
G01*
G37*
G36*
G01*
X166812500Y-75037500D02*
X166812500Y-73887500D01*
G75*
G02*
X166912500Y-73787500I100000J0D01*
G01*
X167112500Y-73787500D01*
G75*
G02*
X167212500Y-73887500I0J-100000D01*
G01*
X167212500Y-75037500D01*
G75*
G02*
X167112500Y-75137500I-100000J0D01*
G01*
X166912500Y-75137500D01*
G75*
G02*
X166812500Y-75037500I0J100000D01*
G01*
G37*
G36*
G01*
X166312500Y-77187500D02*
X166312500Y-76037500D01*
G75*
G02*
X166412500Y-75937500I100000J0D01*
G01*
X166612500Y-75937500D01*
G75*
G02*
X166712500Y-76037500I0J-100000D01*
G01*
X166712500Y-77187500D01*
G75*
G02*
X166612500Y-77287500I-100000J0D01*
G01*
X166412500Y-77287500D01*
G75*
G02*
X166312500Y-77187500I0J100000D01*
G01*
G37*
G36*
G01*
X165812500Y-75037500D02*
X165812500Y-73887500D01*
G75*
G02*
X165912500Y-73787500I100000J0D01*
G01*
X166112500Y-73787500D01*
G75*
G02*
X166212500Y-73887500I0J-100000D01*
G01*
X166212500Y-75037500D01*
G75*
G02*
X166112500Y-75137500I-100000J0D01*
G01*
X165912500Y-75137500D01*
G75*
G02*
X165812500Y-75037500I0J100000D01*
G01*
G37*
G36*
G01*
X165312500Y-77187500D02*
X165312500Y-76037500D01*
G75*
G02*
X165412500Y-75937500I100000J0D01*
G01*
X165612500Y-75937500D01*
G75*
G02*
X165712500Y-76037500I0J-100000D01*
G01*
X165712500Y-77187500D01*
G75*
G02*
X165612500Y-77287500I-100000J0D01*
G01*
X165412500Y-77287500D01*
G75*
G02*
X165312500Y-77187500I0J100000D01*
G01*
G37*
G36*
G01*
X164812500Y-75037500D02*
X164812500Y-73887500D01*
G75*
G02*
X164912500Y-73787500I100000J0D01*
G01*
X165112500Y-73787500D01*
G75*
G02*
X165212500Y-73887500I0J-100000D01*
G01*
X165212500Y-75037500D01*
G75*
G02*
X165112500Y-75137500I-100000J0D01*
G01*
X164912500Y-75137500D01*
G75*
G02*
X164812500Y-75037500I0J100000D01*
G01*
G37*
G36*
G01*
X164312500Y-77187500D02*
X164312500Y-76037500D01*
G75*
G02*
X164412500Y-75937500I100000J0D01*
G01*
X164612500Y-75937500D01*
G75*
G02*
X164712500Y-76037500I0J-100000D01*
G01*
X164712500Y-77187500D01*
G75*
G02*
X164612500Y-77287500I-100000J0D01*
G01*
X164412500Y-77287500D01*
G75*
G02*
X164312500Y-77187500I0J100000D01*
G01*
G37*
G36*
G01*
X163812500Y-75037500D02*
X163812500Y-73887500D01*
G75*
G02*
X163912500Y-73787500I100000J0D01*
G01*
X164112500Y-73787500D01*
G75*
G02*
X164212500Y-73887500I0J-100000D01*
G01*
X164212500Y-75037500D01*
G75*
G02*
X164112500Y-75137500I-100000J0D01*
G01*
X163912500Y-75137500D01*
G75*
G02*
X163812500Y-75037500I0J100000D01*
G01*
G37*
G36*
G01*
X163312500Y-77187500D02*
X163312500Y-76037500D01*
G75*
G02*
X163412500Y-75937500I100000J0D01*
G01*
X163612500Y-75937500D01*
G75*
G02*
X163712500Y-76037500I0J-100000D01*
G01*
X163712500Y-77187500D01*
G75*
G02*
X163612500Y-77287500I-100000J0D01*
G01*
X163412500Y-77287500D01*
G75*
G02*
X163312500Y-77187500I0J100000D01*
G01*
G37*
G36*
G01*
X162812500Y-75037500D02*
X162812500Y-73887500D01*
G75*
G02*
X162912500Y-73787500I100000J0D01*
G01*
X163112500Y-73787500D01*
G75*
G02*
X163212500Y-73887500I0J-100000D01*
G01*
X163212500Y-75037500D01*
G75*
G02*
X163112500Y-75137500I-100000J0D01*
G01*
X162912500Y-75137500D01*
G75*
G02*
X162812500Y-75037500I0J100000D01*
G01*
G37*
G36*
G01*
X162312500Y-77187500D02*
X162312500Y-76037500D01*
G75*
G02*
X162412500Y-75937500I100000J0D01*
G01*
X162612500Y-75937500D01*
G75*
G02*
X162712500Y-76037500I0J-100000D01*
G01*
X162712500Y-77187500D01*
G75*
G02*
X162612500Y-77287500I-100000J0D01*
G01*
X162412500Y-77287500D01*
G75*
G02*
X162312500Y-77187500I0J100000D01*
G01*
G37*
G36*
G01*
X161812500Y-75037500D02*
X161812500Y-73887500D01*
G75*
G02*
X161912500Y-73787500I100000J0D01*
G01*
X162112500Y-73787500D01*
G75*
G02*
X162212500Y-73887500I0J-100000D01*
G01*
X162212500Y-75037500D01*
G75*
G02*
X162112500Y-75137500I-100000J0D01*
G01*
X161912500Y-75137500D01*
G75*
G02*
X161812500Y-75037500I0J100000D01*
G01*
G37*
G36*
G01*
X161312500Y-77187500D02*
X161312500Y-76037500D01*
G75*
G02*
X161412500Y-75937500I100000J0D01*
G01*
X161612500Y-75937500D01*
G75*
G02*
X161712500Y-76037500I0J-100000D01*
G01*
X161712500Y-77187500D01*
G75*
G02*
X161612500Y-77287500I-100000J0D01*
G01*
X161412500Y-77287500D01*
G75*
G02*
X161312500Y-77187500I0J100000D01*
G01*
G37*
G36*
G01*
X160812500Y-75037500D02*
X160812500Y-73887500D01*
G75*
G02*
X160912500Y-73787500I100000J0D01*
G01*
X161112500Y-73787500D01*
G75*
G02*
X161212500Y-73887500I0J-100000D01*
G01*
X161212500Y-75037500D01*
G75*
G02*
X161112500Y-75137500I-100000J0D01*
G01*
X160912500Y-75137500D01*
G75*
G02*
X160812500Y-75037500I0J100000D01*
G01*
G37*
G36*
G01*
X160312500Y-77187500D02*
X160312500Y-76037500D01*
G75*
G02*
X160412500Y-75937500I100000J0D01*
G01*
X160612500Y-75937500D01*
G75*
G02*
X160712500Y-76037500I0J-100000D01*
G01*
X160712500Y-77187500D01*
G75*
G02*
X160612500Y-77287500I-100000J0D01*
G01*
X160412500Y-77287500D01*
G75*
G02*
X160312500Y-77187500I0J100000D01*
G01*
G37*
G36*
G01*
X159812500Y-75037500D02*
X159812500Y-73887500D01*
G75*
G02*
X159912500Y-73787500I100000J0D01*
G01*
X160112500Y-73787500D01*
G75*
G02*
X160212500Y-73887500I0J-100000D01*
G01*
X160212500Y-75037500D01*
G75*
G02*
X160112500Y-75137500I-100000J0D01*
G01*
X159912500Y-75137500D01*
G75*
G02*
X159812500Y-75037500I0J100000D01*
G01*
G37*
G36*
G01*
X159312500Y-77187500D02*
X159312500Y-76037500D01*
G75*
G02*
X159412500Y-75937500I100000J0D01*
G01*
X159612500Y-75937500D01*
G75*
G02*
X159712500Y-76037500I0J-100000D01*
G01*
X159712500Y-77187500D01*
G75*
G02*
X159612500Y-77287500I-100000J0D01*
G01*
X159412500Y-77287500D01*
G75*
G02*
X159312500Y-77187500I0J100000D01*
G01*
G37*
G36*
G01*
X158812500Y-75037500D02*
X158812500Y-73887500D01*
G75*
G02*
X158912500Y-73787500I100000J0D01*
G01*
X159112500Y-73787500D01*
G75*
G02*
X159212500Y-73887500I0J-100000D01*
G01*
X159212500Y-75037500D01*
G75*
G02*
X159112500Y-75137500I-100000J0D01*
G01*
X158912500Y-75137500D01*
G75*
G02*
X158812500Y-75037500I0J100000D01*
G01*
G37*
G36*
G01*
X158312500Y-77187500D02*
X158312500Y-76037500D01*
G75*
G02*
X158412500Y-75937500I100000J0D01*
G01*
X158612500Y-75937500D01*
G75*
G02*
X158712500Y-76037500I0J-100000D01*
G01*
X158712500Y-77187500D01*
G75*
G02*
X158612500Y-77287500I-100000J0D01*
G01*
X158412500Y-77287500D01*
G75*
G02*
X158312500Y-77187500I0J100000D01*
G01*
G37*
G36*
G01*
X157812500Y-75037500D02*
X157812500Y-73887500D01*
G75*
G02*
X157912500Y-73787500I100000J0D01*
G01*
X158112500Y-73787500D01*
G75*
G02*
X158212500Y-73887500I0J-100000D01*
G01*
X158212500Y-75037500D01*
G75*
G02*
X158112500Y-75137500I-100000J0D01*
G01*
X157912500Y-75137500D01*
G75*
G02*
X157812500Y-75037500I0J100000D01*
G01*
G37*
G36*
G01*
X157312500Y-77187500D02*
X157312500Y-76037500D01*
G75*
G02*
X157412500Y-75937500I100000J0D01*
G01*
X157612500Y-75937500D01*
G75*
G02*
X157712500Y-76037500I0J-100000D01*
G01*
X157712500Y-77187500D01*
G75*
G02*
X157612500Y-77287500I-100000J0D01*
G01*
X157412500Y-77287500D01*
G75*
G02*
X157312500Y-77187500I0J100000D01*
G01*
G37*
G36*
G01*
X169462500Y-76497500D02*
X169462500Y-74577500D01*
G75*
G02*
X169702500Y-74337500I240000J0D01*
G01*
X171622500Y-74337500D01*
G75*
G02*
X171862500Y-74577500I0J-240000D01*
G01*
X171862500Y-76497500D01*
G75*
G02*
X171622500Y-76737500I-240000J0D01*
G01*
X169702500Y-76737500D01*
G75*
G02*
X169462500Y-76497500I0J240000D01*
G01*
G37*
G36*
G01*
X154662500Y-76497500D02*
X154662500Y-74577500D01*
G75*
G02*
X154902500Y-74337500I240000J0D01*
G01*
X156822500Y-74337500D01*
G75*
G02*
X157062500Y-74577500I0J-240000D01*
G01*
X157062500Y-76497500D01*
G75*
G02*
X156822500Y-76737500I-240000J0D01*
G01*
X154902500Y-76737500D01*
G75*
G02*
X154662500Y-76497500I0J240000D01*
G01*
G37*
G36*
G01*
X143967500Y-149087501D02*
X143967500Y-150787499D01*
G75*
G02*
X143717499Y-151037500I-250001J0D01*
G01*
X142792501Y-151037500D01*
G75*
G02*
X142542500Y-150787499I0J250001D01*
G01*
X142542500Y-149087501D01*
G75*
G02*
X142792501Y-148837500I250001J0D01*
G01*
X143717499Y-148837500D01*
G75*
G02*
X143967500Y-149087501I0J-250001D01*
G01*
G37*
G36*
G01*
X141642500Y-149087501D02*
X141642500Y-150787499D01*
G75*
G02*
X141392499Y-151037500I-250001J0D01*
G01*
X140467501Y-151037500D01*
G75*
G02*
X140217500Y-150787499I0J250001D01*
G01*
X140217500Y-149087501D01*
G75*
G02*
X140467501Y-148837500I250001J0D01*
G01*
X141392499Y-148837500D01*
G75*
G02*
X141642500Y-149087501I0J-250001D01*
G01*
G37*
G36*
G01*
X133737500Y-74222500D02*
X133737500Y-72852500D01*
G75*
G02*
X133927500Y-72662500I190000J0D01*
G01*
X134497500Y-72662500D01*
G75*
G02*
X134687500Y-72852500I0J-190000D01*
G01*
X134687500Y-74222500D01*
G75*
G02*
X134497500Y-74412500I-190000J0D01*
G01*
X133927500Y-74412500D01*
G75*
G02*
X133737500Y-74222500I0J190000D01*
G01*
G37*
G36*
G01*
X136837500Y-74222500D02*
X136837500Y-72852500D01*
G75*
G02*
X137027500Y-72662500I190000J0D01*
G01*
X137597500Y-72662500D01*
G75*
G02*
X137787500Y-72852500I0J-190000D01*
G01*
X137787500Y-74222500D01*
G75*
G02*
X137597500Y-74412500I-190000J0D01*
G01*
X137027500Y-74412500D01*
G75*
G02*
X136837500Y-74222500I0J190000D01*
G01*
G37*
G36*
G01*
X143737500Y-74222500D02*
X143737500Y-72852500D01*
G75*
G02*
X143927500Y-72662500I190000J0D01*
G01*
X144497500Y-72662500D01*
G75*
G02*
X144687500Y-72852500I0J-190000D01*
G01*
X144687500Y-74222500D01*
G75*
G02*
X144497500Y-74412500I-190000J0D01*
G01*
X143927500Y-74412500D01*
G75*
G02*
X143737500Y-74222500I0J190000D01*
G01*
G37*
G36*
G01*
X146837500Y-74222500D02*
X146837500Y-72852500D01*
G75*
G02*
X147027500Y-72662500I190000J0D01*
G01*
X147597500Y-72662500D01*
G75*
G02*
X147787500Y-72852500I0J-190000D01*
G01*
X147787500Y-74222500D01*
G75*
G02*
X147597500Y-74412500I-190000J0D01*
G01*
X147027500Y-74412500D01*
G75*
G02*
X146837500Y-74222500I0J190000D01*
G01*
G37*
G36*
G01*
X193737500Y-74222500D02*
X193737500Y-72852500D01*
G75*
G02*
X193927500Y-72662500I190000J0D01*
G01*
X194497500Y-72662500D01*
G75*
G02*
X194687500Y-72852500I0J-190000D01*
G01*
X194687500Y-74222500D01*
G75*
G02*
X194497500Y-74412500I-190000J0D01*
G01*
X193927500Y-74412500D01*
G75*
G02*
X193737500Y-74222500I0J190000D01*
G01*
G37*
G36*
G01*
X196837500Y-74222500D02*
X196837500Y-72852500D01*
G75*
G02*
X197027500Y-72662500I190000J0D01*
G01*
X197597500Y-72662500D01*
G75*
G02*
X197787500Y-72852500I0J-190000D01*
G01*
X197787500Y-74222500D01*
G75*
G02*
X197597500Y-74412500I-190000J0D01*
G01*
X197027500Y-74412500D01*
G75*
G02*
X196837500Y-74222500I0J190000D01*
G01*
G37*
G36*
G01*
X179912500Y-150737500D02*
X179012500Y-150737500D01*
G75*
G02*
X178762500Y-150487500I0J250000D01*
G01*
X178762500Y-149787500D01*
G75*
G02*
X179012500Y-149537500I250000J0D01*
G01*
X179912500Y-149537500D01*
G75*
G02*
X180162500Y-149787500I0J-250000D01*
G01*
X180162500Y-150487500D01*
G75*
G02*
X179912500Y-150737500I-250000J0D01*
G01*
G37*
G36*
G01*
X179912500Y-148737500D02*
X179012500Y-148737500D01*
G75*
G02*
X178762500Y-148487500I0J250000D01*
G01*
X178762500Y-147787500D01*
G75*
G02*
X179012500Y-147537500I250000J0D01*
G01*
X179912500Y-147537500D01*
G75*
G02*
X180162500Y-147787500I0J-250000D01*
G01*
X180162500Y-148487500D01*
G75*
G02*
X179912500Y-148737500I-250000J0D01*
G01*
G37*
G36*
G01*
X182862500Y-146537500D02*
X182862500Y-146237500D01*
G75*
G02*
X183012500Y-146087500I150000J0D01*
G01*
X184037500Y-146087500D01*
G75*
G02*
X184187500Y-146237500I0J-150000D01*
G01*
X184187500Y-146537500D01*
G75*
G02*
X184037500Y-146687500I-150000J0D01*
G01*
X183012500Y-146687500D01*
G75*
G02*
X182862500Y-146537500I0J150000D01*
G01*
G37*
G36*
G01*
X182862500Y-147487500D02*
X182862500Y-147187500D01*
G75*
G02*
X183012500Y-147037500I150000J0D01*
G01*
X184037500Y-147037500D01*
G75*
G02*
X184187500Y-147187500I0J-150000D01*
G01*
X184187500Y-147487500D01*
G75*
G02*
X184037500Y-147637500I-150000J0D01*
G01*
X183012500Y-147637500D01*
G75*
G02*
X182862500Y-147487500I0J150000D01*
G01*
G37*
G36*
G01*
X182862500Y-148437500D02*
X182862500Y-148137500D01*
G75*
G02*
X183012500Y-147987500I150000J0D01*
G01*
X184037500Y-147987500D01*
G75*
G02*
X184187500Y-148137500I0J-150000D01*
G01*
X184187500Y-148437500D01*
G75*
G02*
X184037500Y-148587500I-150000J0D01*
G01*
X183012500Y-148587500D01*
G75*
G02*
X182862500Y-148437500I0J150000D01*
G01*
G37*
G36*
G01*
X185137500Y-148437500D02*
X185137500Y-148137500D01*
G75*
G02*
X185287500Y-147987500I150000J0D01*
G01*
X186312500Y-147987500D01*
G75*
G02*
X186462500Y-148137500I0J-150000D01*
G01*
X186462500Y-148437500D01*
G75*
G02*
X186312500Y-148587500I-150000J0D01*
G01*
X185287500Y-148587500D01*
G75*
G02*
X185137500Y-148437500I0J150000D01*
G01*
G37*
G36*
G01*
X185137500Y-147487500D02*
X185137500Y-147187500D01*
G75*
G02*
X185287500Y-147037500I150000J0D01*
G01*
X186312500Y-147037500D01*
G75*
G02*
X186462500Y-147187500I0J-150000D01*
G01*
X186462500Y-147487500D01*
G75*
G02*
X186312500Y-147637500I-150000J0D01*
G01*
X185287500Y-147637500D01*
G75*
G02*
X185137500Y-147487500I0J150000D01*
G01*
G37*
G36*
G01*
X185137500Y-146537500D02*
X185137500Y-146237500D01*
G75*
G02*
X185287500Y-146087500I150000J0D01*
G01*
X186312500Y-146087500D01*
G75*
G02*
X186462500Y-146237500I0J-150000D01*
G01*
X186462500Y-146537500D01*
G75*
G02*
X186312500Y-146687500I-150000J0D01*
G01*
X185287500Y-146687500D01*
G75*
G02*
X185137500Y-146537500I0J150000D01*
G01*
G37*
G36*
G01*
X137942500Y-148342500D02*
X137042500Y-148342500D01*
G75*
G02*
X136792500Y-148092500I0J250000D01*
G01*
X136792500Y-147392500D01*
G75*
G02*
X137042500Y-147142500I250000J0D01*
G01*
X137942500Y-147142500D01*
G75*
G02*
X138192500Y-147392500I0J-250000D01*
G01*
X138192500Y-148092500D01*
G75*
G02*
X137942500Y-148342500I-250000J0D01*
G01*
G37*
G36*
G01*
X137942500Y-146342500D02*
X137042500Y-146342500D01*
G75*
G02*
X136792500Y-146092500I0J250000D01*
G01*
X136792500Y-145392500D01*
G75*
G02*
X137042500Y-145142500I250000J0D01*
G01*
X137942500Y-145142500D01*
G75*
G02*
X138192500Y-145392500I0J-250000D01*
G01*
X138192500Y-146092500D01*
G75*
G02*
X137942500Y-146342500I-250000J0D01*
G01*
G37*
G36*
G01*
X143287500Y-128325000D02*
X143287500Y-129275000D01*
G75*
G02*
X143037500Y-129525000I-250000J0D01*
G01*
X142362500Y-129525000D01*
G75*
G02*
X142112500Y-129275000I0J250000D01*
G01*
X142112500Y-128325000D01*
G75*
G02*
X142362500Y-128075000I250000J0D01*
G01*
X143037500Y-128075000D01*
G75*
G02*
X143287500Y-128325000I0J-250000D01*
G01*
G37*
G36*
G01*
X141212500Y-128325000D02*
X141212500Y-129275000D01*
G75*
G02*
X140962500Y-129525000I-250000J0D01*
G01*
X140287500Y-129525000D01*
G75*
G02*
X140037500Y-129275000I0J250000D01*
G01*
X140037500Y-128325000D01*
G75*
G02*
X140287500Y-128075000I250000J0D01*
G01*
X140962500Y-128075000D01*
G75*
G02*
X141212500Y-128325000I0J-250000D01*
G01*
G37*
G36*
G01*
X133575000Y-121475000D02*
X133575000Y-120525000D01*
G75*
G02*
X133825000Y-120275000I250000J0D01*
G01*
X134500000Y-120275000D01*
G75*
G02*
X134750000Y-120525000I0J-250000D01*
G01*
X134750000Y-121475000D01*
G75*
G02*
X134500000Y-121725000I-250000J0D01*
G01*
X133825000Y-121725000D01*
G75*
G02*
X133575000Y-121475000I0J250000D01*
G01*
G37*
G36*
G01*
X135650000Y-121475000D02*
X135650000Y-120525000D01*
G75*
G02*
X135900000Y-120275000I250000J0D01*
G01*
X136575000Y-120275000D01*
G75*
G02*
X136825000Y-120525000I0J-250000D01*
G01*
X136825000Y-121475000D01*
G75*
G02*
X136575000Y-121725000I-250000J0D01*
G01*
X135900000Y-121725000D01*
G75*
G02*
X135650000Y-121475000I0J250000D01*
G01*
G37*
G36*
G01*
X198712500Y-126837500D02*
X197812500Y-126837500D01*
G75*
G02*
X197562500Y-126587500I0J250000D01*
G01*
X197562500Y-125887500D01*
G75*
G02*
X197812500Y-125637500I250000J0D01*
G01*
X198712500Y-125637500D01*
G75*
G02*
X198962500Y-125887500I0J-250000D01*
G01*
X198962500Y-126587500D01*
G75*
G02*
X198712500Y-126837500I-250000J0D01*
G01*
G37*
G36*
G01*
X198712500Y-124837500D02*
X197812500Y-124837500D01*
G75*
G02*
X197562500Y-124587500I0J250000D01*
G01*
X197562500Y-123887500D01*
G75*
G02*
X197812500Y-123637500I250000J0D01*
G01*
X198712500Y-123637500D01*
G75*
G02*
X198962500Y-123887500I0J-250000D01*
G01*
X198962500Y-124587500D01*
G75*
G02*
X198712500Y-124837500I-250000J0D01*
G01*
G37*
X200412500Y-145937500D03*
X203712500Y-145937500D03*
G36*
G01*
X150600000Y-117950000D02*
X150600000Y-118850000D01*
G75*
G02*
X150350000Y-119100000I-250000J0D01*
G01*
X149650000Y-119100000D01*
G75*
G02*
X149400000Y-118850000I0J250000D01*
G01*
X149400000Y-117950000D01*
G75*
G02*
X149650000Y-117700000I250000J0D01*
G01*
X150350000Y-117700000D01*
G75*
G02*
X150600000Y-117950000I0J-250000D01*
G01*
G37*
G36*
G01*
X148600000Y-117950000D02*
X148600000Y-118850000D01*
G75*
G02*
X148350000Y-119100000I-250000J0D01*
G01*
X147650000Y-119100000D01*
G75*
G02*
X147400000Y-118850000I0J250000D01*
G01*
X147400000Y-117950000D01*
G75*
G02*
X147650000Y-117700000I250000J0D01*
G01*
X148350000Y-117700000D01*
G75*
G02*
X148600000Y-117950000I0J-250000D01*
G01*
G37*
G36*
G01*
X176862500Y-146587500D02*
X176862500Y-145687500D01*
G75*
G02*
X177112500Y-145437500I250000J0D01*
G01*
X177812500Y-145437500D01*
G75*
G02*
X178062500Y-145687500I0J-250000D01*
G01*
X178062500Y-146587500D01*
G75*
G02*
X177812500Y-146837500I-250000J0D01*
G01*
X177112500Y-146837500D01*
G75*
G02*
X176862500Y-146587500I0J250000D01*
G01*
G37*
G36*
G01*
X178862500Y-146587500D02*
X178862500Y-145687500D01*
G75*
G02*
X179112500Y-145437500I250000J0D01*
G01*
X179812500Y-145437500D01*
G75*
G02*
X180062500Y-145687500I0J-250000D01*
G01*
X180062500Y-146587500D01*
G75*
G02*
X179812500Y-146837500I-250000J0D01*
G01*
X179112500Y-146837500D01*
G75*
G02*
X178862500Y-146587500I0J250000D01*
G01*
G37*
D15*
X205862500Y-146787500D03*
X205862500Y-143487500D03*
G36*
G01*
X191287500Y-118782500D02*
X191287500Y-118482500D01*
G75*
G02*
X191437500Y-118332500I150000J0D01*
G01*
X193087500Y-118332500D01*
G75*
G02*
X193237500Y-118482500I0J-150000D01*
G01*
X193237500Y-118782500D01*
G75*
G02*
X193087500Y-118932500I-150000J0D01*
G01*
X191437500Y-118932500D01*
G75*
G02*
X191287500Y-118782500I0J150000D01*
G01*
G37*
G36*
G01*
X191287500Y-120052500D02*
X191287500Y-119752500D01*
G75*
G02*
X191437500Y-119602500I150000J0D01*
G01*
X193087500Y-119602500D01*
G75*
G02*
X193237500Y-119752500I0J-150000D01*
G01*
X193237500Y-120052500D01*
G75*
G02*
X193087500Y-120202500I-150000J0D01*
G01*
X191437500Y-120202500D01*
G75*
G02*
X191287500Y-120052500I0J150000D01*
G01*
G37*
G36*
G01*
X191287500Y-121322500D02*
X191287500Y-121022500D01*
G75*
G02*
X191437500Y-120872500I150000J0D01*
G01*
X193087500Y-120872500D01*
G75*
G02*
X193237500Y-121022500I0J-150000D01*
G01*
X193237500Y-121322500D01*
G75*
G02*
X193087500Y-121472500I-150000J0D01*
G01*
X191437500Y-121472500D01*
G75*
G02*
X191287500Y-121322500I0J150000D01*
G01*
G37*
G36*
G01*
X191287500Y-122592500D02*
X191287500Y-122292500D01*
G75*
G02*
X191437500Y-122142500I150000J0D01*
G01*
X193087500Y-122142500D01*
G75*
G02*
X193237500Y-122292500I0J-150000D01*
G01*
X193237500Y-122592500D01*
G75*
G02*
X193087500Y-122742500I-150000J0D01*
G01*
X191437500Y-122742500D01*
G75*
G02*
X191287500Y-122592500I0J150000D01*
G01*
G37*
G36*
G01*
X196237500Y-122592500D02*
X196237500Y-122292500D01*
G75*
G02*
X196387500Y-122142500I150000J0D01*
G01*
X198037500Y-122142500D01*
G75*
G02*
X198187500Y-122292500I0J-150000D01*
G01*
X198187500Y-122592500D01*
G75*
G02*
X198037500Y-122742500I-150000J0D01*
G01*
X196387500Y-122742500D01*
G75*
G02*
X196237500Y-122592500I0J150000D01*
G01*
G37*
G36*
G01*
X196237500Y-121322500D02*
X196237500Y-121022500D01*
G75*
G02*
X196387500Y-120872500I150000J0D01*
G01*
X198037500Y-120872500D01*
G75*
G02*
X198187500Y-121022500I0J-150000D01*
G01*
X198187500Y-121322500D01*
G75*
G02*
X198037500Y-121472500I-150000J0D01*
G01*
X196387500Y-121472500D01*
G75*
G02*
X196237500Y-121322500I0J150000D01*
G01*
G37*
G36*
G01*
X196237500Y-120052500D02*
X196237500Y-119752500D01*
G75*
G02*
X196387500Y-119602500I150000J0D01*
G01*
X198037500Y-119602500D01*
G75*
G02*
X198187500Y-119752500I0J-150000D01*
G01*
X198187500Y-120052500D01*
G75*
G02*
X198037500Y-120202500I-150000J0D01*
G01*
X196387500Y-120202500D01*
G75*
G02*
X196237500Y-120052500I0J150000D01*
G01*
G37*
G36*
G01*
X196237500Y-118782500D02*
X196237500Y-118482500D01*
G75*
G02*
X196387500Y-118332500I150000J0D01*
G01*
X198037500Y-118332500D01*
G75*
G02*
X198187500Y-118482500I0J-150000D01*
G01*
X198187500Y-118782500D01*
G75*
G02*
X198037500Y-118932500I-150000J0D01*
G01*
X196387500Y-118932500D01*
G75*
G02*
X196237500Y-118782500I0J150000D01*
G01*
G37*
G36*
G01*
X148362500Y-75587500D02*
X148362500Y-76487500D01*
G75*
G02*
X148112500Y-76737500I-250000J0D01*
G01*
X147412500Y-76737500D01*
G75*
G02*
X147162500Y-76487500I0J250000D01*
G01*
X147162500Y-75587500D01*
G75*
G02*
X147412500Y-75337500I250000J0D01*
G01*
X148112500Y-75337500D01*
G75*
G02*
X148362500Y-75587500I0J-250000D01*
G01*
G37*
G36*
G01*
X146362500Y-75587500D02*
X146362500Y-76487500D01*
G75*
G02*
X146112500Y-76737500I-250000J0D01*
G01*
X145412500Y-76737500D01*
G75*
G02*
X145162500Y-76487500I0J250000D01*
G01*
X145162500Y-75587500D01*
G75*
G02*
X145412500Y-75337500I250000J0D01*
G01*
X146112500Y-75337500D01*
G75*
G02*
X146362500Y-75587500I0J-250000D01*
G01*
G37*
G36*
G01*
X138867500Y-146017500D02*
X138867500Y-145067500D01*
G75*
G02*
X139117500Y-144817500I250000J0D01*
G01*
X139792500Y-144817500D01*
G75*
G02*
X140042500Y-145067500I0J-250000D01*
G01*
X140042500Y-146017500D01*
G75*
G02*
X139792500Y-146267500I-250000J0D01*
G01*
X139117500Y-146267500D01*
G75*
G02*
X138867500Y-146017500I0J250000D01*
G01*
G37*
G36*
G01*
X140942500Y-146017500D02*
X140942500Y-145067500D01*
G75*
G02*
X141192500Y-144817500I250000J0D01*
G01*
X141867500Y-144817500D01*
G75*
G02*
X142117500Y-145067500I0J-250000D01*
G01*
X142117500Y-146017500D01*
G75*
G02*
X141867500Y-146267500I-250000J0D01*
G01*
X141192500Y-146267500D01*
G75*
G02*
X140942500Y-146017500I0J250000D01*
G01*
G37*
G36*
G01*
X141017500Y-140317500D02*
X141967500Y-140317500D01*
G75*
G02*
X142217500Y-140567500I0J-250000D01*
G01*
X142217500Y-141242500D01*
G75*
G02*
X141967500Y-141492500I-250000J0D01*
G01*
X141017500Y-141492500D01*
G75*
G02*
X140767500Y-141242500I0J250000D01*
G01*
X140767500Y-140567500D01*
G75*
G02*
X141017500Y-140317500I250000J0D01*
G01*
G37*
G36*
G01*
X141017500Y-142392500D02*
X141967500Y-142392500D01*
G75*
G02*
X142217500Y-142642500I0J-250000D01*
G01*
X142217500Y-143317500D01*
G75*
G02*
X141967500Y-143567500I-250000J0D01*
G01*
X141017500Y-143567500D01*
G75*
G02*
X140767500Y-143317500I0J250000D01*
G01*
X140767500Y-142642500D01*
G75*
G02*
X141017500Y-142392500I250000J0D01*
G01*
G37*
G36*
G01*
X153057500Y-119230000D02*
X153057500Y-120270000D01*
G75*
G02*
X152927500Y-120400000I-130000J0D01*
G01*
X151637500Y-120400000D01*
G75*
G02*
X151507500Y-120270000I0J130000D01*
G01*
X151507500Y-119230000D01*
G75*
G02*
X151637500Y-119100000I130000J0D01*
G01*
X152927500Y-119100000D01*
G75*
G02*
X153057500Y-119230000I0J-130000D01*
G01*
G37*
G36*
G01*
X161017500Y-119230000D02*
X161017500Y-120270000D01*
G75*
G02*
X160887500Y-120400000I-130000J0D01*
G01*
X159597500Y-120400000D01*
G75*
G02*
X159467500Y-120270000I0J130000D01*
G01*
X159467500Y-119230000D01*
G75*
G02*
X159597500Y-119100000I130000J0D01*
G01*
X160887500Y-119100000D01*
G75*
G02*
X161017500Y-119230000I0J-130000D01*
G01*
G37*
G36*
G01*
X161017500Y-114730000D02*
X161017500Y-115770000D01*
G75*
G02*
X160887500Y-115900000I-130000J0D01*
G01*
X159597500Y-115900000D01*
G75*
G02*
X159467500Y-115770000I0J130000D01*
G01*
X159467500Y-114730000D01*
G75*
G02*
X159597500Y-114600000I130000J0D01*
G01*
X160887500Y-114600000D01*
G75*
G02*
X161017500Y-114730000I0J-130000D01*
G01*
G37*
G36*
G01*
X153057500Y-114730000D02*
X153057500Y-115770000D01*
G75*
G02*
X152927500Y-115900000I-130000J0D01*
G01*
X151637500Y-115900000D01*
G75*
G02*
X151507500Y-115770000I0J130000D01*
G01*
X151507500Y-114730000D01*
G75*
G02*
X151637500Y-114600000I130000J0D01*
G01*
X152927500Y-114600000D01*
G75*
G02*
X153057500Y-114730000I0J-130000D01*
G01*
G37*
G36*
G01*
X137325000Y-116375000D02*
X138275000Y-116375000D01*
G75*
G02*
X138525000Y-116625000I0J-250000D01*
G01*
X138525000Y-117300000D01*
G75*
G02*
X138275000Y-117550000I-250000J0D01*
G01*
X137325000Y-117550000D01*
G75*
G02*
X137075000Y-117300000I0J250000D01*
G01*
X137075000Y-116625000D01*
G75*
G02*
X137325000Y-116375000I250000J0D01*
G01*
G37*
G36*
G01*
X137325000Y-118450000D02*
X138275000Y-118450000D01*
G75*
G02*
X138525000Y-118700000I0J-250000D01*
G01*
X138525000Y-119375000D01*
G75*
G02*
X138275000Y-119625000I-250000J0D01*
G01*
X137325000Y-119625000D01*
G75*
G02*
X137075000Y-119375000I0J250000D01*
G01*
X137075000Y-118700000D01*
G75*
G02*
X137325000Y-118450000I250000J0D01*
G01*
G37*
G36*
G01*
X188737500Y-124787500D02*
X188737500Y-123887500D01*
G75*
G02*
X188987500Y-123637500I250000J0D01*
G01*
X189687500Y-123637500D01*
G75*
G02*
X189937500Y-123887500I0J-250000D01*
G01*
X189937500Y-124787500D01*
G75*
G02*
X189687500Y-125037500I-250000J0D01*
G01*
X188987500Y-125037500D01*
G75*
G02*
X188737500Y-124787500I0J250000D01*
G01*
G37*
G36*
G01*
X190737500Y-124787500D02*
X190737500Y-123887500D01*
G75*
G02*
X190987500Y-123637500I250000J0D01*
G01*
X191687500Y-123637500D01*
G75*
G02*
X191937500Y-123887500I0J-250000D01*
G01*
X191937500Y-124787500D01*
G75*
G02*
X191687500Y-125037500I-250000J0D01*
G01*
X190987500Y-125037500D01*
G75*
G02*
X190737500Y-124787500I0J250000D01*
G01*
G37*
G36*
G01*
X142692500Y-145937500D02*
X142692500Y-145637500D01*
G75*
G02*
X142842500Y-145487500I150000J0D01*
G01*
X143867500Y-145487500D01*
G75*
G02*
X144017500Y-145637500I0J-150000D01*
G01*
X144017500Y-145937500D01*
G75*
G02*
X143867500Y-146087500I-150000J0D01*
G01*
X142842500Y-146087500D01*
G75*
G02*
X142692500Y-145937500I0J150000D01*
G01*
G37*
G36*
G01*
X142692500Y-146887500D02*
X142692500Y-146587500D01*
G75*
G02*
X142842500Y-146437500I150000J0D01*
G01*
X143867500Y-146437500D01*
G75*
G02*
X144017500Y-146587500I0J-150000D01*
G01*
X144017500Y-146887500D01*
G75*
G02*
X143867500Y-147037500I-150000J0D01*
G01*
X142842500Y-147037500D01*
G75*
G02*
X142692500Y-146887500I0J150000D01*
G01*
G37*
G36*
G01*
X142692500Y-147837500D02*
X142692500Y-147537500D01*
G75*
G02*
X142842500Y-147387500I150000J0D01*
G01*
X143867500Y-147387500D01*
G75*
G02*
X144017500Y-147537500I0J-150000D01*
G01*
X144017500Y-147837500D01*
G75*
G02*
X143867500Y-147987500I-150000J0D01*
G01*
X142842500Y-147987500D01*
G75*
G02*
X142692500Y-147837500I0J150000D01*
G01*
G37*
G36*
G01*
X144967500Y-147837500D02*
X144967500Y-147537500D01*
G75*
G02*
X145117500Y-147387500I150000J0D01*
G01*
X146142500Y-147387500D01*
G75*
G02*
X146292500Y-147537500I0J-150000D01*
G01*
X146292500Y-147837500D01*
G75*
G02*
X146142500Y-147987500I-150000J0D01*
G01*
X145117500Y-147987500D01*
G75*
G02*
X144967500Y-147837500I0J150000D01*
G01*
G37*
G36*
G01*
X144967500Y-145937500D02*
X144967500Y-145637500D01*
G75*
G02*
X145117500Y-145487500I150000J0D01*
G01*
X146142500Y-145487500D01*
G75*
G02*
X146292500Y-145637500I0J-150000D01*
G01*
X146292500Y-145937500D01*
G75*
G02*
X146142500Y-146087500I-150000J0D01*
G01*
X145117500Y-146087500D01*
G75*
G02*
X144967500Y-145937500I0J150000D01*
G01*
G37*
G36*
G01*
X128737500Y-74222500D02*
X128737500Y-72852500D01*
G75*
G02*
X128927500Y-72662500I190000J0D01*
G01*
X129497500Y-72662500D01*
G75*
G02*
X129687500Y-72852500I0J-190000D01*
G01*
X129687500Y-74222500D01*
G75*
G02*
X129497500Y-74412500I-190000J0D01*
G01*
X128927500Y-74412500D01*
G75*
G02*
X128737500Y-74222500I0J190000D01*
G01*
G37*
G36*
G01*
X131837500Y-74222500D02*
X131837500Y-72852500D01*
G75*
G02*
X132027500Y-72662500I190000J0D01*
G01*
X132597500Y-72662500D01*
G75*
G02*
X132787500Y-72852500I0J-190000D01*
G01*
X132787500Y-74222500D01*
G75*
G02*
X132597500Y-74412500I-190000J0D01*
G01*
X132027500Y-74412500D01*
G75*
G02*
X131837500Y-74222500I0J190000D01*
G01*
G37*
X187137500Y-118187500D03*
X187137500Y-121487500D03*
G36*
G01*
X185017500Y-119230000D02*
X185017500Y-120270000D01*
G75*
G02*
X184887500Y-120400000I-130000J0D01*
G01*
X183597500Y-120400000D01*
G75*
G02*
X183467500Y-120270000I0J130000D01*
G01*
X183467500Y-119230000D01*
G75*
G02*
X183597500Y-119100000I130000J0D01*
G01*
X184887500Y-119100000D01*
G75*
G02*
X185017500Y-119230000I0J-130000D01*
G01*
G37*
G36*
G01*
X177057500Y-119230000D02*
X177057500Y-120270000D01*
G75*
G02*
X176927500Y-120400000I-130000J0D01*
G01*
X175637500Y-120400000D01*
G75*
G02*
X175507500Y-120270000I0J130000D01*
G01*
X175507500Y-119230000D01*
G75*
G02*
X175637500Y-119100000I130000J0D01*
G01*
X176927500Y-119100000D01*
G75*
G02*
X177057500Y-119230000I0J-130000D01*
G01*
G37*
G36*
G01*
X177057500Y-114730000D02*
X177057500Y-115770000D01*
G75*
G02*
X176927500Y-115900000I-130000J0D01*
G01*
X175637500Y-115900000D01*
G75*
G02*
X175507500Y-115770000I0J130000D01*
G01*
X175507500Y-114730000D01*
G75*
G02*
X175637500Y-114600000I130000J0D01*
G01*
X176927500Y-114600000D01*
G75*
G02*
X177057500Y-114730000I0J-130000D01*
G01*
G37*
G36*
G01*
X185017500Y-114730000D02*
X185017500Y-115770000D01*
G75*
G02*
X184887500Y-115900000I-130000J0D01*
G01*
X183597500Y-115900000D01*
G75*
G02*
X183467500Y-115770000I0J130000D01*
G01*
X183467500Y-114730000D01*
G75*
G02*
X183597500Y-114600000I130000J0D01*
G01*
X184887500Y-114600000D01*
G75*
G02*
X185017500Y-114730000I0J-130000D01*
G01*
G37*
G36*
G01*
X187987500Y-82862500D02*
X188937500Y-82862500D01*
G75*
G02*
X189187500Y-83112500I0J-250000D01*
G01*
X189187500Y-83787500D01*
G75*
G02*
X188937500Y-84037500I-250000J0D01*
G01*
X187987500Y-84037500D01*
G75*
G02*
X187737500Y-83787500I0J250000D01*
G01*
X187737500Y-83112500D01*
G75*
G02*
X187987500Y-82862500I250000J0D01*
G01*
G37*
G36*
G01*
X187987500Y-84937500D02*
X188937500Y-84937500D01*
G75*
G02*
X189187500Y-85187500I0J-250000D01*
G01*
X189187500Y-85862500D01*
G75*
G02*
X188937500Y-86112500I-250000J0D01*
G01*
X187987500Y-86112500D01*
G75*
G02*
X187737500Y-85862500I0J250000D01*
G01*
X187737500Y-85187500D01*
G75*
G02*
X187987500Y-84937500I250000J0D01*
G01*
G37*
G36*
G01*
X193412500Y-143737500D02*
X194312500Y-143737500D01*
G75*
G02*
X194562500Y-143987500I0J-250000D01*
G01*
X194562500Y-144687500D01*
G75*
G02*
X194312500Y-144937500I-250000J0D01*
G01*
X193412500Y-144937500D01*
G75*
G02*
X193162500Y-144687500I0J250000D01*
G01*
X193162500Y-143987500D01*
G75*
G02*
X193412500Y-143737500I250000J0D01*
G01*
G37*
G36*
G01*
X193412500Y-145737500D02*
X194312500Y-145737500D01*
G75*
G02*
X194562500Y-145987500I0J-250000D01*
G01*
X194562500Y-146687500D01*
G75*
G02*
X194312500Y-146937500I-250000J0D01*
G01*
X193412500Y-146937500D01*
G75*
G02*
X193162500Y-146687500I0J250000D01*
G01*
X193162500Y-145987500D01*
G75*
G02*
X193412500Y-145737500I250000J0D01*
G01*
G37*
G36*
G01*
X137637500Y-105112500D02*
X137637500Y-104162500D01*
G75*
G02*
X137887500Y-103912500I250000J0D01*
G01*
X138562500Y-103912500D01*
G75*
G02*
X138812500Y-104162500I0J-250000D01*
G01*
X138812500Y-105112500D01*
G75*
G02*
X138562500Y-105362500I-250000J0D01*
G01*
X137887500Y-105362500D01*
G75*
G02*
X137637500Y-105112500I0J250000D01*
G01*
G37*
G36*
G01*
X139712500Y-105112500D02*
X139712500Y-104162500D01*
G75*
G02*
X139962500Y-103912500I250000J0D01*
G01*
X140637500Y-103912500D01*
G75*
G02*
X140887500Y-104162500I0J-250000D01*
G01*
X140887500Y-105112500D01*
G75*
G02*
X140637500Y-105362500I-250000J0D01*
G01*
X139962500Y-105362500D01*
G75*
G02*
X139712500Y-105112500I0J250000D01*
G01*
G37*
G36*
G01*
X179612500Y-138637500D02*
X180512500Y-138637500D01*
G75*
G02*
X180762500Y-138887500I0J-250000D01*
G01*
X180762500Y-139587500D01*
G75*
G02*
X180512500Y-139837500I-250000J0D01*
G01*
X179612500Y-139837500D01*
G75*
G02*
X179362500Y-139587500I0J250000D01*
G01*
X179362500Y-138887500D01*
G75*
G02*
X179612500Y-138637500I250000J0D01*
G01*
G37*
G36*
G01*
X179612500Y-140637500D02*
X180512500Y-140637500D01*
G75*
G02*
X180762500Y-140887500I0J-250000D01*
G01*
X180762500Y-141587500D01*
G75*
G02*
X180512500Y-141837500I-250000J0D01*
G01*
X179612500Y-141837500D01*
G75*
G02*
X179362500Y-141587500I0J250000D01*
G01*
X179362500Y-140887500D01*
G75*
G02*
X179612500Y-140637500I250000J0D01*
G01*
G37*
D13*
X193087500Y-116537500D03*
X196387500Y-116537500D03*
G36*
G01*
X192337500Y-146962500D02*
X191387500Y-146962500D01*
G75*
G02*
X191137500Y-146712500I0J250000D01*
G01*
X191137500Y-146037500D01*
G75*
G02*
X191387500Y-145787500I250000J0D01*
G01*
X192337500Y-145787500D01*
G75*
G02*
X192587500Y-146037500I0J-250000D01*
G01*
X192587500Y-146712500D01*
G75*
G02*
X192337500Y-146962500I-250000J0D01*
G01*
G37*
G36*
G01*
X192337500Y-144887500D02*
X191387500Y-144887500D01*
G75*
G02*
X191137500Y-144637500I0J250000D01*
G01*
X191137500Y-143962500D01*
G75*
G02*
X191387500Y-143712500I250000J0D01*
G01*
X192337500Y-143712500D01*
G75*
G02*
X192587500Y-143962500I0J-250000D01*
G01*
X192587500Y-144637500D01*
G75*
G02*
X192337500Y-144887500I-250000J0D01*
G01*
G37*
G36*
G01*
X143510000Y-123425000D02*
X143510000Y-122935000D01*
G75*
G02*
X143755000Y-122690000I245000J0D01*
G01*
X144245000Y-122690000D01*
G75*
G02*
X144490000Y-122935000I0J-245000D01*
G01*
X144490000Y-123425000D01*
G75*
G02*
X144245000Y-123670000I-245000J0D01*
G01*
X143755000Y-123670000D01*
G75*
G02*
X143510000Y-123425000I0J245000D01*
G01*
G37*
G36*
G01*
X144730000Y-123425000D02*
X144730000Y-122935000D01*
G75*
G02*
X144975000Y-122690000I245000J0D01*
G01*
X145465000Y-122690000D01*
G75*
G02*
X145710000Y-122935000I0J-245000D01*
G01*
X145710000Y-123425000D01*
G75*
G02*
X145465000Y-123670000I-245000J0D01*
G01*
X144975000Y-123670000D01*
G75*
G02*
X144730000Y-123425000I0J245000D01*
G01*
G37*
G36*
G01*
X143510000Y-125865000D02*
X143510000Y-125375000D01*
G75*
G02*
X143755000Y-125130000I245000J0D01*
G01*
X144245000Y-125130000D01*
G75*
G02*
X144490000Y-125375000I0J-245000D01*
G01*
X144490000Y-125865000D01*
G75*
G02*
X144245000Y-126110000I-245000J0D01*
G01*
X143755000Y-126110000D01*
G75*
G02*
X143510000Y-125865000I0J245000D01*
G01*
G37*
G36*
G01*
X142290000Y-124645000D02*
X142290000Y-124155000D01*
G75*
G02*
X142535000Y-123910000I245000J0D01*
G01*
X143025000Y-123910000D01*
G75*
G02*
X143270000Y-124155000I0J-245000D01*
G01*
X143270000Y-124645000D01*
G75*
G02*
X143025000Y-124890000I-245000J0D01*
G01*
X142535000Y-124890000D01*
G75*
G02*
X142290000Y-124645000I0J245000D01*
G01*
G37*
G36*
G01*
X143510000Y-124645000D02*
X143510000Y-124155000D01*
G75*
G02*
X143755000Y-123910000I245000J0D01*
G01*
X144245000Y-123910000D01*
G75*
G02*
X144490000Y-124155000I0J-245000D01*
G01*
X144490000Y-124645000D01*
G75*
G02*
X144245000Y-124890000I-245000J0D01*
G01*
X143755000Y-124890000D01*
G75*
G02*
X143510000Y-124645000I0J245000D01*
G01*
G37*
G36*
G01*
X144730000Y-125865000D02*
X144730000Y-125375000D01*
G75*
G02*
X144975000Y-125130000I245000J0D01*
G01*
X145465000Y-125130000D01*
G75*
G02*
X145710000Y-125375000I0J-245000D01*
G01*
X145710000Y-125865000D01*
G75*
G02*
X145465000Y-126110000I-245000J0D01*
G01*
X144975000Y-126110000D01*
G75*
G02*
X144730000Y-125865000I0J245000D01*
G01*
G37*
G36*
G01*
X142290000Y-123425000D02*
X142290000Y-122935000D01*
G75*
G02*
X142535000Y-122690000I245000J0D01*
G01*
X143025000Y-122690000D01*
G75*
G02*
X143270000Y-122935000I0J-245000D01*
G01*
X143270000Y-123425000D01*
G75*
G02*
X143025000Y-123670000I-245000J0D01*
G01*
X142535000Y-123670000D01*
G75*
G02*
X142290000Y-123425000I0J245000D01*
G01*
G37*
G36*
G01*
X144730000Y-124645000D02*
X144730000Y-124155000D01*
G75*
G02*
X144975000Y-123910000I245000J0D01*
G01*
X145465000Y-123910000D01*
G75*
G02*
X145710000Y-124155000I0J-245000D01*
G01*
X145710000Y-124645000D01*
G75*
G02*
X145465000Y-124890000I-245000J0D01*
G01*
X144975000Y-124890000D01*
G75*
G02*
X144730000Y-124645000I0J245000D01*
G01*
G37*
G36*
G01*
X142290000Y-125865000D02*
X142290000Y-125375000D01*
G75*
G02*
X142535000Y-125130000I245000J0D01*
G01*
X143025000Y-125130000D01*
G75*
G02*
X143270000Y-125375000I0J-245000D01*
G01*
X143270000Y-125865000D01*
G75*
G02*
X143025000Y-126110000I-245000J0D01*
G01*
X142535000Y-126110000D01*
G75*
G02*
X142290000Y-125865000I0J245000D01*
G01*
G37*
G36*
G01*
X141150000Y-122712500D02*
X141150000Y-122587500D01*
G75*
G02*
X141212500Y-122525000I62500J0D01*
G01*
X141837500Y-122525000D01*
G75*
G02*
X141900000Y-122587500I0J-62500D01*
G01*
X141900000Y-122712500D01*
G75*
G02*
X141837500Y-122775000I-62500J0D01*
G01*
X141212500Y-122775000D01*
G75*
G02*
X141150000Y-122712500I0J62500D01*
G01*
G37*
G36*
G01*
X141150000Y-123212500D02*
X141150000Y-123087500D01*
G75*
G02*
X141212500Y-123025000I62500J0D01*
G01*
X141837500Y-123025000D01*
G75*
G02*
X141900000Y-123087500I0J-62500D01*
G01*
X141900000Y-123212500D01*
G75*
G02*
X141837500Y-123275000I-62500J0D01*
G01*
X141212500Y-123275000D01*
G75*
G02*
X141150000Y-123212500I0J62500D01*
G01*
G37*
G36*
G01*
X141150000Y-123712500D02*
X141150000Y-123587500D01*
G75*
G02*
X141212500Y-123525000I62500J0D01*
G01*
X141837500Y-123525000D01*
G75*
G02*
X141900000Y-123587500I0J-62500D01*
G01*
X141900000Y-123712500D01*
G75*
G02*
X141837500Y-123775000I-62500J0D01*
G01*
X141212500Y-123775000D01*
G75*
G02*
X141150000Y-123712500I0J62500D01*
G01*
G37*
G36*
G01*
X141150000Y-124212500D02*
X141150000Y-124087500D01*
G75*
G02*
X141212500Y-124025000I62500J0D01*
G01*
X141837500Y-124025000D01*
G75*
G02*
X141900000Y-124087500I0J-62500D01*
G01*
X141900000Y-124212500D01*
G75*
G02*
X141837500Y-124275000I-62500J0D01*
G01*
X141212500Y-124275000D01*
G75*
G02*
X141150000Y-124212500I0J62500D01*
G01*
G37*
G36*
G01*
X141150000Y-124712500D02*
X141150000Y-124587500D01*
G75*
G02*
X141212500Y-124525000I62500J0D01*
G01*
X141837500Y-124525000D01*
G75*
G02*
X141900000Y-124587500I0J-62500D01*
G01*
X141900000Y-124712500D01*
G75*
G02*
X141837500Y-124775000I-62500J0D01*
G01*
X141212500Y-124775000D01*
G75*
G02*
X141150000Y-124712500I0J62500D01*
G01*
G37*
G36*
G01*
X141150000Y-125212500D02*
X141150000Y-125087500D01*
G75*
G02*
X141212500Y-125025000I62500J0D01*
G01*
X141837500Y-125025000D01*
G75*
G02*
X141900000Y-125087500I0J-62500D01*
G01*
X141900000Y-125212500D01*
G75*
G02*
X141837500Y-125275000I-62500J0D01*
G01*
X141212500Y-125275000D01*
G75*
G02*
X141150000Y-125212500I0J62500D01*
G01*
G37*
G36*
G01*
X141150000Y-125712500D02*
X141150000Y-125587500D01*
G75*
G02*
X141212500Y-125525000I62500J0D01*
G01*
X141837500Y-125525000D01*
G75*
G02*
X141900000Y-125587500I0J-62500D01*
G01*
X141900000Y-125712500D01*
G75*
G02*
X141837500Y-125775000I-62500J0D01*
G01*
X141212500Y-125775000D01*
G75*
G02*
X141150000Y-125712500I0J62500D01*
G01*
G37*
G36*
G01*
X141150000Y-126212500D02*
X141150000Y-126087500D01*
G75*
G02*
X141212500Y-126025000I62500J0D01*
G01*
X141837500Y-126025000D01*
G75*
G02*
X141900000Y-126087500I0J-62500D01*
G01*
X141900000Y-126212500D01*
G75*
G02*
X141837500Y-126275000I-62500J0D01*
G01*
X141212500Y-126275000D01*
G75*
G02*
X141150000Y-126212500I0J62500D01*
G01*
G37*
G36*
G01*
X142125000Y-127187500D02*
X142125000Y-126562500D01*
G75*
G02*
X142187500Y-126500000I62500J0D01*
G01*
X142312500Y-126500000D01*
G75*
G02*
X142375000Y-126562500I0J-62500D01*
G01*
X142375000Y-127187500D01*
G75*
G02*
X142312500Y-127250000I-62500J0D01*
G01*
X142187500Y-127250000D01*
G75*
G02*
X142125000Y-127187500I0J62500D01*
G01*
G37*
G36*
G01*
X142625000Y-127187500D02*
X142625000Y-126562500D01*
G75*
G02*
X142687500Y-126500000I62500J0D01*
G01*
X142812500Y-126500000D01*
G75*
G02*
X142875000Y-126562500I0J-62500D01*
G01*
X142875000Y-127187500D01*
G75*
G02*
X142812500Y-127250000I-62500J0D01*
G01*
X142687500Y-127250000D01*
G75*
G02*
X142625000Y-127187500I0J62500D01*
G01*
G37*
G36*
G01*
X143125000Y-127187500D02*
X143125000Y-126562500D01*
G75*
G02*
X143187500Y-126500000I62500J0D01*
G01*
X143312500Y-126500000D01*
G75*
G02*
X143375000Y-126562500I0J-62500D01*
G01*
X143375000Y-127187500D01*
G75*
G02*
X143312500Y-127250000I-62500J0D01*
G01*
X143187500Y-127250000D01*
G75*
G02*
X143125000Y-127187500I0J62500D01*
G01*
G37*
G36*
G01*
X143625000Y-127187500D02*
X143625000Y-126562500D01*
G75*
G02*
X143687500Y-126500000I62500J0D01*
G01*
X143812500Y-126500000D01*
G75*
G02*
X143875000Y-126562500I0J-62500D01*
G01*
X143875000Y-127187500D01*
G75*
G02*
X143812500Y-127250000I-62500J0D01*
G01*
X143687500Y-127250000D01*
G75*
G02*
X143625000Y-127187500I0J62500D01*
G01*
G37*
G36*
G01*
X144125000Y-127187500D02*
X144125000Y-126562500D01*
G75*
G02*
X144187500Y-126500000I62500J0D01*
G01*
X144312500Y-126500000D01*
G75*
G02*
X144375000Y-126562500I0J-62500D01*
G01*
X144375000Y-127187500D01*
G75*
G02*
X144312500Y-127250000I-62500J0D01*
G01*
X144187500Y-127250000D01*
G75*
G02*
X144125000Y-127187500I0J62500D01*
G01*
G37*
G36*
G01*
X144625000Y-127187500D02*
X144625000Y-126562500D01*
G75*
G02*
X144687500Y-126500000I62500J0D01*
G01*
X144812500Y-126500000D01*
G75*
G02*
X144875000Y-126562500I0J-62500D01*
G01*
X144875000Y-127187500D01*
G75*
G02*
X144812500Y-127250000I-62500J0D01*
G01*
X144687500Y-127250000D01*
G75*
G02*
X144625000Y-127187500I0J62500D01*
G01*
G37*
G36*
G01*
X145125000Y-127187500D02*
X145125000Y-126562500D01*
G75*
G02*
X145187500Y-126500000I62500J0D01*
G01*
X145312500Y-126500000D01*
G75*
G02*
X145375000Y-126562500I0J-62500D01*
G01*
X145375000Y-127187500D01*
G75*
G02*
X145312500Y-127250000I-62500J0D01*
G01*
X145187500Y-127250000D01*
G75*
G02*
X145125000Y-127187500I0J62500D01*
G01*
G37*
G36*
G01*
X145625000Y-127187500D02*
X145625000Y-126562500D01*
G75*
G02*
X145687500Y-126500000I62500J0D01*
G01*
X145812500Y-126500000D01*
G75*
G02*
X145875000Y-126562500I0J-62500D01*
G01*
X145875000Y-127187500D01*
G75*
G02*
X145812500Y-127250000I-62500J0D01*
G01*
X145687500Y-127250000D01*
G75*
G02*
X145625000Y-127187500I0J62500D01*
G01*
G37*
G36*
G01*
X146100000Y-126212500D02*
X146100000Y-126087500D01*
G75*
G02*
X146162500Y-126025000I62500J0D01*
G01*
X146787500Y-126025000D01*
G75*
G02*
X146850000Y-126087500I0J-62500D01*
G01*
X146850000Y-126212500D01*
G75*
G02*
X146787500Y-126275000I-62500J0D01*
G01*
X146162500Y-126275000D01*
G75*
G02*
X146100000Y-126212500I0J62500D01*
G01*
G37*
G36*
G01*
X146100000Y-125712500D02*
X146100000Y-125587500D01*
G75*
G02*
X146162500Y-125525000I62500J0D01*
G01*
X146787500Y-125525000D01*
G75*
G02*
X146850000Y-125587500I0J-62500D01*
G01*
X146850000Y-125712500D01*
G75*
G02*
X146787500Y-125775000I-62500J0D01*
G01*
X146162500Y-125775000D01*
G75*
G02*
X146100000Y-125712500I0J62500D01*
G01*
G37*
G36*
G01*
X146100000Y-125212500D02*
X146100000Y-125087500D01*
G75*
G02*
X146162500Y-125025000I62500J0D01*
G01*
X146787500Y-125025000D01*
G75*
G02*
X146850000Y-125087500I0J-62500D01*
G01*
X146850000Y-125212500D01*
G75*
G02*
X146787500Y-125275000I-62500J0D01*
G01*
X146162500Y-125275000D01*
G75*
G02*
X146100000Y-125212500I0J62500D01*
G01*
G37*
G36*
G01*
X146100000Y-124712500D02*
X146100000Y-124587500D01*
G75*
G02*
X146162500Y-124525000I62500J0D01*
G01*
X146787500Y-124525000D01*
G75*
G02*
X146850000Y-124587500I0J-62500D01*
G01*
X146850000Y-124712500D01*
G75*
G02*
X146787500Y-124775000I-62500J0D01*
G01*
X146162500Y-124775000D01*
G75*
G02*
X146100000Y-124712500I0J62500D01*
G01*
G37*
G36*
G01*
X146100000Y-124212500D02*
X146100000Y-124087500D01*
G75*
G02*
X146162500Y-124025000I62500J0D01*
G01*
X146787500Y-124025000D01*
G75*
G02*
X146850000Y-124087500I0J-62500D01*
G01*
X146850000Y-124212500D01*
G75*
G02*
X146787500Y-124275000I-62500J0D01*
G01*
X146162500Y-124275000D01*
G75*
G02*
X146100000Y-124212500I0J62500D01*
G01*
G37*
G36*
G01*
X146100000Y-123712500D02*
X146100000Y-123587500D01*
G75*
G02*
X146162500Y-123525000I62500J0D01*
G01*
X146787500Y-123525000D01*
G75*
G02*
X146850000Y-123587500I0J-62500D01*
G01*
X146850000Y-123712500D01*
G75*
G02*
X146787500Y-123775000I-62500J0D01*
G01*
X146162500Y-123775000D01*
G75*
G02*
X146100000Y-123712500I0J62500D01*
G01*
G37*
G36*
G01*
X146100000Y-123212500D02*
X146100000Y-123087500D01*
G75*
G02*
X146162500Y-123025000I62500J0D01*
G01*
X146787500Y-123025000D01*
G75*
G02*
X146850000Y-123087500I0J-62500D01*
G01*
X146850000Y-123212500D01*
G75*
G02*
X146787500Y-123275000I-62500J0D01*
G01*
X146162500Y-123275000D01*
G75*
G02*
X146100000Y-123212500I0J62500D01*
G01*
G37*
G36*
G01*
X146100000Y-122712500D02*
X146100000Y-122587500D01*
G75*
G02*
X146162500Y-122525000I62500J0D01*
G01*
X146787500Y-122525000D01*
G75*
G02*
X146850000Y-122587500I0J-62500D01*
G01*
X146850000Y-122712500D01*
G75*
G02*
X146787500Y-122775000I-62500J0D01*
G01*
X146162500Y-122775000D01*
G75*
G02*
X146100000Y-122712500I0J62500D01*
G01*
G37*
G36*
G01*
X145625000Y-122237500D02*
X145625000Y-121612500D01*
G75*
G02*
X145687500Y-121550000I62500J0D01*
G01*
X145812500Y-121550000D01*
G75*
G02*
X145875000Y-121612500I0J-62500D01*
G01*
X145875000Y-122237500D01*
G75*
G02*
X145812500Y-122300000I-62500J0D01*
G01*
X145687500Y-122300000D01*
G75*
G02*
X145625000Y-122237500I0J62500D01*
G01*
G37*
G36*
G01*
X145125000Y-122237500D02*
X145125000Y-121612500D01*
G75*
G02*
X145187500Y-121550000I62500J0D01*
G01*
X145312500Y-121550000D01*
G75*
G02*
X145375000Y-121612500I0J-62500D01*
G01*
X145375000Y-122237500D01*
G75*
G02*
X145312500Y-122300000I-62500J0D01*
G01*
X145187500Y-122300000D01*
G75*
G02*
X145125000Y-122237500I0J62500D01*
G01*
G37*
G36*
G01*
X144625000Y-122237500D02*
X144625000Y-121612500D01*
G75*
G02*
X144687500Y-121550000I62500J0D01*
G01*
X144812500Y-121550000D01*
G75*
G02*
X144875000Y-121612500I0J-62500D01*
G01*
X144875000Y-122237500D01*
G75*
G02*
X144812500Y-122300000I-62500J0D01*
G01*
X144687500Y-122300000D01*
G75*
G02*
X144625000Y-122237500I0J62500D01*
G01*
G37*
G36*
G01*
X144125000Y-122237500D02*
X144125000Y-121612500D01*
G75*
G02*
X144187500Y-121550000I62500J0D01*
G01*
X144312500Y-121550000D01*
G75*
G02*
X144375000Y-121612500I0J-62500D01*
G01*
X144375000Y-122237500D01*
G75*
G02*
X144312500Y-122300000I-62500J0D01*
G01*
X144187500Y-122300000D01*
G75*
G02*
X144125000Y-122237500I0J62500D01*
G01*
G37*
G36*
G01*
X143625000Y-122237500D02*
X143625000Y-121612500D01*
G75*
G02*
X143687500Y-121550000I62500J0D01*
G01*
X143812500Y-121550000D01*
G75*
G02*
X143875000Y-121612500I0J-62500D01*
G01*
X143875000Y-122237500D01*
G75*
G02*
X143812500Y-122300000I-62500J0D01*
G01*
X143687500Y-122300000D01*
G75*
G02*
X143625000Y-122237500I0J62500D01*
G01*
G37*
G36*
G01*
X143125000Y-122237500D02*
X143125000Y-121612500D01*
G75*
G02*
X143187500Y-121550000I62500J0D01*
G01*
X143312500Y-121550000D01*
G75*
G02*
X143375000Y-121612500I0J-62500D01*
G01*
X143375000Y-122237500D01*
G75*
G02*
X143312500Y-122300000I-62500J0D01*
G01*
X143187500Y-122300000D01*
G75*
G02*
X143125000Y-122237500I0J62500D01*
G01*
G37*
G36*
G01*
X142625000Y-122237500D02*
X142625000Y-121612500D01*
G75*
G02*
X142687500Y-121550000I62500J0D01*
G01*
X142812500Y-121550000D01*
G75*
G02*
X142875000Y-121612500I0J-62500D01*
G01*
X142875000Y-122237500D01*
G75*
G02*
X142812500Y-122300000I-62500J0D01*
G01*
X142687500Y-122300000D01*
G75*
G02*
X142625000Y-122237500I0J62500D01*
G01*
G37*
G36*
G01*
X142125000Y-122237500D02*
X142125000Y-121612500D01*
G75*
G02*
X142187500Y-121550000I62500J0D01*
G01*
X142312500Y-121550000D01*
G75*
G02*
X142375000Y-121612500I0J-62500D01*
G01*
X142375000Y-122237500D01*
G75*
G02*
X142312500Y-122300000I-62500J0D01*
G01*
X142187500Y-122300000D01*
G75*
G02*
X142125000Y-122237500I0J62500D01*
G01*
G37*
G36*
G01*
X136800000Y-122550000D02*
X136800000Y-123450000D01*
G75*
G02*
X136550000Y-123700000I-250000J0D01*
G01*
X135850000Y-123700000D01*
G75*
G02*
X135600000Y-123450000I0J250000D01*
G01*
X135600000Y-122550000D01*
G75*
G02*
X135850000Y-122300000I250000J0D01*
G01*
X136550000Y-122300000D01*
G75*
G02*
X136800000Y-122550000I0J-250000D01*
G01*
G37*
G36*
G01*
X134800000Y-122550000D02*
X134800000Y-123450000D01*
G75*
G02*
X134550000Y-123700000I-250000J0D01*
G01*
X133850000Y-123700000D01*
G75*
G02*
X133600000Y-123450000I0J250000D01*
G01*
X133600000Y-122550000D01*
G75*
G02*
X133850000Y-122300000I250000J0D01*
G01*
X134550000Y-122300000D01*
G75*
G02*
X134800000Y-122550000I0J-250000D01*
G01*
G37*
G36*
G01*
X150737500Y-125662500D02*
X149787500Y-125662500D01*
G75*
G02*
X149537500Y-125412500I0J250000D01*
G01*
X149537500Y-124737500D01*
G75*
G02*
X149787500Y-124487500I250000J0D01*
G01*
X150737500Y-124487500D01*
G75*
G02*
X150987500Y-124737500I0J-250000D01*
G01*
X150987500Y-125412500D01*
G75*
G02*
X150737500Y-125662500I-250000J0D01*
G01*
G37*
G36*
G01*
X150737500Y-123587500D02*
X149787500Y-123587500D01*
G75*
G02*
X149537500Y-123337500I0J250000D01*
G01*
X149537500Y-122662500D01*
G75*
G02*
X149787500Y-122412500I250000J0D01*
G01*
X150737500Y-122412500D01*
G75*
G02*
X150987500Y-122662500I0J-250000D01*
G01*
X150987500Y-123337500D01*
G75*
G02*
X150737500Y-123587500I-250000J0D01*
G01*
G37*
G36*
G01*
X149967500Y-143567500D02*
X149017500Y-143567500D01*
G75*
G02*
X148767500Y-143317500I0J250000D01*
G01*
X148767500Y-142642500D01*
G75*
G02*
X149017500Y-142392500I250000J0D01*
G01*
X149967500Y-142392500D01*
G75*
G02*
X150217500Y-142642500I0J-250000D01*
G01*
X150217500Y-143317500D01*
G75*
G02*
X149967500Y-143567500I-250000J0D01*
G01*
G37*
G36*
G01*
X149967500Y-141492500D02*
X149017500Y-141492500D01*
G75*
G02*
X148767500Y-141242500I0J250000D01*
G01*
X148767500Y-140567500D01*
G75*
G02*
X149017500Y-140317500I250000J0D01*
G01*
X149967500Y-140317500D01*
G75*
G02*
X150217500Y-140567500I0J-250000D01*
G01*
X150217500Y-141242500D01*
G75*
G02*
X149967500Y-141492500I-250000J0D01*
G01*
G37*
G36*
G01*
X153387500Y-96012500D02*
X154337500Y-96012500D01*
G75*
G02*
X154587500Y-96262500I0J-250000D01*
G01*
X154587500Y-96937500D01*
G75*
G02*
X154337500Y-97187500I-250000J0D01*
G01*
X153387500Y-97187500D01*
G75*
G02*
X153137500Y-96937500I0J250000D01*
G01*
X153137500Y-96262500D01*
G75*
G02*
X153387500Y-96012500I250000J0D01*
G01*
G37*
G36*
G01*
X153387500Y-98087500D02*
X154337500Y-98087500D01*
G75*
G02*
X154587500Y-98337500I0J-250000D01*
G01*
X154587500Y-99012500D01*
G75*
G02*
X154337500Y-99262500I-250000J0D01*
G01*
X153387500Y-99262500D01*
G75*
G02*
X153137500Y-99012500I0J250000D01*
G01*
X153137500Y-98337500D01*
G75*
G02*
X153387500Y-98087500I250000J0D01*
G01*
G37*
G36*
G01*
X137862500Y-75587500D02*
X137862500Y-76487500D01*
G75*
G02*
X137612500Y-76737500I-250000J0D01*
G01*
X136912500Y-76737500D01*
G75*
G02*
X136662500Y-76487500I0J250000D01*
G01*
X136662500Y-75587500D01*
G75*
G02*
X136912500Y-75337500I250000J0D01*
G01*
X137612500Y-75337500D01*
G75*
G02*
X137862500Y-75587500I0J-250000D01*
G01*
G37*
G36*
G01*
X135862500Y-75587500D02*
X135862500Y-76487500D01*
G75*
G02*
X135612500Y-76737500I-250000J0D01*
G01*
X134912500Y-76737500D01*
G75*
G02*
X134662500Y-76487500I0J250000D01*
G01*
X134662500Y-75587500D01*
G75*
G02*
X134912500Y-75337500I250000J0D01*
G01*
X135612500Y-75337500D01*
G75*
G02*
X135862500Y-75587500I0J-250000D01*
G01*
G37*
G36*
G01*
X138737500Y-74222500D02*
X138737500Y-72852500D01*
G75*
G02*
X138927500Y-72662500I190000J0D01*
G01*
X139497500Y-72662500D01*
G75*
G02*
X139687500Y-72852500I0J-190000D01*
G01*
X139687500Y-74222500D01*
G75*
G02*
X139497500Y-74412500I-190000J0D01*
G01*
X138927500Y-74412500D01*
G75*
G02*
X138737500Y-74222500I0J190000D01*
G01*
G37*
G36*
G01*
X141837500Y-74222500D02*
X141837500Y-72852500D01*
G75*
G02*
X142027500Y-72662500I190000J0D01*
G01*
X142597500Y-72662500D01*
G75*
G02*
X142787500Y-72852500I0J-190000D01*
G01*
X142787500Y-74222500D01*
G75*
G02*
X142597500Y-74412500I-190000J0D01*
G01*
X142027500Y-74412500D01*
G75*
G02*
X141837500Y-74222500I0J190000D01*
G01*
G37*
G36*
G01*
X174262500Y-120887500D02*
X174262500Y-121787500D01*
G75*
G02*
X174012500Y-122037500I-250000J0D01*
G01*
X173312500Y-122037500D01*
G75*
G02*
X173062500Y-121787500I0J250000D01*
G01*
X173062500Y-120887500D01*
G75*
G02*
X173312500Y-120637500I250000J0D01*
G01*
X174012500Y-120637500D01*
G75*
G02*
X174262500Y-120887500I0J-250000D01*
G01*
G37*
G36*
G01*
X172262500Y-120887500D02*
X172262500Y-121787500D01*
G75*
G02*
X172012500Y-122037500I-250000J0D01*
G01*
X171312500Y-122037500D01*
G75*
G02*
X171062500Y-121787500I0J250000D01*
G01*
X171062500Y-120887500D01*
G75*
G02*
X171312500Y-120637500I250000J0D01*
G01*
X172012500Y-120637500D01*
G75*
G02*
X172262500Y-120887500I0J-250000D01*
G01*
G37*
G36*
G01*
X153362500Y-75587500D02*
X153362500Y-76487500D01*
G75*
G02*
X153112500Y-76737500I-250000J0D01*
G01*
X152412500Y-76737500D01*
G75*
G02*
X152162500Y-76487500I0J250000D01*
G01*
X152162500Y-75587500D01*
G75*
G02*
X152412500Y-75337500I250000J0D01*
G01*
X153112500Y-75337500D01*
G75*
G02*
X153362500Y-75587500I0J-250000D01*
G01*
G37*
G36*
G01*
X151362500Y-75587500D02*
X151362500Y-76487500D01*
G75*
G02*
X151112500Y-76737500I-250000J0D01*
G01*
X150412500Y-76737500D01*
G75*
G02*
X150162500Y-76487500I0J250000D01*
G01*
X150162500Y-75587500D01*
G75*
G02*
X150412500Y-75337500I250000J0D01*
G01*
X151112500Y-75337500D01*
G75*
G02*
X151362500Y-75587500I0J-250000D01*
G01*
G37*
G36*
G01*
X147042500Y-140342500D02*
X147942500Y-140342500D01*
G75*
G02*
X148192500Y-140592500I0J-250000D01*
G01*
X148192500Y-141292500D01*
G75*
G02*
X147942500Y-141542500I-250000J0D01*
G01*
X147042500Y-141542500D01*
G75*
G02*
X146792500Y-141292500I0J250000D01*
G01*
X146792500Y-140592500D01*
G75*
G02*
X147042500Y-140342500I250000J0D01*
G01*
G37*
G36*
G01*
X147042500Y-142342500D02*
X147942500Y-142342500D01*
G75*
G02*
X148192500Y-142592500I0J-250000D01*
G01*
X148192500Y-143292500D01*
G75*
G02*
X147942500Y-143542500I-250000J0D01*
G01*
X147042500Y-143542500D01*
G75*
G02*
X146792500Y-143292500I0J250000D01*
G01*
X146792500Y-142592500D01*
G75*
G02*
X147042500Y-142342500I250000J0D01*
G01*
G37*
G36*
G01*
X191387500Y-147512500D02*
X192337500Y-147512500D01*
G75*
G02*
X192587500Y-147762500I0J-250000D01*
G01*
X192587500Y-148437500D01*
G75*
G02*
X192337500Y-148687500I-250000J0D01*
G01*
X191387500Y-148687500D01*
G75*
G02*
X191137500Y-148437500I0J250000D01*
G01*
X191137500Y-147762500D01*
G75*
G02*
X191387500Y-147512500I250000J0D01*
G01*
G37*
G36*
G01*
X191387500Y-149587500D02*
X192337500Y-149587500D01*
G75*
G02*
X192587500Y-149837500I0J-250000D01*
G01*
X192587500Y-150512500D01*
G75*
G02*
X192337500Y-150762500I-250000J0D01*
G01*
X191387500Y-150762500D01*
G75*
G02*
X191137500Y-150512500I0J250000D01*
G01*
X191137500Y-149837500D01*
G75*
G02*
X191387500Y-149587500I250000J0D01*
G01*
G37*
G36*
G01*
X138737500Y-109222500D02*
X138737500Y-107852500D01*
G75*
G02*
X138927500Y-107662500I190000J0D01*
G01*
X139497500Y-107662500D01*
G75*
G02*
X139687500Y-107852500I0J-190000D01*
G01*
X139687500Y-109222500D01*
G75*
G02*
X139497500Y-109412500I-190000J0D01*
G01*
X138927500Y-109412500D01*
G75*
G02*
X138737500Y-109222500I0J190000D01*
G01*
G37*
G36*
G01*
X141837500Y-109222500D02*
X141837500Y-107852500D01*
G75*
G02*
X142027500Y-107662500I190000J0D01*
G01*
X142597500Y-107662500D01*
G75*
G02*
X142787500Y-107852500I0J-190000D01*
G01*
X142787500Y-109222500D01*
G75*
G02*
X142597500Y-109412500I-190000J0D01*
G01*
X142027500Y-109412500D01*
G75*
G02*
X141837500Y-109222500I0J190000D01*
G01*
G37*
G36*
G01*
X181012500Y-147537500D02*
X181912500Y-147537500D01*
G75*
G02*
X182162500Y-147787500I0J-250000D01*
G01*
X182162500Y-148487500D01*
G75*
G02*
X181912500Y-148737500I-250000J0D01*
G01*
X181012500Y-148737500D01*
G75*
G02*
X180762500Y-148487500I0J250000D01*
G01*
X180762500Y-147787500D01*
G75*
G02*
X181012500Y-147537500I250000J0D01*
G01*
G37*
G36*
G01*
X181012500Y-149537500D02*
X181912500Y-149537500D01*
G75*
G02*
X182162500Y-149787500I0J-250000D01*
G01*
X182162500Y-150487500D01*
G75*
G02*
X181912500Y-150737500I-250000J0D01*
G01*
X181012500Y-150737500D01*
G75*
G02*
X180762500Y-150487500I0J250000D01*
G01*
X180762500Y-149787500D01*
G75*
G02*
X181012500Y-149537500I250000J0D01*
G01*
G37*
G36*
G01*
X141575000Y-115675000D02*
X141575000Y-114725000D01*
G75*
G02*
X141825000Y-114475000I250000J0D01*
G01*
X142500000Y-114475000D01*
G75*
G02*
X142750000Y-114725000I0J-250000D01*
G01*
X142750000Y-115675000D01*
G75*
G02*
X142500000Y-115925000I-250000J0D01*
G01*
X141825000Y-115925000D01*
G75*
G02*
X141575000Y-115675000I0J250000D01*
G01*
G37*
G36*
G01*
X143650000Y-115675000D02*
X143650000Y-114725000D01*
G75*
G02*
X143900000Y-114475000I250000J0D01*
G01*
X144575000Y-114475000D01*
G75*
G02*
X144825000Y-114725000I0J-250000D01*
G01*
X144825000Y-115675000D01*
G75*
G02*
X144575000Y-115925000I-250000J0D01*
G01*
X143900000Y-115925000D01*
G75*
G02*
X143650000Y-115675000I0J250000D01*
G01*
G37*
G36*
G01*
X155812500Y-122437500D02*
X156712500Y-122437500D01*
G75*
G02*
X156962500Y-122687500I0J-250000D01*
G01*
X156962500Y-123387500D01*
G75*
G02*
X156712500Y-123637500I-250000J0D01*
G01*
X155812500Y-123637500D01*
G75*
G02*
X155562500Y-123387500I0J250000D01*
G01*
X155562500Y-122687500D01*
G75*
G02*
X155812500Y-122437500I250000J0D01*
G01*
G37*
G36*
G01*
X155812500Y-124437500D02*
X156712500Y-124437500D01*
G75*
G02*
X156962500Y-124687500I0J-250000D01*
G01*
X156962500Y-125387500D01*
G75*
G02*
X156712500Y-125637500I-250000J0D01*
G01*
X155812500Y-125637500D01*
G75*
G02*
X155562500Y-125387500I0J250000D01*
G01*
X155562500Y-124687500D01*
G75*
G02*
X155812500Y-124437500I250000J0D01*
G01*
G37*
D17*
X159372500Y-135017500D03*
X159372500Y-140057500D03*
X161912500Y-135017500D03*
X161912500Y-140057500D03*
X164452500Y-135017500D03*
X164452500Y-140057500D03*
X166992500Y-135017500D03*
X166992500Y-140057500D03*
X169532500Y-135017500D03*
X169532500Y-140057500D03*
X172072500Y-135017500D03*
X172072500Y-140057500D03*
X174612500Y-135017500D03*
X174612500Y-140057500D03*
X177152500Y-135017500D03*
X177152500Y-140057500D03*
G36*
G01*
X143362500Y-75587500D02*
X143362500Y-76487500D01*
G75*
G02*
X143112500Y-76737500I-250000J0D01*
G01*
X142412500Y-76737500D01*
G75*
G02*
X142162500Y-76487500I0J250000D01*
G01*
X142162500Y-75587500D01*
G75*
G02*
X142412500Y-75337500I250000J0D01*
G01*
X143112500Y-75337500D01*
G75*
G02*
X143362500Y-75587500I0J-250000D01*
G01*
G37*
G36*
G01*
X141362500Y-75587500D02*
X141362500Y-76487500D01*
G75*
G02*
X141112500Y-76737500I-250000J0D01*
G01*
X140412500Y-76737500D01*
G75*
G02*
X140162500Y-76487500I0J250000D01*
G01*
X140162500Y-75587500D01*
G75*
G02*
X140412500Y-75337500I250000J0D01*
G01*
X141112500Y-75337500D01*
G75*
G02*
X141362500Y-75587500I0J-250000D01*
G01*
G37*
G36*
G01*
X166200000Y-120950000D02*
X166200000Y-121850000D01*
G75*
G02*
X165950000Y-122100000I-250000J0D01*
G01*
X165250000Y-122100000D01*
G75*
G02*
X165000000Y-121850000I0J250000D01*
G01*
X165000000Y-120950000D01*
G75*
G02*
X165250000Y-120700000I250000J0D01*
G01*
X165950000Y-120700000D01*
G75*
G02*
X166200000Y-120950000I0J-250000D01*
G01*
G37*
G36*
G01*
X164200000Y-120950000D02*
X164200000Y-121850000D01*
G75*
G02*
X163950000Y-122100000I-250000J0D01*
G01*
X163250000Y-122100000D01*
G75*
G02*
X163000000Y-121850000I0J250000D01*
G01*
X163000000Y-120950000D01*
G75*
G02*
X163250000Y-120700000I250000J0D01*
G01*
X163950000Y-120700000D01*
G75*
G02*
X164200000Y-120950000I0J-250000D01*
G01*
G37*
G36*
G01*
X186537500Y-143287501D02*
X186537500Y-144987499D01*
G75*
G02*
X186287499Y-145237500I-250001J0D01*
G01*
X185362501Y-145237500D01*
G75*
G02*
X185112500Y-144987499I0J250001D01*
G01*
X185112500Y-143287501D01*
G75*
G02*
X185362501Y-143037500I250001J0D01*
G01*
X186287499Y-143037500D01*
G75*
G02*
X186537500Y-143287501I0J-250001D01*
G01*
G37*
G36*
G01*
X184212500Y-143287501D02*
X184212500Y-144987499D01*
G75*
G02*
X183962499Y-145237500I-250001J0D01*
G01*
X183037501Y-145237500D01*
G75*
G02*
X182787500Y-144987499I0J250001D01*
G01*
X182787500Y-143287501D01*
G75*
G02*
X183037501Y-143037500I250001J0D01*
G01*
X183962499Y-143037500D01*
G75*
G02*
X184212500Y-143287501I0J-250001D01*
G01*
G37*
M02*
