M48
; FORMAT={-:-/ absolute / metric / decimal}
; #@! TF.GenerationSoftware,Kicad,Pcbnew,6.0.10+dfsg-1~bpo11+1
; #@! TF.FileFunction,NonPlated,1,4,NPTH
FMAT,2
METRIC
; #@! TA.AperFunction,NonPlated,NPTH,ComponentDrill
T1C1.152
; #@! TA.AperFunction,NonPlated,NPTH,ComponentDrill
T2C2.000
%
G90
G05
T1
X130.762Y-112.537
X131.262Y-149.537
X205.762Y-112.537
T2
G00X130.762Y-73.037
M15
G01X130.762Y-74.037
M16
G05
G00X130.762Y-108.037
M15
G01X130.762Y-109.037
M16
G05
G00X135.762Y-73.037
M15
G01X135.762Y-74.037
M16
G05
G00X135.762Y-108.037
M15
G01X135.762Y-109.037
M16
G05
G00X140.762Y-73.037
M15
G01X140.762Y-74.037
M16
G05
G00X140.762Y-108.037
M15
G01X140.762Y-109.037
M16
G05
G00X145.762Y-73.037
M15
G01X145.762Y-74.037
M16
G05
G00X145.762Y-108.037
M15
G01X145.762Y-109.037
M16
G05
G00X150.762Y-73.037
M15
G01X150.762Y-74.037
M16
G05
G00X150.762Y-108.037
M15
G01X150.762Y-109.037
M16
G05
G00X185.762Y-73.037
M15
G01X185.762Y-74.037
M16
G05
G00X185.762Y-108.037
M15
G01X185.762Y-109.037
M16
G05
G00X190.762Y-73.037
M15
G01X190.762Y-74.037
M16
G05
G00X190.762Y-108.037
M15
G01X190.762Y-109.037
M16
G05
G00X195.762Y-73.037
M15
G01X195.762Y-74.037
M16
G05
G00X195.762Y-108.037
M15
G01X195.762Y-109.037
M16
G05
G00X200.762Y-73.037
M15
G01X200.762Y-74.037
M16
G05
G00X200.762Y-108.037
M15
G01X200.762Y-109.037
M16
G05
G00X205.762Y-73.037
M15
G01X205.762Y-74.037
M16
G05
G00X205.762Y-108.037
M15
G01X205.762Y-109.037
M16
G05
T0
M30
