G04 #@! TF.GenerationSoftware,KiCad,Pcbnew,6.0.10+dfsg-1~bpo11+1*
G04 #@! TF.ProjectId,project,70726f6a-6563-4742-9e6b-696361645f70,rev?*
G04 #@! TF.SameCoordinates,Original*
G04 #@! TF.FileFunction,Soldermask,Top*
G04 #@! TF.FilePolarity,Negative*
%FSLAX46Y46*%
G04 Gerber Fmt 4.6, Leading zero omitted, Abs format (unit mm)*
%MOMM*%
%LPD*%
G01*
G04 APERTURE LIST*
G04 #@! TA.AperFunction,Profile*
%ADD10C,0.100000*%
G04 #@! TD*
%ADD11R,1.500000X1.850000*%
%ADD12C,1.552000*%
%ADD13O,2.000000X3.000000*%
%ADD14R,0.900000X1.200000*%
%ADD15R,1.400000X1.200000*%
%ADD16R,1.000000X1.000000*%
%ADD17R,1.000000X3.150000*%
%ADD18O,3.600000X1.800000*%
%ADD19C,5.000000*%
%ADD20C,7.000000*%
%ADD21C,6.400000*%
%ADD22C,0.900000*%
%ADD23R,1.200000X0.900000*%
%ADD24R,3.650000X3.650000*%
%ADD25R,1.000000X3.000000*%
%ADD26R,1.700000X1.700000*%
%ADD27O,1.700000X1.700000*%
G04 APERTURE END LIST*
D10*
X208262500Y-111537500D02*
G75*
G03*
X208262500Y-113537500I0J-1000000D01*
G01*
X127762500Y-70537500D02*
G75*
G03*
X126262500Y-72037500I0J-1500000D01*
G01*
X127762500Y-113537500D02*
X128262500Y-113537500D01*
X172262500Y-150537500D02*
G75*
G03*
X172262500Y-146537500I0J2000000D01*
G01*
X171162500Y-109237500D02*
G75*
G03*
X171162500Y-105837500I3000J1700000D01*
G01*
X133262500Y-113537500D02*
X165762500Y-113537500D01*
X173462500Y-102837500D02*
X163062500Y-102837500D01*
X165362500Y-105837500D02*
G75*
G03*
X165362500Y-109237500I-3000J-1700000D01*
G01*
X210262500Y-72037500D02*
G75*
G03*
X208762500Y-70537500I-1500000J0D01*
G01*
X126262500Y-99537500D02*
X126262500Y-110037500D01*
X165762500Y-111537500D02*
X133262500Y-111537500D01*
X200262500Y-98537500D02*
X200262500Y-83537500D01*
X208762500Y-154537500D02*
G75*
G03*
X210262500Y-153037500I0J1500000D01*
G01*
X203262500Y-111537500D02*
X170762500Y-111537500D01*
X126262500Y-153037500D02*
X126262500Y-115037500D01*
X200762500Y-83037500D02*
X209762500Y-83037500D01*
X210262500Y-115037500D02*
X210262500Y-153037500D01*
X127762500Y-113537500D02*
G75*
G03*
X126262500Y-115037500I0J-1500000D01*
G01*
X208762500Y-70537500D02*
X127762500Y-70537500D01*
X182062500Y-107537500D02*
G75*
G03*
X182062500Y-107537500I-1800000J0D01*
G01*
X133262500Y-111537500D02*
G75*
G03*
X133262500Y-113537500I0J-1000000D01*
G01*
X162562500Y-102337500D02*
X162562500Y-96737500D01*
X173962500Y-96737500D02*
G75*
G03*
X173462500Y-96237500I-500000J0D01*
G01*
X209762500Y-99037500D02*
X200762500Y-99037500D01*
X163062500Y-96237500D02*
G75*
G03*
X162562500Y-96737500I0J-500000D01*
G01*
X158062500Y-107537500D02*
G75*
G03*
X158062500Y-107537500I-1800000J0D01*
G01*
X135762500Y-99037500D02*
G75*
G03*
X136262500Y-98537500I0J500000D01*
G01*
X173462500Y-102837500D02*
G75*
G03*
X173962500Y-102337500I0J500000D01*
G01*
X165362500Y-105837500D02*
X171162500Y-105837500D01*
X200262500Y-98537500D02*
G75*
G03*
X200762500Y-99037500I500000J0D01*
G01*
X135762500Y-99037500D02*
X126762500Y-99037500D01*
X170762500Y-113537500D02*
X203262500Y-113537500D01*
X126262500Y-110037500D02*
G75*
G03*
X127762500Y-111537500I1500000J0D01*
G01*
X210262500Y-82537500D02*
X210262500Y-72037500D01*
X172262500Y-150537500D02*
X154262500Y-150537500D01*
X126262500Y-82537500D02*
G75*
G03*
X126762500Y-83037500I500000J0D01*
G01*
X208762500Y-111537500D02*
X208262500Y-111537500D01*
X126262500Y-153037500D02*
G75*
G03*
X127762500Y-154537500I1500000J0D01*
G01*
X171162500Y-109237500D02*
X165362500Y-109237500D01*
X154262500Y-146537500D02*
X172262500Y-146537500D01*
X165762500Y-113537500D02*
G75*
G03*
X165762500Y-111537500I0J1000000D01*
G01*
X126762500Y-99037500D02*
G75*
G03*
X126262500Y-99537500I0J-500000D01*
G01*
X208262500Y-113537500D02*
X208762500Y-113537500D01*
X200762500Y-83037500D02*
G75*
G03*
X200262500Y-83537500I0J-500000D01*
G01*
X203262500Y-113537500D02*
G75*
G03*
X203262500Y-111537500I0J1000000D01*
G01*
X173962500Y-96737500D02*
X173962500Y-102337500D01*
X208762500Y-111537500D02*
G75*
G03*
X210262500Y-110037500I0J1500000D01*
G01*
X136262500Y-83537500D02*
X136262500Y-98537500D01*
X128262500Y-113537500D02*
G75*
G03*
X128262500Y-111537500I0J1000000D01*
G01*
X170762500Y-111537500D02*
G75*
G03*
X170762500Y-113537500I0J-1000000D01*
G01*
X126262500Y-72037500D02*
X126262500Y-82537500D01*
X154262500Y-146537500D02*
G75*
G03*
X154262500Y-150537500I0J-2000000D01*
G01*
X210262500Y-115037500D02*
G75*
G03*
X208762500Y-113537500I-1500000J0D01*
G01*
X209762500Y-83037500D02*
G75*
G03*
X210262500Y-82537500I0J500000D01*
G01*
X136262500Y-83537500D02*
G75*
G03*
X135762500Y-83037500I-500000J0D01*
G01*
X210262500Y-99537500D02*
X210262500Y-110037500D01*
X163062500Y-96237500D02*
X173462500Y-96237500D01*
X127762500Y-111537500D02*
X128262500Y-111537500D01*
X126762500Y-83037500D02*
X135762500Y-83037500D01*
X162562500Y-102337500D02*
G75*
G03*
X163062500Y-102837500I500000J0D01*
G01*
X208762500Y-154537500D02*
X127762500Y-154537500D01*
X210262500Y-99537500D02*
G75*
G03*
X209762500Y-99037500I-500000J0D01*
G01*
D11*
X172072500Y-95092500D03*
X169532500Y-95092500D03*
X166992500Y-95092500D03*
X164452500Y-95092500D03*
X164452500Y-103982500D03*
X166992500Y-103982500D03*
X169532500Y-103982500D03*
X172072500Y-103982500D03*
D12*
X168262500Y-112537500D03*
G36*
G01*
X180937500Y-83300000D02*
X179987500Y-83300000D01*
G75*
G02*
X179737500Y-83050000I0J250000D01*
G01*
X179737500Y-82375000D01*
G75*
G02*
X179987500Y-82125000I250000J0D01*
G01*
X180937500Y-82125000D01*
G75*
G02*
X181187500Y-82375000I0J-250000D01*
G01*
X181187500Y-83050000D01*
G75*
G02*
X180937500Y-83300000I-250000J0D01*
G01*
G37*
G36*
G01*
X180937500Y-81225000D02*
X179987500Y-81225000D01*
G75*
G02*
X179737500Y-80975000I0J250000D01*
G01*
X179737500Y-80300000D01*
G75*
G02*
X179987500Y-80050000I250000J0D01*
G01*
X180937500Y-80050000D01*
G75*
G02*
X181187500Y-80300000I0J-250000D01*
G01*
X181187500Y-80975000D01*
G75*
G02*
X180937500Y-81225000I-250000J0D01*
G01*
G37*
G36*
G01*
X205212500Y-147937500D02*
X206112500Y-147937500D01*
G75*
G02*
X206362500Y-148187500I0J-250000D01*
G01*
X206362500Y-148837500D01*
G75*
G02*
X206112500Y-149087500I-250000J0D01*
G01*
X205212500Y-149087500D01*
G75*
G02*
X204962500Y-148837500I0J250000D01*
G01*
X204962500Y-148187500D01*
G75*
G02*
X205212500Y-147937500I250000J0D01*
G01*
G37*
G36*
G01*
X205212500Y-149987500D02*
X206112500Y-149987500D01*
G75*
G02*
X206362500Y-150237500I0J-250000D01*
G01*
X206362500Y-150887500D01*
G75*
G02*
X206112500Y-151137500I-250000J0D01*
G01*
X205212500Y-151137500D01*
G75*
G02*
X204962500Y-150887500I0J250000D01*
G01*
X204962500Y-150237500D01*
G75*
G02*
X205212500Y-149987500I250000J0D01*
G01*
G37*
G36*
G01*
X145475000Y-115675000D02*
X145475000Y-114725000D01*
G75*
G02*
X145725000Y-114475000I250000J0D01*
G01*
X146400000Y-114475000D01*
G75*
G02*
X146650000Y-114725000I0J-250000D01*
G01*
X146650000Y-115675000D01*
G75*
G02*
X146400000Y-115925000I-250000J0D01*
G01*
X145725000Y-115925000D01*
G75*
G02*
X145475000Y-115675000I0J250000D01*
G01*
G37*
G36*
G01*
X147550000Y-115675000D02*
X147550000Y-114725000D01*
G75*
G02*
X147800000Y-114475000I250000J0D01*
G01*
X148475000Y-114475000D01*
G75*
G02*
X148725000Y-114725000I0J-250000D01*
G01*
X148725000Y-115675000D01*
G75*
G02*
X148475000Y-115925000I-250000J0D01*
G01*
X147800000Y-115925000D01*
G75*
G02*
X147550000Y-115675000I0J250000D01*
G01*
G37*
G36*
G01*
X193525000Y-147575000D02*
X194475000Y-147575000D01*
G75*
G02*
X194725000Y-147825000I0J-250000D01*
G01*
X194725000Y-148500000D01*
G75*
G02*
X194475000Y-148750000I-250000J0D01*
G01*
X193525000Y-148750000D01*
G75*
G02*
X193275000Y-148500000I0J250000D01*
G01*
X193275000Y-147825000D01*
G75*
G02*
X193525000Y-147575000I250000J0D01*
G01*
G37*
G36*
G01*
X193525000Y-149650000D02*
X194475000Y-149650000D01*
G75*
G02*
X194725000Y-149900000I0J-250000D01*
G01*
X194725000Y-150575000D01*
G75*
G02*
X194475000Y-150825000I-250000J0D01*
G01*
X193525000Y-150825000D01*
G75*
G02*
X193275000Y-150575000I0J250000D01*
G01*
X193275000Y-149900000D01*
G75*
G02*
X193525000Y-149650000I250000J0D01*
G01*
G37*
G36*
G01*
X140625000Y-122525000D02*
X140625000Y-123475000D01*
G75*
G02*
X140375000Y-123725000I-250000J0D01*
G01*
X139700000Y-123725000D01*
G75*
G02*
X139450000Y-123475000I0J250000D01*
G01*
X139450000Y-122525000D01*
G75*
G02*
X139700000Y-122275000I250000J0D01*
G01*
X140375000Y-122275000D01*
G75*
G02*
X140625000Y-122525000I0J-250000D01*
G01*
G37*
G36*
G01*
X138550000Y-122525000D02*
X138550000Y-123475000D01*
G75*
G02*
X138300000Y-123725000I-250000J0D01*
G01*
X137625000Y-123725000D01*
G75*
G02*
X137375000Y-123475000I0J250000D01*
G01*
X137375000Y-122525000D01*
G75*
G02*
X137625000Y-122275000I250000J0D01*
G01*
X138300000Y-122275000D01*
G75*
G02*
X138550000Y-122525000I0J-250000D01*
G01*
G37*
G36*
G01*
X189000000Y-150650000D02*
X189000000Y-149750000D01*
G75*
G02*
X189250000Y-149500000I250000J0D01*
G01*
X189950000Y-149500000D01*
G75*
G02*
X190200000Y-149750000I0J-250000D01*
G01*
X190200000Y-150650000D01*
G75*
G02*
X189950000Y-150900000I-250000J0D01*
G01*
X189250000Y-150900000D01*
G75*
G02*
X189000000Y-150650000I0J250000D01*
G01*
G37*
G36*
G01*
X191000000Y-150650000D02*
X191000000Y-149750000D01*
G75*
G02*
X191250000Y-149500000I250000J0D01*
G01*
X191950000Y-149500000D01*
G75*
G02*
X192200000Y-149750000I0J-250000D01*
G01*
X192200000Y-150650000D01*
G75*
G02*
X191950000Y-150900000I-250000J0D01*
G01*
X191250000Y-150900000D01*
G75*
G02*
X191000000Y-150650000I0J250000D01*
G01*
G37*
G36*
G01*
X150600000Y-119950000D02*
X150600000Y-120850000D01*
G75*
G02*
X150350000Y-121100000I-250000J0D01*
G01*
X149650000Y-121100000D01*
G75*
G02*
X149400000Y-120850000I0J250000D01*
G01*
X149400000Y-119950000D01*
G75*
G02*
X149650000Y-119700000I250000J0D01*
G01*
X150350000Y-119700000D01*
G75*
G02*
X150600000Y-119950000I0J-250000D01*
G01*
G37*
G36*
G01*
X148600000Y-119950000D02*
X148600000Y-120850000D01*
G75*
G02*
X148350000Y-121100000I-250000J0D01*
G01*
X147650000Y-121100000D01*
G75*
G02*
X147400000Y-120850000I0J250000D01*
G01*
X147400000Y-119950000D01*
G75*
G02*
X147650000Y-119700000I250000J0D01*
G01*
X148350000Y-119700000D01*
G75*
G02*
X148600000Y-119950000I0J-250000D01*
G01*
G37*
D13*
X205762500Y-73537500D03*
G36*
G01*
X203737500Y-74222500D02*
X203737500Y-72852500D01*
G75*
G02*
X203927500Y-72662500I190000J0D01*
G01*
X204497500Y-72662500D01*
G75*
G02*
X204687500Y-72852500I0J-190000D01*
G01*
X204687500Y-74222500D01*
G75*
G02*
X204497500Y-74412500I-190000J0D01*
G01*
X203927500Y-74412500D01*
G75*
G02*
X203737500Y-74222500I0J190000D01*
G01*
G37*
G36*
G01*
X206837500Y-74222500D02*
X206837500Y-72852500D01*
G75*
G02*
X207027500Y-72662500I190000J0D01*
G01*
X207597500Y-72662500D01*
G75*
G02*
X207787500Y-72852500I0J-190000D01*
G01*
X207787500Y-74222500D01*
G75*
G02*
X207597500Y-74412500I-190000J0D01*
G01*
X207027500Y-74412500D01*
G75*
G02*
X206837500Y-74222500I0J190000D01*
G01*
G37*
D14*
X193087500Y-124537500D03*
X196387500Y-124537500D03*
D13*
X185762500Y-73537500D03*
G36*
G01*
X183737500Y-74222500D02*
X183737500Y-72852500D01*
G75*
G02*
X183927500Y-72662500I190000J0D01*
G01*
X184497500Y-72662500D01*
G75*
G02*
X184687500Y-72852500I0J-190000D01*
G01*
X184687500Y-74222500D01*
G75*
G02*
X184497500Y-74412500I-190000J0D01*
G01*
X183927500Y-74412500D01*
G75*
G02*
X183737500Y-74222500I0J190000D01*
G01*
G37*
G36*
G01*
X186837500Y-74222500D02*
X186837500Y-72852500D01*
G75*
G02*
X187027500Y-72662500I190000J0D01*
G01*
X187597500Y-72662500D01*
G75*
G02*
X187787500Y-72852500I0J-190000D01*
G01*
X187787500Y-74222500D01*
G75*
G02*
X187597500Y-74412500I-190000J0D01*
G01*
X187027500Y-74412500D01*
G75*
G02*
X186837500Y-74222500I0J190000D01*
G01*
G37*
G36*
G01*
X151662500Y-145025000D02*
X151662500Y-145975000D01*
G75*
G02*
X151412500Y-146225000I-250000J0D01*
G01*
X150737500Y-146225000D01*
G75*
G02*
X150487500Y-145975000I0J250000D01*
G01*
X150487500Y-145025000D01*
G75*
G02*
X150737500Y-144775000I250000J0D01*
G01*
X151412500Y-144775000D01*
G75*
G02*
X151662500Y-145025000I0J-250000D01*
G01*
G37*
G36*
G01*
X149587500Y-145025000D02*
X149587500Y-145975000D01*
G75*
G02*
X149337500Y-146225000I-250000J0D01*
G01*
X148662500Y-146225000D01*
G75*
G02*
X148412500Y-145975000I0J250000D01*
G01*
X148412500Y-145025000D01*
G75*
G02*
X148662500Y-144775000I250000J0D01*
G01*
X149337500Y-144775000D01*
G75*
G02*
X149587500Y-145025000I0J-250000D01*
G01*
G37*
X130762500Y-108537500D03*
G36*
G01*
X128737500Y-109222500D02*
X128737500Y-107852500D01*
G75*
G02*
X128927500Y-107662500I190000J0D01*
G01*
X129497500Y-107662500D01*
G75*
G02*
X129687500Y-107852500I0J-190000D01*
G01*
X129687500Y-109222500D01*
G75*
G02*
X129497500Y-109412500I-190000J0D01*
G01*
X128927500Y-109412500D01*
G75*
G02*
X128737500Y-109222500I0J190000D01*
G01*
G37*
G36*
G01*
X131837500Y-109222500D02*
X131837500Y-107852500D01*
G75*
G02*
X132027500Y-107662500I190000J0D01*
G01*
X132597500Y-107662500D01*
G75*
G02*
X132787500Y-107852500I0J-190000D01*
G01*
X132787500Y-109222500D01*
G75*
G02*
X132597500Y-109412500I-190000J0D01*
G01*
X132027500Y-109412500D01*
G75*
G02*
X131837500Y-109222500I0J190000D01*
G01*
G37*
G36*
G01*
X200462500Y-149687500D02*
X200462500Y-150587500D01*
G75*
G02*
X200212500Y-150837500I-250000J0D01*
G01*
X199512500Y-150837500D01*
G75*
G02*
X199262500Y-150587500I0J250000D01*
G01*
X199262500Y-149687500D01*
G75*
G02*
X199512500Y-149437500I250000J0D01*
G01*
X200212500Y-149437500D01*
G75*
G02*
X200462500Y-149687500I0J-250000D01*
G01*
G37*
G36*
G01*
X198462500Y-149687500D02*
X198462500Y-150587500D01*
G75*
G02*
X198212500Y-150837500I-250000J0D01*
G01*
X197512500Y-150837500D01*
G75*
G02*
X197262500Y-150587500I0J250000D01*
G01*
X197262500Y-149687500D01*
G75*
G02*
X197512500Y-149437500I250000J0D01*
G01*
X198212500Y-149437500D01*
G75*
G02*
X198462500Y-149687500I0J-250000D01*
G01*
G37*
X135762500Y-108537500D03*
G36*
G01*
X133737500Y-109222500D02*
X133737500Y-107852500D01*
G75*
G02*
X133927500Y-107662500I190000J0D01*
G01*
X134497500Y-107662500D01*
G75*
G02*
X134687500Y-107852500I0J-190000D01*
G01*
X134687500Y-109222500D01*
G75*
G02*
X134497500Y-109412500I-190000J0D01*
G01*
X133927500Y-109412500D01*
G75*
G02*
X133737500Y-109222500I0J190000D01*
G01*
G37*
G36*
G01*
X136837500Y-109222500D02*
X136837500Y-107852500D01*
G75*
G02*
X137027500Y-107662500I190000J0D01*
G01*
X137597500Y-107662500D01*
G75*
G02*
X137787500Y-107852500I0J-190000D01*
G01*
X137787500Y-109222500D01*
G75*
G02*
X137597500Y-109412500I-190000J0D01*
G01*
X137027500Y-109412500D01*
G75*
G02*
X136837500Y-109222500I0J190000D01*
G01*
G37*
G36*
G01*
X148737500Y-125662500D02*
X147787500Y-125662500D01*
G75*
G02*
X147537500Y-125412500I0J250000D01*
G01*
X147537500Y-124737500D01*
G75*
G02*
X147787500Y-124487500I250000J0D01*
G01*
X148737500Y-124487500D01*
G75*
G02*
X148987500Y-124737500I0J-250000D01*
G01*
X148987500Y-125412500D01*
G75*
G02*
X148737500Y-125662500I-250000J0D01*
G01*
G37*
G36*
G01*
X148737500Y-123587500D02*
X147787500Y-123587500D01*
G75*
G02*
X147537500Y-123337500I0J250000D01*
G01*
X147537500Y-122662500D01*
G75*
G02*
X147787500Y-122412500I250000J0D01*
G01*
X148737500Y-122412500D01*
G75*
G02*
X148987500Y-122662500I0J-250000D01*
G01*
X148987500Y-123337500D01*
G75*
G02*
X148737500Y-123587500I-250000J0D01*
G01*
G37*
G36*
G01*
X195525000Y-147575000D02*
X196475000Y-147575000D01*
G75*
G02*
X196725000Y-147825000I0J-250000D01*
G01*
X196725000Y-148500000D01*
G75*
G02*
X196475000Y-148750000I-250000J0D01*
G01*
X195525000Y-148750000D01*
G75*
G02*
X195275000Y-148500000I0J250000D01*
G01*
X195275000Y-147825000D01*
G75*
G02*
X195525000Y-147575000I250000J0D01*
G01*
G37*
G36*
G01*
X195525000Y-149650000D02*
X196475000Y-149650000D01*
G75*
G02*
X196725000Y-149900000I0J-250000D01*
G01*
X196725000Y-150575000D01*
G75*
G02*
X196475000Y-150825000I-250000J0D01*
G01*
X195525000Y-150825000D01*
G75*
G02*
X195275000Y-150575000I0J250000D01*
G01*
X195275000Y-149900000D01*
G75*
G02*
X195525000Y-149650000I250000J0D01*
G01*
G37*
G36*
G01*
X196750000Y-136400000D02*
X197650000Y-136400000D01*
G75*
G02*
X197900000Y-136650000I0J-250000D01*
G01*
X197900000Y-137350000D01*
G75*
G02*
X197650000Y-137600000I-250000J0D01*
G01*
X196750000Y-137600000D01*
G75*
G02*
X196500000Y-137350000I0J250000D01*
G01*
X196500000Y-136650000D01*
G75*
G02*
X196750000Y-136400000I250000J0D01*
G01*
G37*
G36*
G01*
X196750000Y-138400000D02*
X197650000Y-138400000D01*
G75*
G02*
X197900000Y-138650000I0J-250000D01*
G01*
X197900000Y-139350000D01*
G75*
G02*
X197650000Y-139600000I-250000J0D01*
G01*
X196750000Y-139600000D01*
G75*
G02*
X196500000Y-139350000I0J250000D01*
G01*
X196500000Y-138650000D01*
G75*
G02*
X196750000Y-138400000I250000J0D01*
G01*
G37*
G36*
G01*
X158862500Y-98437500D02*
X158862500Y-98737500D01*
G75*
G02*
X158712500Y-98887500I-150000J0D01*
G01*
X157687500Y-98887500D01*
G75*
G02*
X157537500Y-98737500I0J150000D01*
G01*
X157537500Y-98437500D01*
G75*
G02*
X157687500Y-98287500I150000J0D01*
G01*
X158712500Y-98287500D01*
G75*
G02*
X158862500Y-98437500I0J-150000D01*
G01*
G37*
G36*
G01*
X158862500Y-97487500D02*
X158862500Y-97787500D01*
G75*
G02*
X158712500Y-97937500I-150000J0D01*
G01*
X157687500Y-97937500D01*
G75*
G02*
X157537500Y-97787500I0J150000D01*
G01*
X157537500Y-97487500D01*
G75*
G02*
X157687500Y-97337500I150000J0D01*
G01*
X158712500Y-97337500D01*
G75*
G02*
X158862500Y-97487500I0J-150000D01*
G01*
G37*
G36*
G01*
X158862500Y-96537500D02*
X158862500Y-96837500D01*
G75*
G02*
X158712500Y-96987500I-150000J0D01*
G01*
X157687500Y-96987500D01*
G75*
G02*
X157537500Y-96837500I0J150000D01*
G01*
X157537500Y-96537500D01*
G75*
G02*
X157687500Y-96387500I150000J0D01*
G01*
X158712500Y-96387500D01*
G75*
G02*
X158862500Y-96537500I0J-150000D01*
G01*
G37*
G36*
G01*
X156587500Y-96537500D02*
X156587500Y-96837500D01*
G75*
G02*
X156437500Y-96987500I-150000J0D01*
G01*
X155412500Y-96987500D01*
G75*
G02*
X155262500Y-96837500I0J150000D01*
G01*
X155262500Y-96537500D01*
G75*
G02*
X155412500Y-96387500I150000J0D01*
G01*
X156437500Y-96387500D01*
G75*
G02*
X156587500Y-96537500I0J-150000D01*
G01*
G37*
G36*
G01*
X156587500Y-97487500D02*
X156587500Y-97787500D01*
G75*
G02*
X156437500Y-97937500I-150000J0D01*
G01*
X155412500Y-97937500D01*
G75*
G02*
X155262500Y-97787500I0J150000D01*
G01*
X155262500Y-97487500D01*
G75*
G02*
X155412500Y-97337500I150000J0D01*
G01*
X156437500Y-97337500D01*
G75*
G02*
X156587500Y-97487500I0J-150000D01*
G01*
G37*
G36*
G01*
X156587500Y-98437500D02*
X156587500Y-98737500D01*
G75*
G02*
X156437500Y-98887500I-150000J0D01*
G01*
X155412500Y-98887500D01*
G75*
G02*
X155262500Y-98737500I0J150000D01*
G01*
X155262500Y-98437500D01*
G75*
G02*
X155412500Y-98287500I150000J0D01*
G01*
X156437500Y-98287500D01*
G75*
G02*
X156587500Y-98437500I0J-150000D01*
G01*
G37*
G36*
G01*
X194975000Y-144475000D02*
X194975000Y-143525000D01*
G75*
G02*
X195225000Y-143275000I250000J0D01*
G01*
X195900000Y-143275000D01*
G75*
G02*
X196150000Y-143525000I0J-250000D01*
G01*
X196150000Y-144475000D01*
G75*
G02*
X195900000Y-144725000I-250000J0D01*
G01*
X195225000Y-144725000D01*
G75*
G02*
X194975000Y-144475000I0J250000D01*
G01*
G37*
G36*
G01*
X197050000Y-144475000D02*
X197050000Y-143525000D01*
G75*
G02*
X197300000Y-143275000I250000J0D01*
G01*
X197975000Y-143275000D01*
G75*
G02*
X198225000Y-143525000I0J-250000D01*
G01*
X198225000Y-144475000D01*
G75*
G02*
X197975000Y-144725000I-250000J0D01*
G01*
X197300000Y-144725000D01*
G75*
G02*
X197050000Y-144475000I0J250000D01*
G01*
G37*
G36*
G01*
X177150000Y-145600000D02*
X178050000Y-145600000D01*
G75*
G02*
X178300000Y-145850000I0J-250000D01*
G01*
X178300000Y-146550000D01*
G75*
G02*
X178050000Y-146800000I-250000J0D01*
G01*
X177150000Y-146800000D01*
G75*
G02*
X176900000Y-146550000I0J250000D01*
G01*
X176900000Y-145850000D01*
G75*
G02*
X177150000Y-145600000I250000J0D01*
G01*
G37*
G36*
G01*
X177150000Y-147600000D02*
X178050000Y-147600000D01*
G75*
G02*
X178300000Y-147850000I0J-250000D01*
G01*
X178300000Y-148550000D01*
G75*
G02*
X178050000Y-148800000I-250000J0D01*
G01*
X177150000Y-148800000D01*
G75*
G02*
X176900000Y-148550000I0J250000D01*
G01*
X176900000Y-147850000D01*
G75*
G02*
X177150000Y-147600000I250000J0D01*
G01*
G37*
G36*
G01*
X200462500Y-147687500D02*
X200462500Y-148587500D01*
G75*
G02*
X200212500Y-148837500I-250000J0D01*
G01*
X199512500Y-148837500D01*
G75*
G02*
X199262500Y-148587500I0J250000D01*
G01*
X199262500Y-147687500D01*
G75*
G02*
X199512500Y-147437500I250000J0D01*
G01*
X200212500Y-147437500D01*
G75*
G02*
X200462500Y-147687500I0J-250000D01*
G01*
G37*
G36*
G01*
X198462500Y-147687500D02*
X198462500Y-148587500D01*
G75*
G02*
X198212500Y-148837500I-250000J0D01*
G01*
X197512500Y-148837500D01*
G75*
G02*
X197262500Y-148587500I0J250000D01*
G01*
X197262500Y-147687500D01*
G75*
G02*
X197512500Y-147437500I250000J0D01*
G01*
X198212500Y-147437500D01*
G75*
G02*
X198462500Y-147687500I0J-250000D01*
G01*
G37*
G36*
G01*
X148362500Y-147700000D02*
X148362500Y-147400000D01*
G75*
G02*
X148512500Y-147250000I150000J0D01*
G01*
X149687500Y-147250000D01*
G75*
G02*
X149837500Y-147400000I0J-150000D01*
G01*
X149837500Y-147700000D01*
G75*
G02*
X149687500Y-147850000I-150000J0D01*
G01*
X148512500Y-147850000D01*
G75*
G02*
X148362500Y-147700000I0J150000D01*
G01*
G37*
G36*
G01*
X148362500Y-149600000D02*
X148362500Y-149300000D01*
G75*
G02*
X148512500Y-149150000I150000J0D01*
G01*
X149687500Y-149150000D01*
G75*
G02*
X149837500Y-149300000I0J-150000D01*
G01*
X149837500Y-149600000D01*
G75*
G02*
X149687500Y-149750000I-150000J0D01*
G01*
X148512500Y-149750000D01*
G75*
G02*
X148362500Y-149600000I0J150000D01*
G01*
G37*
G36*
G01*
X150237500Y-148650000D02*
X150237500Y-148350000D01*
G75*
G02*
X150387500Y-148200000I150000J0D01*
G01*
X151562500Y-148200000D01*
G75*
G02*
X151712500Y-148350000I0J-150000D01*
G01*
X151712500Y-148650000D01*
G75*
G02*
X151562500Y-148800000I-150000J0D01*
G01*
X150387500Y-148800000D01*
G75*
G02*
X150237500Y-148650000I0J150000D01*
G01*
G37*
G36*
G01*
X132662500Y-75587500D02*
X132662500Y-76487500D01*
G75*
G02*
X132412500Y-76737500I-250000J0D01*
G01*
X131712500Y-76737500D01*
G75*
G02*
X131462500Y-76487500I0J250000D01*
G01*
X131462500Y-75587500D01*
G75*
G02*
X131712500Y-75337500I250000J0D01*
G01*
X132412500Y-75337500D01*
G75*
G02*
X132662500Y-75587500I0J-250000D01*
G01*
G37*
G36*
G01*
X130662500Y-75587500D02*
X130662500Y-76487500D01*
G75*
G02*
X130412500Y-76737500I-250000J0D01*
G01*
X129712500Y-76737500D01*
G75*
G02*
X129462500Y-76487500I0J250000D01*
G01*
X129462500Y-75587500D01*
G75*
G02*
X129712500Y-75337500I250000J0D01*
G01*
X130412500Y-75337500D01*
G75*
G02*
X130662500Y-75587500I0J-250000D01*
G01*
G37*
X150762500Y-108537500D03*
G36*
G01*
X148737500Y-109222500D02*
X148737500Y-107852500D01*
G75*
G02*
X148927500Y-107662500I190000J0D01*
G01*
X149497500Y-107662500D01*
G75*
G02*
X149687500Y-107852500I0J-190000D01*
G01*
X149687500Y-109222500D01*
G75*
G02*
X149497500Y-109412500I-190000J0D01*
G01*
X148927500Y-109412500D01*
G75*
G02*
X148737500Y-109222500I0J190000D01*
G01*
G37*
G36*
G01*
X151837500Y-109222500D02*
X151837500Y-107852500D01*
G75*
G02*
X152027500Y-107662500I190000J0D01*
G01*
X152597500Y-107662500D01*
G75*
G02*
X152787500Y-107852500I0J-190000D01*
G01*
X152787500Y-109222500D01*
G75*
G02*
X152597500Y-109412500I-190000J0D01*
G01*
X152027500Y-109412500D01*
G75*
G02*
X151837500Y-109222500I0J190000D01*
G01*
G37*
G36*
G01*
X184050000Y-146800000D02*
X183150000Y-146800000D01*
G75*
G02*
X182900000Y-146550000I0J250000D01*
G01*
X182900000Y-145850000D01*
G75*
G02*
X183150000Y-145600000I250000J0D01*
G01*
X184050000Y-145600000D01*
G75*
G02*
X184300000Y-145850000I0J-250000D01*
G01*
X184300000Y-146550000D01*
G75*
G02*
X184050000Y-146800000I-250000J0D01*
G01*
G37*
G36*
G01*
X184050000Y-144800000D02*
X183150000Y-144800000D01*
G75*
G02*
X182900000Y-144550000I0J250000D01*
G01*
X182900000Y-143850000D01*
G75*
G02*
X183150000Y-143600000I250000J0D01*
G01*
X184050000Y-143600000D01*
G75*
G02*
X184300000Y-143850000I0J-250000D01*
G01*
X184300000Y-144550000D01*
G75*
G02*
X184050000Y-144800000I-250000J0D01*
G01*
G37*
X205762500Y-108537500D03*
G36*
G01*
X203737500Y-109222500D02*
X203737500Y-107852500D01*
G75*
G02*
X203927500Y-107662500I190000J0D01*
G01*
X204497500Y-107662500D01*
G75*
G02*
X204687500Y-107852500I0J-190000D01*
G01*
X204687500Y-109222500D01*
G75*
G02*
X204497500Y-109412500I-190000J0D01*
G01*
X203927500Y-109412500D01*
G75*
G02*
X203737500Y-109222500I0J190000D01*
G01*
G37*
G36*
G01*
X206837500Y-109222500D02*
X206837500Y-107852500D01*
G75*
G02*
X207027500Y-107662500I190000J0D01*
G01*
X207597500Y-107662500D01*
G75*
G02*
X207787500Y-107852500I0J-190000D01*
G01*
X207787500Y-109222500D01*
G75*
G02*
X207597500Y-109412500I-190000J0D01*
G01*
X207027500Y-109412500D01*
G75*
G02*
X206837500Y-109222500I0J190000D01*
G01*
G37*
G36*
G01*
X194975000Y-142475000D02*
X194975000Y-141525000D01*
G75*
G02*
X195225000Y-141275000I250000J0D01*
G01*
X195900000Y-141275000D01*
G75*
G02*
X196150000Y-141525000I0J-250000D01*
G01*
X196150000Y-142475000D01*
G75*
G02*
X195900000Y-142725000I-250000J0D01*
G01*
X195225000Y-142725000D01*
G75*
G02*
X194975000Y-142475000I0J250000D01*
G01*
G37*
G36*
G01*
X197050000Y-142475000D02*
X197050000Y-141525000D01*
G75*
G02*
X197300000Y-141275000I250000J0D01*
G01*
X197975000Y-141275000D01*
G75*
G02*
X198225000Y-141525000I0J-250000D01*
G01*
X198225000Y-142475000D01*
G75*
G02*
X197975000Y-142725000I-250000J0D01*
G01*
X197300000Y-142725000D01*
G75*
G02*
X197050000Y-142475000I0J250000D01*
G01*
G37*
X150762500Y-73537500D03*
G36*
G01*
X148737500Y-74222500D02*
X148737500Y-72852500D01*
G75*
G02*
X148927500Y-72662500I190000J0D01*
G01*
X149497500Y-72662500D01*
G75*
G02*
X149687500Y-72852500I0J-190000D01*
G01*
X149687500Y-74222500D01*
G75*
G02*
X149497500Y-74412500I-190000J0D01*
G01*
X148927500Y-74412500D01*
G75*
G02*
X148737500Y-74222500I0J190000D01*
G01*
G37*
G36*
G01*
X151837500Y-74222500D02*
X151837500Y-72852500D01*
G75*
G02*
X152027500Y-72662500I190000J0D01*
G01*
X152597500Y-72662500D01*
G75*
G02*
X152787500Y-72852500I0J-190000D01*
G01*
X152787500Y-74222500D01*
G75*
G02*
X152597500Y-74412500I-190000J0D01*
G01*
X152027500Y-74412500D01*
G75*
G02*
X151837500Y-74222500I0J190000D01*
G01*
G37*
D15*
X144500000Y-117150000D03*
X142300000Y-117150000D03*
X142300000Y-118850000D03*
X144500000Y-118850000D03*
G36*
G01*
X152712500Y-125637500D02*
X151812500Y-125637500D01*
G75*
G02*
X151562500Y-125387500I0J250000D01*
G01*
X151562500Y-124687500D01*
G75*
G02*
X151812500Y-124437500I250000J0D01*
G01*
X152712500Y-124437500D01*
G75*
G02*
X152962500Y-124687500I0J-250000D01*
G01*
X152962500Y-125387500D01*
G75*
G02*
X152712500Y-125637500I-250000J0D01*
G01*
G37*
G36*
G01*
X152712500Y-123637500D02*
X151812500Y-123637500D01*
G75*
G02*
X151562500Y-123387500I0J250000D01*
G01*
X151562500Y-122687500D01*
G75*
G02*
X151812500Y-122437500I250000J0D01*
G01*
X152712500Y-122437500D01*
G75*
G02*
X152962500Y-122687500I0J-250000D01*
G01*
X152962500Y-123387500D01*
G75*
G02*
X152712500Y-123637500I-250000J0D01*
G01*
G37*
G36*
G01*
X137387500Y-84612500D02*
X138337500Y-84612500D01*
G75*
G02*
X138587500Y-84862500I0J-250000D01*
G01*
X138587500Y-85537500D01*
G75*
G02*
X138337500Y-85787500I-250000J0D01*
G01*
X137387500Y-85787500D01*
G75*
G02*
X137137500Y-85537500I0J250000D01*
G01*
X137137500Y-84862500D01*
G75*
G02*
X137387500Y-84612500I250000J0D01*
G01*
G37*
G36*
G01*
X137387500Y-86687500D02*
X138337500Y-86687500D01*
G75*
G02*
X138587500Y-86937500I0J-250000D01*
G01*
X138587500Y-87612500D01*
G75*
G02*
X138337500Y-87862500I-250000J0D01*
G01*
X137387500Y-87862500D01*
G75*
G02*
X137137500Y-87612500I0J250000D01*
G01*
X137137500Y-86937500D01*
G75*
G02*
X137387500Y-86687500I250000J0D01*
G01*
G37*
G36*
G01*
X184975000Y-146675000D02*
X184975000Y-145725000D01*
G75*
G02*
X185225000Y-145475000I250000J0D01*
G01*
X185900000Y-145475000D01*
G75*
G02*
X186150000Y-145725000I0J-250000D01*
G01*
X186150000Y-146675000D01*
G75*
G02*
X185900000Y-146925000I-250000J0D01*
G01*
X185225000Y-146925000D01*
G75*
G02*
X184975000Y-146675000I0J250000D01*
G01*
G37*
G36*
G01*
X187050000Y-146675000D02*
X187050000Y-145725000D01*
G75*
G02*
X187300000Y-145475000I250000J0D01*
G01*
X187975000Y-145475000D01*
G75*
G02*
X188225000Y-145725000I0J-250000D01*
G01*
X188225000Y-146675000D01*
G75*
G02*
X187975000Y-146925000I-250000J0D01*
G01*
X187300000Y-146925000D01*
G75*
G02*
X187050000Y-146675000I0J250000D01*
G01*
G37*
G36*
G01*
X188225000Y-149725000D02*
X188225000Y-150675000D01*
G75*
G02*
X187975000Y-150925000I-250000J0D01*
G01*
X187300000Y-150925000D01*
G75*
G02*
X187050000Y-150675000I0J250000D01*
G01*
X187050000Y-149725000D01*
G75*
G02*
X187300000Y-149475000I250000J0D01*
G01*
X187975000Y-149475000D01*
G75*
G02*
X188225000Y-149725000I0J-250000D01*
G01*
G37*
G36*
G01*
X186150000Y-149725000D02*
X186150000Y-150675000D01*
G75*
G02*
X185900000Y-150925000I-250000J0D01*
G01*
X185225000Y-150925000D01*
G75*
G02*
X184975000Y-150675000I0J250000D01*
G01*
X184975000Y-149725000D01*
G75*
G02*
X185225000Y-149475000I250000J0D01*
G01*
X185900000Y-149475000D01*
G75*
G02*
X186150000Y-149725000I0J-250000D01*
G01*
G37*
D13*
X200762500Y-73537500D03*
G36*
G01*
X198737500Y-74222500D02*
X198737500Y-72852500D01*
G75*
G02*
X198927500Y-72662500I190000J0D01*
G01*
X199497500Y-72662500D01*
G75*
G02*
X199687500Y-72852500I0J-190000D01*
G01*
X199687500Y-74222500D01*
G75*
G02*
X199497500Y-74412500I-190000J0D01*
G01*
X198927500Y-74412500D01*
G75*
G02*
X198737500Y-74222500I0J190000D01*
G01*
G37*
G36*
G01*
X201837500Y-74222500D02*
X201837500Y-72852500D01*
G75*
G02*
X202027500Y-72662500I190000J0D01*
G01*
X202597500Y-72662500D01*
G75*
G02*
X202787500Y-72852500I0J-190000D01*
G01*
X202787500Y-74222500D01*
G75*
G02*
X202597500Y-74412500I-190000J0D01*
G01*
X202027500Y-74412500D01*
G75*
G02*
X201837500Y-74222500I0J190000D01*
G01*
G37*
G36*
G01*
X182275000Y-150400000D02*
X182275000Y-150700000D01*
G75*
G02*
X182125000Y-150850000I-150000J0D01*
G01*
X180950000Y-150850000D01*
G75*
G02*
X180800000Y-150700000I0J150000D01*
G01*
X180800000Y-150400000D01*
G75*
G02*
X180950000Y-150250000I150000J0D01*
G01*
X182125000Y-150250000D01*
G75*
G02*
X182275000Y-150400000I0J-150000D01*
G01*
G37*
G36*
G01*
X182275000Y-148500000D02*
X182275000Y-148800000D01*
G75*
G02*
X182125000Y-148950000I-150000J0D01*
G01*
X180950000Y-148950000D01*
G75*
G02*
X180800000Y-148800000I0J150000D01*
G01*
X180800000Y-148500000D01*
G75*
G02*
X180950000Y-148350000I150000J0D01*
G01*
X182125000Y-148350000D01*
G75*
G02*
X182275000Y-148500000I0J-150000D01*
G01*
G37*
G36*
G01*
X180400000Y-149450000D02*
X180400000Y-149750000D01*
G75*
G02*
X180250000Y-149900000I-150000J0D01*
G01*
X179075000Y-149900000D01*
G75*
G02*
X178925000Y-149750000I0J150000D01*
G01*
X178925000Y-149450000D01*
G75*
G02*
X179075000Y-149300000I150000J0D01*
G01*
X180250000Y-149300000D01*
G75*
G02*
X180400000Y-149450000I0J-150000D01*
G01*
G37*
X200762500Y-108537500D03*
G36*
G01*
X198737500Y-109222500D02*
X198737500Y-107852500D01*
G75*
G02*
X198927500Y-107662500I190000J0D01*
G01*
X199497500Y-107662500D01*
G75*
G02*
X199687500Y-107852500I0J-190000D01*
G01*
X199687500Y-109222500D01*
G75*
G02*
X199497500Y-109412500I-190000J0D01*
G01*
X198927500Y-109412500D01*
G75*
G02*
X198737500Y-109222500I0J190000D01*
G01*
G37*
G36*
G01*
X201837500Y-109222500D02*
X201837500Y-107852500D01*
G75*
G02*
X202027500Y-107662500I190000J0D01*
G01*
X202597500Y-107662500D01*
G75*
G02*
X202787500Y-107852500I0J-190000D01*
G01*
X202787500Y-109222500D01*
G75*
G02*
X202597500Y-109412500I-190000J0D01*
G01*
X202027500Y-109412500D01*
G75*
G02*
X201837500Y-109222500I0J190000D01*
G01*
G37*
G36*
G01*
X169062500Y-120737500D02*
X169362500Y-120737500D01*
G75*
G02*
X169512500Y-120887500I0J-150000D01*
G01*
X169512500Y-121912500D01*
G75*
G02*
X169362500Y-122062500I-150000J0D01*
G01*
X169062500Y-122062500D01*
G75*
G02*
X168912500Y-121912500I0J150000D01*
G01*
X168912500Y-120887500D01*
G75*
G02*
X169062500Y-120737500I150000J0D01*
G01*
G37*
G36*
G01*
X168112500Y-120737500D02*
X168412500Y-120737500D01*
G75*
G02*
X168562500Y-120887500I0J-150000D01*
G01*
X168562500Y-121912500D01*
G75*
G02*
X168412500Y-122062500I-150000J0D01*
G01*
X168112500Y-122062500D01*
G75*
G02*
X167962500Y-121912500I0J150000D01*
G01*
X167962500Y-120887500D01*
G75*
G02*
X168112500Y-120737500I150000J0D01*
G01*
G37*
G36*
G01*
X167162500Y-120737500D02*
X167462500Y-120737500D01*
G75*
G02*
X167612500Y-120887500I0J-150000D01*
G01*
X167612500Y-121912500D01*
G75*
G02*
X167462500Y-122062500I-150000J0D01*
G01*
X167162500Y-122062500D01*
G75*
G02*
X167012500Y-121912500I0J150000D01*
G01*
X167012500Y-120887500D01*
G75*
G02*
X167162500Y-120737500I150000J0D01*
G01*
G37*
G36*
G01*
X167162500Y-123012500D02*
X167462500Y-123012500D01*
G75*
G02*
X167612500Y-123162500I0J-150000D01*
G01*
X167612500Y-124187500D01*
G75*
G02*
X167462500Y-124337500I-150000J0D01*
G01*
X167162500Y-124337500D01*
G75*
G02*
X167012500Y-124187500I0J150000D01*
G01*
X167012500Y-123162500D01*
G75*
G02*
X167162500Y-123012500I150000J0D01*
G01*
G37*
G36*
G01*
X168112500Y-123012500D02*
X168412500Y-123012500D01*
G75*
G02*
X168562500Y-123162500I0J-150000D01*
G01*
X168562500Y-124187500D01*
G75*
G02*
X168412500Y-124337500I-150000J0D01*
G01*
X168112500Y-124337500D01*
G75*
G02*
X167962500Y-124187500I0J150000D01*
G01*
X167962500Y-123162500D01*
G75*
G02*
X168112500Y-123012500I150000J0D01*
G01*
G37*
G36*
G01*
X169062500Y-123012500D02*
X169362500Y-123012500D01*
G75*
G02*
X169512500Y-123162500I0J-150000D01*
G01*
X169512500Y-124187500D01*
G75*
G02*
X169362500Y-124337500I-150000J0D01*
G01*
X169062500Y-124337500D01*
G75*
G02*
X168912500Y-124187500I0J150000D01*
G01*
X168912500Y-123162500D01*
G75*
G02*
X169062500Y-123012500I150000J0D01*
G01*
G37*
G36*
G01*
X204262500Y-143087500D02*
X204262500Y-143987500D01*
G75*
G02*
X204012500Y-144237500I-250000J0D01*
G01*
X203362500Y-144237500D01*
G75*
G02*
X203112500Y-143987500I0J250000D01*
G01*
X203112500Y-143087500D01*
G75*
G02*
X203362500Y-142837500I250000J0D01*
G01*
X204012500Y-142837500D01*
G75*
G02*
X204262500Y-143087500I0J-250000D01*
G01*
G37*
G36*
G01*
X202212500Y-143087500D02*
X202212500Y-143987500D01*
G75*
G02*
X201962500Y-144237500I-250000J0D01*
G01*
X201312500Y-144237500D01*
G75*
G02*
X201062500Y-143987500I0J250000D01*
G01*
X201062500Y-143087500D01*
G75*
G02*
X201312500Y-142837500I250000J0D01*
G01*
X201962500Y-142837500D01*
G75*
G02*
X202212500Y-143087500I0J-250000D01*
G01*
G37*
G36*
G01*
X201062500Y-148587500D02*
X201062500Y-147687500D01*
G75*
G02*
X201312500Y-147437500I250000J0D01*
G01*
X202012500Y-147437500D01*
G75*
G02*
X202262500Y-147687500I0J-250000D01*
G01*
X202262500Y-148587500D01*
G75*
G02*
X202012500Y-148837500I-250000J0D01*
G01*
X201312500Y-148837500D01*
G75*
G02*
X201062500Y-148587500I0J250000D01*
G01*
G37*
G36*
G01*
X203062500Y-148587500D02*
X203062500Y-147687500D01*
G75*
G02*
X203312500Y-147437500I250000J0D01*
G01*
X204012500Y-147437500D01*
G75*
G02*
X204262500Y-147687500I0J-250000D01*
G01*
X204262500Y-148587500D01*
G75*
G02*
X204012500Y-148837500I-250000J0D01*
G01*
X203312500Y-148837500D01*
G75*
G02*
X203062500Y-148587500I0J250000D01*
G01*
G37*
G36*
G01*
X190175000Y-142275000D02*
X190175000Y-141325000D01*
G75*
G02*
X190425000Y-141075000I250000J0D01*
G01*
X191100000Y-141075000D01*
G75*
G02*
X191350000Y-141325000I0J-250000D01*
G01*
X191350000Y-142275000D01*
G75*
G02*
X191100000Y-142525000I-250000J0D01*
G01*
X190425000Y-142525000D01*
G75*
G02*
X190175000Y-142275000I0J250000D01*
G01*
G37*
G36*
G01*
X192250000Y-142275000D02*
X192250000Y-141325000D01*
G75*
G02*
X192500000Y-141075000I250000J0D01*
G01*
X193175000Y-141075000D01*
G75*
G02*
X193425000Y-141325000I0J-250000D01*
G01*
X193425000Y-142275000D01*
G75*
G02*
X193175000Y-142525000I-250000J0D01*
G01*
X192500000Y-142525000D01*
G75*
G02*
X192250000Y-142275000I0J250000D01*
G01*
G37*
G36*
G01*
X189037500Y-103762500D02*
X189037500Y-102812500D01*
G75*
G02*
X189287500Y-102562500I250000J0D01*
G01*
X189962500Y-102562500D01*
G75*
G02*
X190212500Y-102812500I0J-250000D01*
G01*
X190212500Y-103762500D01*
G75*
G02*
X189962500Y-104012500I-250000J0D01*
G01*
X189287500Y-104012500D01*
G75*
G02*
X189037500Y-103762500I0J250000D01*
G01*
G37*
G36*
G01*
X191112500Y-103762500D02*
X191112500Y-102812500D01*
G75*
G02*
X191362500Y-102562500I250000J0D01*
G01*
X192037500Y-102562500D01*
G75*
G02*
X192287500Y-102812500I0J-250000D01*
G01*
X192287500Y-103762500D01*
G75*
G02*
X192037500Y-104012500I-250000J0D01*
G01*
X191362500Y-104012500D01*
G75*
G02*
X191112500Y-103762500I0J250000D01*
G01*
G37*
G36*
G01*
X201062500Y-150587500D02*
X201062500Y-149687500D01*
G75*
G02*
X201312500Y-149437500I250000J0D01*
G01*
X202012500Y-149437500D01*
G75*
G02*
X202262500Y-149687500I0J-250000D01*
G01*
X202262500Y-150587500D01*
G75*
G02*
X202012500Y-150837500I-250000J0D01*
G01*
X201312500Y-150837500D01*
G75*
G02*
X201062500Y-150587500I0J250000D01*
G01*
G37*
G36*
G01*
X203062500Y-150587500D02*
X203062500Y-149687500D01*
G75*
G02*
X203312500Y-149437500I250000J0D01*
G01*
X204012500Y-149437500D01*
G75*
G02*
X204262500Y-149687500I0J-250000D01*
G01*
X204262500Y-150587500D01*
G75*
G02*
X204012500Y-150837500I-250000J0D01*
G01*
X203312500Y-150837500D01*
G75*
G02*
X203062500Y-150587500I0J250000D01*
G01*
G37*
D16*
X183600000Y-147950000D03*
X183600000Y-150450000D03*
D13*
X145762500Y-108537500D03*
G36*
G01*
X143737500Y-109222500D02*
X143737500Y-107852500D01*
G75*
G02*
X143927500Y-107662500I190000J0D01*
G01*
X144497500Y-107662500D01*
G75*
G02*
X144687500Y-107852500I0J-190000D01*
G01*
X144687500Y-109222500D01*
G75*
G02*
X144497500Y-109412500I-190000J0D01*
G01*
X143927500Y-109412500D01*
G75*
G02*
X143737500Y-109222500I0J190000D01*
G01*
G37*
G36*
G01*
X146837500Y-109222500D02*
X146837500Y-107852500D01*
G75*
G02*
X147027500Y-107662500I190000J0D01*
G01*
X147597500Y-107662500D01*
G75*
G02*
X147787500Y-107852500I0J-190000D01*
G01*
X147787500Y-109222500D01*
G75*
G02*
X147597500Y-109412500I-190000J0D01*
G01*
X147027500Y-109412500D01*
G75*
G02*
X146837500Y-109222500I0J190000D01*
G01*
G37*
G36*
G01*
X161137500Y-125662500D02*
X160187500Y-125662500D01*
G75*
G02*
X159937500Y-125412500I0J250000D01*
G01*
X159937500Y-124737500D01*
G75*
G02*
X160187500Y-124487500I250000J0D01*
G01*
X161137500Y-124487500D01*
G75*
G02*
X161387500Y-124737500I0J-250000D01*
G01*
X161387500Y-125412500D01*
G75*
G02*
X161137500Y-125662500I-250000J0D01*
G01*
G37*
G36*
G01*
X161137500Y-123587500D02*
X160187500Y-123587500D01*
G75*
G02*
X159937500Y-123337500I0J250000D01*
G01*
X159937500Y-122662500D01*
G75*
G02*
X160187500Y-122412500I250000J0D01*
G01*
X161137500Y-122412500D01*
G75*
G02*
X161387500Y-122662500I0J-250000D01*
G01*
X161387500Y-123337500D01*
G75*
G02*
X161137500Y-123587500I-250000J0D01*
G01*
G37*
G36*
G01*
X175375000Y-122475000D02*
X175375000Y-121525000D01*
G75*
G02*
X175625000Y-121275000I250000J0D01*
G01*
X176300000Y-121275000D01*
G75*
G02*
X176550000Y-121525000I0J-250000D01*
G01*
X176550000Y-122475000D01*
G75*
G02*
X176300000Y-122725000I-250000J0D01*
G01*
X175625000Y-122725000D01*
G75*
G02*
X175375000Y-122475000I0J250000D01*
G01*
G37*
G36*
G01*
X177450000Y-122475000D02*
X177450000Y-121525000D01*
G75*
G02*
X177700000Y-121275000I250000J0D01*
G01*
X178375000Y-121275000D01*
G75*
G02*
X178625000Y-121525000I0J-250000D01*
G01*
X178625000Y-122475000D01*
G75*
G02*
X178375000Y-122725000I-250000J0D01*
G01*
X177700000Y-122725000D01*
G75*
G02*
X177450000Y-122475000I0J250000D01*
G01*
G37*
X190762500Y-73537500D03*
G36*
G01*
X188737500Y-74222500D02*
X188737500Y-72852500D01*
G75*
G02*
X188927500Y-72662500I190000J0D01*
G01*
X189497500Y-72662500D01*
G75*
G02*
X189687500Y-72852500I0J-190000D01*
G01*
X189687500Y-74222500D01*
G75*
G02*
X189497500Y-74412500I-190000J0D01*
G01*
X188927500Y-74412500D01*
G75*
G02*
X188737500Y-74222500I0J190000D01*
G01*
G37*
G36*
G01*
X191837500Y-74222500D02*
X191837500Y-72852500D01*
G75*
G02*
X192027500Y-72662500I190000J0D01*
G01*
X192597500Y-72662500D01*
G75*
G02*
X192787500Y-72852500I0J-190000D01*
G01*
X192787500Y-74222500D01*
G75*
G02*
X192597500Y-74412500I-190000J0D01*
G01*
X192027500Y-74412500D01*
G75*
G02*
X191837500Y-74222500I0J190000D01*
G01*
G37*
G36*
G01*
X198192500Y-90512500D02*
X198492500Y-90512500D01*
G75*
G02*
X198642500Y-90662500I0J-150000D01*
G01*
X198642500Y-92412500D01*
G75*
G02*
X198492500Y-92562500I-150000J0D01*
G01*
X198192500Y-92562500D01*
G75*
G02*
X198042500Y-92412500I0J150000D01*
G01*
X198042500Y-90662500D01*
G75*
G02*
X198192500Y-90512500I150000J0D01*
G01*
G37*
G36*
G01*
X196922500Y-90512500D02*
X197222500Y-90512500D01*
G75*
G02*
X197372500Y-90662500I0J-150000D01*
G01*
X197372500Y-92412500D01*
G75*
G02*
X197222500Y-92562500I-150000J0D01*
G01*
X196922500Y-92562500D01*
G75*
G02*
X196772500Y-92412500I0J150000D01*
G01*
X196772500Y-90662500D01*
G75*
G02*
X196922500Y-90512500I150000J0D01*
G01*
G37*
G36*
G01*
X195652500Y-90512500D02*
X195952500Y-90512500D01*
G75*
G02*
X196102500Y-90662500I0J-150000D01*
G01*
X196102500Y-92412500D01*
G75*
G02*
X195952500Y-92562500I-150000J0D01*
G01*
X195652500Y-92562500D01*
G75*
G02*
X195502500Y-92412500I0J150000D01*
G01*
X195502500Y-90662500D01*
G75*
G02*
X195652500Y-90512500I150000J0D01*
G01*
G37*
G36*
G01*
X194382500Y-90512500D02*
X194682500Y-90512500D01*
G75*
G02*
X194832500Y-90662500I0J-150000D01*
G01*
X194832500Y-92412500D01*
G75*
G02*
X194682500Y-92562500I-150000J0D01*
G01*
X194382500Y-92562500D01*
G75*
G02*
X194232500Y-92412500I0J150000D01*
G01*
X194232500Y-90662500D01*
G75*
G02*
X194382500Y-90512500I150000J0D01*
G01*
G37*
G36*
G01*
X193112500Y-90512500D02*
X193412500Y-90512500D01*
G75*
G02*
X193562500Y-90662500I0J-150000D01*
G01*
X193562500Y-92412500D01*
G75*
G02*
X193412500Y-92562500I-150000J0D01*
G01*
X193112500Y-92562500D01*
G75*
G02*
X192962500Y-92412500I0J150000D01*
G01*
X192962500Y-90662500D01*
G75*
G02*
X193112500Y-90512500I150000J0D01*
G01*
G37*
G36*
G01*
X191842500Y-90512500D02*
X192142500Y-90512500D01*
G75*
G02*
X192292500Y-90662500I0J-150000D01*
G01*
X192292500Y-92412500D01*
G75*
G02*
X192142500Y-92562500I-150000J0D01*
G01*
X191842500Y-92562500D01*
G75*
G02*
X191692500Y-92412500I0J150000D01*
G01*
X191692500Y-90662500D01*
G75*
G02*
X191842500Y-90512500I150000J0D01*
G01*
G37*
G36*
G01*
X190572500Y-90512500D02*
X190872500Y-90512500D01*
G75*
G02*
X191022500Y-90662500I0J-150000D01*
G01*
X191022500Y-92412500D01*
G75*
G02*
X190872500Y-92562500I-150000J0D01*
G01*
X190572500Y-92562500D01*
G75*
G02*
X190422500Y-92412500I0J150000D01*
G01*
X190422500Y-90662500D01*
G75*
G02*
X190572500Y-90512500I150000J0D01*
G01*
G37*
G36*
G01*
X189302500Y-90512500D02*
X189602500Y-90512500D01*
G75*
G02*
X189752500Y-90662500I0J-150000D01*
G01*
X189752500Y-92412500D01*
G75*
G02*
X189602500Y-92562500I-150000J0D01*
G01*
X189302500Y-92562500D01*
G75*
G02*
X189152500Y-92412500I0J150000D01*
G01*
X189152500Y-90662500D01*
G75*
G02*
X189302500Y-90512500I150000J0D01*
G01*
G37*
G36*
G01*
X188032500Y-90512500D02*
X188332500Y-90512500D01*
G75*
G02*
X188482500Y-90662500I0J-150000D01*
G01*
X188482500Y-92412500D01*
G75*
G02*
X188332500Y-92562500I-150000J0D01*
G01*
X188032500Y-92562500D01*
G75*
G02*
X187882500Y-92412500I0J150000D01*
G01*
X187882500Y-90662500D01*
G75*
G02*
X188032500Y-90512500I150000J0D01*
G01*
G37*
G36*
G01*
X188032500Y-99812500D02*
X188332500Y-99812500D01*
G75*
G02*
X188482500Y-99962500I0J-150000D01*
G01*
X188482500Y-101712500D01*
G75*
G02*
X188332500Y-101862500I-150000J0D01*
G01*
X188032500Y-101862500D01*
G75*
G02*
X187882500Y-101712500I0J150000D01*
G01*
X187882500Y-99962500D01*
G75*
G02*
X188032500Y-99812500I150000J0D01*
G01*
G37*
G36*
G01*
X189302500Y-99812500D02*
X189602500Y-99812500D01*
G75*
G02*
X189752500Y-99962500I0J-150000D01*
G01*
X189752500Y-101712500D01*
G75*
G02*
X189602500Y-101862500I-150000J0D01*
G01*
X189302500Y-101862500D01*
G75*
G02*
X189152500Y-101712500I0J150000D01*
G01*
X189152500Y-99962500D01*
G75*
G02*
X189302500Y-99812500I150000J0D01*
G01*
G37*
G36*
G01*
X190572500Y-99812500D02*
X190872500Y-99812500D01*
G75*
G02*
X191022500Y-99962500I0J-150000D01*
G01*
X191022500Y-101712500D01*
G75*
G02*
X190872500Y-101862500I-150000J0D01*
G01*
X190572500Y-101862500D01*
G75*
G02*
X190422500Y-101712500I0J150000D01*
G01*
X190422500Y-99962500D01*
G75*
G02*
X190572500Y-99812500I150000J0D01*
G01*
G37*
G36*
G01*
X191842500Y-99812500D02*
X192142500Y-99812500D01*
G75*
G02*
X192292500Y-99962500I0J-150000D01*
G01*
X192292500Y-101712500D01*
G75*
G02*
X192142500Y-101862500I-150000J0D01*
G01*
X191842500Y-101862500D01*
G75*
G02*
X191692500Y-101712500I0J150000D01*
G01*
X191692500Y-99962500D01*
G75*
G02*
X191842500Y-99812500I150000J0D01*
G01*
G37*
G36*
G01*
X193112500Y-99812500D02*
X193412500Y-99812500D01*
G75*
G02*
X193562500Y-99962500I0J-150000D01*
G01*
X193562500Y-101712500D01*
G75*
G02*
X193412500Y-101862500I-150000J0D01*
G01*
X193112500Y-101862500D01*
G75*
G02*
X192962500Y-101712500I0J150000D01*
G01*
X192962500Y-99962500D01*
G75*
G02*
X193112500Y-99812500I150000J0D01*
G01*
G37*
G36*
G01*
X194382500Y-99812500D02*
X194682500Y-99812500D01*
G75*
G02*
X194832500Y-99962500I0J-150000D01*
G01*
X194832500Y-101712500D01*
G75*
G02*
X194682500Y-101862500I-150000J0D01*
G01*
X194382500Y-101862500D01*
G75*
G02*
X194232500Y-101712500I0J150000D01*
G01*
X194232500Y-99962500D01*
G75*
G02*
X194382500Y-99812500I150000J0D01*
G01*
G37*
G36*
G01*
X195652500Y-99812500D02*
X195952500Y-99812500D01*
G75*
G02*
X196102500Y-99962500I0J-150000D01*
G01*
X196102500Y-101712500D01*
G75*
G02*
X195952500Y-101862500I-150000J0D01*
G01*
X195652500Y-101862500D01*
G75*
G02*
X195502500Y-101712500I0J150000D01*
G01*
X195502500Y-99962500D01*
G75*
G02*
X195652500Y-99812500I150000J0D01*
G01*
G37*
G36*
G01*
X196922500Y-99812500D02*
X197222500Y-99812500D01*
G75*
G02*
X197372500Y-99962500I0J-150000D01*
G01*
X197372500Y-101712500D01*
G75*
G02*
X197222500Y-101862500I-150000J0D01*
G01*
X196922500Y-101862500D01*
G75*
G02*
X196772500Y-101712500I0J150000D01*
G01*
X196772500Y-99962500D01*
G75*
G02*
X196922500Y-99812500I150000J0D01*
G01*
G37*
G36*
G01*
X198192500Y-99812500D02*
X198492500Y-99812500D01*
G75*
G02*
X198642500Y-99962500I0J-150000D01*
G01*
X198642500Y-101712500D01*
G75*
G02*
X198492500Y-101862500I-150000J0D01*
G01*
X198192500Y-101862500D01*
G75*
G02*
X198042500Y-101712500I0J150000D01*
G01*
X198042500Y-99962500D01*
G75*
G02*
X198192500Y-99812500I150000J0D01*
G01*
G37*
G36*
G01*
X142587500Y-147400000D02*
X143487500Y-147400000D01*
G75*
G02*
X143737500Y-147650000I0J-250000D01*
G01*
X143737500Y-148350000D01*
G75*
G02*
X143487500Y-148600000I-250000J0D01*
G01*
X142587500Y-148600000D01*
G75*
G02*
X142337500Y-148350000I0J250000D01*
G01*
X142337500Y-147650000D01*
G75*
G02*
X142587500Y-147400000I250000J0D01*
G01*
G37*
G36*
G01*
X142587500Y-149400000D02*
X143487500Y-149400000D01*
G75*
G02*
X143737500Y-149650000I0J-250000D01*
G01*
X143737500Y-150350000D01*
G75*
G02*
X143487500Y-150600000I-250000J0D01*
G01*
X142587500Y-150600000D01*
G75*
G02*
X142337500Y-150350000I0J250000D01*
G01*
X142337500Y-149650000D01*
G75*
G02*
X142587500Y-149400000I250000J0D01*
G01*
G37*
G36*
G01*
X164562500Y-115377500D02*
X164962500Y-115377500D01*
G75*
G02*
X165012500Y-115427500I0J-50000D01*
G01*
X165012500Y-116917500D01*
G75*
G02*
X164962500Y-116967500I-50000J0D01*
G01*
X164562500Y-116967500D01*
G75*
G02*
X164512500Y-116917500I0J50000D01*
G01*
X164512500Y-115427500D01*
G75*
G02*
X164562500Y-115377500I50000J0D01*
G01*
G37*
G36*
G01*
X165562500Y-115377500D02*
X165962500Y-115377500D01*
G75*
G02*
X166012500Y-115427500I0J-50000D01*
G01*
X166012500Y-116917500D01*
G75*
G02*
X165962500Y-116967500I-50000J0D01*
G01*
X165562500Y-116967500D01*
G75*
G02*
X165512500Y-116917500I0J50000D01*
G01*
X165512500Y-115427500D01*
G75*
G02*
X165562500Y-115377500I50000J0D01*
G01*
G37*
G36*
G01*
X166562500Y-115377500D02*
X166962500Y-115377500D01*
G75*
G02*
X167012500Y-115427500I0J-50000D01*
G01*
X167012500Y-116917500D01*
G75*
G02*
X166962500Y-116967500I-50000J0D01*
G01*
X166562500Y-116967500D01*
G75*
G02*
X166512500Y-116917500I0J50000D01*
G01*
X166512500Y-115427500D01*
G75*
G02*
X166562500Y-115377500I50000J0D01*
G01*
G37*
G36*
G01*
X167562500Y-115377500D02*
X167962500Y-115377500D01*
G75*
G02*
X168012500Y-115427500I0J-50000D01*
G01*
X168012500Y-116917500D01*
G75*
G02*
X167962500Y-116967500I-50000J0D01*
G01*
X167562500Y-116967500D01*
G75*
G02*
X167512500Y-116917500I0J50000D01*
G01*
X167512500Y-115427500D01*
G75*
G02*
X167562500Y-115377500I50000J0D01*
G01*
G37*
G36*
G01*
X168562500Y-115377500D02*
X168962500Y-115377500D01*
G75*
G02*
X169012500Y-115427500I0J-50000D01*
G01*
X169012500Y-116917500D01*
G75*
G02*
X168962500Y-116967500I-50000J0D01*
G01*
X168562500Y-116967500D01*
G75*
G02*
X168512500Y-116917500I0J50000D01*
G01*
X168512500Y-115427500D01*
G75*
G02*
X168562500Y-115377500I50000J0D01*
G01*
G37*
G36*
G01*
X169562500Y-115377500D02*
X169962500Y-115377500D01*
G75*
G02*
X170012500Y-115427500I0J-50000D01*
G01*
X170012500Y-116917500D01*
G75*
G02*
X169962500Y-116967500I-50000J0D01*
G01*
X169562500Y-116967500D01*
G75*
G02*
X169512500Y-116917500I0J50000D01*
G01*
X169512500Y-115427500D01*
G75*
G02*
X169562500Y-115377500I50000J0D01*
G01*
G37*
G36*
G01*
X170562500Y-115377500D02*
X170962500Y-115377500D01*
G75*
G02*
X171012500Y-115427500I0J-50000D01*
G01*
X171012500Y-116917500D01*
G75*
G02*
X170962500Y-116967500I-50000J0D01*
G01*
X170562500Y-116967500D01*
G75*
G02*
X170512500Y-116917500I0J50000D01*
G01*
X170512500Y-115427500D01*
G75*
G02*
X170562500Y-115377500I50000J0D01*
G01*
G37*
G36*
G01*
X171562500Y-115377500D02*
X171962500Y-115377500D01*
G75*
G02*
X172012500Y-115427500I0J-50000D01*
G01*
X172012500Y-116917500D01*
G75*
G02*
X171962500Y-116967500I-50000J0D01*
G01*
X171562500Y-116967500D01*
G75*
G02*
X171512500Y-116917500I0J50000D01*
G01*
X171512500Y-115427500D01*
G75*
G02*
X171562500Y-115377500I50000J0D01*
G01*
G37*
G36*
G01*
X171562500Y-118107500D02*
X171962500Y-118107500D01*
G75*
G02*
X172012500Y-118157500I0J-50000D01*
G01*
X172012500Y-119647500D01*
G75*
G02*
X171962500Y-119697500I-50000J0D01*
G01*
X171562500Y-119697500D01*
G75*
G02*
X171512500Y-119647500I0J50000D01*
G01*
X171512500Y-118157500D01*
G75*
G02*
X171562500Y-118107500I50000J0D01*
G01*
G37*
G36*
G01*
X170562500Y-118107500D02*
X170962500Y-118107500D01*
G75*
G02*
X171012500Y-118157500I0J-50000D01*
G01*
X171012500Y-119647500D01*
G75*
G02*
X170962500Y-119697500I-50000J0D01*
G01*
X170562500Y-119697500D01*
G75*
G02*
X170512500Y-119647500I0J50000D01*
G01*
X170512500Y-118157500D01*
G75*
G02*
X170562500Y-118107500I50000J0D01*
G01*
G37*
G36*
G01*
X169562500Y-118107500D02*
X169962500Y-118107500D01*
G75*
G02*
X170012500Y-118157500I0J-50000D01*
G01*
X170012500Y-119647500D01*
G75*
G02*
X169962500Y-119697500I-50000J0D01*
G01*
X169562500Y-119697500D01*
G75*
G02*
X169512500Y-119647500I0J50000D01*
G01*
X169512500Y-118157500D01*
G75*
G02*
X169562500Y-118107500I50000J0D01*
G01*
G37*
G36*
G01*
X168562500Y-118107500D02*
X168962500Y-118107500D01*
G75*
G02*
X169012500Y-118157500I0J-50000D01*
G01*
X169012500Y-119647500D01*
G75*
G02*
X168962500Y-119697500I-50000J0D01*
G01*
X168562500Y-119697500D01*
G75*
G02*
X168512500Y-119647500I0J50000D01*
G01*
X168512500Y-118157500D01*
G75*
G02*
X168562500Y-118107500I50000J0D01*
G01*
G37*
G36*
G01*
X167562500Y-118107500D02*
X167962500Y-118107500D01*
G75*
G02*
X168012500Y-118157500I0J-50000D01*
G01*
X168012500Y-119647500D01*
G75*
G02*
X167962500Y-119697500I-50000J0D01*
G01*
X167562500Y-119697500D01*
G75*
G02*
X167512500Y-119647500I0J50000D01*
G01*
X167512500Y-118157500D01*
G75*
G02*
X167562500Y-118107500I50000J0D01*
G01*
G37*
G36*
G01*
X166562500Y-118107500D02*
X166962500Y-118107500D01*
G75*
G02*
X167012500Y-118157500I0J-50000D01*
G01*
X167012500Y-119647500D01*
G75*
G02*
X166962500Y-119697500I-50000J0D01*
G01*
X166562500Y-119697500D01*
G75*
G02*
X166512500Y-119647500I0J50000D01*
G01*
X166512500Y-118157500D01*
G75*
G02*
X166562500Y-118107500I50000J0D01*
G01*
G37*
G36*
G01*
X165562500Y-118107500D02*
X165962500Y-118107500D01*
G75*
G02*
X166012500Y-118157500I0J-50000D01*
G01*
X166012500Y-119647500D01*
G75*
G02*
X165962500Y-119697500I-50000J0D01*
G01*
X165562500Y-119697500D01*
G75*
G02*
X165512500Y-119647500I0J50000D01*
G01*
X165512500Y-118157500D01*
G75*
G02*
X165562500Y-118107500I50000J0D01*
G01*
G37*
G36*
G01*
X164562500Y-118107500D02*
X164962500Y-118107500D01*
G75*
G02*
X165012500Y-118157500I0J-50000D01*
G01*
X165012500Y-119647500D01*
G75*
G02*
X164962500Y-119697500I-50000J0D01*
G01*
X164562500Y-119697500D01*
G75*
G02*
X164512500Y-119647500I0J50000D01*
G01*
X164512500Y-118157500D01*
G75*
G02*
X164562500Y-118107500I50000J0D01*
G01*
G37*
G36*
G01*
X173287500Y-115477500D02*
X173287500Y-116737500D01*
G75*
G02*
X173217500Y-116807500I-70000J0D01*
G01*
X171757500Y-116807500D01*
G75*
G02*
X171687500Y-116737500I0J70000D01*
G01*
X171687500Y-115477500D01*
G75*
G02*
X171757500Y-115407500I70000J0D01*
G01*
X173217500Y-115407500D01*
G75*
G02*
X173287500Y-115477500I0J-70000D01*
G01*
G37*
G36*
G01*
X164862500Y-115452500D02*
X164862500Y-116622500D01*
G75*
G02*
X164797500Y-116687500I-65000J0D01*
G01*
X162227500Y-116687500D01*
G75*
G02*
X162162500Y-116622500I0J65000D01*
G01*
X162162500Y-115452500D01*
G75*
G02*
X162227500Y-115387500I65000J0D01*
G01*
X164797500Y-115387500D01*
G75*
G02*
X164862500Y-115452500I0J-65000D01*
G01*
G37*
G36*
G01*
X174362500Y-118452500D02*
X174362500Y-119622500D01*
G75*
G02*
X174297500Y-119687500I-65000J0D01*
G01*
X171727500Y-119687500D01*
G75*
G02*
X171662500Y-119622500I0J65000D01*
G01*
X171662500Y-118452500D01*
G75*
G02*
X171727500Y-118387500I65000J0D01*
G01*
X174297500Y-118387500D01*
G75*
G02*
X174362500Y-118452500I0J-65000D01*
G01*
G37*
G36*
G01*
X164837500Y-118337500D02*
X164837500Y-119597500D01*
G75*
G02*
X164767500Y-119667500I-70000J0D01*
G01*
X163307500Y-119667500D01*
G75*
G02*
X163237500Y-119597500I0J70000D01*
G01*
X163237500Y-118337500D01*
G75*
G02*
X163307500Y-118267500I70000J0D01*
G01*
X164767500Y-118267500D01*
G75*
G02*
X164837500Y-118337500I0J-70000D01*
G01*
G37*
D17*
X159372500Y-90062500D03*
X159372500Y-85012500D03*
X161912500Y-90062500D03*
X161912500Y-85012500D03*
X164452500Y-90062500D03*
X164452500Y-85012500D03*
X166992500Y-90062500D03*
X166992500Y-85012500D03*
X169532500Y-90062500D03*
X169532500Y-85012500D03*
X172072500Y-90062500D03*
X172072500Y-85012500D03*
X174612500Y-90062500D03*
X174612500Y-85012500D03*
X177152500Y-90062500D03*
X177152500Y-85012500D03*
G36*
G01*
X139767500Y-91287500D02*
X139467500Y-91287500D01*
G75*
G02*
X139317500Y-91137500I0J150000D01*
G01*
X139317500Y-89487500D01*
G75*
G02*
X139467500Y-89337500I150000J0D01*
G01*
X139767500Y-89337500D01*
G75*
G02*
X139917500Y-89487500I0J-150000D01*
G01*
X139917500Y-91137500D01*
G75*
G02*
X139767500Y-91287500I-150000J0D01*
G01*
G37*
G36*
G01*
X141037500Y-91287500D02*
X140737500Y-91287500D01*
G75*
G02*
X140587500Y-91137500I0J150000D01*
G01*
X140587500Y-89487500D01*
G75*
G02*
X140737500Y-89337500I150000J0D01*
G01*
X141037500Y-89337500D01*
G75*
G02*
X141187500Y-89487500I0J-150000D01*
G01*
X141187500Y-91137500D01*
G75*
G02*
X141037500Y-91287500I-150000J0D01*
G01*
G37*
G36*
G01*
X142307500Y-91287500D02*
X142007500Y-91287500D01*
G75*
G02*
X141857500Y-91137500I0J150000D01*
G01*
X141857500Y-89487500D01*
G75*
G02*
X142007500Y-89337500I150000J0D01*
G01*
X142307500Y-89337500D01*
G75*
G02*
X142457500Y-89487500I0J-150000D01*
G01*
X142457500Y-91137500D01*
G75*
G02*
X142307500Y-91287500I-150000J0D01*
G01*
G37*
G36*
G01*
X143577500Y-91287500D02*
X143277500Y-91287500D01*
G75*
G02*
X143127500Y-91137500I0J150000D01*
G01*
X143127500Y-89487500D01*
G75*
G02*
X143277500Y-89337500I150000J0D01*
G01*
X143577500Y-89337500D01*
G75*
G02*
X143727500Y-89487500I0J-150000D01*
G01*
X143727500Y-91137500D01*
G75*
G02*
X143577500Y-91287500I-150000J0D01*
G01*
G37*
G36*
G01*
X144847500Y-91287500D02*
X144547500Y-91287500D01*
G75*
G02*
X144397500Y-91137500I0J150000D01*
G01*
X144397500Y-89487500D01*
G75*
G02*
X144547500Y-89337500I150000J0D01*
G01*
X144847500Y-89337500D01*
G75*
G02*
X144997500Y-89487500I0J-150000D01*
G01*
X144997500Y-91137500D01*
G75*
G02*
X144847500Y-91287500I-150000J0D01*
G01*
G37*
G36*
G01*
X146117500Y-91287500D02*
X145817500Y-91287500D01*
G75*
G02*
X145667500Y-91137500I0J150000D01*
G01*
X145667500Y-89487500D01*
G75*
G02*
X145817500Y-89337500I150000J0D01*
G01*
X146117500Y-89337500D01*
G75*
G02*
X146267500Y-89487500I0J-150000D01*
G01*
X146267500Y-91137500D01*
G75*
G02*
X146117500Y-91287500I-150000J0D01*
G01*
G37*
G36*
G01*
X147387500Y-91287500D02*
X147087500Y-91287500D01*
G75*
G02*
X146937500Y-91137500I0J150000D01*
G01*
X146937500Y-89487500D01*
G75*
G02*
X147087500Y-89337500I150000J0D01*
G01*
X147387500Y-89337500D01*
G75*
G02*
X147537500Y-89487500I0J-150000D01*
G01*
X147537500Y-91137500D01*
G75*
G02*
X147387500Y-91287500I-150000J0D01*
G01*
G37*
G36*
G01*
X148657500Y-91287500D02*
X148357500Y-91287500D01*
G75*
G02*
X148207500Y-91137500I0J150000D01*
G01*
X148207500Y-89487500D01*
G75*
G02*
X148357500Y-89337500I150000J0D01*
G01*
X148657500Y-89337500D01*
G75*
G02*
X148807500Y-89487500I0J-150000D01*
G01*
X148807500Y-91137500D01*
G75*
G02*
X148657500Y-91287500I-150000J0D01*
G01*
G37*
G36*
G01*
X148657500Y-86337500D02*
X148357500Y-86337500D01*
G75*
G02*
X148207500Y-86187500I0J150000D01*
G01*
X148207500Y-84537500D01*
G75*
G02*
X148357500Y-84387500I150000J0D01*
G01*
X148657500Y-84387500D01*
G75*
G02*
X148807500Y-84537500I0J-150000D01*
G01*
X148807500Y-86187500D01*
G75*
G02*
X148657500Y-86337500I-150000J0D01*
G01*
G37*
G36*
G01*
X147387500Y-86337500D02*
X147087500Y-86337500D01*
G75*
G02*
X146937500Y-86187500I0J150000D01*
G01*
X146937500Y-84537500D01*
G75*
G02*
X147087500Y-84387500I150000J0D01*
G01*
X147387500Y-84387500D01*
G75*
G02*
X147537500Y-84537500I0J-150000D01*
G01*
X147537500Y-86187500D01*
G75*
G02*
X147387500Y-86337500I-150000J0D01*
G01*
G37*
G36*
G01*
X146117500Y-86337500D02*
X145817500Y-86337500D01*
G75*
G02*
X145667500Y-86187500I0J150000D01*
G01*
X145667500Y-84537500D01*
G75*
G02*
X145817500Y-84387500I150000J0D01*
G01*
X146117500Y-84387500D01*
G75*
G02*
X146267500Y-84537500I0J-150000D01*
G01*
X146267500Y-86187500D01*
G75*
G02*
X146117500Y-86337500I-150000J0D01*
G01*
G37*
G36*
G01*
X144847500Y-86337500D02*
X144547500Y-86337500D01*
G75*
G02*
X144397500Y-86187500I0J150000D01*
G01*
X144397500Y-84537500D01*
G75*
G02*
X144547500Y-84387500I150000J0D01*
G01*
X144847500Y-84387500D01*
G75*
G02*
X144997500Y-84537500I0J-150000D01*
G01*
X144997500Y-86187500D01*
G75*
G02*
X144847500Y-86337500I-150000J0D01*
G01*
G37*
G36*
G01*
X143577500Y-86337500D02*
X143277500Y-86337500D01*
G75*
G02*
X143127500Y-86187500I0J150000D01*
G01*
X143127500Y-84537500D01*
G75*
G02*
X143277500Y-84387500I150000J0D01*
G01*
X143577500Y-84387500D01*
G75*
G02*
X143727500Y-84537500I0J-150000D01*
G01*
X143727500Y-86187500D01*
G75*
G02*
X143577500Y-86337500I-150000J0D01*
G01*
G37*
G36*
G01*
X142307500Y-86337500D02*
X142007500Y-86337500D01*
G75*
G02*
X141857500Y-86187500I0J150000D01*
G01*
X141857500Y-84537500D01*
G75*
G02*
X142007500Y-84387500I150000J0D01*
G01*
X142307500Y-84387500D01*
G75*
G02*
X142457500Y-84537500I0J-150000D01*
G01*
X142457500Y-86187500D01*
G75*
G02*
X142307500Y-86337500I-150000J0D01*
G01*
G37*
G36*
G01*
X141037500Y-86337500D02*
X140737500Y-86337500D01*
G75*
G02*
X140587500Y-86187500I0J150000D01*
G01*
X140587500Y-84537500D01*
G75*
G02*
X140737500Y-84387500I150000J0D01*
G01*
X141037500Y-84387500D01*
G75*
G02*
X141187500Y-84537500I0J-150000D01*
G01*
X141187500Y-86187500D01*
G75*
G02*
X141037500Y-86337500I-150000J0D01*
G01*
G37*
G36*
G01*
X139767500Y-86337500D02*
X139467500Y-86337500D01*
G75*
G02*
X139317500Y-86187500I0J150000D01*
G01*
X139317500Y-84537500D01*
G75*
G02*
X139467500Y-84387500I150000J0D01*
G01*
X139767500Y-84387500D01*
G75*
G02*
X139917500Y-84537500I0J-150000D01*
G01*
X139917500Y-86187500D01*
G75*
G02*
X139767500Y-86337500I-150000J0D01*
G01*
G37*
G36*
G01*
X145287500Y-134182500D02*
X146237500Y-134182500D01*
G75*
G02*
X146487500Y-134432500I0J-250000D01*
G01*
X146487500Y-135107500D01*
G75*
G02*
X146237500Y-135357500I-250000J0D01*
G01*
X145287500Y-135357500D01*
G75*
G02*
X145037500Y-135107500I0J250000D01*
G01*
X145037500Y-134432500D01*
G75*
G02*
X145287500Y-134182500I250000J0D01*
G01*
G37*
G36*
G01*
X145287500Y-136257500D02*
X146237500Y-136257500D01*
G75*
G02*
X146487500Y-136507500I0J-250000D01*
G01*
X146487500Y-137182500D01*
G75*
G02*
X146237500Y-137432500I-250000J0D01*
G01*
X145287500Y-137432500D01*
G75*
G02*
X145037500Y-137182500I0J250000D01*
G01*
X145037500Y-136507500D01*
G75*
G02*
X145287500Y-136257500I250000J0D01*
G01*
G37*
G36*
G01*
X142232500Y-137437500D02*
X141932500Y-137437500D01*
G75*
G02*
X141782500Y-137287500I0J150000D01*
G01*
X141782500Y-136262500D01*
G75*
G02*
X141932500Y-136112500I150000J0D01*
G01*
X142232500Y-136112500D01*
G75*
G02*
X142382500Y-136262500I0J-150000D01*
G01*
X142382500Y-137287500D01*
G75*
G02*
X142232500Y-137437500I-150000J0D01*
G01*
G37*
G36*
G01*
X143182500Y-137437500D02*
X142882500Y-137437500D01*
G75*
G02*
X142732500Y-137287500I0J150000D01*
G01*
X142732500Y-136262500D01*
G75*
G02*
X142882500Y-136112500I150000J0D01*
G01*
X143182500Y-136112500D01*
G75*
G02*
X143332500Y-136262500I0J-150000D01*
G01*
X143332500Y-137287500D01*
G75*
G02*
X143182500Y-137437500I-150000J0D01*
G01*
G37*
G36*
G01*
X144132500Y-137437500D02*
X143832500Y-137437500D01*
G75*
G02*
X143682500Y-137287500I0J150000D01*
G01*
X143682500Y-136262500D01*
G75*
G02*
X143832500Y-136112500I150000J0D01*
G01*
X144132500Y-136112500D01*
G75*
G02*
X144282500Y-136262500I0J-150000D01*
G01*
X144282500Y-137287500D01*
G75*
G02*
X144132500Y-137437500I-150000J0D01*
G01*
G37*
G36*
G01*
X144132500Y-135162500D02*
X143832500Y-135162500D01*
G75*
G02*
X143682500Y-135012500I0J150000D01*
G01*
X143682500Y-133987500D01*
G75*
G02*
X143832500Y-133837500I150000J0D01*
G01*
X144132500Y-133837500D01*
G75*
G02*
X144282500Y-133987500I0J-150000D01*
G01*
X144282500Y-135012500D01*
G75*
G02*
X144132500Y-135162500I-150000J0D01*
G01*
G37*
G36*
G01*
X143182500Y-135162500D02*
X142882500Y-135162500D01*
G75*
G02*
X142732500Y-135012500I0J150000D01*
G01*
X142732500Y-133987500D01*
G75*
G02*
X142882500Y-133837500I150000J0D01*
G01*
X143182500Y-133837500D01*
G75*
G02*
X143332500Y-133987500I0J-150000D01*
G01*
X143332500Y-135012500D01*
G75*
G02*
X143182500Y-135162500I-150000J0D01*
G01*
G37*
G36*
G01*
X142232500Y-135162500D02*
X141932500Y-135162500D01*
G75*
G02*
X141782500Y-135012500I0J150000D01*
G01*
X141782500Y-133987500D01*
G75*
G02*
X141932500Y-133837500I150000J0D01*
G01*
X142232500Y-133837500D01*
G75*
G02*
X142382500Y-133987500I0J-150000D01*
G01*
X142382500Y-135012500D01*
G75*
G02*
X142232500Y-135162500I-150000J0D01*
G01*
G37*
D16*
X129812500Y-78037500D03*
X132312500Y-78037500D03*
G36*
G01*
X139325000Y-116375000D02*
X140275000Y-116375000D01*
G75*
G02*
X140525000Y-116625000I0J-250000D01*
G01*
X140525000Y-117300000D01*
G75*
G02*
X140275000Y-117550000I-250000J0D01*
G01*
X139325000Y-117550000D01*
G75*
G02*
X139075000Y-117300000I0J250000D01*
G01*
X139075000Y-116625000D01*
G75*
G02*
X139325000Y-116375000I250000J0D01*
G01*
G37*
G36*
G01*
X139325000Y-118450000D02*
X140275000Y-118450000D01*
G75*
G02*
X140525000Y-118700000I0J-250000D01*
G01*
X140525000Y-119375000D01*
G75*
G02*
X140275000Y-119625000I-250000J0D01*
G01*
X139325000Y-119625000D01*
G75*
G02*
X139075000Y-119375000I0J250000D01*
G01*
X139075000Y-118700000D01*
G75*
G02*
X139325000Y-118450000I250000J0D01*
G01*
G37*
G36*
G01*
X190467500Y-89637500D02*
X190167500Y-89637500D01*
G75*
G02*
X190017500Y-89487500I0J150000D01*
G01*
X190017500Y-87837500D01*
G75*
G02*
X190167500Y-87687500I150000J0D01*
G01*
X190467500Y-87687500D01*
G75*
G02*
X190617500Y-87837500I0J-150000D01*
G01*
X190617500Y-89487500D01*
G75*
G02*
X190467500Y-89637500I-150000J0D01*
G01*
G37*
G36*
G01*
X191737500Y-89637500D02*
X191437500Y-89637500D01*
G75*
G02*
X191287500Y-89487500I0J150000D01*
G01*
X191287500Y-87837500D01*
G75*
G02*
X191437500Y-87687500I150000J0D01*
G01*
X191737500Y-87687500D01*
G75*
G02*
X191887500Y-87837500I0J-150000D01*
G01*
X191887500Y-89487500D01*
G75*
G02*
X191737500Y-89637500I-150000J0D01*
G01*
G37*
G36*
G01*
X193007500Y-89637500D02*
X192707500Y-89637500D01*
G75*
G02*
X192557500Y-89487500I0J150000D01*
G01*
X192557500Y-87837500D01*
G75*
G02*
X192707500Y-87687500I150000J0D01*
G01*
X193007500Y-87687500D01*
G75*
G02*
X193157500Y-87837500I0J-150000D01*
G01*
X193157500Y-89487500D01*
G75*
G02*
X193007500Y-89637500I-150000J0D01*
G01*
G37*
G36*
G01*
X194277500Y-89637500D02*
X193977500Y-89637500D01*
G75*
G02*
X193827500Y-89487500I0J150000D01*
G01*
X193827500Y-87837500D01*
G75*
G02*
X193977500Y-87687500I150000J0D01*
G01*
X194277500Y-87687500D01*
G75*
G02*
X194427500Y-87837500I0J-150000D01*
G01*
X194427500Y-89487500D01*
G75*
G02*
X194277500Y-89637500I-150000J0D01*
G01*
G37*
G36*
G01*
X195547500Y-89637500D02*
X195247500Y-89637500D01*
G75*
G02*
X195097500Y-89487500I0J150000D01*
G01*
X195097500Y-87837500D01*
G75*
G02*
X195247500Y-87687500I150000J0D01*
G01*
X195547500Y-87687500D01*
G75*
G02*
X195697500Y-87837500I0J-150000D01*
G01*
X195697500Y-89487500D01*
G75*
G02*
X195547500Y-89637500I-150000J0D01*
G01*
G37*
G36*
G01*
X196817500Y-89637500D02*
X196517500Y-89637500D01*
G75*
G02*
X196367500Y-89487500I0J150000D01*
G01*
X196367500Y-87837500D01*
G75*
G02*
X196517500Y-87687500I150000J0D01*
G01*
X196817500Y-87687500D01*
G75*
G02*
X196967500Y-87837500I0J-150000D01*
G01*
X196967500Y-89487500D01*
G75*
G02*
X196817500Y-89637500I-150000J0D01*
G01*
G37*
G36*
G01*
X198087500Y-89637500D02*
X197787500Y-89637500D01*
G75*
G02*
X197637500Y-89487500I0J150000D01*
G01*
X197637500Y-87837500D01*
G75*
G02*
X197787500Y-87687500I150000J0D01*
G01*
X198087500Y-87687500D01*
G75*
G02*
X198237500Y-87837500I0J-150000D01*
G01*
X198237500Y-89487500D01*
G75*
G02*
X198087500Y-89637500I-150000J0D01*
G01*
G37*
G36*
G01*
X199357500Y-89637500D02*
X199057500Y-89637500D01*
G75*
G02*
X198907500Y-89487500I0J150000D01*
G01*
X198907500Y-87837500D01*
G75*
G02*
X199057500Y-87687500I150000J0D01*
G01*
X199357500Y-87687500D01*
G75*
G02*
X199507500Y-87837500I0J-150000D01*
G01*
X199507500Y-89487500D01*
G75*
G02*
X199357500Y-89637500I-150000J0D01*
G01*
G37*
G36*
G01*
X199357500Y-84687500D02*
X199057500Y-84687500D01*
G75*
G02*
X198907500Y-84537500I0J150000D01*
G01*
X198907500Y-82887500D01*
G75*
G02*
X199057500Y-82737500I150000J0D01*
G01*
X199357500Y-82737500D01*
G75*
G02*
X199507500Y-82887500I0J-150000D01*
G01*
X199507500Y-84537500D01*
G75*
G02*
X199357500Y-84687500I-150000J0D01*
G01*
G37*
G36*
G01*
X198087500Y-84687500D02*
X197787500Y-84687500D01*
G75*
G02*
X197637500Y-84537500I0J150000D01*
G01*
X197637500Y-82887500D01*
G75*
G02*
X197787500Y-82737500I150000J0D01*
G01*
X198087500Y-82737500D01*
G75*
G02*
X198237500Y-82887500I0J-150000D01*
G01*
X198237500Y-84537500D01*
G75*
G02*
X198087500Y-84687500I-150000J0D01*
G01*
G37*
G36*
G01*
X196817500Y-84687500D02*
X196517500Y-84687500D01*
G75*
G02*
X196367500Y-84537500I0J150000D01*
G01*
X196367500Y-82887500D01*
G75*
G02*
X196517500Y-82737500I150000J0D01*
G01*
X196817500Y-82737500D01*
G75*
G02*
X196967500Y-82887500I0J-150000D01*
G01*
X196967500Y-84537500D01*
G75*
G02*
X196817500Y-84687500I-150000J0D01*
G01*
G37*
G36*
G01*
X195547500Y-84687500D02*
X195247500Y-84687500D01*
G75*
G02*
X195097500Y-84537500I0J150000D01*
G01*
X195097500Y-82887500D01*
G75*
G02*
X195247500Y-82737500I150000J0D01*
G01*
X195547500Y-82737500D01*
G75*
G02*
X195697500Y-82887500I0J-150000D01*
G01*
X195697500Y-84537500D01*
G75*
G02*
X195547500Y-84687500I-150000J0D01*
G01*
G37*
G36*
G01*
X194277500Y-84687500D02*
X193977500Y-84687500D01*
G75*
G02*
X193827500Y-84537500I0J150000D01*
G01*
X193827500Y-82887500D01*
G75*
G02*
X193977500Y-82737500I150000J0D01*
G01*
X194277500Y-82737500D01*
G75*
G02*
X194427500Y-82887500I0J-150000D01*
G01*
X194427500Y-84537500D01*
G75*
G02*
X194277500Y-84687500I-150000J0D01*
G01*
G37*
G36*
G01*
X193007500Y-84687500D02*
X192707500Y-84687500D01*
G75*
G02*
X192557500Y-84537500I0J150000D01*
G01*
X192557500Y-82887500D01*
G75*
G02*
X192707500Y-82737500I150000J0D01*
G01*
X193007500Y-82737500D01*
G75*
G02*
X193157500Y-82887500I0J-150000D01*
G01*
X193157500Y-84537500D01*
G75*
G02*
X193007500Y-84687500I-150000J0D01*
G01*
G37*
G36*
G01*
X191737500Y-84687500D02*
X191437500Y-84687500D01*
G75*
G02*
X191287500Y-84537500I0J150000D01*
G01*
X191287500Y-82887500D01*
G75*
G02*
X191437500Y-82737500I150000J0D01*
G01*
X191737500Y-82737500D01*
G75*
G02*
X191887500Y-82887500I0J-150000D01*
G01*
X191887500Y-84537500D01*
G75*
G02*
X191737500Y-84687500I-150000J0D01*
G01*
G37*
G36*
G01*
X190467500Y-84687500D02*
X190167500Y-84687500D01*
G75*
G02*
X190017500Y-84537500I0J150000D01*
G01*
X190017500Y-82887500D01*
G75*
G02*
X190167500Y-82737500I150000J0D01*
G01*
X190467500Y-82737500D01*
G75*
G02*
X190617500Y-82887500I0J-150000D01*
G01*
X190617500Y-84537500D01*
G75*
G02*
X190467500Y-84687500I-150000J0D01*
G01*
G37*
G36*
G01*
X143512500Y-146625000D02*
X142562500Y-146625000D01*
G75*
G02*
X142312500Y-146375000I0J250000D01*
G01*
X142312500Y-145700000D01*
G75*
G02*
X142562500Y-145450000I250000J0D01*
G01*
X143512500Y-145450000D01*
G75*
G02*
X143762500Y-145700000I0J-250000D01*
G01*
X143762500Y-146375000D01*
G75*
G02*
X143512500Y-146625000I-250000J0D01*
G01*
G37*
G36*
G01*
X143512500Y-144550000D02*
X142562500Y-144550000D01*
G75*
G02*
X142312500Y-144300000I0J250000D01*
G01*
X142312500Y-143625000D01*
G75*
G02*
X142562500Y-143375000I250000J0D01*
G01*
X143512500Y-143375000D01*
G75*
G02*
X143762500Y-143625000I0J-250000D01*
G01*
X143762500Y-144300000D01*
G75*
G02*
X143512500Y-144550000I-250000J0D01*
G01*
G37*
D13*
X185762500Y-108537500D03*
G36*
G01*
X183737500Y-109222500D02*
X183737500Y-107852500D01*
G75*
G02*
X183927500Y-107662500I190000J0D01*
G01*
X184497500Y-107662500D01*
G75*
G02*
X184687500Y-107852500I0J-190000D01*
G01*
X184687500Y-109222500D01*
G75*
G02*
X184497500Y-109412500I-190000J0D01*
G01*
X183927500Y-109412500D01*
G75*
G02*
X183737500Y-109222500I0J190000D01*
G01*
G37*
G36*
G01*
X186837500Y-109222500D02*
X186837500Y-107852500D01*
G75*
G02*
X187027500Y-107662500I190000J0D01*
G01*
X187597500Y-107662500D01*
G75*
G02*
X187787500Y-107852500I0J-190000D01*
G01*
X187787500Y-109222500D01*
G75*
G02*
X187597500Y-109412500I-190000J0D01*
G01*
X187027500Y-109412500D01*
G75*
G02*
X186837500Y-109222500I0J190000D01*
G01*
G37*
X195762500Y-108537500D03*
G36*
G01*
X193737500Y-109222500D02*
X193737500Y-107852500D01*
G75*
G02*
X193927500Y-107662500I190000J0D01*
G01*
X194497500Y-107662500D01*
G75*
G02*
X194687500Y-107852500I0J-190000D01*
G01*
X194687500Y-109222500D01*
G75*
G02*
X194497500Y-109412500I-190000J0D01*
G01*
X193927500Y-109412500D01*
G75*
G02*
X193737500Y-109222500I0J190000D01*
G01*
G37*
G36*
G01*
X196837500Y-109222500D02*
X196837500Y-107852500D01*
G75*
G02*
X197027500Y-107662500I190000J0D01*
G01*
X197597500Y-107662500D01*
G75*
G02*
X197787500Y-107852500I0J-190000D01*
G01*
X197787500Y-109222500D01*
G75*
G02*
X197597500Y-109412500I-190000J0D01*
G01*
X197027500Y-109412500D01*
G75*
G02*
X196837500Y-109222500I0J190000D01*
G01*
G37*
G36*
G01*
X184475000Y-143025000D02*
X183525000Y-143025000D01*
G75*
G02*
X183275000Y-142775000I0J250000D01*
G01*
X183275000Y-142100000D01*
G75*
G02*
X183525000Y-141850000I250000J0D01*
G01*
X184475000Y-141850000D01*
G75*
G02*
X184725000Y-142100000I0J-250000D01*
G01*
X184725000Y-142775000D01*
G75*
G02*
X184475000Y-143025000I-250000J0D01*
G01*
G37*
G36*
G01*
X184475000Y-140950000D02*
X183525000Y-140950000D01*
G75*
G02*
X183275000Y-140700000I0J250000D01*
G01*
X183275000Y-140025000D01*
G75*
G02*
X183525000Y-139775000I250000J0D01*
G01*
X184475000Y-139775000D01*
G75*
G02*
X184725000Y-140025000I0J-250000D01*
G01*
X184725000Y-140700000D01*
G75*
G02*
X184475000Y-140950000I-250000J0D01*
G01*
G37*
G36*
G01*
X182400000Y-144800000D02*
X182400000Y-145100000D01*
G75*
G02*
X182250000Y-145250000I-150000J0D01*
G01*
X181225000Y-145250000D01*
G75*
G02*
X181075000Y-145100000I0J150000D01*
G01*
X181075000Y-144800000D01*
G75*
G02*
X181225000Y-144650000I150000J0D01*
G01*
X182250000Y-144650000D01*
G75*
G02*
X182400000Y-144800000I0J-150000D01*
G01*
G37*
G36*
G01*
X182400000Y-143850000D02*
X182400000Y-144150000D01*
G75*
G02*
X182250000Y-144300000I-150000J0D01*
G01*
X181225000Y-144300000D01*
G75*
G02*
X181075000Y-144150000I0J150000D01*
G01*
X181075000Y-143850000D01*
G75*
G02*
X181225000Y-143700000I150000J0D01*
G01*
X182250000Y-143700000D01*
G75*
G02*
X182400000Y-143850000I0J-150000D01*
G01*
G37*
G36*
G01*
X182400000Y-142900000D02*
X182400000Y-143200000D01*
G75*
G02*
X182250000Y-143350000I-150000J0D01*
G01*
X181225000Y-143350000D01*
G75*
G02*
X181075000Y-143200000I0J150000D01*
G01*
X181075000Y-142900000D01*
G75*
G02*
X181225000Y-142750000I150000J0D01*
G01*
X182250000Y-142750000D01*
G75*
G02*
X182400000Y-142900000I0J-150000D01*
G01*
G37*
G36*
G01*
X180125000Y-142900000D02*
X180125000Y-143200000D01*
G75*
G02*
X179975000Y-143350000I-150000J0D01*
G01*
X178950000Y-143350000D01*
G75*
G02*
X178800000Y-143200000I0J150000D01*
G01*
X178800000Y-142900000D01*
G75*
G02*
X178950000Y-142750000I150000J0D01*
G01*
X179975000Y-142750000D01*
G75*
G02*
X180125000Y-142900000I0J-150000D01*
G01*
G37*
G36*
G01*
X180125000Y-144800000D02*
X180125000Y-145100000D01*
G75*
G02*
X179975000Y-145250000I-150000J0D01*
G01*
X178950000Y-145250000D01*
G75*
G02*
X178800000Y-145100000I0J150000D01*
G01*
X178800000Y-144800000D01*
G75*
G02*
X178950000Y-144650000I150000J0D01*
G01*
X179975000Y-144650000D01*
G75*
G02*
X180125000Y-144800000I0J-150000D01*
G01*
G37*
G36*
G01*
X179000000Y-147250000D02*
X179000000Y-146350000D01*
G75*
G02*
X179250000Y-146100000I250000J0D01*
G01*
X179950000Y-146100000D01*
G75*
G02*
X180200000Y-146350000I0J-250000D01*
G01*
X180200000Y-147250000D01*
G75*
G02*
X179950000Y-147500000I-250000J0D01*
G01*
X179250000Y-147500000D01*
G75*
G02*
X179000000Y-147250000I0J250000D01*
G01*
G37*
G36*
G01*
X181000000Y-147250000D02*
X181000000Y-146350000D01*
G75*
G02*
X181250000Y-146100000I250000J0D01*
G01*
X181950000Y-146100000D01*
G75*
G02*
X182200000Y-146350000I0J-250000D01*
G01*
X182200000Y-147250000D01*
G75*
G02*
X181950000Y-147500000I-250000J0D01*
G01*
X181250000Y-147500000D01*
G75*
G02*
X181000000Y-147250000I0J250000D01*
G01*
G37*
G36*
G01*
X153812500Y-122437500D02*
X154712500Y-122437500D01*
G75*
G02*
X154962500Y-122687500I0J-250000D01*
G01*
X154962500Y-123387500D01*
G75*
G02*
X154712500Y-123637500I-250000J0D01*
G01*
X153812500Y-123637500D01*
G75*
G02*
X153562500Y-123387500I0J250000D01*
G01*
X153562500Y-122687500D01*
G75*
G02*
X153812500Y-122437500I250000J0D01*
G01*
G37*
G36*
G01*
X153812500Y-124437500D02*
X154712500Y-124437500D01*
G75*
G02*
X154962500Y-124687500I0J-250000D01*
G01*
X154962500Y-125387500D01*
G75*
G02*
X154712500Y-125637500I-250000J0D01*
G01*
X153812500Y-125637500D01*
G75*
G02*
X153562500Y-125387500I0J250000D01*
G01*
X153562500Y-124687500D01*
G75*
G02*
X153812500Y-124437500I250000J0D01*
G01*
G37*
G36*
G01*
X158212500Y-122437500D02*
X159112500Y-122437500D01*
G75*
G02*
X159362500Y-122687500I0J-250000D01*
G01*
X159362500Y-123387500D01*
G75*
G02*
X159112500Y-123637500I-250000J0D01*
G01*
X158212500Y-123637500D01*
G75*
G02*
X157962500Y-123387500I0J250000D01*
G01*
X157962500Y-122687500D01*
G75*
G02*
X158212500Y-122437500I250000J0D01*
G01*
G37*
G36*
G01*
X158212500Y-124437500D02*
X159112500Y-124437500D01*
G75*
G02*
X159362500Y-124687500I0J-250000D01*
G01*
X159362500Y-125387500D01*
G75*
G02*
X159112500Y-125637500I-250000J0D01*
G01*
X158212500Y-125637500D01*
G75*
G02*
X157962500Y-125387500I0J250000D01*
G01*
X157962500Y-124687500D01*
G75*
G02*
X158212500Y-124437500I250000J0D01*
G01*
G37*
G36*
G01*
X206955000Y-140170000D02*
X203855000Y-140170000D01*
G75*
G02*
X203605000Y-139920000I0J250000D01*
G01*
X203605000Y-138620000D01*
G75*
G02*
X203855000Y-138370000I250000J0D01*
G01*
X206955000Y-138370000D01*
G75*
G02*
X207205000Y-138620000I0J-250000D01*
G01*
X207205000Y-139920000D01*
G75*
G02*
X206955000Y-140170000I-250000J0D01*
G01*
G37*
D18*
X205405000Y-135770000D03*
X205405000Y-132270000D03*
X205405000Y-128770000D03*
G36*
G01*
X140625000Y-120525000D02*
X140625000Y-121475000D01*
G75*
G02*
X140375000Y-121725000I-250000J0D01*
G01*
X139700000Y-121725000D01*
G75*
G02*
X139450000Y-121475000I0J250000D01*
G01*
X139450000Y-120525000D01*
G75*
G02*
X139700000Y-120275000I250000J0D01*
G01*
X140375000Y-120275000D01*
G75*
G02*
X140625000Y-120525000I0J-250000D01*
G01*
G37*
G36*
G01*
X138550000Y-120525000D02*
X138550000Y-121475000D01*
G75*
G02*
X138300000Y-121725000I-250000J0D01*
G01*
X137625000Y-121725000D01*
G75*
G02*
X137375000Y-121475000I0J250000D01*
G01*
X137375000Y-120525000D01*
G75*
G02*
X137625000Y-120275000I250000J0D01*
G01*
X138300000Y-120275000D01*
G75*
G02*
X138550000Y-120525000I0J-250000D01*
G01*
G37*
D19*
X183262500Y-90037500D03*
D20*
X183262500Y-90037500D03*
D13*
X190762500Y-108537500D03*
G36*
G01*
X188737500Y-109222500D02*
X188737500Y-107852500D01*
G75*
G02*
X188927500Y-107662500I190000J0D01*
G01*
X189497500Y-107662500D01*
G75*
G02*
X189687500Y-107852500I0J-190000D01*
G01*
X189687500Y-109222500D01*
G75*
G02*
X189497500Y-109412500I-190000J0D01*
G01*
X188927500Y-109412500D01*
G75*
G02*
X188737500Y-109222500I0J190000D01*
G01*
G37*
G36*
G01*
X191837500Y-109222500D02*
X191837500Y-107852500D01*
G75*
G02*
X192027500Y-107662500I190000J0D01*
G01*
X192597500Y-107662500D01*
G75*
G02*
X192787500Y-107852500I0J-190000D01*
G01*
X192787500Y-109222500D01*
G75*
G02*
X192597500Y-109412500I-190000J0D01*
G01*
X192027500Y-109412500D01*
G75*
G02*
X191837500Y-109222500I0J190000D01*
G01*
G37*
G36*
G01*
X147992500Y-91962500D02*
X148292500Y-91962500D01*
G75*
G02*
X148442500Y-92112500I0J-150000D01*
G01*
X148442500Y-93862500D01*
G75*
G02*
X148292500Y-94012500I-150000J0D01*
G01*
X147992500Y-94012500D01*
G75*
G02*
X147842500Y-93862500I0J150000D01*
G01*
X147842500Y-92112500D01*
G75*
G02*
X147992500Y-91962500I150000J0D01*
G01*
G37*
G36*
G01*
X146722500Y-91962500D02*
X147022500Y-91962500D01*
G75*
G02*
X147172500Y-92112500I0J-150000D01*
G01*
X147172500Y-93862500D01*
G75*
G02*
X147022500Y-94012500I-150000J0D01*
G01*
X146722500Y-94012500D01*
G75*
G02*
X146572500Y-93862500I0J150000D01*
G01*
X146572500Y-92112500D01*
G75*
G02*
X146722500Y-91962500I150000J0D01*
G01*
G37*
G36*
G01*
X145452500Y-91962500D02*
X145752500Y-91962500D01*
G75*
G02*
X145902500Y-92112500I0J-150000D01*
G01*
X145902500Y-93862500D01*
G75*
G02*
X145752500Y-94012500I-150000J0D01*
G01*
X145452500Y-94012500D01*
G75*
G02*
X145302500Y-93862500I0J150000D01*
G01*
X145302500Y-92112500D01*
G75*
G02*
X145452500Y-91962500I150000J0D01*
G01*
G37*
G36*
G01*
X144182500Y-91962500D02*
X144482500Y-91962500D01*
G75*
G02*
X144632500Y-92112500I0J-150000D01*
G01*
X144632500Y-93862500D01*
G75*
G02*
X144482500Y-94012500I-150000J0D01*
G01*
X144182500Y-94012500D01*
G75*
G02*
X144032500Y-93862500I0J150000D01*
G01*
X144032500Y-92112500D01*
G75*
G02*
X144182500Y-91962500I150000J0D01*
G01*
G37*
G36*
G01*
X142912500Y-91962500D02*
X143212500Y-91962500D01*
G75*
G02*
X143362500Y-92112500I0J-150000D01*
G01*
X143362500Y-93862500D01*
G75*
G02*
X143212500Y-94012500I-150000J0D01*
G01*
X142912500Y-94012500D01*
G75*
G02*
X142762500Y-93862500I0J150000D01*
G01*
X142762500Y-92112500D01*
G75*
G02*
X142912500Y-91962500I150000J0D01*
G01*
G37*
G36*
G01*
X141642500Y-91962500D02*
X141942500Y-91962500D01*
G75*
G02*
X142092500Y-92112500I0J-150000D01*
G01*
X142092500Y-93862500D01*
G75*
G02*
X141942500Y-94012500I-150000J0D01*
G01*
X141642500Y-94012500D01*
G75*
G02*
X141492500Y-93862500I0J150000D01*
G01*
X141492500Y-92112500D01*
G75*
G02*
X141642500Y-91962500I150000J0D01*
G01*
G37*
G36*
G01*
X140372500Y-91962500D02*
X140672500Y-91962500D01*
G75*
G02*
X140822500Y-92112500I0J-150000D01*
G01*
X140822500Y-93862500D01*
G75*
G02*
X140672500Y-94012500I-150000J0D01*
G01*
X140372500Y-94012500D01*
G75*
G02*
X140222500Y-93862500I0J150000D01*
G01*
X140222500Y-92112500D01*
G75*
G02*
X140372500Y-91962500I150000J0D01*
G01*
G37*
G36*
G01*
X139102500Y-91962500D02*
X139402500Y-91962500D01*
G75*
G02*
X139552500Y-92112500I0J-150000D01*
G01*
X139552500Y-93862500D01*
G75*
G02*
X139402500Y-94012500I-150000J0D01*
G01*
X139102500Y-94012500D01*
G75*
G02*
X138952500Y-93862500I0J150000D01*
G01*
X138952500Y-92112500D01*
G75*
G02*
X139102500Y-91962500I150000J0D01*
G01*
G37*
G36*
G01*
X137832500Y-91962500D02*
X138132500Y-91962500D01*
G75*
G02*
X138282500Y-92112500I0J-150000D01*
G01*
X138282500Y-93862500D01*
G75*
G02*
X138132500Y-94012500I-150000J0D01*
G01*
X137832500Y-94012500D01*
G75*
G02*
X137682500Y-93862500I0J150000D01*
G01*
X137682500Y-92112500D01*
G75*
G02*
X137832500Y-91962500I150000J0D01*
G01*
G37*
G36*
G01*
X137832500Y-101262500D02*
X138132500Y-101262500D01*
G75*
G02*
X138282500Y-101412500I0J-150000D01*
G01*
X138282500Y-103162500D01*
G75*
G02*
X138132500Y-103312500I-150000J0D01*
G01*
X137832500Y-103312500D01*
G75*
G02*
X137682500Y-103162500I0J150000D01*
G01*
X137682500Y-101412500D01*
G75*
G02*
X137832500Y-101262500I150000J0D01*
G01*
G37*
G36*
G01*
X139102500Y-101262500D02*
X139402500Y-101262500D01*
G75*
G02*
X139552500Y-101412500I0J-150000D01*
G01*
X139552500Y-103162500D01*
G75*
G02*
X139402500Y-103312500I-150000J0D01*
G01*
X139102500Y-103312500D01*
G75*
G02*
X138952500Y-103162500I0J150000D01*
G01*
X138952500Y-101412500D01*
G75*
G02*
X139102500Y-101262500I150000J0D01*
G01*
G37*
G36*
G01*
X140372500Y-101262500D02*
X140672500Y-101262500D01*
G75*
G02*
X140822500Y-101412500I0J-150000D01*
G01*
X140822500Y-103162500D01*
G75*
G02*
X140672500Y-103312500I-150000J0D01*
G01*
X140372500Y-103312500D01*
G75*
G02*
X140222500Y-103162500I0J150000D01*
G01*
X140222500Y-101412500D01*
G75*
G02*
X140372500Y-101262500I150000J0D01*
G01*
G37*
G36*
G01*
X141642500Y-101262500D02*
X141942500Y-101262500D01*
G75*
G02*
X142092500Y-101412500I0J-150000D01*
G01*
X142092500Y-103162500D01*
G75*
G02*
X141942500Y-103312500I-150000J0D01*
G01*
X141642500Y-103312500D01*
G75*
G02*
X141492500Y-103162500I0J150000D01*
G01*
X141492500Y-101412500D01*
G75*
G02*
X141642500Y-101262500I150000J0D01*
G01*
G37*
G36*
G01*
X142912500Y-101262500D02*
X143212500Y-101262500D01*
G75*
G02*
X143362500Y-101412500I0J-150000D01*
G01*
X143362500Y-103162500D01*
G75*
G02*
X143212500Y-103312500I-150000J0D01*
G01*
X142912500Y-103312500D01*
G75*
G02*
X142762500Y-103162500I0J150000D01*
G01*
X142762500Y-101412500D01*
G75*
G02*
X142912500Y-101262500I150000J0D01*
G01*
G37*
G36*
G01*
X144182500Y-101262500D02*
X144482500Y-101262500D01*
G75*
G02*
X144632500Y-101412500I0J-150000D01*
G01*
X144632500Y-103162500D01*
G75*
G02*
X144482500Y-103312500I-150000J0D01*
G01*
X144182500Y-103312500D01*
G75*
G02*
X144032500Y-103162500I0J150000D01*
G01*
X144032500Y-101412500D01*
G75*
G02*
X144182500Y-101262500I150000J0D01*
G01*
G37*
G36*
G01*
X145452500Y-101262500D02*
X145752500Y-101262500D01*
G75*
G02*
X145902500Y-101412500I0J-150000D01*
G01*
X145902500Y-103162500D01*
G75*
G02*
X145752500Y-103312500I-150000J0D01*
G01*
X145452500Y-103312500D01*
G75*
G02*
X145302500Y-103162500I0J150000D01*
G01*
X145302500Y-101412500D01*
G75*
G02*
X145452500Y-101262500I150000J0D01*
G01*
G37*
G36*
G01*
X146722500Y-101262500D02*
X147022500Y-101262500D01*
G75*
G02*
X147172500Y-101412500I0J-150000D01*
G01*
X147172500Y-103162500D01*
G75*
G02*
X147022500Y-103312500I-150000J0D01*
G01*
X146722500Y-103312500D01*
G75*
G02*
X146572500Y-103162500I0J150000D01*
G01*
X146572500Y-101412500D01*
G75*
G02*
X146722500Y-101262500I150000J0D01*
G01*
G37*
G36*
G01*
X147992500Y-101262500D02*
X148292500Y-101262500D01*
G75*
G02*
X148442500Y-101412500I0J-150000D01*
G01*
X148442500Y-103162500D01*
G75*
G02*
X148292500Y-103312500I-150000J0D01*
G01*
X147992500Y-103312500D01*
G75*
G02*
X147842500Y-103162500I0J150000D01*
G01*
X147842500Y-101412500D01*
G75*
G02*
X147992500Y-101262500I150000J0D01*
G01*
G37*
G36*
G01*
X190412500Y-122162500D02*
X189462500Y-122162500D01*
G75*
G02*
X189212500Y-121912500I0J250000D01*
G01*
X189212500Y-121237500D01*
G75*
G02*
X189462500Y-120987500I250000J0D01*
G01*
X190412500Y-120987500D01*
G75*
G02*
X190662500Y-121237500I0J-250000D01*
G01*
X190662500Y-121912500D01*
G75*
G02*
X190412500Y-122162500I-250000J0D01*
G01*
G37*
G36*
G01*
X190412500Y-120087500D02*
X189462500Y-120087500D01*
G75*
G02*
X189212500Y-119837500I0J250000D01*
G01*
X189212500Y-119162500D01*
G75*
G02*
X189462500Y-118912500I250000J0D01*
G01*
X190412500Y-118912500D01*
G75*
G02*
X190662500Y-119162500I0J-250000D01*
G01*
X190662500Y-119837500D01*
G75*
G02*
X190412500Y-120087500I-250000J0D01*
G01*
G37*
G36*
G01*
X168812500Y-75037500D02*
X168812500Y-73887500D01*
G75*
G02*
X168912500Y-73787500I100000J0D01*
G01*
X169112500Y-73787500D01*
G75*
G02*
X169212500Y-73887500I0J-100000D01*
G01*
X169212500Y-75037500D01*
G75*
G02*
X169112500Y-75137500I-100000J0D01*
G01*
X168912500Y-75137500D01*
G75*
G02*
X168812500Y-75037500I0J100000D01*
G01*
G37*
G36*
G01*
X168312500Y-77187500D02*
X168312500Y-76037500D01*
G75*
G02*
X168412500Y-75937500I100000J0D01*
G01*
X168612500Y-75937500D01*
G75*
G02*
X168712500Y-76037500I0J-100000D01*
G01*
X168712500Y-77187500D01*
G75*
G02*
X168612500Y-77287500I-100000J0D01*
G01*
X168412500Y-77287500D01*
G75*
G02*
X168312500Y-77187500I0J100000D01*
G01*
G37*
G36*
G01*
X167812500Y-75037500D02*
X167812500Y-73887500D01*
G75*
G02*
X167912500Y-73787500I100000J0D01*
G01*
X168112500Y-73787500D01*
G75*
G02*
X168212500Y-73887500I0J-100000D01*
G01*
X168212500Y-75037500D01*
G75*
G02*
X168112500Y-75137500I-100000J0D01*
G01*
X167912500Y-75137500D01*
G75*
G02*
X167812500Y-75037500I0J100000D01*
G01*
G37*
G36*
G01*
X167312500Y-77187500D02*
X167312500Y-76037500D01*
G75*
G02*
X167412500Y-75937500I100000J0D01*
G01*
X167612500Y-75937500D01*
G75*
G02*
X167712500Y-76037500I0J-100000D01*
G01*
X167712500Y-77187500D01*
G75*
G02*
X167612500Y-77287500I-100000J0D01*
G01*
X167412500Y-77287500D01*
G75*
G02*
X167312500Y-77187500I0J100000D01*
G01*
G37*
G36*
G01*
X166812500Y-75037500D02*
X166812500Y-73887500D01*
G75*
G02*
X166912500Y-73787500I100000J0D01*
G01*
X167112500Y-73787500D01*
G75*
G02*
X167212500Y-73887500I0J-100000D01*
G01*
X167212500Y-75037500D01*
G75*
G02*
X167112500Y-75137500I-100000J0D01*
G01*
X166912500Y-75137500D01*
G75*
G02*
X166812500Y-75037500I0J100000D01*
G01*
G37*
G36*
G01*
X166312500Y-77187500D02*
X166312500Y-76037500D01*
G75*
G02*
X166412500Y-75937500I100000J0D01*
G01*
X166612500Y-75937500D01*
G75*
G02*
X166712500Y-76037500I0J-100000D01*
G01*
X166712500Y-77187500D01*
G75*
G02*
X166612500Y-77287500I-100000J0D01*
G01*
X166412500Y-77287500D01*
G75*
G02*
X166312500Y-77187500I0J100000D01*
G01*
G37*
G36*
G01*
X165812500Y-75037500D02*
X165812500Y-73887500D01*
G75*
G02*
X165912500Y-73787500I100000J0D01*
G01*
X166112500Y-73787500D01*
G75*
G02*
X166212500Y-73887500I0J-100000D01*
G01*
X166212500Y-75037500D01*
G75*
G02*
X166112500Y-75137500I-100000J0D01*
G01*
X165912500Y-75137500D01*
G75*
G02*
X165812500Y-75037500I0J100000D01*
G01*
G37*
G36*
G01*
X165312500Y-77187500D02*
X165312500Y-76037500D01*
G75*
G02*
X165412500Y-75937500I100000J0D01*
G01*
X165612500Y-75937500D01*
G75*
G02*
X165712500Y-76037500I0J-100000D01*
G01*
X165712500Y-77187500D01*
G75*
G02*
X165612500Y-77287500I-100000J0D01*
G01*
X165412500Y-77287500D01*
G75*
G02*
X165312500Y-77187500I0J100000D01*
G01*
G37*
G36*
G01*
X164812500Y-75037500D02*
X164812500Y-73887500D01*
G75*
G02*
X164912500Y-73787500I100000J0D01*
G01*
X165112500Y-73787500D01*
G75*
G02*
X165212500Y-73887500I0J-100000D01*
G01*
X165212500Y-75037500D01*
G75*
G02*
X165112500Y-75137500I-100000J0D01*
G01*
X164912500Y-75137500D01*
G75*
G02*
X164812500Y-75037500I0J100000D01*
G01*
G37*
G36*
G01*
X164312500Y-77187500D02*
X164312500Y-76037500D01*
G75*
G02*
X164412500Y-75937500I100000J0D01*
G01*
X164612500Y-75937500D01*
G75*
G02*
X164712500Y-76037500I0J-100000D01*
G01*
X164712500Y-77187500D01*
G75*
G02*
X164612500Y-77287500I-100000J0D01*
G01*
X164412500Y-77287500D01*
G75*
G02*
X164312500Y-77187500I0J100000D01*
G01*
G37*
G36*
G01*
X163812500Y-75037500D02*
X163812500Y-73887500D01*
G75*
G02*
X163912500Y-73787500I100000J0D01*
G01*
X164112500Y-73787500D01*
G75*
G02*
X164212500Y-73887500I0J-100000D01*
G01*
X164212500Y-75037500D01*
G75*
G02*
X164112500Y-75137500I-100000J0D01*
G01*
X163912500Y-75137500D01*
G75*
G02*
X163812500Y-75037500I0J100000D01*
G01*
G37*
G36*
G01*
X163312500Y-77187500D02*
X163312500Y-76037500D01*
G75*
G02*
X163412500Y-75937500I100000J0D01*
G01*
X163612500Y-75937500D01*
G75*
G02*
X163712500Y-76037500I0J-100000D01*
G01*
X163712500Y-77187500D01*
G75*
G02*
X163612500Y-77287500I-100000J0D01*
G01*
X163412500Y-77287500D01*
G75*
G02*
X163312500Y-77187500I0J100000D01*
G01*
G37*
G36*
G01*
X162812500Y-75037500D02*
X162812500Y-73887500D01*
G75*
G02*
X162912500Y-73787500I100000J0D01*
G01*
X163112500Y-73787500D01*
G75*
G02*
X163212500Y-73887500I0J-100000D01*
G01*
X163212500Y-75037500D01*
G75*
G02*
X163112500Y-75137500I-100000J0D01*
G01*
X162912500Y-75137500D01*
G75*
G02*
X162812500Y-75037500I0J100000D01*
G01*
G37*
G36*
G01*
X162312500Y-77187500D02*
X162312500Y-76037500D01*
G75*
G02*
X162412500Y-75937500I100000J0D01*
G01*
X162612500Y-75937500D01*
G75*
G02*
X162712500Y-76037500I0J-100000D01*
G01*
X162712500Y-77187500D01*
G75*
G02*
X162612500Y-77287500I-100000J0D01*
G01*
X162412500Y-77287500D01*
G75*
G02*
X162312500Y-77187500I0J100000D01*
G01*
G37*
G36*
G01*
X161812500Y-75037500D02*
X161812500Y-73887500D01*
G75*
G02*
X161912500Y-73787500I100000J0D01*
G01*
X162112500Y-73787500D01*
G75*
G02*
X162212500Y-73887500I0J-100000D01*
G01*
X162212500Y-75037500D01*
G75*
G02*
X162112500Y-75137500I-100000J0D01*
G01*
X161912500Y-75137500D01*
G75*
G02*
X161812500Y-75037500I0J100000D01*
G01*
G37*
G36*
G01*
X161312500Y-77187500D02*
X161312500Y-76037500D01*
G75*
G02*
X161412500Y-75937500I100000J0D01*
G01*
X161612500Y-75937500D01*
G75*
G02*
X161712500Y-76037500I0J-100000D01*
G01*
X161712500Y-77187500D01*
G75*
G02*
X161612500Y-77287500I-100000J0D01*
G01*
X161412500Y-77287500D01*
G75*
G02*
X161312500Y-77187500I0J100000D01*
G01*
G37*
G36*
G01*
X160812500Y-75037500D02*
X160812500Y-73887500D01*
G75*
G02*
X160912500Y-73787500I100000J0D01*
G01*
X161112500Y-73787500D01*
G75*
G02*
X161212500Y-73887500I0J-100000D01*
G01*
X161212500Y-75037500D01*
G75*
G02*
X161112500Y-75137500I-100000J0D01*
G01*
X160912500Y-75137500D01*
G75*
G02*
X160812500Y-75037500I0J100000D01*
G01*
G37*
G36*
G01*
X160312500Y-77187500D02*
X160312500Y-76037500D01*
G75*
G02*
X160412500Y-75937500I100000J0D01*
G01*
X160612500Y-75937500D01*
G75*
G02*
X160712500Y-76037500I0J-100000D01*
G01*
X160712500Y-77187500D01*
G75*
G02*
X160612500Y-77287500I-100000J0D01*
G01*
X160412500Y-77287500D01*
G75*
G02*
X160312500Y-77187500I0J100000D01*
G01*
G37*
G36*
G01*
X159812500Y-75037500D02*
X159812500Y-73887500D01*
G75*
G02*
X159912500Y-73787500I100000J0D01*
G01*
X160112500Y-73787500D01*
G75*
G02*
X160212500Y-73887500I0J-100000D01*
G01*
X160212500Y-75037500D01*
G75*
G02*
X160112500Y-75137500I-100000J0D01*
G01*
X159912500Y-75137500D01*
G75*
G02*
X159812500Y-75037500I0J100000D01*
G01*
G37*
G36*
G01*
X159312500Y-77187500D02*
X159312500Y-76037500D01*
G75*
G02*
X159412500Y-75937500I100000J0D01*
G01*
X159612500Y-75937500D01*
G75*
G02*
X159712500Y-76037500I0J-100000D01*
G01*
X159712500Y-77187500D01*
G75*
G02*
X159612500Y-77287500I-100000J0D01*
G01*
X159412500Y-77287500D01*
G75*
G02*
X159312500Y-77187500I0J100000D01*
G01*
G37*
G36*
G01*
X158812500Y-75037500D02*
X158812500Y-73887500D01*
G75*
G02*
X158912500Y-73787500I100000J0D01*
G01*
X159112500Y-73787500D01*
G75*
G02*
X159212500Y-73887500I0J-100000D01*
G01*
X159212500Y-75037500D01*
G75*
G02*
X159112500Y-75137500I-100000J0D01*
G01*
X158912500Y-75137500D01*
G75*
G02*
X158812500Y-75037500I0J100000D01*
G01*
G37*
G36*
G01*
X158312500Y-77187500D02*
X158312500Y-76037500D01*
G75*
G02*
X158412500Y-75937500I100000J0D01*
G01*
X158612500Y-75937500D01*
G75*
G02*
X158712500Y-76037500I0J-100000D01*
G01*
X158712500Y-77187500D01*
G75*
G02*
X158612500Y-77287500I-100000J0D01*
G01*
X158412500Y-77287500D01*
G75*
G02*
X158312500Y-77187500I0J100000D01*
G01*
G37*
G36*
G01*
X157812500Y-75037500D02*
X157812500Y-73887500D01*
G75*
G02*
X157912500Y-73787500I100000J0D01*
G01*
X158112500Y-73787500D01*
G75*
G02*
X158212500Y-73887500I0J-100000D01*
G01*
X158212500Y-75037500D01*
G75*
G02*
X158112500Y-75137500I-100000J0D01*
G01*
X157912500Y-75137500D01*
G75*
G02*
X157812500Y-75037500I0J100000D01*
G01*
G37*
G36*
G01*
X157312500Y-77187500D02*
X157312500Y-76037500D01*
G75*
G02*
X157412500Y-75937500I100000J0D01*
G01*
X157612500Y-75937500D01*
G75*
G02*
X157712500Y-76037500I0J-100000D01*
G01*
X157712500Y-77187500D01*
G75*
G02*
X157612500Y-77287500I-100000J0D01*
G01*
X157412500Y-77287500D01*
G75*
G02*
X157312500Y-77187500I0J100000D01*
G01*
G37*
G36*
G01*
X169462500Y-76497500D02*
X169462500Y-74577500D01*
G75*
G02*
X169702500Y-74337500I240000J0D01*
G01*
X171622500Y-74337500D01*
G75*
G02*
X171862500Y-74577500I0J-240000D01*
G01*
X171862500Y-76497500D01*
G75*
G02*
X171622500Y-76737500I-240000J0D01*
G01*
X169702500Y-76737500D01*
G75*
G02*
X169462500Y-76497500I0J240000D01*
G01*
G37*
G36*
G01*
X154662500Y-76497500D02*
X154662500Y-74577500D01*
G75*
G02*
X154902500Y-74337500I240000J0D01*
G01*
X156822500Y-74337500D01*
G75*
G02*
X157062500Y-74577500I0J-240000D01*
G01*
X157062500Y-76497500D01*
G75*
G02*
X156822500Y-76737500I-240000J0D01*
G01*
X154902500Y-76737500D01*
G75*
G02*
X154662500Y-76497500I0J240000D01*
G01*
G37*
X135762500Y-73537500D03*
G36*
G01*
X133737500Y-74222500D02*
X133737500Y-72852500D01*
G75*
G02*
X133927500Y-72662500I190000J0D01*
G01*
X134497500Y-72662500D01*
G75*
G02*
X134687500Y-72852500I0J-190000D01*
G01*
X134687500Y-74222500D01*
G75*
G02*
X134497500Y-74412500I-190000J0D01*
G01*
X133927500Y-74412500D01*
G75*
G02*
X133737500Y-74222500I0J190000D01*
G01*
G37*
G36*
G01*
X136837500Y-74222500D02*
X136837500Y-72852500D01*
G75*
G02*
X137027500Y-72662500I190000J0D01*
G01*
X137597500Y-72662500D01*
G75*
G02*
X137787500Y-72852500I0J-190000D01*
G01*
X137787500Y-74222500D01*
G75*
G02*
X137597500Y-74412500I-190000J0D01*
G01*
X137027500Y-74412500D01*
G75*
G02*
X136837500Y-74222500I0J190000D01*
G01*
G37*
X145762500Y-73537500D03*
G36*
G01*
X143737500Y-74222500D02*
X143737500Y-72852500D01*
G75*
G02*
X143927500Y-72662500I190000J0D01*
G01*
X144497500Y-72662500D01*
G75*
G02*
X144687500Y-72852500I0J-190000D01*
G01*
X144687500Y-74222500D01*
G75*
G02*
X144497500Y-74412500I-190000J0D01*
G01*
X143927500Y-74412500D01*
G75*
G02*
X143737500Y-74222500I0J190000D01*
G01*
G37*
G36*
G01*
X146837500Y-74222500D02*
X146837500Y-72852500D01*
G75*
G02*
X147027500Y-72662500I190000J0D01*
G01*
X147597500Y-72662500D01*
G75*
G02*
X147787500Y-72852500I0J-190000D01*
G01*
X147787500Y-74222500D01*
G75*
G02*
X147597500Y-74412500I-190000J0D01*
G01*
X147027500Y-74412500D01*
G75*
G02*
X146837500Y-74222500I0J190000D01*
G01*
G37*
D21*
X153262500Y-135037500D03*
D22*
X151565444Y-133340444D03*
X150862500Y-135037500D03*
X153262500Y-132637500D03*
X153262500Y-137437500D03*
X154959556Y-133340444D03*
X154959556Y-136734556D03*
X155662500Y-135037500D03*
X151565444Y-136734556D03*
D13*
X195762500Y-73537500D03*
G36*
G01*
X193737500Y-74222500D02*
X193737500Y-72852500D01*
G75*
G02*
X193927500Y-72662500I190000J0D01*
G01*
X194497500Y-72662500D01*
G75*
G02*
X194687500Y-72852500I0J-190000D01*
G01*
X194687500Y-74222500D01*
G75*
G02*
X194497500Y-74412500I-190000J0D01*
G01*
X193927500Y-74412500D01*
G75*
G02*
X193737500Y-74222500I0J190000D01*
G01*
G37*
G36*
G01*
X196837500Y-74222500D02*
X196837500Y-72852500D01*
G75*
G02*
X197027500Y-72662500I190000J0D01*
G01*
X197597500Y-72662500D01*
G75*
G02*
X197787500Y-72852500I0J-190000D01*
G01*
X197787500Y-74222500D01*
G75*
G02*
X197597500Y-74412500I-190000J0D01*
G01*
X197027500Y-74412500D01*
G75*
G02*
X196837500Y-74222500I0J190000D01*
G01*
G37*
G36*
G01*
X188200000Y-147750000D02*
X188200000Y-148650000D01*
G75*
G02*
X187950000Y-148900000I-250000J0D01*
G01*
X187250000Y-148900000D01*
G75*
G02*
X187000000Y-148650000I0J250000D01*
G01*
X187000000Y-147750000D01*
G75*
G02*
X187250000Y-147500000I250000J0D01*
G01*
X187950000Y-147500000D01*
G75*
G02*
X188200000Y-147750000I0J-250000D01*
G01*
G37*
G36*
G01*
X186200000Y-147750000D02*
X186200000Y-148650000D01*
G75*
G02*
X185950000Y-148900000I-250000J0D01*
G01*
X185250000Y-148900000D01*
G75*
G02*
X185000000Y-148650000I0J250000D01*
G01*
X185000000Y-147750000D01*
G75*
G02*
X185250000Y-147500000I250000J0D01*
G01*
X185950000Y-147500000D01*
G75*
G02*
X186200000Y-147750000I0J-250000D01*
G01*
G37*
G36*
G01*
X189000000Y-146600000D02*
X189000000Y-146300000D01*
G75*
G02*
X189150000Y-146150000I150000J0D01*
G01*
X190175000Y-146150000D01*
G75*
G02*
X190325000Y-146300000I0J-150000D01*
G01*
X190325000Y-146600000D01*
G75*
G02*
X190175000Y-146750000I-150000J0D01*
G01*
X189150000Y-146750000D01*
G75*
G02*
X189000000Y-146600000I0J150000D01*
G01*
G37*
G36*
G01*
X189000000Y-147550000D02*
X189000000Y-147250000D01*
G75*
G02*
X189150000Y-147100000I150000J0D01*
G01*
X190175000Y-147100000D01*
G75*
G02*
X190325000Y-147250000I0J-150000D01*
G01*
X190325000Y-147550000D01*
G75*
G02*
X190175000Y-147700000I-150000J0D01*
G01*
X189150000Y-147700000D01*
G75*
G02*
X189000000Y-147550000I0J150000D01*
G01*
G37*
G36*
G01*
X189000000Y-148500000D02*
X189000000Y-148200000D01*
G75*
G02*
X189150000Y-148050000I150000J0D01*
G01*
X190175000Y-148050000D01*
G75*
G02*
X190325000Y-148200000I0J-150000D01*
G01*
X190325000Y-148500000D01*
G75*
G02*
X190175000Y-148650000I-150000J0D01*
G01*
X189150000Y-148650000D01*
G75*
G02*
X189000000Y-148500000I0J150000D01*
G01*
G37*
G36*
G01*
X191275000Y-148500000D02*
X191275000Y-148200000D01*
G75*
G02*
X191425000Y-148050000I150000J0D01*
G01*
X192450000Y-148050000D01*
G75*
G02*
X192600000Y-148200000I0J-150000D01*
G01*
X192600000Y-148500000D01*
G75*
G02*
X192450000Y-148650000I-150000J0D01*
G01*
X191425000Y-148650000D01*
G75*
G02*
X191275000Y-148500000I0J150000D01*
G01*
G37*
G36*
G01*
X191275000Y-147550000D02*
X191275000Y-147250000D01*
G75*
G02*
X191425000Y-147100000I150000J0D01*
G01*
X192450000Y-147100000D01*
G75*
G02*
X192600000Y-147250000I0J-150000D01*
G01*
X192600000Y-147550000D01*
G75*
G02*
X192450000Y-147700000I-150000J0D01*
G01*
X191425000Y-147700000D01*
G75*
G02*
X191275000Y-147550000I0J150000D01*
G01*
G37*
G36*
G01*
X191275000Y-146600000D02*
X191275000Y-146300000D01*
G75*
G02*
X191425000Y-146150000I150000J0D01*
G01*
X192450000Y-146150000D01*
G75*
G02*
X192600000Y-146300000I0J-150000D01*
G01*
X192600000Y-146600000D01*
G75*
G02*
X192450000Y-146750000I-150000J0D01*
G01*
X191425000Y-146750000D01*
G75*
G02*
X191275000Y-146600000I0J150000D01*
G01*
G37*
G36*
G01*
X143287500Y-128325000D02*
X143287500Y-129275000D01*
G75*
G02*
X143037500Y-129525000I-250000J0D01*
G01*
X142362500Y-129525000D01*
G75*
G02*
X142112500Y-129275000I0J250000D01*
G01*
X142112500Y-128325000D01*
G75*
G02*
X142362500Y-128075000I250000J0D01*
G01*
X143037500Y-128075000D01*
G75*
G02*
X143287500Y-128325000I0J-250000D01*
G01*
G37*
G36*
G01*
X141212500Y-128325000D02*
X141212500Y-129275000D01*
G75*
G02*
X140962500Y-129525000I-250000J0D01*
G01*
X140287500Y-129525000D01*
G75*
G02*
X140037500Y-129275000I0J250000D01*
G01*
X140037500Y-128325000D01*
G75*
G02*
X140287500Y-128075000I250000J0D01*
G01*
X140962500Y-128075000D01*
G75*
G02*
X141212500Y-128325000I0J-250000D01*
G01*
G37*
D12*
X205762500Y-112537500D03*
G36*
G01*
X133575000Y-121475000D02*
X133575000Y-120525000D01*
G75*
G02*
X133825000Y-120275000I250000J0D01*
G01*
X134500000Y-120275000D01*
G75*
G02*
X134750000Y-120525000I0J-250000D01*
G01*
X134750000Y-121475000D01*
G75*
G02*
X134500000Y-121725000I-250000J0D01*
G01*
X133825000Y-121725000D01*
G75*
G02*
X133575000Y-121475000I0J250000D01*
G01*
G37*
G36*
G01*
X135650000Y-121475000D02*
X135650000Y-120525000D01*
G75*
G02*
X135900000Y-120275000I250000J0D01*
G01*
X136575000Y-120275000D01*
G75*
G02*
X136825000Y-120525000I0J-250000D01*
G01*
X136825000Y-121475000D01*
G75*
G02*
X136575000Y-121725000I-250000J0D01*
G01*
X135900000Y-121725000D01*
G75*
G02*
X135650000Y-121475000I0J250000D01*
G01*
G37*
G36*
G01*
X198712500Y-126837500D02*
X197812500Y-126837500D01*
G75*
G02*
X197562500Y-126587500I0J250000D01*
G01*
X197562500Y-125887500D01*
G75*
G02*
X197812500Y-125637500I250000J0D01*
G01*
X198712500Y-125637500D01*
G75*
G02*
X198962500Y-125887500I0J-250000D01*
G01*
X198962500Y-126587500D01*
G75*
G02*
X198712500Y-126837500I-250000J0D01*
G01*
G37*
G36*
G01*
X198712500Y-124837500D02*
X197812500Y-124837500D01*
G75*
G02*
X197562500Y-124587500I0J250000D01*
G01*
X197562500Y-123887500D01*
G75*
G02*
X197812500Y-123637500I250000J0D01*
G01*
X198712500Y-123637500D01*
G75*
G02*
X198962500Y-123887500I0J-250000D01*
G01*
X198962500Y-124587500D01*
G75*
G02*
X198712500Y-124837500I-250000J0D01*
G01*
G37*
D14*
X200412500Y-145937500D03*
X203712500Y-145937500D03*
G36*
G01*
X150600000Y-117950000D02*
X150600000Y-118850000D01*
G75*
G02*
X150350000Y-119100000I-250000J0D01*
G01*
X149650000Y-119100000D01*
G75*
G02*
X149400000Y-118850000I0J250000D01*
G01*
X149400000Y-117950000D01*
G75*
G02*
X149650000Y-117700000I250000J0D01*
G01*
X150350000Y-117700000D01*
G75*
G02*
X150600000Y-117950000I0J-250000D01*
G01*
G37*
G36*
G01*
X148600000Y-117950000D02*
X148600000Y-118850000D01*
G75*
G02*
X148350000Y-119100000I-250000J0D01*
G01*
X147650000Y-119100000D01*
G75*
G02*
X147400000Y-118850000I0J250000D01*
G01*
X147400000Y-117950000D01*
G75*
G02*
X147650000Y-117700000I250000J0D01*
G01*
X148350000Y-117700000D01*
G75*
G02*
X148600000Y-117950000I0J-250000D01*
G01*
G37*
G36*
G01*
X185950000Y-141600000D02*
X186850000Y-141600000D01*
G75*
G02*
X187100000Y-141850000I0J-250000D01*
G01*
X187100000Y-142550000D01*
G75*
G02*
X186850000Y-142800000I-250000J0D01*
G01*
X185950000Y-142800000D01*
G75*
G02*
X185700000Y-142550000I0J250000D01*
G01*
X185700000Y-141850000D01*
G75*
G02*
X185950000Y-141600000I250000J0D01*
G01*
G37*
G36*
G01*
X185950000Y-143600000D02*
X186850000Y-143600000D01*
G75*
G02*
X187100000Y-143850000I0J-250000D01*
G01*
X187100000Y-144550000D01*
G75*
G02*
X186850000Y-144800000I-250000J0D01*
G01*
X185950000Y-144800000D01*
G75*
G02*
X185700000Y-144550000I0J250000D01*
G01*
X185700000Y-143850000D01*
G75*
G02*
X185950000Y-143600000I250000J0D01*
G01*
G37*
D23*
X205862500Y-146787500D03*
X205862500Y-143487500D03*
G36*
G01*
X191287500Y-118782500D02*
X191287500Y-118482500D01*
G75*
G02*
X191437500Y-118332500I150000J0D01*
G01*
X193087500Y-118332500D01*
G75*
G02*
X193237500Y-118482500I0J-150000D01*
G01*
X193237500Y-118782500D01*
G75*
G02*
X193087500Y-118932500I-150000J0D01*
G01*
X191437500Y-118932500D01*
G75*
G02*
X191287500Y-118782500I0J150000D01*
G01*
G37*
G36*
G01*
X191287500Y-120052500D02*
X191287500Y-119752500D01*
G75*
G02*
X191437500Y-119602500I150000J0D01*
G01*
X193087500Y-119602500D01*
G75*
G02*
X193237500Y-119752500I0J-150000D01*
G01*
X193237500Y-120052500D01*
G75*
G02*
X193087500Y-120202500I-150000J0D01*
G01*
X191437500Y-120202500D01*
G75*
G02*
X191287500Y-120052500I0J150000D01*
G01*
G37*
G36*
G01*
X191287500Y-121322500D02*
X191287500Y-121022500D01*
G75*
G02*
X191437500Y-120872500I150000J0D01*
G01*
X193087500Y-120872500D01*
G75*
G02*
X193237500Y-121022500I0J-150000D01*
G01*
X193237500Y-121322500D01*
G75*
G02*
X193087500Y-121472500I-150000J0D01*
G01*
X191437500Y-121472500D01*
G75*
G02*
X191287500Y-121322500I0J150000D01*
G01*
G37*
G36*
G01*
X191287500Y-122592500D02*
X191287500Y-122292500D01*
G75*
G02*
X191437500Y-122142500I150000J0D01*
G01*
X193087500Y-122142500D01*
G75*
G02*
X193237500Y-122292500I0J-150000D01*
G01*
X193237500Y-122592500D01*
G75*
G02*
X193087500Y-122742500I-150000J0D01*
G01*
X191437500Y-122742500D01*
G75*
G02*
X191287500Y-122592500I0J150000D01*
G01*
G37*
G36*
G01*
X196237500Y-122592500D02*
X196237500Y-122292500D01*
G75*
G02*
X196387500Y-122142500I150000J0D01*
G01*
X198037500Y-122142500D01*
G75*
G02*
X198187500Y-122292500I0J-150000D01*
G01*
X198187500Y-122592500D01*
G75*
G02*
X198037500Y-122742500I-150000J0D01*
G01*
X196387500Y-122742500D01*
G75*
G02*
X196237500Y-122592500I0J150000D01*
G01*
G37*
G36*
G01*
X196237500Y-121322500D02*
X196237500Y-121022500D01*
G75*
G02*
X196387500Y-120872500I150000J0D01*
G01*
X198037500Y-120872500D01*
G75*
G02*
X198187500Y-121022500I0J-150000D01*
G01*
X198187500Y-121322500D01*
G75*
G02*
X198037500Y-121472500I-150000J0D01*
G01*
X196387500Y-121472500D01*
G75*
G02*
X196237500Y-121322500I0J150000D01*
G01*
G37*
G36*
G01*
X196237500Y-120052500D02*
X196237500Y-119752500D01*
G75*
G02*
X196387500Y-119602500I150000J0D01*
G01*
X198037500Y-119602500D01*
G75*
G02*
X198187500Y-119752500I0J-150000D01*
G01*
X198187500Y-120052500D01*
G75*
G02*
X198037500Y-120202500I-150000J0D01*
G01*
X196387500Y-120202500D01*
G75*
G02*
X196237500Y-120052500I0J150000D01*
G01*
G37*
G36*
G01*
X196237500Y-118782500D02*
X196237500Y-118482500D01*
G75*
G02*
X196387500Y-118332500I150000J0D01*
G01*
X198037500Y-118332500D01*
G75*
G02*
X198187500Y-118482500I0J-150000D01*
G01*
X198187500Y-118782500D01*
G75*
G02*
X198037500Y-118932500I-150000J0D01*
G01*
X196387500Y-118932500D01*
G75*
G02*
X196237500Y-118782500I0J150000D01*
G01*
G37*
G36*
G01*
X148362500Y-75587500D02*
X148362500Y-76487500D01*
G75*
G02*
X148112500Y-76737500I-250000J0D01*
G01*
X147412500Y-76737500D01*
G75*
G02*
X147162500Y-76487500I0J250000D01*
G01*
X147162500Y-75587500D01*
G75*
G02*
X147412500Y-75337500I250000J0D01*
G01*
X148112500Y-75337500D01*
G75*
G02*
X148362500Y-75587500I0J-250000D01*
G01*
G37*
G36*
G01*
X146362500Y-75587500D02*
X146362500Y-76487500D01*
G75*
G02*
X146112500Y-76737500I-250000J0D01*
G01*
X145412500Y-76737500D01*
G75*
G02*
X145162500Y-76487500I0J250000D01*
G01*
X145162500Y-75587500D01*
G75*
G02*
X145412500Y-75337500I250000J0D01*
G01*
X146112500Y-75337500D01*
G75*
G02*
X146362500Y-75587500I0J-250000D01*
G01*
G37*
G36*
G01*
X153057500Y-119230000D02*
X153057500Y-120270000D01*
G75*
G02*
X152927500Y-120400000I-130000J0D01*
G01*
X151637500Y-120400000D01*
G75*
G02*
X151507500Y-120270000I0J130000D01*
G01*
X151507500Y-119230000D01*
G75*
G02*
X151637500Y-119100000I130000J0D01*
G01*
X152927500Y-119100000D01*
G75*
G02*
X153057500Y-119230000I0J-130000D01*
G01*
G37*
G36*
G01*
X161017500Y-119230000D02*
X161017500Y-120270000D01*
G75*
G02*
X160887500Y-120400000I-130000J0D01*
G01*
X159597500Y-120400000D01*
G75*
G02*
X159467500Y-120270000I0J130000D01*
G01*
X159467500Y-119230000D01*
G75*
G02*
X159597500Y-119100000I130000J0D01*
G01*
X160887500Y-119100000D01*
G75*
G02*
X161017500Y-119230000I0J-130000D01*
G01*
G37*
G36*
G01*
X161017500Y-114730000D02*
X161017500Y-115770000D01*
G75*
G02*
X160887500Y-115900000I-130000J0D01*
G01*
X159597500Y-115900000D01*
G75*
G02*
X159467500Y-115770000I0J130000D01*
G01*
X159467500Y-114730000D01*
G75*
G02*
X159597500Y-114600000I130000J0D01*
G01*
X160887500Y-114600000D01*
G75*
G02*
X161017500Y-114730000I0J-130000D01*
G01*
G37*
G36*
G01*
X153057500Y-114730000D02*
X153057500Y-115770000D01*
G75*
G02*
X152927500Y-115900000I-130000J0D01*
G01*
X151637500Y-115900000D01*
G75*
G02*
X151507500Y-115770000I0J130000D01*
G01*
X151507500Y-114730000D01*
G75*
G02*
X151637500Y-114600000I130000J0D01*
G01*
X152927500Y-114600000D01*
G75*
G02*
X153057500Y-114730000I0J-130000D01*
G01*
G37*
D22*
X183262500Y-137437500D03*
X181565444Y-133340444D03*
X180862500Y-135037500D03*
X183262500Y-132637500D03*
X185662500Y-135037500D03*
X184959556Y-133340444D03*
X184959556Y-136734556D03*
X181565444Y-136734556D03*
D21*
X183262500Y-135037500D03*
G36*
G01*
X137325000Y-116375000D02*
X138275000Y-116375000D01*
G75*
G02*
X138525000Y-116625000I0J-250000D01*
G01*
X138525000Y-117300000D01*
G75*
G02*
X138275000Y-117550000I-250000J0D01*
G01*
X137325000Y-117550000D01*
G75*
G02*
X137075000Y-117300000I0J250000D01*
G01*
X137075000Y-116625000D01*
G75*
G02*
X137325000Y-116375000I250000J0D01*
G01*
G37*
G36*
G01*
X137325000Y-118450000D02*
X138275000Y-118450000D01*
G75*
G02*
X138525000Y-118700000I0J-250000D01*
G01*
X138525000Y-119375000D01*
G75*
G02*
X138275000Y-119625000I-250000J0D01*
G01*
X137325000Y-119625000D01*
G75*
G02*
X137075000Y-119375000I0J250000D01*
G01*
X137075000Y-118700000D01*
G75*
G02*
X137325000Y-118450000I250000J0D01*
G01*
G37*
G36*
G01*
X188737500Y-124787500D02*
X188737500Y-123887500D01*
G75*
G02*
X188987500Y-123637500I250000J0D01*
G01*
X189687500Y-123637500D01*
G75*
G02*
X189937500Y-123887500I0J-250000D01*
G01*
X189937500Y-124787500D01*
G75*
G02*
X189687500Y-125037500I-250000J0D01*
G01*
X188987500Y-125037500D01*
G75*
G02*
X188737500Y-124787500I0J250000D01*
G01*
G37*
G36*
G01*
X190737500Y-124787500D02*
X190737500Y-123887500D01*
G75*
G02*
X190987500Y-123637500I250000J0D01*
G01*
X191687500Y-123637500D01*
G75*
G02*
X191937500Y-123887500I0J-250000D01*
G01*
X191937500Y-124787500D01*
G75*
G02*
X191687500Y-125037500I-250000J0D01*
G01*
X190987500Y-125037500D01*
G75*
G02*
X190737500Y-124787500I0J250000D01*
G01*
G37*
D12*
X130762500Y-112537500D03*
D13*
X130762500Y-73537500D03*
G36*
G01*
X128737500Y-74222500D02*
X128737500Y-72852500D01*
G75*
G02*
X128927500Y-72662500I190000J0D01*
G01*
X129497500Y-72662500D01*
G75*
G02*
X129687500Y-72852500I0J-190000D01*
G01*
X129687500Y-74222500D01*
G75*
G02*
X129497500Y-74412500I-190000J0D01*
G01*
X128927500Y-74412500D01*
G75*
G02*
X128737500Y-74222500I0J190000D01*
G01*
G37*
G36*
G01*
X131837500Y-74222500D02*
X131837500Y-72852500D01*
G75*
G02*
X132027500Y-72662500I190000J0D01*
G01*
X132597500Y-72662500D01*
G75*
G02*
X132787500Y-72852500I0J-190000D01*
G01*
X132787500Y-74222500D01*
G75*
G02*
X132597500Y-74412500I-190000J0D01*
G01*
X132027500Y-74412500D01*
G75*
G02*
X131837500Y-74222500I0J190000D01*
G01*
G37*
D23*
X187137500Y-118187500D03*
X187137500Y-121487500D03*
G36*
G01*
X185017500Y-119230000D02*
X185017500Y-120270000D01*
G75*
G02*
X184887500Y-120400000I-130000J0D01*
G01*
X183597500Y-120400000D01*
G75*
G02*
X183467500Y-120270000I0J130000D01*
G01*
X183467500Y-119230000D01*
G75*
G02*
X183597500Y-119100000I130000J0D01*
G01*
X184887500Y-119100000D01*
G75*
G02*
X185017500Y-119230000I0J-130000D01*
G01*
G37*
G36*
G01*
X177057500Y-119230000D02*
X177057500Y-120270000D01*
G75*
G02*
X176927500Y-120400000I-130000J0D01*
G01*
X175637500Y-120400000D01*
G75*
G02*
X175507500Y-120270000I0J130000D01*
G01*
X175507500Y-119230000D01*
G75*
G02*
X175637500Y-119100000I130000J0D01*
G01*
X176927500Y-119100000D01*
G75*
G02*
X177057500Y-119230000I0J-130000D01*
G01*
G37*
G36*
G01*
X177057500Y-114730000D02*
X177057500Y-115770000D01*
G75*
G02*
X176927500Y-115900000I-130000J0D01*
G01*
X175637500Y-115900000D01*
G75*
G02*
X175507500Y-115770000I0J130000D01*
G01*
X175507500Y-114730000D01*
G75*
G02*
X175637500Y-114600000I130000J0D01*
G01*
X176927500Y-114600000D01*
G75*
G02*
X177057500Y-114730000I0J-130000D01*
G01*
G37*
G36*
G01*
X185017500Y-114730000D02*
X185017500Y-115770000D01*
G75*
G02*
X184887500Y-115900000I-130000J0D01*
G01*
X183597500Y-115900000D01*
G75*
G02*
X183467500Y-115770000I0J130000D01*
G01*
X183467500Y-114730000D01*
G75*
G02*
X183597500Y-114600000I130000J0D01*
G01*
X184887500Y-114600000D01*
G75*
G02*
X185017500Y-114730000I0J-130000D01*
G01*
G37*
G36*
G01*
X187987500Y-82862500D02*
X188937500Y-82862500D01*
G75*
G02*
X189187500Y-83112500I0J-250000D01*
G01*
X189187500Y-83787500D01*
G75*
G02*
X188937500Y-84037500I-250000J0D01*
G01*
X187987500Y-84037500D01*
G75*
G02*
X187737500Y-83787500I0J250000D01*
G01*
X187737500Y-83112500D01*
G75*
G02*
X187987500Y-82862500I250000J0D01*
G01*
G37*
G36*
G01*
X187987500Y-84937500D02*
X188937500Y-84937500D01*
G75*
G02*
X189187500Y-85187500I0J-250000D01*
G01*
X189187500Y-85862500D01*
G75*
G02*
X188937500Y-86112500I-250000J0D01*
G01*
X187987500Y-86112500D01*
G75*
G02*
X187737500Y-85862500I0J250000D01*
G01*
X187737500Y-85187500D01*
G75*
G02*
X187987500Y-84937500I250000J0D01*
G01*
G37*
G36*
G01*
X137637500Y-105112500D02*
X137637500Y-104162500D01*
G75*
G02*
X137887500Y-103912500I250000J0D01*
G01*
X138562500Y-103912500D01*
G75*
G02*
X138812500Y-104162500I0J-250000D01*
G01*
X138812500Y-105112500D01*
G75*
G02*
X138562500Y-105362500I-250000J0D01*
G01*
X137887500Y-105362500D01*
G75*
G02*
X137637500Y-105112500I0J250000D01*
G01*
G37*
G36*
G01*
X139712500Y-105112500D02*
X139712500Y-104162500D01*
G75*
G02*
X139962500Y-103912500I250000J0D01*
G01*
X140637500Y-103912500D01*
G75*
G02*
X140887500Y-104162500I0J-250000D01*
G01*
X140887500Y-105112500D01*
G75*
G02*
X140637500Y-105362500I-250000J0D01*
G01*
X139962500Y-105362500D01*
G75*
G02*
X139712500Y-105112500I0J250000D01*
G01*
G37*
D19*
X153262500Y-90012500D03*
D20*
X153262500Y-90012500D03*
G36*
G01*
X179750000Y-138200000D02*
X180650000Y-138200000D01*
G75*
G02*
X180900000Y-138450000I0J-250000D01*
G01*
X180900000Y-139150000D01*
G75*
G02*
X180650000Y-139400000I-250000J0D01*
G01*
X179750000Y-139400000D01*
G75*
G02*
X179500000Y-139150000I0J250000D01*
G01*
X179500000Y-138450000D01*
G75*
G02*
X179750000Y-138200000I250000J0D01*
G01*
G37*
G36*
G01*
X179750000Y-140200000D02*
X180650000Y-140200000D01*
G75*
G02*
X180900000Y-140450000I0J-250000D01*
G01*
X180900000Y-141150000D01*
G75*
G02*
X180650000Y-141400000I-250000J0D01*
G01*
X179750000Y-141400000D01*
G75*
G02*
X179500000Y-141150000I0J250000D01*
G01*
X179500000Y-140450000D01*
G75*
G02*
X179750000Y-140200000I250000J0D01*
G01*
G37*
D14*
X193087500Y-116537500D03*
X196387500Y-116537500D03*
G36*
G01*
X194975000Y-146475000D02*
X194975000Y-145525000D01*
G75*
G02*
X195225000Y-145275000I250000J0D01*
G01*
X195900000Y-145275000D01*
G75*
G02*
X196150000Y-145525000I0J-250000D01*
G01*
X196150000Y-146475000D01*
G75*
G02*
X195900000Y-146725000I-250000J0D01*
G01*
X195225000Y-146725000D01*
G75*
G02*
X194975000Y-146475000I0J250000D01*
G01*
G37*
G36*
G01*
X197050000Y-146475000D02*
X197050000Y-145525000D01*
G75*
G02*
X197300000Y-145275000I250000J0D01*
G01*
X197975000Y-145275000D01*
G75*
G02*
X198225000Y-145525000I0J-250000D01*
G01*
X198225000Y-146475000D01*
G75*
G02*
X197975000Y-146725000I-250000J0D01*
G01*
X197300000Y-146725000D01*
G75*
G02*
X197050000Y-146475000I0J250000D01*
G01*
G37*
G36*
G01*
X141150000Y-122712500D02*
X141150000Y-122587500D01*
G75*
G02*
X141212500Y-122525000I62500J0D01*
G01*
X141837500Y-122525000D01*
G75*
G02*
X141900000Y-122587500I0J-62500D01*
G01*
X141900000Y-122712500D01*
G75*
G02*
X141837500Y-122775000I-62500J0D01*
G01*
X141212500Y-122775000D01*
G75*
G02*
X141150000Y-122712500I0J62500D01*
G01*
G37*
G36*
G01*
X141150000Y-123212500D02*
X141150000Y-123087500D01*
G75*
G02*
X141212500Y-123025000I62500J0D01*
G01*
X141837500Y-123025000D01*
G75*
G02*
X141900000Y-123087500I0J-62500D01*
G01*
X141900000Y-123212500D01*
G75*
G02*
X141837500Y-123275000I-62500J0D01*
G01*
X141212500Y-123275000D01*
G75*
G02*
X141150000Y-123212500I0J62500D01*
G01*
G37*
G36*
G01*
X141150000Y-123712500D02*
X141150000Y-123587500D01*
G75*
G02*
X141212500Y-123525000I62500J0D01*
G01*
X141837500Y-123525000D01*
G75*
G02*
X141900000Y-123587500I0J-62500D01*
G01*
X141900000Y-123712500D01*
G75*
G02*
X141837500Y-123775000I-62500J0D01*
G01*
X141212500Y-123775000D01*
G75*
G02*
X141150000Y-123712500I0J62500D01*
G01*
G37*
G36*
G01*
X141150000Y-124212500D02*
X141150000Y-124087500D01*
G75*
G02*
X141212500Y-124025000I62500J0D01*
G01*
X141837500Y-124025000D01*
G75*
G02*
X141900000Y-124087500I0J-62500D01*
G01*
X141900000Y-124212500D01*
G75*
G02*
X141837500Y-124275000I-62500J0D01*
G01*
X141212500Y-124275000D01*
G75*
G02*
X141150000Y-124212500I0J62500D01*
G01*
G37*
G36*
G01*
X141150000Y-124712500D02*
X141150000Y-124587500D01*
G75*
G02*
X141212500Y-124525000I62500J0D01*
G01*
X141837500Y-124525000D01*
G75*
G02*
X141900000Y-124587500I0J-62500D01*
G01*
X141900000Y-124712500D01*
G75*
G02*
X141837500Y-124775000I-62500J0D01*
G01*
X141212500Y-124775000D01*
G75*
G02*
X141150000Y-124712500I0J62500D01*
G01*
G37*
G36*
G01*
X141150000Y-125212500D02*
X141150000Y-125087500D01*
G75*
G02*
X141212500Y-125025000I62500J0D01*
G01*
X141837500Y-125025000D01*
G75*
G02*
X141900000Y-125087500I0J-62500D01*
G01*
X141900000Y-125212500D01*
G75*
G02*
X141837500Y-125275000I-62500J0D01*
G01*
X141212500Y-125275000D01*
G75*
G02*
X141150000Y-125212500I0J62500D01*
G01*
G37*
G36*
G01*
X141150000Y-125712500D02*
X141150000Y-125587500D01*
G75*
G02*
X141212500Y-125525000I62500J0D01*
G01*
X141837500Y-125525000D01*
G75*
G02*
X141900000Y-125587500I0J-62500D01*
G01*
X141900000Y-125712500D01*
G75*
G02*
X141837500Y-125775000I-62500J0D01*
G01*
X141212500Y-125775000D01*
G75*
G02*
X141150000Y-125712500I0J62500D01*
G01*
G37*
G36*
G01*
X141150000Y-126212500D02*
X141150000Y-126087500D01*
G75*
G02*
X141212500Y-126025000I62500J0D01*
G01*
X141837500Y-126025000D01*
G75*
G02*
X141900000Y-126087500I0J-62500D01*
G01*
X141900000Y-126212500D01*
G75*
G02*
X141837500Y-126275000I-62500J0D01*
G01*
X141212500Y-126275000D01*
G75*
G02*
X141150000Y-126212500I0J62500D01*
G01*
G37*
G36*
G01*
X142125000Y-127187500D02*
X142125000Y-126562500D01*
G75*
G02*
X142187500Y-126500000I62500J0D01*
G01*
X142312500Y-126500000D01*
G75*
G02*
X142375000Y-126562500I0J-62500D01*
G01*
X142375000Y-127187500D01*
G75*
G02*
X142312500Y-127250000I-62500J0D01*
G01*
X142187500Y-127250000D01*
G75*
G02*
X142125000Y-127187500I0J62500D01*
G01*
G37*
G36*
G01*
X142625000Y-127187500D02*
X142625000Y-126562500D01*
G75*
G02*
X142687500Y-126500000I62500J0D01*
G01*
X142812500Y-126500000D01*
G75*
G02*
X142875000Y-126562500I0J-62500D01*
G01*
X142875000Y-127187500D01*
G75*
G02*
X142812500Y-127250000I-62500J0D01*
G01*
X142687500Y-127250000D01*
G75*
G02*
X142625000Y-127187500I0J62500D01*
G01*
G37*
G36*
G01*
X143125000Y-127187500D02*
X143125000Y-126562500D01*
G75*
G02*
X143187500Y-126500000I62500J0D01*
G01*
X143312500Y-126500000D01*
G75*
G02*
X143375000Y-126562500I0J-62500D01*
G01*
X143375000Y-127187500D01*
G75*
G02*
X143312500Y-127250000I-62500J0D01*
G01*
X143187500Y-127250000D01*
G75*
G02*
X143125000Y-127187500I0J62500D01*
G01*
G37*
G36*
G01*
X143625000Y-127187500D02*
X143625000Y-126562500D01*
G75*
G02*
X143687500Y-126500000I62500J0D01*
G01*
X143812500Y-126500000D01*
G75*
G02*
X143875000Y-126562500I0J-62500D01*
G01*
X143875000Y-127187500D01*
G75*
G02*
X143812500Y-127250000I-62500J0D01*
G01*
X143687500Y-127250000D01*
G75*
G02*
X143625000Y-127187500I0J62500D01*
G01*
G37*
G36*
G01*
X144125000Y-127187500D02*
X144125000Y-126562500D01*
G75*
G02*
X144187500Y-126500000I62500J0D01*
G01*
X144312500Y-126500000D01*
G75*
G02*
X144375000Y-126562500I0J-62500D01*
G01*
X144375000Y-127187500D01*
G75*
G02*
X144312500Y-127250000I-62500J0D01*
G01*
X144187500Y-127250000D01*
G75*
G02*
X144125000Y-127187500I0J62500D01*
G01*
G37*
G36*
G01*
X144625000Y-127187500D02*
X144625000Y-126562500D01*
G75*
G02*
X144687500Y-126500000I62500J0D01*
G01*
X144812500Y-126500000D01*
G75*
G02*
X144875000Y-126562500I0J-62500D01*
G01*
X144875000Y-127187500D01*
G75*
G02*
X144812500Y-127250000I-62500J0D01*
G01*
X144687500Y-127250000D01*
G75*
G02*
X144625000Y-127187500I0J62500D01*
G01*
G37*
G36*
G01*
X145125000Y-127187500D02*
X145125000Y-126562500D01*
G75*
G02*
X145187500Y-126500000I62500J0D01*
G01*
X145312500Y-126500000D01*
G75*
G02*
X145375000Y-126562500I0J-62500D01*
G01*
X145375000Y-127187500D01*
G75*
G02*
X145312500Y-127250000I-62500J0D01*
G01*
X145187500Y-127250000D01*
G75*
G02*
X145125000Y-127187500I0J62500D01*
G01*
G37*
G36*
G01*
X145625000Y-127187500D02*
X145625000Y-126562500D01*
G75*
G02*
X145687500Y-126500000I62500J0D01*
G01*
X145812500Y-126500000D01*
G75*
G02*
X145875000Y-126562500I0J-62500D01*
G01*
X145875000Y-127187500D01*
G75*
G02*
X145812500Y-127250000I-62500J0D01*
G01*
X145687500Y-127250000D01*
G75*
G02*
X145625000Y-127187500I0J62500D01*
G01*
G37*
G36*
G01*
X146100000Y-126212500D02*
X146100000Y-126087500D01*
G75*
G02*
X146162500Y-126025000I62500J0D01*
G01*
X146787500Y-126025000D01*
G75*
G02*
X146850000Y-126087500I0J-62500D01*
G01*
X146850000Y-126212500D01*
G75*
G02*
X146787500Y-126275000I-62500J0D01*
G01*
X146162500Y-126275000D01*
G75*
G02*
X146100000Y-126212500I0J62500D01*
G01*
G37*
G36*
G01*
X146100000Y-125712500D02*
X146100000Y-125587500D01*
G75*
G02*
X146162500Y-125525000I62500J0D01*
G01*
X146787500Y-125525000D01*
G75*
G02*
X146850000Y-125587500I0J-62500D01*
G01*
X146850000Y-125712500D01*
G75*
G02*
X146787500Y-125775000I-62500J0D01*
G01*
X146162500Y-125775000D01*
G75*
G02*
X146100000Y-125712500I0J62500D01*
G01*
G37*
G36*
G01*
X146100000Y-125212500D02*
X146100000Y-125087500D01*
G75*
G02*
X146162500Y-125025000I62500J0D01*
G01*
X146787500Y-125025000D01*
G75*
G02*
X146850000Y-125087500I0J-62500D01*
G01*
X146850000Y-125212500D01*
G75*
G02*
X146787500Y-125275000I-62500J0D01*
G01*
X146162500Y-125275000D01*
G75*
G02*
X146100000Y-125212500I0J62500D01*
G01*
G37*
G36*
G01*
X146100000Y-124712500D02*
X146100000Y-124587500D01*
G75*
G02*
X146162500Y-124525000I62500J0D01*
G01*
X146787500Y-124525000D01*
G75*
G02*
X146850000Y-124587500I0J-62500D01*
G01*
X146850000Y-124712500D01*
G75*
G02*
X146787500Y-124775000I-62500J0D01*
G01*
X146162500Y-124775000D01*
G75*
G02*
X146100000Y-124712500I0J62500D01*
G01*
G37*
G36*
G01*
X146100000Y-124212500D02*
X146100000Y-124087500D01*
G75*
G02*
X146162500Y-124025000I62500J0D01*
G01*
X146787500Y-124025000D01*
G75*
G02*
X146850000Y-124087500I0J-62500D01*
G01*
X146850000Y-124212500D01*
G75*
G02*
X146787500Y-124275000I-62500J0D01*
G01*
X146162500Y-124275000D01*
G75*
G02*
X146100000Y-124212500I0J62500D01*
G01*
G37*
G36*
G01*
X146100000Y-123712500D02*
X146100000Y-123587500D01*
G75*
G02*
X146162500Y-123525000I62500J0D01*
G01*
X146787500Y-123525000D01*
G75*
G02*
X146850000Y-123587500I0J-62500D01*
G01*
X146850000Y-123712500D01*
G75*
G02*
X146787500Y-123775000I-62500J0D01*
G01*
X146162500Y-123775000D01*
G75*
G02*
X146100000Y-123712500I0J62500D01*
G01*
G37*
G36*
G01*
X146100000Y-123212500D02*
X146100000Y-123087500D01*
G75*
G02*
X146162500Y-123025000I62500J0D01*
G01*
X146787500Y-123025000D01*
G75*
G02*
X146850000Y-123087500I0J-62500D01*
G01*
X146850000Y-123212500D01*
G75*
G02*
X146787500Y-123275000I-62500J0D01*
G01*
X146162500Y-123275000D01*
G75*
G02*
X146100000Y-123212500I0J62500D01*
G01*
G37*
G36*
G01*
X146100000Y-122712500D02*
X146100000Y-122587500D01*
G75*
G02*
X146162500Y-122525000I62500J0D01*
G01*
X146787500Y-122525000D01*
G75*
G02*
X146850000Y-122587500I0J-62500D01*
G01*
X146850000Y-122712500D01*
G75*
G02*
X146787500Y-122775000I-62500J0D01*
G01*
X146162500Y-122775000D01*
G75*
G02*
X146100000Y-122712500I0J62500D01*
G01*
G37*
G36*
G01*
X145625000Y-122237500D02*
X145625000Y-121612500D01*
G75*
G02*
X145687500Y-121550000I62500J0D01*
G01*
X145812500Y-121550000D01*
G75*
G02*
X145875000Y-121612500I0J-62500D01*
G01*
X145875000Y-122237500D01*
G75*
G02*
X145812500Y-122300000I-62500J0D01*
G01*
X145687500Y-122300000D01*
G75*
G02*
X145625000Y-122237500I0J62500D01*
G01*
G37*
G36*
G01*
X145125000Y-122237500D02*
X145125000Y-121612500D01*
G75*
G02*
X145187500Y-121550000I62500J0D01*
G01*
X145312500Y-121550000D01*
G75*
G02*
X145375000Y-121612500I0J-62500D01*
G01*
X145375000Y-122237500D01*
G75*
G02*
X145312500Y-122300000I-62500J0D01*
G01*
X145187500Y-122300000D01*
G75*
G02*
X145125000Y-122237500I0J62500D01*
G01*
G37*
G36*
G01*
X144625000Y-122237500D02*
X144625000Y-121612500D01*
G75*
G02*
X144687500Y-121550000I62500J0D01*
G01*
X144812500Y-121550000D01*
G75*
G02*
X144875000Y-121612500I0J-62500D01*
G01*
X144875000Y-122237500D01*
G75*
G02*
X144812500Y-122300000I-62500J0D01*
G01*
X144687500Y-122300000D01*
G75*
G02*
X144625000Y-122237500I0J62500D01*
G01*
G37*
G36*
G01*
X144125000Y-122237500D02*
X144125000Y-121612500D01*
G75*
G02*
X144187500Y-121550000I62500J0D01*
G01*
X144312500Y-121550000D01*
G75*
G02*
X144375000Y-121612500I0J-62500D01*
G01*
X144375000Y-122237500D01*
G75*
G02*
X144312500Y-122300000I-62500J0D01*
G01*
X144187500Y-122300000D01*
G75*
G02*
X144125000Y-122237500I0J62500D01*
G01*
G37*
G36*
G01*
X143625000Y-122237500D02*
X143625000Y-121612500D01*
G75*
G02*
X143687500Y-121550000I62500J0D01*
G01*
X143812500Y-121550000D01*
G75*
G02*
X143875000Y-121612500I0J-62500D01*
G01*
X143875000Y-122237500D01*
G75*
G02*
X143812500Y-122300000I-62500J0D01*
G01*
X143687500Y-122300000D01*
G75*
G02*
X143625000Y-122237500I0J62500D01*
G01*
G37*
G36*
G01*
X143125000Y-122237500D02*
X143125000Y-121612500D01*
G75*
G02*
X143187500Y-121550000I62500J0D01*
G01*
X143312500Y-121550000D01*
G75*
G02*
X143375000Y-121612500I0J-62500D01*
G01*
X143375000Y-122237500D01*
G75*
G02*
X143312500Y-122300000I-62500J0D01*
G01*
X143187500Y-122300000D01*
G75*
G02*
X143125000Y-122237500I0J62500D01*
G01*
G37*
G36*
G01*
X142625000Y-122237500D02*
X142625000Y-121612500D01*
G75*
G02*
X142687500Y-121550000I62500J0D01*
G01*
X142812500Y-121550000D01*
G75*
G02*
X142875000Y-121612500I0J-62500D01*
G01*
X142875000Y-122237500D01*
G75*
G02*
X142812500Y-122300000I-62500J0D01*
G01*
X142687500Y-122300000D01*
G75*
G02*
X142625000Y-122237500I0J62500D01*
G01*
G37*
G36*
G01*
X142125000Y-122237500D02*
X142125000Y-121612500D01*
G75*
G02*
X142187500Y-121550000I62500J0D01*
G01*
X142312500Y-121550000D01*
G75*
G02*
X142375000Y-121612500I0J-62500D01*
G01*
X142375000Y-122237500D01*
G75*
G02*
X142312500Y-122300000I-62500J0D01*
G01*
X142187500Y-122300000D01*
G75*
G02*
X142125000Y-122237500I0J62500D01*
G01*
G37*
D24*
X144000000Y-124400000D03*
G36*
G01*
X136800000Y-122550000D02*
X136800000Y-123450000D01*
G75*
G02*
X136550000Y-123700000I-250000J0D01*
G01*
X135850000Y-123700000D01*
G75*
G02*
X135600000Y-123450000I0J250000D01*
G01*
X135600000Y-122550000D01*
G75*
G02*
X135850000Y-122300000I250000J0D01*
G01*
X136550000Y-122300000D01*
G75*
G02*
X136800000Y-122550000I0J-250000D01*
G01*
G37*
G36*
G01*
X134800000Y-122550000D02*
X134800000Y-123450000D01*
G75*
G02*
X134550000Y-123700000I-250000J0D01*
G01*
X133850000Y-123700000D01*
G75*
G02*
X133600000Y-123450000I0J250000D01*
G01*
X133600000Y-122550000D01*
G75*
G02*
X133850000Y-122300000I250000J0D01*
G01*
X134550000Y-122300000D01*
G75*
G02*
X134800000Y-122550000I0J-250000D01*
G01*
G37*
G36*
G01*
X150737500Y-125662500D02*
X149787500Y-125662500D01*
G75*
G02*
X149537500Y-125412500I0J250000D01*
G01*
X149537500Y-124737500D01*
G75*
G02*
X149787500Y-124487500I250000J0D01*
G01*
X150737500Y-124487500D01*
G75*
G02*
X150987500Y-124737500I0J-250000D01*
G01*
X150987500Y-125412500D01*
G75*
G02*
X150737500Y-125662500I-250000J0D01*
G01*
G37*
G36*
G01*
X150737500Y-123587500D02*
X149787500Y-123587500D01*
G75*
G02*
X149537500Y-123337500I0J250000D01*
G01*
X149537500Y-122662500D01*
G75*
G02*
X149787500Y-122412500I250000J0D01*
G01*
X150737500Y-122412500D01*
G75*
G02*
X150987500Y-122662500I0J-250000D01*
G01*
X150987500Y-123337500D01*
G75*
G02*
X150737500Y-123587500I-250000J0D01*
G01*
G37*
G36*
G01*
X153387500Y-96012500D02*
X154337500Y-96012500D01*
G75*
G02*
X154587500Y-96262500I0J-250000D01*
G01*
X154587500Y-96937500D01*
G75*
G02*
X154337500Y-97187500I-250000J0D01*
G01*
X153387500Y-97187500D01*
G75*
G02*
X153137500Y-96937500I0J250000D01*
G01*
X153137500Y-96262500D01*
G75*
G02*
X153387500Y-96012500I250000J0D01*
G01*
G37*
G36*
G01*
X153387500Y-98087500D02*
X154337500Y-98087500D01*
G75*
G02*
X154587500Y-98337500I0J-250000D01*
G01*
X154587500Y-99012500D01*
G75*
G02*
X154337500Y-99262500I-250000J0D01*
G01*
X153387500Y-99262500D01*
G75*
G02*
X153137500Y-99012500I0J250000D01*
G01*
X153137500Y-98337500D01*
G75*
G02*
X153387500Y-98087500I250000J0D01*
G01*
G37*
G36*
G01*
X137862500Y-75587500D02*
X137862500Y-76487500D01*
G75*
G02*
X137612500Y-76737500I-250000J0D01*
G01*
X136912500Y-76737500D01*
G75*
G02*
X136662500Y-76487500I0J250000D01*
G01*
X136662500Y-75587500D01*
G75*
G02*
X136912500Y-75337500I250000J0D01*
G01*
X137612500Y-75337500D01*
G75*
G02*
X137862500Y-75587500I0J-250000D01*
G01*
G37*
G36*
G01*
X135862500Y-75587500D02*
X135862500Y-76487500D01*
G75*
G02*
X135612500Y-76737500I-250000J0D01*
G01*
X134912500Y-76737500D01*
G75*
G02*
X134662500Y-76487500I0J250000D01*
G01*
X134662500Y-75587500D01*
G75*
G02*
X134912500Y-75337500I250000J0D01*
G01*
X135612500Y-75337500D01*
G75*
G02*
X135862500Y-75587500I0J-250000D01*
G01*
G37*
D13*
X140762500Y-73537500D03*
G36*
G01*
X138737500Y-74222500D02*
X138737500Y-72852500D01*
G75*
G02*
X138927500Y-72662500I190000J0D01*
G01*
X139497500Y-72662500D01*
G75*
G02*
X139687500Y-72852500I0J-190000D01*
G01*
X139687500Y-74222500D01*
G75*
G02*
X139497500Y-74412500I-190000J0D01*
G01*
X138927500Y-74412500D01*
G75*
G02*
X138737500Y-74222500I0J190000D01*
G01*
G37*
G36*
G01*
X141837500Y-74222500D02*
X141837500Y-72852500D01*
G75*
G02*
X142027500Y-72662500I190000J0D01*
G01*
X142597500Y-72662500D01*
G75*
G02*
X142787500Y-72852500I0J-190000D01*
G01*
X142787500Y-74222500D01*
G75*
G02*
X142597500Y-74412500I-190000J0D01*
G01*
X142027500Y-74412500D01*
G75*
G02*
X141837500Y-74222500I0J190000D01*
G01*
G37*
G36*
G01*
X174262500Y-120887500D02*
X174262500Y-121787500D01*
G75*
G02*
X174012500Y-122037500I-250000J0D01*
G01*
X173312500Y-122037500D01*
G75*
G02*
X173062500Y-121787500I0J250000D01*
G01*
X173062500Y-120887500D01*
G75*
G02*
X173312500Y-120637500I250000J0D01*
G01*
X174012500Y-120637500D01*
G75*
G02*
X174262500Y-120887500I0J-250000D01*
G01*
G37*
G36*
G01*
X172262500Y-120887500D02*
X172262500Y-121787500D01*
G75*
G02*
X172012500Y-122037500I-250000J0D01*
G01*
X171312500Y-122037500D01*
G75*
G02*
X171062500Y-121787500I0J250000D01*
G01*
X171062500Y-120887500D01*
G75*
G02*
X171312500Y-120637500I250000J0D01*
G01*
X172012500Y-120637500D01*
G75*
G02*
X172262500Y-120887500I0J-250000D01*
G01*
G37*
G36*
G01*
X129570000Y-127905000D02*
X132670000Y-127905000D01*
G75*
G02*
X132920000Y-128155000I0J-250000D01*
G01*
X132920000Y-129455000D01*
G75*
G02*
X132670000Y-129705000I-250000J0D01*
G01*
X129570000Y-129705000D01*
G75*
G02*
X129320000Y-129455000I0J250000D01*
G01*
X129320000Y-128155000D01*
G75*
G02*
X129570000Y-127905000I250000J0D01*
G01*
G37*
D18*
X131120000Y-132305000D03*
X131120000Y-135805000D03*
X131120000Y-139305000D03*
G36*
G01*
X153362500Y-75587500D02*
X153362500Y-76487500D01*
G75*
G02*
X153112500Y-76737500I-250000J0D01*
G01*
X152412500Y-76737500D01*
G75*
G02*
X152162500Y-76487500I0J250000D01*
G01*
X152162500Y-75587500D01*
G75*
G02*
X152412500Y-75337500I250000J0D01*
G01*
X153112500Y-75337500D01*
G75*
G02*
X153362500Y-75587500I0J-250000D01*
G01*
G37*
G36*
G01*
X151362500Y-75587500D02*
X151362500Y-76487500D01*
G75*
G02*
X151112500Y-76737500I-250000J0D01*
G01*
X150412500Y-76737500D01*
G75*
G02*
X150162500Y-76487500I0J250000D01*
G01*
X150162500Y-75587500D01*
G75*
G02*
X150412500Y-75337500I250000J0D01*
G01*
X151112500Y-75337500D01*
G75*
G02*
X151362500Y-75587500I0J-250000D01*
G01*
G37*
D13*
X140762500Y-108537500D03*
G36*
G01*
X138737500Y-109222500D02*
X138737500Y-107852500D01*
G75*
G02*
X138927500Y-107662500I190000J0D01*
G01*
X139497500Y-107662500D01*
G75*
G02*
X139687500Y-107852500I0J-190000D01*
G01*
X139687500Y-109222500D01*
G75*
G02*
X139497500Y-109412500I-190000J0D01*
G01*
X138927500Y-109412500D01*
G75*
G02*
X138737500Y-109222500I0J190000D01*
G01*
G37*
G36*
G01*
X141837500Y-109222500D02*
X141837500Y-107852500D01*
G75*
G02*
X142027500Y-107662500I190000J0D01*
G01*
X142597500Y-107662500D01*
G75*
G02*
X142787500Y-107852500I0J-190000D01*
G01*
X142787500Y-109222500D01*
G75*
G02*
X142597500Y-109412500I-190000J0D01*
G01*
X142027500Y-109412500D01*
G75*
G02*
X141837500Y-109222500I0J190000D01*
G01*
G37*
G36*
G01*
X141575000Y-115675000D02*
X141575000Y-114725000D01*
G75*
G02*
X141825000Y-114475000I250000J0D01*
G01*
X142500000Y-114475000D01*
G75*
G02*
X142750000Y-114725000I0J-250000D01*
G01*
X142750000Y-115675000D01*
G75*
G02*
X142500000Y-115925000I-250000J0D01*
G01*
X141825000Y-115925000D01*
G75*
G02*
X141575000Y-115675000I0J250000D01*
G01*
G37*
G36*
G01*
X143650000Y-115675000D02*
X143650000Y-114725000D01*
G75*
G02*
X143900000Y-114475000I250000J0D01*
G01*
X144575000Y-114475000D01*
G75*
G02*
X144825000Y-114725000I0J-250000D01*
G01*
X144825000Y-115675000D01*
G75*
G02*
X144575000Y-115925000I-250000J0D01*
G01*
X143900000Y-115925000D01*
G75*
G02*
X143650000Y-115675000I0J250000D01*
G01*
G37*
G36*
G01*
X147512500Y-150125000D02*
X146562500Y-150125000D01*
G75*
G02*
X146312500Y-149875000I0J250000D01*
G01*
X146312500Y-149200000D01*
G75*
G02*
X146562500Y-148950000I250000J0D01*
G01*
X147512500Y-148950000D01*
G75*
G02*
X147762500Y-149200000I0J-250000D01*
G01*
X147762500Y-149875000D01*
G75*
G02*
X147512500Y-150125000I-250000J0D01*
G01*
G37*
G36*
G01*
X147512500Y-148050000D02*
X146562500Y-148050000D01*
G75*
G02*
X146312500Y-147800000I0J250000D01*
G01*
X146312500Y-147125000D01*
G75*
G02*
X146562500Y-146875000I250000J0D01*
G01*
X147512500Y-146875000D01*
G75*
G02*
X147762500Y-147125000I0J-250000D01*
G01*
X147762500Y-147800000D01*
G75*
G02*
X147512500Y-148050000I-250000J0D01*
G01*
G37*
G36*
G01*
X155812500Y-122437500D02*
X156712500Y-122437500D01*
G75*
G02*
X156962500Y-122687500I0J-250000D01*
G01*
X156962500Y-123387500D01*
G75*
G02*
X156712500Y-123637500I-250000J0D01*
G01*
X155812500Y-123637500D01*
G75*
G02*
X155562500Y-123387500I0J250000D01*
G01*
X155562500Y-122687500D01*
G75*
G02*
X155812500Y-122437500I250000J0D01*
G01*
G37*
G36*
G01*
X155812500Y-124437500D02*
X156712500Y-124437500D01*
G75*
G02*
X156962500Y-124687500I0J-250000D01*
G01*
X156962500Y-125387500D01*
G75*
G02*
X156712500Y-125637500I-250000J0D01*
G01*
X155812500Y-125637500D01*
G75*
G02*
X155562500Y-125387500I0J250000D01*
G01*
X155562500Y-124687500D01*
G75*
G02*
X155812500Y-124437500I250000J0D01*
G01*
G37*
D25*
X159372500Y-135017500D03*
X159372500Y-140057500D03*
X161912500Y-135017500D03*
X161912500Y-140057500D03*
X164452500Y-135017500D03*
X164452500Y-140057500D03*
X166992500Y-135017500D03*
X166992500Y-140057500D03*
X169532500Y-135017500D03*
X169532500Y-140057500D03*
X172072500Y-135017500D03*
X172072500Y-140057500D03*
X174612500Y-135017500D03*
X174612500Y-140057500D03*
X177152500Y-135017500D03*
X177152500Y-140057500D03*
D12*
X131262500Y-149537500D03*
G36*
G01*
X174975000Y-150675000D02*
X174975000Y-149725000D01*
G75*
G02*
X175225000Y-149475000I250000J0D01*
G01*
X175900000Y-149475000D01*
G75*
G02*
X176150000Y-149725000I0J-250000D01*
G01*
X176150000Y-150675000D01*
G75*
G02*
X175900000Y-150925000I-250000J0D01*
G01*
X175225000Y-150925000D01*
G75*
G02*
X174975000Y-150675000I0J250000D01*
G01*
G37*
G36*
G01*
X177050000Y-150675000D02*
X177050000Y-149725000D01*
G75*
G02*
X177300000Y-149475000I250000J0D01*
G01*
X177975000Y-149475000D01*
G75*
G02*
X178225000Y-149725000I0J-250000D01*
G01*
X178225000Y-150675000D01*
G75*
G02*
X177975000Y-150925000I-250000J0D01*
G01*
X177300000Y-150925000D01*
G75*
G02*
X177050000Y-150675000I0J250000D01*
G01*
G37*
G36*
G01*
X143362500Y-75587500D02*
X143362500Y-76487500D01*
G75*
G02*
X143112500Y-76737500I-250000J0D01*
G01*
X142412500Y-76737500D01*
G75*
G02*
X142162500Y-76487500I0J250000D01*
G01*
X142162500Y-75587500D01*
G75*
G02*
X142412500Y-75337500I250000J0D01*
G01*
X143112500Y-75337500D01*
G75*
G02*
X143362500Y-75587500I0J-250000D01*
G01*
G37*
G36*
G01*
X141362500Y-75587500D02*
X141362500Y-76487500D01*
G75*
G02*
X141112500Y-76737500I-250000J0D01*
G01*
X140412500Y-76737500D01*
G75*
G02*
X140162500Y-76487500I0J250000D01*
G01*
X140162500Y-75587500D01*
G75*
G02*
X140412500Y-75337500I250000J0D01*
G01*
X141112500Y-75337500D01*
G75*
G02*
X141362500Y-75587500I0J-250000D01*
G01*
G37*
G36*
G01*
X166200000Y-120950000D02*
X166200000Y-121850000D01*
G75*
G02*
X165950000Y-122100000I-250000J0D01*
G01*
X165250000Y-122100000D01*
G75*
G02*
X165000000Y-121850000I0J250000D01*
G01*
X165000000Y-120950000D01*
G75*
G02*
X165250000Y-120700000I250000J0D01*
G01*
X165950000Y-120700000D01*
G75*
G02*
X166200000Y-120950000I0J-250000D01*
G01*
G37*
G36*
G01*
X164200000Y-120950000D02*
X164200000Y-121850000D01*
G75*
G02*
X163950000Y-122100000I-250000J0D01*
G01*
X163250000Y-122100000D01*
G75*
G02*
X163000000Y-121850000I0J250000D01*
G01*
X163000000Y-120950000D01*
G75*
G02*
X163250000Y-120700000I250000J0D01*
G01*
X163950000Y-120700000D01*
G75*
G02*
X164200000Y-120950000I0J-250000D01*
G01*
G37*
G36*
G01*
X193475000Y-143350001D02*
X193475000Y-145049999D01*
G75*
G02*
X193224999Y-145300000I-250001J0D01*
G01*
X192300001Y-145300000D01*
G75*
G02*
X192050000Y-145049999I0J250001D01*
G01*
X192050000Y-143350001D01*
G75*
G02*
X192300001Y-143100000I250001J0D01*
G01*
X193224999Y-143100000D01*
G75*
G02*
X193475000Y-143350001I0J-250001D01*
G01*
G37*
G36*
G01*
X191150000Y-143350001D02*
X191150000Y-145049999D01*
G75*
G02*
X190899999Y-145300000I-250001J0D01*
G01*
X189975001Y-145300000D01*
G75*
G02*
X189725000Y-145049999I0J250001D01*
G01*
X189725000Y-143350001D01*
G75*
G02*
X189975001Y-143100000I250001J0D01*
G01*
X190899999Y-143100000D01*
G75*
G02*
X191150000Y-143350001I0J-250001D01*
G01*
G37*
D26*
X188400000Y-139075000D03*
D27*
X188400000Y-141615000D03*
X188400000Y-144155000D03*
D26*
X175600000Y-143075000D03*
D27*
X175600000Y-145615000D03*
X175600000Y-148155000D03*
D26*
X145037500Y-144460000D03*
D27*
X145037500Y-147000000D03*
X145037500Y-149540000D03*
D26*
X195200000Y-132860000D03*
D27*
X195200000Y-135400000D03*
X195200000Y-137940000D03*
M02*
